<svg width="24" height="24" viewBox="0 0 24 24" fill="none" xmlns="http://www.w3.org/2000/svg">
<path d="M10.2576 2.46728C9.96335 2.17571 9.48848 2.17786 9.19691 2.47207C8.90534 2.76628 8.90748 3.24114 9.20169 3.53272L10.2576 2.46728ZM13.6054 3.65901L14.1333 4.19172V4.19172L13.6054 3.65901ZM14.7983 3.53271C15.0925 3.24114 15.0947 2.76628 14.8031 2.47207C14.5115 2.17786 14.0367 2.17571 13.7424 2.46729L14.7983 3.53271ZM9.20169 20.4673C8.90748 20.7589 8.90534 21.2337 9.19691 21.5279C9.48848 21.8221 9.96335 21.8243 10.2576 21.5327L9.20169 20.4673ZM13.7424 21.5327C14.0367 21.8243 14.5115 21.8221 14.8031 21.5279C15.0947 21.2337 15.0925 20.7589 14.7983 20.4673L13.7424 21.5327ZM12.75 5.25V4.5H11.25V5.25H12.75ZM11.25 18.75V19.5H12.75V18.75H11.25ZM2.80752 8.72368C2.40718 8.82999 2.16882 9.24071 2.27513 9.64105C2.38144 10.0414 2.79215 10.2797 3.19249 10.1734L2.80752 8.72368ZM3.90838 9.20735L4.10087 9.93223H4.10087L3.90838 9.20735ZM5.51378 6.45167L4.78978 6.64742V6.64742L5.51378 6.45167ZM5.99438 5.3557C5.88627 4.95584 5.47448 4.71933 5.07463 4.82744C4.67477 4.93556 4.43827 5.34734 4.54638 5.7472L5.99438 5.3557ZM18.0056 18.6443C18.1137 19.0442 18.5255 19.2807 18.9254 19.1726C19.3252 19.0645 19.5617 18.6527 19.4536 18.2528L18.0056 18.6443ZM18.4862 17.5483L19.2102 17.3526V17.3526L18.4862 17.5483ZM20.0916 14.7927L20.2841 15.5175L20.0916 14.7927ZM21.1925 15.2763C21.5928 15.17 21.8312 14.7593 21.7249 14.359C21.6186 13.9586 21.2079 13.7203 20.8075 13.8266L21.1925 15.2763ZM6.47387 7.97403L5.8229 7.60156L5.07796 8.90351L5.72894 9.27597L6.47387 7.97403ZM17.5262 16.026L18.1771 16.3984L18.9221 15.0965L18.2711 14.724L17.5262 16.026ZM19.4536 5.74719C19.5617 5.34733 19.3252 4.93555 18.9254 4.82743C18.5255 4.71932 18.1137 4.95583 18.0056 5.35568L19.4536 5.74719ZM18.4862 6.45166L19.2102 6.64741V6.64741L18.4862 6.45166ZM20.0916 9.20734L20.2841 8.48246L20.0916 9.20734ZM20.8075 10.1734C21.2078 10.2797 21.6186 10.0414 21.7249 9.64104C21.8312 9.2407 21.5928 8.82998 21.1925 8.72367L20.8075 10.1734ZM3.19249 13.8266C2.79215 13.7203 2.38143 13.9586 2.27512 14.3589C2.16881 14.7593 2.40717 15.17 2.80751 15.2763L3.19249 13.8266ZM3.90838 14.7927L4.10086 14.0678L4.10086 14.0678L3.90838 14.7927ZM5.51377 17.5483L6.23778 17.7441L5.51377 17.5483ZM4.54637 18.2528C4.43826 18.6527 4.67477 19.0644 5.07462 19.1726C5.47448 19.2807 5.88627 19.0442 5.99438 18.6443L4.54637 18.2528ZM18.2711 9.27597L18.9221 8.90351L18.1771 7.60156L17.5261 7.97403L18.2711 9.27597ZM5.72893 14.724L5.07796 15.0965L5.82289 16.3984L6.47386 16.026L5.72893 14.724ZM9.20169 3.53272L9.86667 4.19173L10.9225 3.1263L10.2576 2.46728L9.20169 3.53272ZM14.1333 4.19172L14.7983 3.53271L13.7424 2.46729L13.0775 3.12629L14.1333 4.19172ZM9.86667 4.19173C11.0456 5.36012 12.9544 5.36012 14.1333 4.19172L13.0775 3.12629C12.4832 3.71526 11.5168 3.71526 10.9225 3.1263L9.86667 4.19173ZM10.2576 21.5327L10.9225 20.8737L9.86667 19.8083L9.20169 20.4673L10.2576 21.5327ZM13.0775 20.8737L13.7424 21.5327L14.7983 20.4673L14.1333 19.8083L13.0775 20.8737ZM10.9225 20.8737C11.5168 20.2847 12.4832 20.2847 13.0775 20.8737L14.1333 19.8083C12.9544 18.6399 11.0456 18.6399 9.86667 19.8083L10.9225 20.8737ZM11.25 5.25V18.75H12.75V5.25H11.25ZM3.19249 10.1734L4.10087 9.93223L3.7159 8.48247L2.80752 8.72368L3.19249 10.1734ZM6.23778 6.25592L5.99438 5.3557L4.54638 5.7472L4.78978 6.64742L6.23778 6.25592ZM4.10087 9.93223C5.70827 9.50539 6.67222 7.8627 6.23778 6.25592L4.78978 6.64742C5.0044 7.44124 4.53083 8.26607 3.7159 8.48247L4.10087 9.93223ZM19.4536 18.2528L19.2102 17.3526L17.7622 17.7441L18.0056 18.6443L19.4536 18.2528ZM20.2841 15.5175L21.1925 15.2763L20.8075 13.8266L19.8991 14.0678L20.2841 15.5175ZM19.2102 17.3526C18.9956 16.5588 19.4692 15.7339 20.2841 15.5175L19.8991 14.0678C18.2917 14.4946 17.3278 16.1373 17.7622 17.7441L19.2102 17.3526ZM5.72894 9.27597L17.5262 16.026L18.2711 14.724L6.47387 7.97403L5.72894 9.27597ZM18.0056 5.35568L17.7622 6.25591L19.2102 6.64741L19.4536 5.74719L18.0056 5.35568ZM19.8991 9.93222L20.8075 10.1734L21.1925 8.72367L20.2841 8.48246L19.8991 9.93222ZM17.7622 6.25591C17.3278 7.86269 18.2917 9.50538 19.8991 9.93222L20.2841 8.48246C19.4692 8.26606 18.9956 7.44123 19.2102 6.64741L17.7622 6.25591ZM2.80751 15.2763L3.71589 15.5175L4.10086 14.0678L3.19249 13.8266L2.80751 15.2763ZM4.78977 17.3526L4.54637 18.2528L5.99438 18.6443L6.23778 17.7441L4.78977 17.3526ZM3.71589 15.5175C4.53082 15.7339 5.0044 16.5588 4.78977 17.3526L6.23778 17.7441C6.67221 16.1373 5.70827 14.4946 4.10086 14.0678L3.71589 15.5175ZM17.5261 7.97403L5.72893 14.724L6.47386 16.026L18.2711 9.27597L17.5261 7.97403Z" fill="#062F81"/>
</svg>
