<svg width="24" height="24" viewBox="0 0 24 24" fill="none" xmlns="http://www.w3.org/2000/svg">
<path d="M12 11L11.408 11.4605L12 12.2216L12.592 11.4605L12 11ZM8.5 6.5V5.75H6.96652L7.90799 6.96046L8.5 6.5ZM15.5 6.5L16.092 6.96046L17.0335 5.75H15.5V6.5ZM19 4L19.592 4.46046C19.7679 4.23435 19.7996 3.92781 19.6737 3.67049C19.5479 3.41316 19.2865 3.25 19 3.25V4ZM5 4V3.25C4.71355 3.25 4.45212 3.41316 4.32626 3.67049C4.20041 3.92781 4.23212 4.23435 4.40799 4.46046L5 4ZM8.0625 19.25C7.64829 19.25 7.3125 19.5858 7.3125 20C7.3125 20.4142 7.64829 20.75 8.0625 20.75V19.25ZM15.9375 20.75C16.3517 20.75 16.6875 20.4142 16.6875 20C16.6875 19.5858 16.3517 19.25 15.9375 19.25V20.75ZM12 9.5L11.5119 10.0694C11.7928 10.3102 12.2072 10.3102 12.4881 10.0694L12 9.5ZM12 8L11.7046 8.68936C11.8932 8.77021 12.1068 8.77021 12.2954 8.68936L12 8ZM12.592 10.5395L9.09201 6.03954L7.90799 6.96046L11.408 11.4605L12.592 10.5395ZM14.908 6.03954L11.408 10.5395L12.592 11.4605L16.092 6.96046L14.908 6.03954ZM12.75 20V13H11.25V20H12.75ZM12.592 13.4605L19.592 4.46046L18.408 3.53954L11.408 12.5395L12.592 13.4605ZM19 3.25H5V4.75H19V3.25ZM4.40799 4.46046L11.408 13.4605L12.592 12.5395L5.59201 3.53954L4.40799 4.46046ZM8.0625 20.75H12V19.25H8.0625V20.75ZM15.9375 19.25H12V20.75H15.9375V19.25ZM8.5 7.25H12V5.75H8.5V7.25ZM12 7.25H15.5V5.75H12V7.25ZM8.01191 7.06944L11.5119 10.0694L12.4881 8.93056L8.98809 5.93056L8.01191 7.06944ZM12.4881 10.0694L15.9881 7.06944L15.0119 5.93056L11.5119 8.93056L12.4881 10.0694ZM8.20456 7.18936L11.7046 8.68936L12.2954 7.31064L8.79544 5.81064L8.20456 7.18936ZM12.2954 8.68936L15.7954 7.18936L15.2046 5.81064L11.7046 7.31064L12.2954 8.68936Z" fill="#062F81"/>
</svg>
