<svg width="24" height="24" viewBox="0 0 24 24" fill="none" xmlns="http://www.w3.org/2000/svg">
<g opacity="0.96">
<path fill-rule="evenodd" clip-rule="evenodd" d="M14.6953 3.44535C15.5729 3.41074 16.1589 3.80137 16.4532 4.61722C16.4844 9.52349 16.4844 14.4297 16.4532 19.336C16.2096 20.0789 15.694 20.4695 14.9063 20.5079C14.3232 20.4505 13.8545 20.1849 13.5 19.711C12.3666 18.1881 10.937 17.0396 9.21097 16.2657C8.17785 15.8238 7.09972 15.5816 5.9766 15.5391C5.9766 13.1641 5.9766 10.7891 5.9766 8.4141C8.22153 8.26766 10.1903 7.46301 11.8828 6.00004C12.5719 5.29541 13.2438 4.57666 13.8985 3.84379C14.1305 3.63405 14.396 3.50123 14.6953 3.44535Z" fill="#062F81"/>
<path fill-rule="evenodd" clip-rule="evenodd" d="M3.07035 8.46097C3.71097 8.46097 4.3516 8.46097 4.99222 8.46097C4.99222 10.8047 4.99222 13.1485 4.99222 15.4922C4.35141 15.5001 3.71078 15.4922 3.07035 15.4688C2.00003 15.5 0.964632 14.5005 0.98441 13.3828C1.00003 12.5 1.00004 11.5 1.00004 10.5C1.00004 9.36743 2.00003 8.50004 3.07035 8.46097Z" fill="#062F81"/>
<path fill-rule="evenodd" clip-rule="evenodd" d="M2.50004 16.4999L5.50004 16.5005C5.50004 16.5005 5.50004 18.0936 5.50004 19C5.50004 20 4.50003 20.5 4.00003 20.5C3.50003 20.5 2.50003 20 2.50004 19C2.50004 17.9412 2.50004 16.4999 2.50004 16.4999Z" fill="#062F81"/>
<path fill-rule="evenodd" clip-rule="evenodd" d="M19.0001 12C18.9961 11.4605 19.5 11 20.0001 11C20.5 11 21.461 11 22 11C22.5 11 23 11.5 23 12C23 12.5 22.5 13 22 13C21.5 13 20.5 13 20.0001 13C19.5001 13 19.004 12.5395 19.0001 12Z" fill="#062F81"/>
<path fill-rule="evenodd" clip-rule="evenodd" d="M18.4457 8.27192C18.1381 7.82873 18.2944 7.16418 18.7073 6.88207C19.12 6.60001 19.9134 6.05788 20.3585 5.75376C20.7714 5.47168 21.4663 5.60242 21.7484 6.01525C22.0304 6.42808 21.8997 7.123 21.4869 7.40508C21.074 7.68717 20.2484 8.25134 19.8356 8.53339C19.4228 8.81547 18.7534 8.71511 18.4457 8.27192Z" fill="#062F81"/>
<path fill-rule="evenodd" clip-rule="evenodd" d="M18.3692 16.1402C18.5975 15.6514 19.2505 15.4523 19.702 15.6673C20.1534 15.8822 21.021 16.2953 21.5077 16.5271C21.9591 16.742 22.1956 17.4084 21.9806 17.8599C21.7657 18.3113 21.0993 18.5478 20.6479 18.3328C20.1964 18.1179 19.2936 17.6879 18.8422 17.473C18.3907 17.258 18.1409 16.629 18.3692 16.1402Z" fill="#062F81"/>
</g>
</svg>
