<svg width="24" height="24" viewBox="0 0 24 24" fill="none" xmlns="http://www.w3.org/2000/svg">
<path d="M5.95207 3.99191C5.63359 4.101 5.39363 4.24935 5.18421 4.47188C5.0097 4.64642 2.6757 8.63768 2.50555 8.99984C2.28304 9.47544 1.95319 10.1533 2.00555 10.9998C2.09832 12.4998 2.15204 15.0859 2.19567 16.1636C2.21749 16.7265 2.2393 18.005 2.2393 18.9998L2.42254 21.9777L2.5447 22.2395C2.77593 22.7238 3.4602 22.9998 4.00555 22.9998C4.5509 22.9998 5.00555 22.4998 5.04024 21.9777L5.03588 19.3815C5.03588 17.4998 5.00555 15.9998 5.00555 13.9998C5.00555 12.4998 4.94883 11.1176 5.00555 10.9998C5.11026 10.7904 6.50555 7.99984 6.50555 7.99984C6.50555 7.99984 7.00555 6.99984 7.50555 6.99984C8.00555 6.99984 8.01955 7.01808 9.00555 7.99984C9.3064 8.30072 9.73551 8.80838 10 8.99984C10.5506 9.39842 11 9.49984 11.5 8.99984C12 8.49984 11.4142 7.91405 11 7.49984C10.5 6.99984 10.5 6.99984 10 6.49984C8.85393 5.35377 8.5 4.99984 7.91535 4.41516C7.5 3.99984 7.0995 3.9221 6.63267 3.90464C6.30982 3.89155 6.18766 3.90464 5.95207 3.99191Z" fill="#062F81"/>
<path d="M14.8357 9.20285C14.4692 9.2683 14.3863 9.37302 13.9719 10.3155L13.6228 11.1009L12.8681 11.114C12.4492 11.1227 12.0479 11.114 11.9737 11.1009C11.8603 11.0835 11.7381 10.9569 11.2975 10.4202C11.0051 10.0581 10.7172 9.73081 10.6605 9.69591C10.3027 9.46029 9.77919 9.59991 9.5785 9.99262C9.48688 10.1628 9.4956 10.5511 9.58722 10.6864C9.62649 10.7475 10.041 11.258 10.5034 11.8296C11.0444 12.4928 11.4226 12.9607 11.5055 13C11.5055 13 11.0055 13 9.89262 12.999L8.00554 13C7.50554 13 7.00554 13.4632 7.00554 14C7.00554 14.5 7.50554 15 8.00554 15C8.50554 15 9.00554 14.9993 15.0055 14.9996C19.5167 14.9996 20.5055 14.9997 21.0055 14.9995C21.5055 14.9995 22.0055 14.552 22.0055 13.9997C22.0056 13.4475 21.5055 12.9997 21.0055 12.9997C21.0055 12.9997 20.839 12.999 19.5039 12.9946C17.9089 12.9894 17.3705 13.0066 17.4752 12.9717C17.6803 12.9062 17.9857 12.6226 18.0991 12.387C18.2213 12.1339 18.23 11.7718 18.1253 11.4925C17.977 11.1129 17.4709 10.7595 17.0695 10.7595C16.559 10.7595 15.9613 11.2874 15.957 11.7412C15.957 11.859 15.9482 11.8547 15.8304 11.6027C15.7083 11.3976 15.5076 11.2274 15.3025 11.1576C15.2851 11.1489 15.368 10.9177 15.4901 10.6428C15.6559 10.2588 15.7083 10.0886 15.7083 9.91844C15.7083 9.46029 15.2938 9.12431 14.8357 9.20285ZM16.3322 12.7622C16.4369 12.8539 16.5852 12.9499 16.6637 12.9717C16.7772 13.0109 16.6637 12.9902 16.0486 12.9946L15.2502 12.999L15.4247 12.9161C15.6734 12.807 15.8479 12.5932 15.9482 12.2834C15.957 12.243 15.9744 12.2561 16.0486 12.4088C16.1009 12.5092 16.2275 12.6662 16.3322 12.7622Z" fill="#062F81"/>
<path d="M8.00555 19C8.00548 20.9946 8.00548 20.9946 8.00548 21.9948C8.00548 22.5473 8.45298 22.9967 9.00548 22.9956C9.50548 22.9946 20.0055 23 20.0055 23C20.5055 23 21.0055 22.5 21.0055 22C21.0055 21.8168 21.0055 21.2458 21.0055 19.0388V16L8.00555 15.9951V19Z" fill="#062F81"/>
<path d="M10.3 2.09998C10.3 2.9284 9.62843 3.59998 8.8 3.59998C7.97157 3.59998 7.3 2.9284 7.3 2.09998C7.3 1.27155 7.97157 0.599976 8.8 0.599976C9.62843 0.599976 10.3 1.27155 10.3 2.09998Z" fill="#062F81"/>
</svg>
