<svg width="24" height="24" viewBox="0 0 24 24" fill="none" xmlns="http://www.w3.org/2000/svg">
<path fill-rule="evenodd" clip-rule="evenodd" d="M7.07895 5.64789C7.07895 3.08096 9.02272 1 11.4211 1H12.5789C14.9773 1 16.9211 3.08096 16.9211 5.64789H20.6842C21.9631 5.64789 23 6.75781 23 8.12676V11.3889H13.7368V10.0874C13.7368 9.95065 13.6334 9.83959 13.505 9.83959H10.495C10.4401 9.83959 10.3898 9.85987 10.3502 9.89406C10.2971 9.93945 10.2632 10.0093 10.2632 10.0874V11.3889H1V8.12676C1 6.75781 2.0369 5.64789 3.31579 5.64789H7.07895ZM8.81579 5.64789C8.81579 4.10767 9.98216 2.5 11.4211 2.5H12.5789C14.0178 2.5 15.1842 4.10767 15.1842 5.64789H8.81579Z" fill="#062F81"/>
<path d="M1 20.5211V12.6111H10.2632V13.1688C10.2632 13.7165 10.6781 14.1604 11.1892 14.1604H12.8108C13.3219 14.1604 13.7368 13.7165 13.7368 13.1688V12.6111H23V20.5211C23 21.8901 21.9631 23 20.6842 23H3.31579C2.0369 23 1 21.8901 1 20.5211Z" fill="#062F81"/>
</svg>
