<svg width="24" height="24" viewBox="0 0 24 24" fill="none" xmlns="http://www.w3.org/2000/svg">
<g clip-path="url(#clip0_2496_28348)">
<path fill-rule="evenodd" clip-rule="evenodd" d="M5.74219 -0.0234375C6.89845 -0.0234375 8.05467 -0.0234375 9.21094 -0.0234375C9.3375 0.0490322 9.42342 0.158407 9.46875 0.304688C9.50002 1.25781 9.50002 2.21094 9.46875 3.16406C9.37238 3.37803 9.20831 3.4874 8.97656 3.49219C8.92121 5.47209 9.22589 7.39397 9.89063 9.25781C10.3853 10.4348 10.8541 11.6223 11.2969 12.8203C11.6418 13.9365 11.8605 15.0771 11.9531 16.2422C11.9844 18.7266 11.9844 21.2109 11.9531 23.6953C11.8894 23.8136 11.8035 23.9073 11.6953 23.9766C8.88281 23.9766 6.07031 23.9766 3.25781 23.9766C3.14967 23.9073 3.06374 23.8136 3 23.6953C2.96875 21.2109 2.96875 18.7266 3 16.2422C3.09262 15.0771 3.31136 13.9365 3.65625 12.8203C4.07266 11.6648 4.52578 10.5242 5.01563 9.39844C5.71322 7.49189 6.03352 5.52314 5.97656 3.49219C5.74481 3.4874 5.58075 3.37803 5.48438 3.16406C5.45311 2.21094 5.45311 1.25781 5.48438 0.304688C5.5297 0.158407 5.61563 0.0490322 5.74219 -0.0234375ZM7.28906 9.49219C7.97869 9.50212 8.46305 9.82242 8.74219 10.4531C8.91614 10.4613 9.08803 10.4848 9.25781 10.5234C9.52819 11.1551 9.79383 11.7879 10.0547 12.4219C9.61636 12.4298 9.17888 12.4532 8.74219 12.4922C8.31656 13.3854 7.66031 13.6276 6.77344 13.2188C6.52317 13.0234 6.33567 12.7812 6.21094 12.4922C5.77425 12.4532 5.33677 12.4298 4.89844 12.4219C5.1593 11.7879 5.42494 11.1551 5.69531 10.5234C5.8651 10.4848 6.03699 10.4613 6.21094 10.4531C6.42145 9.9585 6.78085 9.6382 7.28906 9.49219ZM5.36719 18.4922C6.77353 18.4844 8.17978 18.4922 9.58594 18.5156C9.76561 18.5703 9.8828 18.6875 9.9375 18.8672C9.98231 19.6515 9.96671 20.4328 9.89063 21.2109C9.8183 21.299 9.73238 21.3693 9.63281 21.4219C8.16005 21.468 6.69131 21.4524 5.22656 21.375C5.11828 21.2983 5.04797 21.1967 5.01563 21.0703C4.98436 20.3359 4.98436 19.6016 5.01563 18.8672C5.07905 18.6867 5.19624 18.5617 5.36719 18.4922Z" fill="#062F81"/>
<path fill-rule="evenodd" clip-rule="evenodd" d="M20.6953 23.9766C18.8828 23.9766 17.0703 23.9766 15.2578 23.9766C14.993 23.7972 14.907 23.5472 15 23.2266C15.0703 23.1562 15.1406 23.0859 15.2109 23.0156C15.9576 22.9475 16.7076 22.924 17.4609 22.9453C17.4688 21.3671 17.4609 19.789 17.4375 18.2109C16.4897 17.4076 15.7709 16.4389 15.2813 15.3047C15.1434 14.9408 15.0496 14.5658 15 14.1797C14.9687 11.5391 14.9687 8.89842 15 6.25781C15.0547 6.14062 15.1406 6.0547 15.2578 6C17.0703 5.96873 18.8828 5.96873 20.6953 6C20.8125 6.0547 20.8984 6.14062 20.9531 6.25781C20.9844 8.89842 20.9844 11.5391 20.9531 14.1797C20.7571 15.3371 20.2727 16.3528 19.5 17.2266C19.1719 17.5547 18.8438 17.8828 18.5156 18.2109C18.4922 19.789 18.4844 21.3671 18.4922 22.9453C19.2455 22.924 19.9955 22.9475 20.7422 23.0156C20.988 23.2274 21.0428 23.4852 20.9063 23.7891C20.8408 23.8627 20.7705 23.9252 20.6953 23.9766ZM16.0078 7.00781C17.3203 7.00781 18.6875 6.99999 20 6.99999C20 7.48435 20 8.51563 20 8.99999C18.6875 8.99999 17.3125 8.99999 16 8.99999C16 8.51563 16.0078 7.49217 16.0078 7.00781Z" fill="#062F81"/>
<path fill-rule="evenodd" clip-rule="evenodd" d="M7.33594 10.4766C7.43095 10.469 7.5247 10.4768 7.61719 10.5C7.89084 10.7588 8.01581 11.0791 7.99219 11.4609C8.01005 11.853 7.88503 12.1889 7.61719 12.4687C7.28719 12.4837 7.09186 12.3196 7.03125 11.9766C6.86189 11.4135 6.96342 10.9135 7.33594 10.4766Z" fill="#062F81"/>
</g>
<defs>
<clipPath id="clip0_2496_28348">
<rect width="24" height="24" fill="white"/>
</clipPath>
</defs>
</svg>
