<svg width="24" height="24" viewBox="0 0 24 24" fill="none" xmlns="http://www.w3.org/2000/svg">
<path fill-rule="evenodd" clip-rule="evenodd" d="M2.41406 0C2.41406 0 5.55006 3.2465 7.13776 4.91527C9.07736 4.91527 10.9685 4.95119 12.9284 4.91691C13.3066 3.02579 14.6132 1.61605 16.4699 1.0659C18.7145 0.565258 20.5258 1.25992 21.8906 3.08489C22.7419 4.48948 22.9227 5.97442 22.384 7.53009C21.6619 9.31805 20.3209 10.4183 18.3954 10.6934C17.2951 10.7622 16.6762 10.6934 15.6103 10.212C15.5552 10.1872 15.5415 10.2019 15.5072 10.2464C14.3068 11.8002 12.4126 14.2395 11.1748 15.8166C11.1513 18.5431 11.167 19.6574 11.1748 22.384C12.2569 22.384 13.4897 22.384 14.6304 22.384C15.0767 22.384 15.4384 22.7457 15.4384 23.192C15.4384 23.6382 15.077 24 14.6308 24C11.9216 24 8.77753 24 6.06837 24C5.62211 24 5.26074 23.6382 5.26074 23.192C5.26074 22.7457 5.62239 22.384 6.06865 22.384C7.20563 22.384 8.47018 22.384 9.52435 22.384C9.53218 19.6729 9.54779 18.5275 9.52435 15.8166C7.23561 12.9632 4.43379 9.23931 2.03811 6.18697C1.65332 5.69671 1.98893 4.97444 2.61196 4.95864C3.46036 4.93712 4.32559 4.92012 5.12213 4.91527C3.88148 3.56905 2.63435 2.34629 1.35938 1.0283C1.68481 0.685709 2.41406 0 2.41406 0ZM4.40115 6.52033C8.26829 6.46583 12.4495 6.48144 16.3324 6.52033C15.756 7.20414 15.3619 7.87412 14.7507 8.53018C12.0632 8.56135 8.63591 8.56135 5.94842 8.53018C5.37838 7.845 4.91691 7.18903 4.40115 6.52033Z" fill="#062F81"/>
</svg>
