<svg width="24" height="24" viewBox="0 0 24 24" fill="none" xmlns="http://www.w3.org/2000/svg">
<g opacity="0.986">
<path fill-rule="evenodd" clip-rule="evenodd" d="M11.5686 1C11.8562 1 12.1438 1 12.4314 1C13.6994 1.39039 14.2674 2.24976 14.1353 3.57812C13.8533 4.6827 13.1415 5.25562 12 5.29688C10.8585 5.25562 10.1467 4.6827 9.8647 3.57812C9.72041 2.24128 10.2884 1.3819 11.5686 1Z" fill="#062F81"/>
<path fill-rule="evenodd" clip-rule="evenodd" d="M16.4863 5.29693C16.7526 5.26011 16.9971 5.31025 17.2196 5.44732C17.5892 5.78677 17.9272 6.15201 18.2333 6.54302C18.2549 7.48821 18.2621 8.43352 18.2549 9.37896C18.5572 9.37183 18.8592 9.37896 19.1608 9.40044C19.5238 9.58727 19.646 9.88088 19.5274 10.2813C19.3522 10.6227 19.0718 10.7516 18.6863 10.668C18.7006 11.6281 18.6863 12.5877 18.6431 13.5469C16.9059 14.3001 16.1654 15.6178 16.4216 17.5001C16.4851 17.7689 16.5786 18.0267 16.702 18.2735C16.5799 18.3877 16.4505 18.4952 16.3137 18.5958C16.1767 18.7679 16.0329 18.9326 15.8823 19.0899C15.7676 18.9683 15.6598 18.8394 15.5588 18.7032C15.386 18.5667 15.2206 18.4235 15.0627 18.2735C15.7085 16.7704 15.464 15.4312 14.3294 14.2559C12.7765 13.0241 11.2235 13.0241 9.67059 14.2559C8.53595 15.4312 8.29149 16.7704 8.93725 18.2735C8.62835 18.4881 8.36952 18.7531 8.16078 19.0684C8.13201 19.0971 8.10328 19.0971 8.07451 19.0684C7.86577 18.7531 7.60694 18.4881 7.29804 18.2735C8.01774 16.4783 7.60077 15.0103 6.04706 13.8692C5.82218 13.75 5.59213 13.6426 5.35686 13.5469C5.31372 12.5877 5.29936 11.6281 5.31372 10.668C4.6408 10.7314 4.36041 10.4306 4.47255 9.76568C4.53725 9.58663 4.65947 9.4649 4.83921 9.40044C8.87971 9.37896 12.9202 9.37178 16.9608 9.37896C16.968 8.6197 16.9608 7.86062 16.9392 7.10162C16.6341 6.82653 16.3609 6.52575 16.1196 6.19927C16.007 5.79455 16.1292 5.49377 16.4863 5.29693Z" fill="#062F81"/>
<path fill-rule="evenodd" clip-rule="evenodd" d="M9.58431 5.64021C9.62969 5.63381 9.67283 5.64094 9.71372 5.66169C10.7012 6.51441 11.8227 6.75791 13.0784 6.39216C13.5371 6.23558 13.9397 5.99208 14.2863 5.66169C14.3294 5.63303 14.3725 5.63303 14.4157 5.66169C15.3545 6.18914 15.9153 6.98406 16.098 8.04646C13.366 8.10374 10.634 8.10374 7.90196 8.04646C8.09375 6.98277 8.65453 6.18067 9.58431 5.64021Z" fill="#062F81"/>
<path fill-rule="evenodd" clip-rule="evenodd" d="M3.80392 14.6208C5.14406 14.4891 5.99961 15.062 6.37059 16.3395C6.51962 17.4536 6.09541 18.2629 5.09804 18.7672C3.82124 19.1696 2.86504 18.79 2.22941 17.6286C1.8797 16.6373 2.08819 15.785 2.8549 15.0719C3.14678 14.862 3.46311 14.7116 3.80392 14.6208Z" fill="#062F81"/>
<path fill-rule="evenodd" clip-rule="evenodd" d="M11.5686 14.6208C12.9088 14.4891 13.7643 15.062 14.1353 16.3395C14.2843 17.4536 13.8601 18.2629 12.8627 18.7672C11.586 19.1696 10.6297 18.79 9.99412 17.6286C9.6444 16.6373 9.85289 15.785 10.6196 15.0719C10.9115 14.862 11.2278 14.7116 11.5686 14.6208Z" fill="#062F81"/>
<path fill-rule="evenodd" clip-rule="evenodd" d="M19.3333 14.6208C20.6735 14.4891 21.529 15.062 21.9 16.3395C22.049 17.4536 21.6248 18.2629 20.6274 18.7672C19.3507 19.1696 18.3944 18.79 17.7588 17.6286C17.4091 16.6373 17.6176 15.785 18.3843 15.0719C18.6762 14.862 18.9925 14.7116 19.3333 14.6208Z" fill="#062F81"/>
<path fill-rule="evenodd" clip-rule="evenodd" d="M7.08235 23C5.18431 23 3.28627 23 1.38824 23C1.2166 22.922 1.09438 22.7931 1.02157 22.6133C0.99281 21.9544 0.99281 21.2956 1.02157 20.6367C1.12182 20.051 1.42378 19.607 1.92745 19.3047C3.22098 20.3255 4.59418 20.4472 6.04706 19.6699C6.19083 19.5553 6.33465 19.4408 6.47843 19.3262C6.5556 19.3038 6.62751 19.3181 6.69412 19.3691C7.0949 19.7019 7.34657 20.1244 7.44902 20.6367C7.47779 21.2956 7.47779 21.9544 7.44902 22.6133C7.3762 22.7931 7.25399 22.922 7.08235 23Z" fill="#062F81"/>
<path fill-rule="evenodd" clip-rule="evenodd" d="M14.8471 23C12.949 23 11.051 23 9.15294 23C8.98129 22.922 8.85908 22.7931 8.78627 22.6133C8.7575 21.9544 8.7575 21.2956 8.78627 20.6367C8.88652 20.051 9.18848 19.607 9.69215 19.3047C10.9857 20.3255 12.3589 20.4472 13.8118 19.6699C13.9555 19.5553 14.0994 19.4408 14.2431 19.3262C14.3203 19.3038 14.3922 19.3181 14.4588 19.3691C14.8596 19.7019 15.1113 20.1244 15.2137 20.6367C15.2425 21.2956 15.2425 21.9544 15.2137 22.6133C15.1409 22.7931 15.0187 22.922 14.8471 23Z" fill="#062F81"/>
<path fill-rule="evenodd" clip-rule="evenodd" d="M22.6118 23C20.7137 23 18.8157 23 16.9176 23C16.746 22.922 16.6238 22.7931 16.551 22.6133C16.5222 21.9544 16.5222 21.2956 16.551 20.6367C16.6512 20.051 16.9532 19.607 17.4569 19.3047C18.7504 20.3255 20.1236 20.4472 21.5765 19.6699C21.7202 19.5553 21.8641 19.4408 22.0078 19.3262C22.085 19.3038 22.1569 19.3181 22.2235 19.3691C22.6243 19.7019 22.876 20.1244 22.9784 20.6367C23.0072 21.2956 23.0072 21.9544 22.9784 22.6133C22.9056 22.7931 22.7834 22.922 22.6118 23Z" fill="#062F81"/>
</g>
</svg>
