<svg width="24" height="24" viewBox="0 0 24 24" fill="none" xmlns="http://www.w3.org/2000/svg">
<path opacity="0.989" fill-rule="evenodd" clip-rule="evenodd" d="M8 1.00037C8.5 1.00037 9 1.50095 9 2.00037C9 3.50037 9 4.64163 9 6.00037C10.9038 6.00037 13.0962 6.00037 15 6.00037C14.9921 4.67245 15 3.12517 15 1.99995C15 1.49958 15.5 1.00037 16 1.00044C16.5 1.00006 17 1.49958 17 2.00037C17.0238 3.32812 17.0079 4.67245 17 6.00037C18 6.00037 19 6.00037 20 6.00037C20.5 6.00037 21 6.47302 21 7.00037C21 7.50037 20.5 8.00037 20 8.00037C19.8053 7.99541 19.3969 8.01267 19 8.00532C19.0202 9.31961 19.0012 10.6548 18.9334 11.9667C18.9058 12.5004 18.6892 13.122 18.5 13.5004C17.5 15.5004 16 16.5004 13 17.0004C13.0079 18.6086 13.0238 20.3923 13 22.0004C12.9926 22.5004 12.5 23.0004 12 23.0004C11.5 23.0004 11 22.5004 11 22.0004C10.9762 20.3923 10.9921 18.6086 11 17.0004C8 16.5004 6.48906 15.5826 5.464 13.3388C5.2849 12.8939 5.15801 12.4366 5.08324 11.9667C5.01542 10.6548 4.97977 9.31466 5 8.00037C4.60306 8.00771 4.40169 8.00037 4 8.00037C3.5 8.00037 3 7.50037 3 7.00037C3 6.50037 3.5 6.00037 4 6.00037C4.90416 5.97824 6.09555 5.99297 7 6.00037C7 4.64163 7 3.50037 7 2.00037C7 1.50037 7.5 1.00037 8 1.00037Z" fill="#062F81"/>
</svg>
