<svg width="24" height="24" viewBox="0 0 24 24" fill="none" xmlns="http://www.w3.org/2000/svg">
<g clip-path="url(#clip0_2496_28341)">
<g opacity="0.983">
<path fill-rule="evenodd" clip-rule="evenodd" d="M11.5547 -0.0234375C11.8359 -0.0234375 12.1172 -0.0234375 12.3984 -0.0234375C12.5707 0.0317637 12.7426 0.102076 12.9141 0.1875C14.0484 0.840445 15.1734 1.5045 16.2891 2.17969C14.8651 3.03225 13.4276 3.86038 11.9766 4.66406C10.5255 3.86038 9.08803 3.03225 7.66406 2.17969C8.92917 1.38323 10.2261 0.648858 11.5547 -0.0234375Z" fill="#062F81"/>
<path fill-rule="evenodd" clip-rule="evenodd" d="M6.16406 2.97656C6.33305 2.99056 6.48933 3.04525 6.63281 3.14062C7.92201 3.90247 9.21891 4.65247 10.5234 5.39062C10.568 5.42428 10.5758 5.46333 10.5469 5.50781C9.13416 6.35025 7.70447 7.16273 6.25781 7.94531C4.83403 7.15134 3.41997 6.33886 2.01562 5.50781C1.98669 5.46333 1.9945 5.42428 2.03906 5.39062C3.42471 4.59652 4.79972 3.79183 6.16406 2.97656Z" fill="#062F81"/>
<path fill-rule="evenodd" clip-rule="evenodd" d="M17.6016 2.97656C17.6659 2.96922 17.7285 2.97703 17.7891 3C19.1757 3.79877 20.5585 4.60346 21.9375 5.41406C21.9688 5.44533 21.9688 5.47655 21.9375 5.50781C20.5332 6.33886 19.1191 7.15134 17.6953 7.94531C16.26 7.16512 14.8381 6.36042 13.4297 5.53125C13.3672 5.48438 13.3672 5.4375 13.4297 5.39062C14.8282 4.59233 16.2188 3.78765 17.6016 2.97656Z" fill="#062F81"/>
<path fill-rule="evenodd" clip-rule="evenodd" d="M11.8828 6.25781C11.9472 6.25045 12.0097 6.25828 12.0703 6.28125C13.461 7.08595 14.8515 7.89061 16.2422 8.69531C16.29 8.71884 16.2979 8.75006 16.2656 8.78906C14.8398 9.62311 13.4101 10.4512 11.9766 11.2734C10.543 10.4512 9.11334 9.62311 7.6875 8.78906C7.65525 8.75006 7.66308 8.71884 7.71094 8.69531C9.11222 7.89337 10.5028 7.08089 11.8828 6.25781Z" fill="#062F81"/>
<path fill-rule="evenodd" clip-rule="evenodd" d="M1.28906 6.67969C2.716 7.47923 4.13788 8.29172 5.55469 9.11719C5.61717 10.7891 5.61717 12.4609 5.55469 14.1328C4.11893 13.314 2.68925 12.4859 1.26562 11.6484C1.2269 9.98883 1.23472 8.33259 1.28906 6.67969Z" fill="#062F81"/>
<path fill-rule="evenodd" clip-rule="evenodd" d="M22.5703 6.67969C22.617 6.67566 22.656 6.69131 22.6875 6.72656C22.7188 8.36719 22.7188 10.0078 22.6875 11.6484C21.2639 12.4859 19.8342 13.314 18.3984 14.1328C18.336 12.4609 18.336 10.7891 18.3984 9.11719C19.7997 8.31525 21.1903 7.50277 22.5703 6.67969Z" fill="#062F81"/>
<path fill-rule="evenodd" clip-rule="evenodd" d="M6.96094 9.96094C8.38786 10.7605 9.80976 11.573 11.2266 12.3984C11.289 14.0703 11.289 15.7422 11.2266 17.4141C9.82031 16.6016 8.41406 15.789 7.00781 14.9766C6.96094 13.305 6.94533 11.6331 6.96094 9.96094Z" fill="#062F81"/>
<path fill-rule="evenodd" clip-rule="evenodd" d="M16.8984 9.96094C16.9609 10.7806 16.9922 11.6166 16.9922 12.4688C16.9766 13.3047 16.9609 14.1406 16.9453 14.9766C15.5391 15.789 14.1328 16.6016 12.7266 17.4141C12.6641 15.7422 12.6641 14.0703 12.7266 12.3984C14.1278 11.5965 15.5184 10.784 16.8984 9.96094Z" fill="#062F81"/>
<path fill-rule="evenodd" clip-rule="evenodd" d="M1.24219 13.2422C2.69639 14.0514 4.1417 14.8795 5.57812 15.7266C5.60939 17.3985 5.60939 19.0703 5.57812 20.7422C4.39843 20.0625 3.21875 19.3828 2.03906 18.7031C1.58459 18.3732 1.32678 17.9279 1.26562 17.3672C1.24219 15.9923 1.23438 14.6173 1.24219 13.2422Z" fill="#062F81"/>
<path fill-rule="evenodd" clip-rule="evenodd" d="M22.6172 13.2422C22.6797 13.9133 22.7109 14.6008 22.7109 15.3047C22.7031 15.9922 22.6953 16.6797 22.6875 17.3672C22.6263 17.9279 22.3685 18.3732 21.9141 18.7031C20.7382 19.3887 19.5585 20.0684 18.375 20.7422C18.3437 19.0703 18.3437 17.3985 18.375 15.7266C19.7959 14.9031 21.21 14.075 22.6172 13.2422Z" fill="#062F81"/>
<path fill-rule="evenodd" clip-rule="evenodd" d="M11.2734 23.9766C11.2266 23.9766 11.1797 23.9766 11.1328 23.9766C9.7568 23.1594 8.37398 22.3469 6.98437 21.5391C6.95311 19.8672 6.95311 18.1953 6.98437 16.5234C8.40623 17.3516 9.82814 18.1797 11.25 19.0078C11.2734 20.664 11.2813 22.3202 11.2734 23.9766Z" fill="#062F81"/>
<path fill-rule="evenodd" clip-rule="evenodd" d="M12.8203 23.9766C12.7734 23.9766 12.7266 23.9766 12.6797 23.9766C12.6719 22.3202 12.6797 20.664 12.7031 19.0078C14.125 18.1797 15.5469 17.3516 16.9687 16.5234C17 18.1953 17 19.8672 16.9687 21.5391C15.5791 22.3469 14.1963 23.1594 12.8203 23.9766Z" fill="#062F81"/>
</g>
</g>
<defs>
<clipPath id="clip0_2496_28341">
<rect width="24" height="24" fill="white"/>
</clipPath>
</defs>
</svg>
