<svg width="24" height="24" viewBox="0 0 24 24" fill="none" xmlns="http://www.w3.org/2000/svg">
<g opacity="0.985">
<path fill-rule="evenodd" clip-rule="evenodd" d="M10.4961 1C13.6758 1 16.8555 1 20.0352 1C20.2061 1.07798 20.3279 1.20689 20.4004 1.38672C20.4219 4.68096 20.4291 7.97525 20.4219 11.2695C16.9701 11.2695 13.5182 11.2695 10.0664 11.2695C10.0592 8.00386 10.0664 4.73825 10.0879 1.47266C10.1566 1.25377 10.2927 1.09622 10.4961 1ZM13.1172 3.57813C14.4779 3.57097 15.8386 3.57813 17.1992 3.59961C17.6629 3.6884 17.8562 3.9677 17.7793 4.4375C17.6584 4.67365 17.4651 4.80972 17.1992 4.8457C15.8385 4.87435 14.4779 4.87435 13.1172 4.8457C12.5809 4.71119 12.4162 4.38892 12.623 3.87891C12.7616 3.72763 12.9263 3.62737 13.1172 3.57813ZM13.1172 6.15625C14.4779 6.14907 15.8386 6.15625 17.1992 6.17773C17.6629 6.26655 17.8562 6.54585 17.7793 7.01563C17.6584 7.25178 17.4651 7.38782 17.1992 7.42383C15.8385 7.45249 14.4779 7.45249 13.1172 7.42383C12.5809 7.28929 12.4162 6.96703 12.623 6.45703C12.7616 6.30574 12.9263 6.20549 13.1172 6.15625ZM13.1602 8.73438C14.5066 8.7272 15.8529 8.73438 17.1992 8.75586C17.6629 8.84468 17.8562 9.12397 17.7793 9.59375C17.6584 9.82991 17.4651 9.96595 17.1992 10.002C15.8385 10.0306 14.4779 10.0306 13.1172 10.002C12.5809 9.86742 12.4162 9.54515 12.623 9.03516C12.7719 8.87145 12.9509 8.77116 13.1602 8.73438Z" fill="#062F81"/>
<path fill-rule="evenodd" clip-rule="evenodd" d="M5.08203 23C4.09375 23 3.10547 23 2.11719 23C1.55859 22.8138 1.1862 22.4414 1 21.8828C1 16.8698 1 11.8568 1 6.84375C1.45296 5.3058 2.48421 4.61114 4.09375 4.75977C5.28882 5.05252 5.99782 5.80446 6.2207 7.01563C6.24936 11.9284 6.24936 16.8412 6.2207 21.7539C6.07182 22.3825 5.69227 22.7979 5.08203 23Z" fill="#062F81"/>
<path fill-rule="evenodd" clip-rule="evenodd" d="M23 7.70312C23 12.6732 23 17.6432 23 22.6133C22.944 22.6772 22.8939 22.7488 22.8496 22.8281C22.763 22.8796 22.6842 22.9368 22.6133 23C17.7148 23 12.8164 23 7.91797 23C7.71455 22.9038 7.57847 22.7462 7.50977 22.5273C7.48828 17.457 7.48111 12.3867 7.48828 7.31641C7.93228 7.31641 8.37632 7.31641 8.82031 7.31641C8.82031 9.04946 8.82031 10.7826 8.82031 12.5156C13.1029 12.5156 17.3854 12.5156 21.668 12.5156C21.668 10.7826 21.668 9.04946 21.668 7.31641C21.9834 7.30927 22.2985 7.31641 22.6133 7.33789C22.7931 7.41042 22.922 7.53215 23 7.70312ZM13.1602 8.73438C12.9509 8.77116 12.7719 8.87145 12.623 9.03516C12.4162 9.54515 12.5809 9.86742 13.1172 10.002C14.4779 10.0306 15.8385 10.0306 17.1992 10.002C17.4651 9.96595 17.6584 9.82991 17.7793 9.59375C17.8562 9.12397 17.6629 8.84468 17.1992 8.75586C15.8529 8.73438 14.5066 8.7272 13.1602 8.73438ZM10.7109 13.8477C11.2741 13.9716 11.4532 14.301 11.248 14.8359C10.9944 15.114 10.7007 15.1642 10.3672 14.9863C10.0234 14.6569 10.0234 14.3275 10.3672 13.998C10.4814 13.9345 10.596 13.8844 10.7109 13.8477ZM13.2891 13.8477C13.8523 13.9716 14.0313 14.301 13.8262 14.8359C13.5725 15.114 13.2788 15.1642 12.9453 14.9863C12.6016 14.6569 12.6016 14.3275 12.9453 13.998C13.0595 13.9345 13.1741 13.8844 13.2891 13.8477ZM15.8672 13.8477C16.4304 13.9716 16.6094 14.301 16.4043 14.8359C16.1506 15.114 15.857 15.1642 15.5234 14.9863C15.1797 14.6569 15.1797 14.3275 15.5234 13.998C15.6376 13.9345 15.7522 13.8844 15.8672 13.8477ZM18.4023 13.8477C18.9349 13.8297 19.4649 13.8512 19.9922 13.9121C20.3276 14.0746 20.4493 14.3395 20.3574 14.707C20.293 14.8861 20.1712 15.0078 19.9922 15.0723C19.4193 15.1009 18.8463 15.1009 18.2734 15.0723C17.8667 14.8692 17.7593 14.5612 17.9512 14.1484C18.08 14.0093 18.2304 13.9091 18.4023 13.8477ZM10.7109 16.4258C11.2741 16.5497 11.4532 16.8791 11.248 17.4141C10.9944 17.6922 10.7007 17.7423 10.3672 17.5645C10.0234 17.235 10.0234 16.9056 10.3672 16.5762C10.4814 16.5127 10.596 16.4625 10.7109 16.4258ZM13.2891 16.4258C13.8523 16.5497 14.0313 16.8791 13.8262 17.4141C13.5725 17.6922 13.2788 17.7423 12.9453 17.5645C12.6016 17.235 12.6016 16.9056 12.9453 16.5762C13.0595 16.5127 13.1741 16.4625 13.2891 16.4258ZM15.8672 16.4258C16.4304 16.5497 16.6094 16.8791 16.4043 17.4141C16.1506 17.6922 15.857 17.7423 15.5234 17.5645C15.1797 17.235 15.1797 16.9056 15.5234 16.5762C15.6376 16.5127 15.7522 16.4625 15.8672 16.4258ZM18.4023 16.4258C18.9349 16.4078 19.4649 16.4293 19.9922 16.4902C20.3276 16.6527 20.4493 16.9176 20.3574 17.2852C20.293 17.4642 20.1712 17.5859 19.9922 17.6504C19.4193 17.6791 18.8463 17.6791 18.2734 17.6504C17.8667 17.4473 17.7593 17.1393 17.9512 16.7266C18.08 16.5874 18.2304 16.4872 18.4023 16.4258ZM10.7109 19.0039C11.2741 19.1278 11.4532 19.4573 11.248 19.9922C10.9944 20.2703 10.7007 20.3204 10.3672 20.1426C10.0234 19.8131 10.0234 19.4837 10.3672 19.1543C10.4814 19.0908 10.596 19.0406 10.7109 19.0039ZM13.2891 19.0039C13.8523 19.1278 14.0313 19.4573 13.8262 19.9922C13.5725 20.2703 13.2788 20.3204 12.9453 20.1426C12.6016 19.8131 12.6016 19.4837 12.9453 19.1543C13.0595 19.0908 13.1741 19.0406 13.2891 19.0039ZM15.8672 19.0039C16.4304 19.1278 16.6094 19.4573 16.4043 19.9922C16.1506 20.2703 15.857 20.3204 15.5234 20.1426C15.1797 19.8131 15.1797 19.4837 15.5234 19.1543C15.6376 19.0908 15.7522 19.0406 15.8672 19.0039Z" fill="#062F81"/>
</g>
</svg>
