<svg width="24" height="24" viewBox="0 0 24 24" fill="none" xmlns="http://www.w3.org/2000/svg">
<path opacity="0.998" fill-rule="evenodd" clip-rule="evenodd" d="M23 5.87551C23 10.387 23 14.4886 23 19C15.6667 19 8.33333 19 1 19C1 14.4886 1 10.3873 1 5.87582C1 5.43835 1.45833 5.00104 1.91667 5.00087C8.90073 4.99842 14.2078 5.00207 22.0833 5.00061C22.5417 5.00053 23 5.43804 23 5.87551ZM15.2012 8.30927C15.2012 7.9695 15.4766 7.69407 15.8164 7.69407C17.125 7.69407 18.4336 7.69407 19.7422 7.69407C20.082 7.69407 20.3574 7.9695 20.3574 8.30927V8.30927C20.3574 8.64903 20.082 8.92446 19.7422 8.92446C18.4336 8.92446 17.125 8.92446 15.8164 8.92446C15.4766 8.92446 15.2012 8.64903 15.2012 8.30927V8.30927ZM7.49199 8.30528C7.72062 8.08113 8.08428 8.07146 8.31869 8.28955C8.75411 8.69468 9.18631 9.10454 9.61523 9.51915C9.98301 9.53232 10.3509 9.53986 10.7188 9.54175C11.0574 9.5435 11.334 9.81629 11.334 10.1549V10.1549C11.334 10.4934 11.0574 10.7662 10.7188 10.768C10.3509 10.7699 9.98301 10.7774 9.61523 10.7906C9.18944 11.197 8.76368 11.6034 8.3379 12.0098C8.10288 12.2341 7.73306 12.2341 7.49804 12.0098V12.0098C7.24702 11.7702 7.24702 11.3695 7.49804 11.1299C7.61654 11.0168 7.73503 10.9037 7.85352 10.7906C6.99414 10.7769 6.13477 10.7632 5.27539 10.7495C4.94206 10.4314 4.60873 10.1132 4.27539 9.79506C4.02437 9.55546 4.02437 9.15474 4.27539 8.91514V8.91514C4.5104 8.69082 4.88022 8.69083 5.11523 8.91514C5.32617 9.11648 5.5371 9.31781 5.74805 9.51915C6.44986 9.54651 7.15171 9.54651 7.85352 9.51915C7.73265 9.40379 7.61178 9.28842 7.4909 9.17305C7.24472 8.93806 7.24898 8.54354 7.49199 8.30528V8.30528ZM15.2012 10.7701C15.2012 10.4303 15.4766 10.1549 15.8164 10.1549C17.125 10.1549 18.4336 10.1549 19.7422 10.1549C20.082 10.1549 20.3574 10.4303 20.3574 10.7701V10.7701C20.3574 11.1098 20.082 11.3853 19.7422 11.3853C18.4336 11.3853 17.125 11.3853 15.8164 11.3853C15.4766 11.3853 15.2012 11.1098 15.2012 10.7701V10.7701ZM11.9785 13.2308C11.9785 12.8911 12.2539 12.6156 12.5937 12.6156C14.9766 12.6156 17.3594 12.6156 19.7422 12.6156C20.082 12.6156 20.3574 12.8911 20.3574 13.2308V13.2308C20.3574 13.5706 20.082 13.846 19.7422 13.846C17.3594 13.846 14.9766 13.846 12.5937 13.846C12.2539 13.846 11.9785 13.5706 11.9785 13.2308V13.2308ZM11.9785 15.6916C11.9785 15.3519 12.2539 15.0764 12.5937 15.0764C14.9766 15.0764 17.3594 15.0764 19.7422 15.0764C20.082 15.0764 20.3574 15.3519 20.3574 15.6916V15.6916C20.3574 16.0314 20.082 16.3068 19.7422 16.3068C17.3594 16.3068 14.9766 16.3068 12.5937 16.3068C12.2539 16.3068 11.9785 16.0314 11.9785 15.6916V15.6916Z" fill="#062F81"/>
</svg>
