<svg width="24" height="24" viewBox="0 0 24 24" fill="none" xmlns="http://www.w3.org/2000/svg">
<g clip-path="url(#clip0_2496_28344)">
<g opacity="0.99">
<path fill-rule="evenodd" clip-rule="evenodd" d="M4.33594 -0.0234375C4.60156 -0.0234375 4.86717 -0.0234375 5.13281 -0.0234375C6.14016 0.108979 6.92925 0.593353 7.5 1.42969C7.73484 1.86907 7.85203 2.33782 7.85156 2.83594C9.11208 3.08863 10.0261 3.79175 10.5938 4.94531C10.7388 5.29102 10.8325 5.65041 10.875 6.02344C10.8906 7.21092 10.9063 8.39845 10.9219 9.58594C10.9914 9.99037 11.1555 10.3498 11.4141 10.6641C9.10458 11.4669 7.83112 13.0919 7.59375 15.5391C7.45322 18.4589 8.31262 21.037 10.1719 23.2734C10.1945 23.3179 10.2023 23.3647 10.1953 23.4141C9.50498 23.6686 8.80186 23.8561 8.08594 23.9766C7.53905 23.9766 6.9922 23.9766 6.44531 23.9766C3.97812 23.622 2.11094 22.3719 0.84375 20.2266C0.407103 19.3777 0.118041 18.4871 -0.0234375 17.5547C-0.0234375 16.9922 -0.0234375 16.4297 -0.0234375 15.8672C0.288789 13.7581 1.28879 12.055 2.97656 10.7578C3.29602 10.4314 3.49133 10.0408 3.5625 9.58594C3.57812 8.41406 3.59375 7.24219 3.60938 6.07031C3.84833 4.40177 4.77802 3.33927 6.39844 2.88281C6.35723 2.13037 5.96663 1.66943 5.22656 1.5C4.93589 1.45613 4.64685 1.41707 4.35938 1.38281C4.33595 0.914325 4.32813 0.445573 4.33594 -0.0234375Z" fill="#062F81"/>
<path fill-rule="evenodd" clip-rule="evenodd" d="M23.9766 15.5391C23.9766 16.1016 23.9766 16.6641 23.9766 17.2266C23.7133 19.128 22.9867 20.8312 21.7969 22.3359C21.0549 23.2125 20.1252 23.7593 19.0078 23.9766C18.7734 23.9766 18.5391 23.9766 18.3047 23.9766C17.6398 23.871 17.0304 23.621 16.4766 23.2266C15.9019 23.6157 15.2769 23.8658 14.6016 23.9766C14.3672 23.9766 14.1328 23.9766 13.8984 23.9766C12.7974 23.7755 11.8834 23.2442 11.1562 22.3828C9.45773 20.2928 8.73895 17.9022 9 15.2109C9.49842 12.8689 10.9437 11.7674 13.3359 11.9062C14.172 12.0237 14.9298 12.3284 15.6094 12.8203C15.8174 11.0125 16.7471 9.74691 18.3984 9.02344C18.5947 9.45548 18.7822 9.89297 18.9609 10.3359C17.8409 10.8547 17.2237 11.7297 17.1094 12.9609C18.4212 11.933 19.8821 11.6439 21.4922 12.0938C22.5499 12.5108 23.2764 13.253 23.6719 14.3203C23.8044 14.7253 23.9059 15.1316 23.9766 15.5391Z" fill="#062F81"/>
</g>
</g>
<defs>
<clipPath id="clip0_2496_28344">
<rect width="24" height="24" fill="white"/>
</clipPath>
</defs>
</svg>
