<svg width="24" height="24" viewBox="0 0 24 24" fill="none" xmlns="http://www.w3.org/2000/svg">
<g opacity="0.952">
<path fill-rule="evenodd" clip-rule="evenodd" d="M23 10.9262C23 11.3949 23 11.6826 23 12.1712C23 13.305 22.9941 15.4632 22 16.922C20.7281 18.7884 19 20.0002 16 20.0002C12.5 20.0002 11 20.0002 8 20.0002C5 20.0002 3.01953 18.8345 2.00977 16.922C1 15.0095 1 12.741 1 12.1332C1 11.6771 1 11.3821 1 10.926C1 10.4699 1.5 10.0204 2 10.0186C9.07553 9.99326 14.9245 9.99366 22 10.019C22.5 10.0208 23 10.4727 23 10.9262Z" fill="#062F81"/>
<path fill-rule="evenodd" clip-rule="evenodd" d="M1 22C1 21.4477 1.39766 21 1.8882 21H22.1118C22.6023 21 23 21.4477 23 22C23 22.5523 22.6023 23 22.1118 23H1.8882C1.39766 23 1 22.5523 1 22Z" fill="#062F81"/>
<path fill-rule="evenodd" clip-rule="evenodd" d="M7.41433 2C7.87915 2 8.04798 2.58111 7.77371 2.91406C6.87915 4 7.09034 4.77707 7.87915 5.5C8.62715 6.18553 8.87915 7 8.37915 8C8.09549 8.56732 7.87915 9 7.37915 9C6.87915 9 6.42961 8.50004 6.87915 8C7.6239 7.17158 7.87915 7 6.87915 6C5.87915 5 5.76082 4.06966 6.37915 3C6.56196 2.71477 6.91433 2 7.41433 2Z" fill="#062F81"/>
<path fill-rule="evenodd" clip-rule="evenodd" d="M12.4143 1C12.8792 1 13.048 1.58111 12.7737 1.91406C11.8791 3 12.0903 3.77707 12.8791 4.5C13.6271 5.18553 13.8792 6 13.3792 7C13.0955 7.56732 12.8792 8 12.3792 8C11.8792 8 11.4296 7.50004 11.8792 7C12.6239 6.17158 12.8792 6 11.8791 5C10.8792 4 10.7608 3.06966 11.3791 2C11.562 1.71477 11.9143 1 12.4143 1Z" fill="#062F81"/>
<path fill-rule="evenodd" clip-rule="evenodd" d="M17.4143 2C17.8792 2 18.048 2.58111 17.7737 2.91406C16.8792 4 17.0903 4.77707 17.8791 5.5C18.6271 6.18553 18.8792 7 18.3792 8C18.0955 8.56732 17.8792 9 17.3792 9C16.8792 9 16.4296 8.50004 16.8792 8C17.6239 7.17158 17.8792 7 16.8791 6C15.8792 5 15.7608 4.06966 16.3791 3C16.562 2.71477 16.9143 2 17.4143 2Z" fill="#062F81"/>
</g>
</svg>
