<svg width="24" height="24" viewBox="0 0 24 24" fill="none" xmlns="http://www.w3.org/2000/svg">
<g opacity="0.973">
<path fill-rule="evenodd" clip-rule="evenodd" d="M11.2695 1C11.2982 1 11.3268 1 11.3555 1C11.3555 2.71875 11.3555 4.4375 11.3555 6.15625C10.3238 6.17056 9.29258 6.15625 8.26172 6.11328C8.66339 4.5512 9.32941 3.11891 10.2598 1.81641C10.5483 1.47645 10.8848 1.20432 11.2695 1Z" fill="#062F81"/>
<path fill-rule="evenodd" clip-rule="evenodd" d="M12.6445 1C12.6732 1 12.7018 1 12.7305 1C13.4499 1.42597 14.0014 2.01321 14.3848 2.76172C14.9661 3.82513 15.4173 4.94231 15.7383 6.11328C14.7074 6.15625 13.6762 6.17056 12.6445 6.15625C12.6445 4.4375 12.6445 2.71875 12.6445 1Z" fill="#062F81"/>
<path fill-rule="evenodd" clip-rule="evenodd" d="M9.07812 1.21484C9.11577 1.20922 9.14443 1.22354 9.16406 1.25781C8.60087 2.04454 8.13539 2.88959 7.76758 3.79297C7.47659 4.56564 7.21165 5.34625 6.97266 6.13477C5.54016 6.17056 4.10786 6.16343 2.67578 6.11328C4.21475 3.70037 6.34888 2.06756 9.07812 1.21484Z" fill="#062F81"/>
<path fill-rule="evenodd" clip-rule="evenodd" d="M14.8359 1.21484C17.616 2.03299 19.7788 3.66581 21.3242 6.11328C19.8922 6.16343 18.4598 6.17056 17.0273 6.13477C16.6561 4.76289 16.1332 3.45235 15.459 2.20312C15.2504 1.87128 15.0427 1.54185 14.8359 1.21484Z" fill="#062F81"/>
<path fill-rule="evenodd" clip-rule="evenodd" d="M1 11.3555C1 11.1836 1 11.0117 1 10.8398C1.14742 9.68068 1.46253 8.56349 1.94531 7.48828C3.52057 7.44531 5.09609 7.431 6.67188 7.44531C6.42386 8.7367 6.2806 10.0401 6.24219 11.3555C4.49479 11.3555 2.7474 11.3555 1 11.3555Z" fill="#062F81"/>
<path fill-rule="evenodd" clip-rule="evenodd" d="M7.96094 7.44531C9.09243 7.44531 10.224 7.44531 11.3555 7.44531C11.3555 8.74868 11.3555 10.0521 11.3555 11.3555C10.0664 11.3555 8.77734 11.3555 7.48828 11.3555C7.52429 10.0355 7.68181 8.73214 7.96094 7.44531Z" fill="#062F81"/>
<path fill-rule="evenodd" clip-rule="evenodd" d="M12.6445 7.44531C13.7864 7.43122 14.9251 7.44553 16.0605 7.48828C16.3214 8.76458 16.4718 10.0536 16.5117 11.3555C15.2227 11.3555 13.9336 11.3555 12.6445 11.3555C12.6445 10.0521 12.6445 8.74868 12.6445 7.44531Z" fill="#062F81"/>
<path fill-rule="evenodd" clip-rule="evenodd" d="M23 10.8398C23 11.0117 23 11.1836 23 11.3555C21.2526 11.3555 19.5052 11.3555 17.7578 11.3555C17.7194 10.0401 17.5761 8.7367 17.3281 7.44531C18.9039 7.431 20.4794 7.44531 22.0547 7.48828C22.5375 8.56349 22.8526 9.68068 23 10.8398Z" fill="#062F81"/>
<path fill-rule="evenodd" clip-rule="evenodd" d="M1 12.6445C2.7474 12.6445 4.49479 12.6445 6.24219 12.6445C6.2806 13.9599 6.42386 15.2633 6.67188 16.5547C5.09609 16.569 3.52057 16.5547 1.94531 16.5117C1.46253 15.4365 1.14742 14.3193 1 13.1602C1 12.9883 1 12.8164 1 12.6445Z" fill="#062F81"/>
<path fill-rule="evenodd" clip-rule="evenodd" d="M7.48828 12.6445C8.77734 12.6445 10.0664 12.6445 11.3555 12.6445C11.3555 13.9479 11.3555 15.2513 11.3555 16.5547C10.2136 16.5688 9.07495 16.5545 7.93945 16.5117C7.67863 15.2354 7.52824 13.9464 7.48828 12.6445Z" fill="#062F81"/>
<path fill-rule="evenodd" clip-rule="evenodd" d="M12.6445 12.6445C13.9336 12.6445 15.2227 12.6445 16.5117 12.6445C16.4718 13.9464 16.3214 15.2354 16.0605 16.5117C14.9251 16.5545 13.7864 16.5688 12.6445 16.5547C12.6445 15.2513 12.6445 13.9479 12.6445 12.6445Z" fill="#062F81"/>
<path fill-rule="evenodd" clip-rule="evenodd" d="M23 12.6445C23 12.8164 23 12.9883 23 13.1602C22.8526 14.3193 22.5375 15.4365 22.0547 16.5117C20.4794 16.5547 18.9039 16.569 17.3281 16.5547C17.5761 15.2633 17.7194 13.9599 17.7578 12.6445C19.5052 12.6445 21.2526 12.6445 23 12.6445Z" fill="#062F81"/>
<path fill-rule="evenodd" clip-rule="evenodd" d="M2.67578 17.8437C4.10814 17.8366 5.54042 17.8437 6.97266 17.8652C7.34395 19.2371 7.86675 20.5476 8.54102 21.7969C8.73803 22.1194 8.9457 22.4344 9.16406 22.7422C8.19224 22.5221 7.27559 22.1425 6.41406 21.6035C4.87151 20.6411 3.62542 19.3878 2.67578 17.8437Z" fill="#062F81"/>
<path fill-rule="evenodd" clip-rule="evenodd" d="M11.3555 23C11.3268 23 11.2982 23 11.2695 23C10.5501 22.574 9.9986 21.9868 9.61523 21.2383C9.03391 20.1749 8.58274 19.0577 8.26172 17.8867C9.29258 17.8438 10.3238 17.8294 11.3555 17.8438C11.3555 19.5625 11.3555 21.2813 11.3555 23Z" fill="#062F81"/>
<path fill-rule="evenodd" clip-rule="evenodd" d="M12.7305 23C12.7018 23 12.6732 23 12.6445 23C12.6445 21.2813 12.6445 19.5625 12.6445 17.8438C13.6762 17.8294 14.7074 17.8438 15.7383 17.8867C15.3366 19.4488 14.6706 20.8811 13.7402 22.1836C13.4517 22.5236 13.1152 22.7957 12.7305 23Z" fill="#062F81"/>
<path fill-rule="evenodd" clip-rule="evenodd" d="M17.0273 17.8438C18.4599 17.8294 19.8922 17.8438 21.3242 17.8867C19.7838 20.3146 17.6354 21.9474 14.8789 22.7852C14.8399 22.7297 14.8471 22.6724 14.9004 22.6133C15.5617 21.7062 16.0773 20.7179 16.4473 19.6484C16.6541 19.0494 16.8475 18.4478 17.0273 17.8438Z" fill="#062F81"/>
</g>
</svg>
