<svg width="24" height="24" viewBox="0 0 24 24" fill="none" xmlns="http://www.w3.org/2000/svg">
<g opacity="0.961">
<path fill-rule="evenodd" clip-rule="evenodd" d="M4 4.99981C9.59094 4.97771 14.4126 4.93282 20 4.99974C20.5 5.00573 20.996 5.45633 21 6.00034C21.0274 9.73464 21.0274 12.266 21 16.0003C21 16.5003 20.5 17.0402 20 17.0003C14.4108 17.0302 9.58917 17.0302 4 17.0003C3.5 17.0003 3 16.5003 3 16.0003C2.9726 12.266 2.9726 9.73464 3 6.00034C3 5.50034 3.5 4.99981 4 4.99981ZM4.5 6.49981C9.26724 6.49981 14.7328 6.49981 19.5 6.49981C19.5 9.38269 19.5 12.6169 19.5 15.4998C14.7328 15.4998 9.26724 15.4998 4.5 15.4998C4.5 12.6169 4.5 9.38269 4.5 6.49981Z" fill="#062F81"/>
<path fill-rule="evenodd" clip-rule="evenodd" d="M23 17.9999C23 18.0897 23 17.9102 23 17.9999C23 19.0003 21.5916 19.9653 20.25 19.9812C14.75 20.0068 9.25 20.0068 3.75 19.9812C2.40845 19.9653 1 18.9995 1 17.9995C1 18.0892 1 17.9098 1 17.9995C8.33335 17.9482 15.6667 17.9487 23 17.9999ZM10.3672 18.6927C11.4557 18.6927 12.5443 18.6927 13.6328 18.6927C13.6328 18.8978 13.6328 19.103 13.6328 19.3081C12.5443 19.3081 11.4557 19.3081 10.3672 19.3081C10.3672 19.103 10.3672 18.8978 10.3672 18.6927Z" fill="#062F81"/>
</g>
</svg>
