<svg width="24" height="24" viewBox="0 0 24 24" fill="none" xmlns="http://www.w3.org/2000/svg">
<path d="M12.9643 5.69333C14.3843 5.69333 15.5357 4.6426 15.5357 3.34667C15.5357 2.05073 14.3843 1 12.9643 1C11.5442 1 10.3929 2.05073 10.3929 3.34667C10.3929 4.6426 11.5442 5.69333 12.9643 5.69333Z" fill="#062F81"/>
<path fill-rule="evenodd" clip-rule="evenodd" d="M16.3876 17.9666C16.9219 18.1864 17.3023 18.6464 17.377 19.1901L17.7185 21.6831C17.8215 22.4354 18.5221 23 19.3527 23C20.2623 23 21 22.3268 21 21.4967V16.9996C21 15.1253 19.7262 13.4475 17.8027 12.7892C16.6325 12.3887 15.8571 11.3678 15.8571 10.2271V9.43104C15.8571 8.68253 15.5313 7.96466 14.9512 7.43557C13.8633 6.44242 12.14 6.3307 10.9089 7.17318L10.7545 7.27888C10.4123 7.51349 10.1273 7.80281 9.91071 8.12823C9.59933 8.59573 9.42857 9.13771 9.42857 9.69917V10.2927C9.42857 10.4245 9.43548 10.5557 9.44866 10.686C5.86084 10.8298 3 13.53 3 16.84C3 20.242 6.02218 23 9.75 23C13.0559 23 15.8075 20.8307 16.3876 17.9666ZM14.25 16.84C14.25 19.1079 12.2354 20.9467 9.75 20.9467C7.26458 20.9467 5.25 19.1079 5.25 16.84C5.25 14.5718 7.26458 12.7333 9.75 12.7333C12.2354 12.7333 14.25 14.5718 14.25 16.84Z" fill="#062F81"/>
</svg>
