<svg width="24" height="24" viewBox="0 0 24 24" fill="none" xmlns="http://www.w3.org/2000/svg">
<rect width="24" height="24" fill="white"/>
<path fill-rule="evenodd" clip-rule="evenodd" d="M12.0391 3.26316C10.9927 3.26316 10.1444 4.11143 10.1444 5.15783H13.9339C13.9338 4.11143 13.0855 3.26316 12.0391 3.26316ZM12.0391 2C10.2951 2 8.88127 3.4138 8.88123 5.15783H7.82874C6.89864 5.15783 6.14453 5.91194 6.14453 6.84204V9.57888V16.7368V19.4736C6.14453 20.4037 6.89864 21.1578 7.82874 21.1578H11.7537C12.0662 21.1578 12.2738 20.826 12.1871 20.5254C12.0909 20.1915 12.0393 19.8388 12.0393 19.4736C12.0393 17.3807 13.7358 15.6841 15.8287 15.6841C16.3267 15.6841 16.8024 15.7804 17.2379 15.9547C17.5504 16.0801 17.934 15.8704 17.934 15.5337V6.84204C17.934 5.91194 17.1799 5.15783 16.2498 5.15783H15.197C15.197 3.4138 13.7832 2 12.0391 2ZM15.8401 16.9474H15.8286C14.6078 16.9474 13.5893 17.8133 13.3537 18.9646C13.32 19.1291 13.3023 19.2993 13.3023 19.4737V19.4959C13.3138 20.8647 14.395 22 15.8286 22C16.2466 22 16.6588 21.9067 17.0282 21.7167C17.241 21.6073 17.4396 21.4663 17.6168 21.2928C18.1055 20.8133 18.3549 20.1624 18.3549 19.4737C18.3549 18.7969 18.1176 18.1439 17.6273 17.6587C17.1413 17.1776 16.4984 16.9494 15.8401 16.9474ZM17.0917 19.4737C17.0917 18.7126 16.5716 18.2105 15.8286 18.2105C15.5683 18.2105 15.3341 18.2804 15.1413 18.4005L15.1296 18.4079C14.9573 18.5181 14.8179 18.6698 14.7206 18.8487C14.6205 19.0329 14.5654 19.2463 14.5654 19.4737C14.5654 20.1727 15.1024 20.7368 15.8286 20.7368C16.5547 20.7368 17.0917 20.2348 17.0917 19.4737Z" fill="#062F81"/>
</svg>
