<svg width="24" height="24" viewBox="0 0 24 24" fill="none" xmlns="http://www.w3.org/2000/svg">
<g clip-path="url(#clip0_2496_28343)">
<path fill-rule="evenodd" clip-rule="evenodd" d="M2.10938 0.140625C8.70314 0.140625 15.2969 0.140625 21.8906 0.140625C22.7947 0.409305 23.3025 1.01154 23.4141 1.94733C23.4453 8.24762 23.4453 14.5479 23.4141 20.8482C23.2745 22.0129 22.6104 22.6306 21.4219 22.7012C21.4296 22.9488 21.4218 23.1959 21.3984 23.4424C21.3193 23.6363 21.1865 23.7753 21 23.8594C20.1875 23.8594 19.375 23.8594 18.5625 23.8594C18.3941 23.778 18.2613 23.6545 18.1641 23.4888C18.1007 23.2306 18.0773 22.9682 18.0937 22.7012C13.9687 22.7012 9.84375 22.7012 5.71875 22.7012C5.75133 23.0267 5.69662 23.3356 5.55469 23.6277C5.46258 23.7227 5.361 23.7999 5.25 23.8594C4.4375 23.8594 3.625 23.8594 2.8125 23.8594C2.64409 23.778 2.51127 23.6545 2.41406 23.4888C2.35849 23.23 2.32724 22.9676 2.32031 22.7012C1.27293 22.5153 0.694806 21.8977 0.585939 20.8482C0.554687 14.5479 0.554687 8.24762 0.585939 1.94733C0.697468 1.01154 1.20528 0.409305 2.10938 0.140625ZM3.89062 1.99365C9.23437 1.98593 14.5781 1.99365 19.9219 2.01682C20.659 2.20483 21.1356 2.66036 21.3516 3.38342C21.3828 8.67998 21.3828 13.9766 21.3516 19.2731C21.1937 19.8559 20.8421 20.2806 20.2969 20.5471C20.0865 20.631 19.8678 20.6773 19.6406 20.6861C14.4844 20.717 9.32812 20.717 4.17187 20.6861C3.15867 20.5803 2.57273 20.0321 2.41406 19.0415C2.38281 13.8994 2.38281 8.7572 2.41406 3.61505C2.5403 2.74169 3.03249 2.20122 3.89062 1.99365Z" fill="#062F81"/>
<path fill-rule="evenodd" clip-rule="evenodd" d="M4.28906 3.26761C3.9784 3.26761 3.72656 3.5165 3.72656 3.82352V18.833C3.72656 19.1401 3.9784 19.3889 4.28906 19.3889H19.5234C19.8341 19.3889 20.0859 19.1401 20.0859 18.833V3.82352C20.0859 3.5165 19.8341 3.26761 19.5234 3.26761H4.28906ZM8.01562 14.2005C9.60775 14.2005 10.8984 12.9249 10.8984 11.3514C10.8984 9.77796 9.60775 8.50241 8.01562 8.50241C6.42349 8.50241 5.13281 9.77796 5.13281 11.3514C5.13281 12.9249 6.42349 14.2005 8.01562 14.2005ZM13.2891 9.75271C13.5997 9.75271 14.0859 9.75271 14.0859 9.1968C14.0859 8.64089 13.5997 8.64089 13.2891 8.64089C12.9784 8.64089 12.4922 8.64089 12.4922 9.1968C12.4922 9.75271 12.9784 9.75271 13.2891 9.75271ZM14.0859 11.3746C14.0859 11.9305 13.5997 11.9305 13.2891 11.9305C12.9784 11.9305 12.4922 11.9305 12.4922 11.3746C12.4922 10.8187 12.9784 10.8187 13.2891 10.8187C13.5997 10.8187 14.0859 10.8187 14.0859 11.3746ZM13.2891 14.1078C13.5997 14.1078 14.0859 14.1078 14.0859 13.5519C14.0859 12.996 13.5997 12.996 13.2891 12.996C12.9784 12.996 12.4922 12.996 12.4922 13.5519C12.4922 14.1078 12.9784 14.1078 13.2891 14.1078ZM16.4297 9.1968C16.4297 9.75271 15.9435 9.75271 15.6328 9.75271C15.3221 9.75271 14.8359 9.75271 14.8359 9.1968C14.8359 8.64089 15.3221 8.64089 15.6328 8.64089C15.9435 8.64089 16.4297 8.64089 16.4297 9.1968ZM17.9766 9.75271C18.2872 9.75271 18.7734 9.75271 18.7734 9.1968C18.7734 8.64089 18.2872 8.64089 17.9766 8.64089C17.6659 8.64089 17.1797 8.64089 17.1797 9.1968C17.1797 9.75271 17.6659 9.75271 17.9766 9.75271ZM16.4297 11.3746C16.4297 11.9305 15.9435 11.9305 15.6328 11.9305C15.3221 11.9305 14.8359 11.9305 14.8359 11.3746C14.8359 10.8187 15.3221 10.8187 15.6328 10.8187C15.9435 10.8187 16.4297 10.8187 16.4297 11.3746ZM17.9766 11.9305C18.2872 11.9305 18.7734 11.9305 18.7734 11.3746C18.7734 10.8187 18.2872 10.8187 17.9766 10.8187C17.6659 10.8187 17.1797 10.8187 17.1797 11.3746C17.1797 11.9305 17.6659 11.9305 17.9766 11.9305ZM16.4297 13.5519C16.4297 14.1078 15.9435 14.1078 15.6328 14.1078C15.3221 14.1078 14.8359 14.1078 14.8359 13.5519C14.8359 12.996 15.3221 12.996 15.6328 12.996C15.9435 12.996 16.4297 12.996 16.4297 13.5519ZM17.9766 14.1078C18.2872 14.1078 18.7734 14.1078 18.7734 13.5519C18.7734 12.996 18.2872 12.996 17.9766 12.996C17.6659 12.996 17.1797 12.996 17.1797 13.5519C17.1797 14.1078 17.6659 14.1078 17.9766 14.1078Z" fill="#062F81"/>
</g>
<defs>
<clipPath id="clip0_2496_28343">
<rect width="24" height="24" fill="white"/>
</clipPath>
</defs>
</svg>
