<svg width="24" height="24" viewBox="0 0 24 24" fill="none" xmlns="http://www.w3.org/2000/svg">
<g clip-path="url(#clip0_2496_28349)">
<g opacity="0.995">
<path fill-rule="evenodd" clip-rule="evenodd" d="M1.94543 -0.0234375C2.21105 -0.0234375 2.47667 -0.0234375 2.7423 -0.0234375C3.22481 0.122401 3.592 0.419277 3.84386 0.867188C5.43124 5.55122 7.00938 10.2387 8.57824 14.9297C12.2859 14.9687 15.9968 14.9921 19.7111 15C20.9066 17.3364 22.0706 19.6879 23.2032 22.0547C23.343 22.9946 22.9758 23.6352 22.1017 23.9766C21.836 23.9766 21.5704 23.9766 21.3048 23.9766C20.93 23.8602 20.6253 23.6415 20.3907 23.3203C19.5079 21.5547 18.6251 19.7891 17.7423 18.0234C14.7424 17.9766 11.7424 17.961 8.7423 17.9766C8.4475 16.5668 7.58032 15.8012 6.14074 15.6797C5.90397 15.713 5.6696 15.7598 5.43761 15.8203C3.84785 11.223 2.28535 6.61355 0.750112 1.99219C0.597759 0.983302 0.996197 0.311425 1.94543 -0.0234375Z" fill="#062F81"/>
<path fill-rule="evenodd" clip-rule="evenodd" d="M17.2267 2.74219C19.6224 3.53824 21.4114 5.05387 22.5939 7.28906C22.7809 7.68619 22.945 8.09245 23.0861 8.50781C23.0704 8.53908 23.0548 8.5703 23.0392 8.60156C22.6077 8.76895 22.1702 8.90175 21.7267 9C20.845 6.61838 19.2123 4.98558 16.8282 4.10156C16.9549 3.6508 17.0877 3.19768 17.2267 2.74219Z" fill="#062F81"/>
<path fill-rule="evenodd" clip-rule="evenodd" d="M16.3361 5.41406C18.3373 6.09497 19.6967 7.43091 20.4142 9.42188C20.3952 9.46617 20.3639 9.49744 20.3204 9.51562C19.9028 9.67059 19.4809 9.79561 19.0548 9.89062C18.4918 8.36662 17.4449 7.34316 15.9142 6.82031C16.0548 6.35156 16.1954 5.88281 16.3361 5.41406Z" fill="#062F81"/>
<path fill-rule="evenodd" clip-rule="evenodd" d="M7.71105 8.17969C10.2188 8.12508 12.7344 8.11725 15.2579 8.15625C16.795 8.50584 17.6309 9.46678 17.7657 11.0391C17.7892 11.8827 17.797 12.7264 17.7892 13.5703C17.0861 13.5703 16.3829 13.5703 15.6798 13.5703C15.6798 12.5391 15.6798 11.5078 15.6798 10.4766C13.289 10.4922 10.8984 10.4766 8.50793 10.4297C8.24088 9.67509 7.97524 8.92509 7.71105 8.17969Z" fill="#062F81"/>
<path fill-rule="evenodd" clip-rule="evenodd" d="M8.97668 11.8359C10.7579 11.8359 12.5392 11.8359 14.3204 11.8359C14.3204 12.414 14.3204 12.9922 14.3204 13.5703C12.7263 13.5859 11.1326 13.5703 9.53918 13.5234C9.34207 12.9633 9.15457 12.4008 8.97668 11.8359Z" fill="#062F81"/>
<path fill-rule="evenodd" clip-rule="evenodd" d="M5.78918 17.0859C6.75105 16.9627 7.29794 17.3768 7.4298 18.3281C7.37922 19.1209 6.95735 19.5506 6.16418 19.6172C5.07916 19.4294 4.69638 18.8044 5.01574 17.7422C5.20582 17.4406 5.46363 17.2219 5.78918 17.0859Z" fill="#062F81"/>
<path fill-rule="evenodd" clip-rule="evenodd" d="M17.6954 23.9766C12.3204 23.9766 6.94544 23.9766 1.57042 23.9766C1.67563 22.3793 2.50376 21.3871 4.0548 21C4.83607 20.9844 5.61728 20.9687 6.39855 20.9531C7.38358 20.8193 8.10232 20.3115 8.5548 19.4297C11.3359 19.375 14.1172 19.3672 16.8986 19.4062C17.1624 19.9104 17.4202 20.4182 17.672 20.9297C17.6954 21.9452 17.7033 22.9608 17.6954 23.9766Z" fill="#062F81"/>
</g>
</g>
<defs>
<clipPath id="clip0_2496_28349">
<rect width="24" height="24" fill="white"/>
</clipPath>
</defs>
</svg>
