<svg width="24" height="24" viewBox="0 0 24 24" fill="none" xmlns="http://www.w3.org/2000/svg">
<g opacity="0.96">
<path d="M11 8.5C11.5599 8.24151 12.2776 8 12.9125 8V9.77654C12.3596 9.77654 11.8398 10.0937 11.5878 10.2696C11.2059 10.5334 9.85335 10.4086 9.49339 10.1234C9.2944 9.96533 8.96229 9.77646 8.49933 9.77646C7.98638 9.77646 7.5128 10.011 7.23382 10.4028C6.97884 10.7607 6.47676 10.9095 6.0308 10.7567C4.9789 10.3969 3.99973 11.1071 3.99973 11.9971C3.99973 12.1534 4.03562 12.3018 4.09152 12.4413L12.9125 12.4414V14.2179C12.9125 15.7778 13.5461 17.0558 14.5 18L5.80527 17.9999C3.04451 17.9999 1 15.7821 1 13.3296C1 12.8392 1.44796 12.4413 1.99991 12.4413H2.06045C2.03478 12.2947 1.99991 12.1504 1.99991 11.9971C1.99991 10.13 3.91037 8.63775 6.01518 8.92289C7.07309 7.968 9.65912 7.83557 11 8.5Z" fill="#062F81"/>
<path d="M14 8.88827C14 8.39795 14.4029 8 14.8994 8H22.0942C22.5907 8 22.9936 8.39795 22.9936 8.88827L23 14.4469C23 16.4091 21.3892 18 19.4026 18H17.6038C15.6172 18 14.0064 16.4091 14.0064 14.4469L14 8.88827Z" fill="#062F81"/>
<path fill-rule="evenodd" clip-rule="evenodd" d="M1 20C1 19.4477 1.39766 19 1.8882 19H22.1118C22.6023 19 23 19.4477 23 20C23 20.5523 22.6023 21 22.1118 21H1.8882C1.39766 21 1 20.5523 1 20Z" fill="#062F81"/>
<path fill-rule="evenodd" clip-rule="evenodd" d="M20 2.50002C20.4046 2.49703 20.75 2.875 20.75 3.25004C20.75 3.625 20.75 4.8457 20.75 5.25C20.75 5.625 20.375 6 20 6C19.625 6 19.25 5.625 19.25 5.25C19.25 4.875 19.25 3.625 19.25 3.25004C19.25 2.87504 19.5954 2.50301 20 2.50002Z" fill="#062F81"/>
<path fill-rule="evenodd" clip-rule="evenodd" d="M16.75 4.00002C17.1546 3.99703 17.5 4.375 17.5 4.75004C17.5 5.125 17.5 5.8457 17.5 6.25C17.5 6.625 17.125 7 16.75 7C16.375 7 16 6.625 16 6.25C16 5.875 16 5.125 16 4.75004C16 4.37504 16.3454 4.00301 16.75 4.00002Z" fill="#062F81"/>
</g>
</svg>
