<svg width="24" height="24" viewBox="0 0 24 24" fill="none" xmlns="http://www.w3.org/2000/svg">
<g clip-path="url(#clip0_2496_28342)">
<g opacity="0.974">
<path fill-rule="evenodd" clip-rule="evenodd" d="M16.0078 -0.0234375C16.2109 -0.0234375 16.4141 -0.0234375 16.6172 -0.0234375C16.9532 0.117584 17.1642 0.367583 17.25 0.726562C17.2734 1.49203 17.2813 2.25765 17.2734 3.02344C13.8203 3.03125 10.3672 3.02344 6.91406 3C9.95559 2.00439 12.9868 0.996577 16.0078 -0.0234375Z" fill="#062F81"/>
<path fill-rule="evenodd" clip-rule="evenodd" d="M19.4297 23.9766C14.4609 23.9766 9.49219 23.9766 4.52344 23.9766C4.16771 23.8312 3.95677 23.5656 3.89063 23.1797C3.85937 17.1953 3.85937 11.211 3.89063 5.22656C3.97656 4.76564 4.25 4.49219 4.71094 4.40625C9.55467 4.375 14.3985 4.375 19.2422 4.40625C19.7031 4.49219 19.9766 4.76564 20.0625 5.22656C20.0938 11.211 20.0938 17.1953 20.0625 23.1797C19.9964 23.5656 19.7854 23.8312 19.4297 23.9766ZM11.8828 8.03906C12.5117 8.12292 12.7617 8.48231 12.6328 9.11719C14.3138 9.42267 15.4935 10.3602 16.1719 11.9297C16.2798 12.2207 16.3657 12.5176 16.4297 12.8203C16.7001 12.8453 16.9423 12.939 17.1563 13.1016C17.4492 13.5786 17.3476 13.9457 16.8516 14.2031C13.6016 14.2344 10.3515 14.2344 7.10156 14.2031C6.60549 13.9457 6.50391 13.5786 6.79688 13.1016C7.01081 12.939 7.25302 12.8453 7.52344 12.8203C7.85916 11.2501 8.74978 10.1173 10.1953 9.42188C10.555 9.26166 10.93 9.16008 11.3203 9.11719C11.2035 8.58488 11.391 8.22548 11.8828 8.03906ZM7.38281 16.1953C8.63292 16.1875 9.88289 16.1953 11.1328 16.2188C11.6394 16.4901 11.7332 16.8651 11.4141 17.3438C11.291 17.4443 11.1503 17.5068 10.9922 17.5312C9.82031 17.5625 8.64844 17.5625 7.47656 17.5312C6.96816 17.366 6.80409 17.03 6.98438 16.5234C7.09988 16.3837 7.23267 16.2743 7.38281 16.1953ZM7.24219 19.0078C10.3985 19 13.5547 19.0078 16.7109 19.0312C17.1483 19.2788 17.2498 19.6304 17.0156 20.0859C16.8698 20.2409 16.6901 20.3268 16.4766 20.3438C13.4766 20.375 10.4766 20.375 7.47656 20.3438C6.94772 20.2633 6.73678 19.9586 6.84375 19.4297C6.92288 19.2335 7.05567 19.0929 7.24219 19.0078Z" fill="#062F81"/>
<path fill-rule="evenodd" clip-rule="evenodd" d="M11.4609 10.4297C13.0812 10.2822 14.2297 10.9385 14.9063 12.3984C14.9696 12.5494 15.0087 12.7056 15.0234 12.8672C12.9922 12.8672 10.9609 12.8672 8.92969 12.8672C9.26817 11.5287 10.1119 10.7162 11.4609 10.4297Z" fill="#062F81"/>
</g>
</g>
<defs>
<clipPath id="clip0_2496_28342">
<rect width="24" height="24" fill="white"/>
</clipPath>
</defs>
</svg>
