<svg width="24" height="24" viewBox="0 0 24 24" fill="none" xmlns="http://www.w3.org/2000/svg">
<g opacity="0.985">
<path fill-rule="evenodd" clip-rule="evenodd" d="M11.3787 1C11.7497 1 12.1206 1 12.4915 1C14.2999 1.39057 15.3342 2.50776 15.5944 4.35156C15.6229 6.68618 15.6063 10.7619 15.5944 11.3555C15.5825 11.949 15.1521 12.4798 14.6956 12.9382C13.9647 13.672 12.4721 13.8597 11.9565 13.8548C10.587 13.8548 9.75444 13.7305 8.91782 12.9023C8.54577 12.4555 8.33178 11.9398 8.27584 11.3555C8.24729 9.02085 8.24729 6.68618 8.27584 4.35156C8.53725 2.50662 9.57157 1.38943 11.3787 1Z" fill="#062F81"/>
<path fill-rule="evenodd" clip-rule="evenodd" d="M1.00008 6.98029C0.99527 6.77882 1.2212 6.52239 1.4566 6.52196C2.13424 6.52239 2.82615 5.6048 2.82615 5.14617C2.82615 4.68776 3.28267 4.68815 3.28267 4.68815C3.28267 4.68815 3.73919 4.68813 3.73919 5.14617C3.73919 5.60421 4.65222 6.52148 5.10874 6.52148C5.56526 6.52148 5.56526 6.97982 5.56526 6.97982C5.56526 6.97982 5.56526 7.43815 5.10874 7.43815C4.65222 7.43815 3.73919 8.35482 3.73919 8.81315C3.73919 9.27148 3.28267 9.27148 3.28267 9.27148C3.28267 9.27148 2.82615 9.27148 2.82615 8.81315C2.82615 8.35482 2.13424 7.43863 1.4566 7.43863C1.2212 7.43863 1.00488 7.18177 1.00008 6.98029Z" fill="#062F81"/>
<path fill-rule="evenodd" clip-rule="evenodd" d="M18.5 3.29214C18.4952 3.09067 18.7211 2.83423 18.9565 2.83381C19.6342 2.83423 20.3261 1.91665 20.3261 1.45802C20.3261 0.999606 20.7826 1 20.7826 1C20.7826 1 21.2391 0.999979 21.2391 1.45802C21.2391 1.91606 22.1521 2.83333 22.6087 2.83333C23.0652 2.83333 23.0652 3.29167 23.0652 3.29167C23.0652 3.29167 23.0652 3.75 22.6087 3.75C22.1521 3.75 21.2391 4.66667 21.2391 5.125C21.2391 5.58333 20.7826 5.58333 20.7826 5.58333C20.7826 5.58333 20.3261 5.58333 20.3261 5.125C20.3261 4.66667 19.6342 3.75047 18.9565 3.75047C18.7211 3.75047 18.5048 3.49361 18.5 3.29214Z" fill="#062F81"/>
<path fill-rule="evenodd" clip-rule="evenodd" d="M18.3549 23C14.0751 23 9.79519 23 5.51533 23C5.49496 18.4589 5.51636 13.9185 5.57953 9.37891C5.78744 7.948 6.38662 6.71626 7.37707 5.68359C7.39132 7.6315 7.40562 9.57944 7.41987 11.5273C7.74535 13.2578 8.76541 14.3105 10.48 14.6855C11.5236 14.7825 12.565 14.7682 13.6043 14.6426C15.2079 14.2071 16.1566 13.1687 16.4504 11.5273C16.4575 9.57927 16.4789 7.63137 16.5146 5.68359C17.6198 6.81161 18.2261 8.1723 18.3335 9.76562C18.3549 14.1771 18.3621 18.5885 18.3549 23ZM9.21741 18.4382C11.0435 18.4382 12.8695 18.4453 14.6956 18.4453C14.6956 18.7318 14.6956 19.0683 14.6956 19.3548C12.8695 19.3548 11.0435 19.3548 9.21741 19.3548C9.21741 19.0683 9.21741 18.7246 9.21741 18.4382ZM9.21741 20.2715C11.0435 20.2715 12.8695 20.2715 14.6956 20.2715C14.6956 20.5723 14.6956 20.8874 14.6956 21.1882C12.8695 21.1882 11.0435 21.1882 9.21741 21.1882C9.21741 20.8874 9.21741 20.5723 9.21741 20.2715Z" fill="#062F81"/>
</g>
</svg>
