<svg width="24" height="24" viewBox="0 0 24 24" fill="none" xmlns="http://www.w3.org/2000/svg">
<path fill-rule="evenodd" clip-rule="evenodd" d="M14.0391 2.09774C13.8085 1.29472 12.9662 0.829365 12.1577 1.05835L5.32617 2.99319C4.51768 3.22217 4.04916 4.05877 4.2797 4.8618L6.22772 11.6471C6.45826 12.4502 7.30056 12.9155 8.10905 12.6865L14.9406 10.7517C15.7491 10.5227 16.2176 9.6861 15.9871 8.88308L14.0391 2.09774ZM10.8291 9.29577C12.1766 8.91414 12.9575 7.5198 12.5732 6.18142C12.189 4.84305 10.7852 4.06747 9.43767 4.4491C8.09018 4.83074 7.30931 6.22508 7.69355 7.56345C8.07778 8.90182 9.48162 9.67741 10.8291 9.29577Z" fill="#093182"/>
<path fill-rule="evenodd" clip-rule="evenodd" d="M14.8903 11.5C14.0707 11.3142 13.2546 11.8235 13.0675 12.6376L11.4869 19.5166C11.2999 20.3307 11.8127 21.1413 12.6323 21.3271L19.5581 22.897C20.3778 23.0828 21.1938 22.5734 21.3809 21.7593L22.9615 14.8804C23.1486 14.0663 22.6358 13.2557 21.8161 13.0699L14.8903 11.5ZM19.2867 19.9923L17.9016 14.2504L14.1456 18.8269L19.2867 19.9923Z" fill="#093182"/>
<path fill-rule="evenodd" clip-rule="evenodd" d="M11.1484 14.4322C11.1484 13.5972 10.4668 12.9203 9.62612 12.9203H2.52226C1.68154 12.9203 1 13.5972 1 14.4322L1 21.488C1 22.3231 1.68154 23 2.52226 23H9.62612C10.4668 23 11.1484 22.3231 11.1484 21.488V14.4322ZM7.34273 20.1425L8.61128 17.9601L7.34273 15.7778L4.80564 15.7778L3.53709 17.9601L4.80564 20.1425H7.34273Z" fill="#093182"/>
</svg>
