<svg width="24" height="24" viewBox="0 0 24 24" fill="none" xmlns="http://www.w3.org/2000/svg">
<g opacity="0.958">
<path fill-rule="evenodd" clip-rule="evenodd" d="M7.34069 3C8.82297 3.01748 10.2362 3.34591 11.5804 3.9853C11.668 8.18005 11.6827 12.3751 11.6246 16.5703C9.59262 15.3161 7.62353 14.6891 5.23911 14.6893C5.23911 10.8973 5.23911 7.10545 5.23911 3.31351C6.02134 3.17521 6.56248 3.0707 7.34069 3Z" fill="#062F81"/>
<path fill-rule="evenodd" clip-rule="evenodd" d="M15.6877 3.04479C16.2326 3.03733 16.7772 3.04479 17.3217 3.06718C17.8831 3.13891 18.4425 3.22102 19 3.31351C19 7.10545 19 10.8973 19 14.6893C16.6204 14.6852 14.4196 15.3122 12.3975 16.5703C12.3812 12.3753 12.3592 8.18023 12.3312 3.9853C13.4091 3.50629 14.5279 3.19278 15.6877 3.04479Z" fill="#062F81"/>
<path fill-rule="evenodd" clip-rule="evenodd" d="M4.03529 3.98438C4.1451 5.78143 4.19999 7.59357 4.2 9.42085C4.18627 11.233 4.17255 13.0452 4.15882 14.8573C3.71961 15.095 3.28039 15.3327 2.84118 15.5703C2.78627 11.9311 2.78627 8.29198 2.84118 4.65279C3.25595 4.43584 3.65398 4.21303 4.03529 3.98438Z" fill="#062F81"/>
<path fill-rule="evenodd" clip-rule="evenodd" d="M20.1819 3.98438C20.6439 4.21299 21.0952 4.45065 21.5357 4.69736C21.5904 8.32166 21.5904 11.946 21.5357 15.5703C21.0981 15.3327 20.6605 15.095 20.2229 14.8573C20.1819 11.233 20.1682 7.60872 20.1819 3.98438Z" fill="#062F81"/>
<path fill-rule="evenodd" clip-rule="evenodd" d="M1.76021 5.71875C1.83411 9.56602 1.89133 13.4254 1.93187 17.2969C1.99141 17.3695 2.06497 17.4241 2.15257 17.4609C5.44784 18.2463 8.74204 19.0354 12.0352 19.8281C15.3328 19.05 18.6271 18.2609 21.9179 17.4609C22.0055 17.4241 22.0791 17.3695 22.1386 17.2969C22.1956 13.4568 22.2365 9.61308 22.2612 5.76562C22.505 5.91273 22.7421 6.06898 22.9724 6.23438C22.9969 10.2812 23.0051 14.3281 22.9969 18.375C19.3451 19.1183 15.6912 19.8527 12.0352 20.5781C8.37925 19.8527 4.72535 19.1183 1.07357 18.375C1.03678 14.3278 1.01226 10.2809 1 6.23438C1.26961 6.07875 1.52301 5.90687 1.76021 5.71875Z" fill="#062F81"/>
<path fill-rule="evenodd" clip-rule="evenodd" d="M4.33594 15.9375C6.07683 15.9863 7.76433 16.3066 9.39844 16.8984C10.1536 17.2526 10.888 17.6432 11.6016 18.0703C11.6473 18.3551 11.663 18.6442 11.6484 18.9375C8.8957 18.2728 6.14569 17.5931 3.39844 16.8984C3.72044 16.5843 4.03294 16.264 4.33594 15.9375Z" fill="#062F81"/>
<path fill-rule="evenodd" clip-rule="evenodd" d="M19.3359 15.9375C19.4464 15.9299 19.5558 15.9376 19.6641 15.9609C19.9766 16.2735 20.289 16.5859 20.6016 16.8984C17.8683 17.5857 15.1339 18.2654 12.3984 18.9375C12.383 18.639 12.3986 18.3421 12.4453 18.0469C13.6711 17.2467 14.9992 16.6763 16.4297 16.3359C17.399 16.1564 18.3678 16.0236 19.3359 15.9375Z" fill="#062F81"/>
</g>
</svg>
