<svg width="24" height="24" viewBox="0 0 24 24" fill="none" xmlns="http://www.w3.org/2000/svg">
<path fill-rule="evenodd" clip-rule="evenodd" d="M1 3.44444C1 2.09451 2.01031 1 3.2564 1H17.7744C19.0204 1 20.0308 2.09451 20.0308 3.44444C20.0308 3.44444 20 12.925 20 19C20 19.5 20 20 20.5 20C21 20 21 19.5 20.9985 19V7C21 6.5 21.5 6 22 6C22.5 6 23 6.5 23 7C23 7.04339 22.9999 7.11111 22.9999 7.11111V19.3333C22.9999 21.3439 21.4712 23 19.6153 23H3.2564C2.01031 23 1 21.9055 1 20.5556V3.44444ZM4.66665 13.2222C4.66665 12.7158 5.04565 12.3056 5.5128 12.3056H14.5384C15.0055 12.3056 15.3845 12.7158 15.3845 13.2222C15.3845 13.7286 15.0055 14.1389 14.5384 14.1389H5.5128C5.04565 14.1389 4.66665 13.7286 4.66665 13.2222ZM6.641 5.27778C5.70615 5.27778 4.9487 6.09866 4.9487 7.11111C4.9487 8.12356 5.70615 8.94444 6.641 8.94444H14.3077C15.2425 8.94444 16 8.12356 16 7.11111C16 6.09866 15.2425 5.27778 14.3077 5.27778H6.641ZM8.05119 16.3542C8.05119 15.8478 8.43019 15.4375 8.89733 15.4375H14.5384C15.0055 15.4375 15.3845 15.8478 15.3845 16.3542C15.3845 16.8605 15.0055 17.2708 14.5384 17.2708H8.89733C8.43019 17.2708 8.05119 16.8605 8.05119 16.3542Z" fill="#062F81"/>
</svg>
