<svg width="24" height="24" viewBox="0 0 24 24" fill="none" xmlns="http://www.w3.org/2000/svg">
<g opacity="0.97">
<path fill-rule="evenodd" clip-rule="evenodd" d="M23 8.17647C23 10.8235 23 13.4706 23 16.1176C22.7692 16.8962 22.2392 17.3373 21.4102 17.4412C20.5939 17.4622 19.7775 17.4692 18.9609 17.4622C18.9681 18.8068 18.9609 20.1513 18.9395 21.4958C18.8607 21.7409 18.6959 21.902 18.4453 21.979C14.1484 22.007 9.85156 22.007 5.55469 21.979C5.30404 21.902 5.13932 21.7409 5.06055 21.4958C5.03906 20.1513 5.0319 18.8068 5.03906 17.4622C4.22253 17.4692 3.40613 17.4622 2.58984 17.4412C1.76075 17.3373 1.23081 16.8962 1 16.1176C1 13.4706 1 10.8235 1 8.17647C1.24199 7.35916 1.80059 6.91798 2.67578 6.85294C3.46341 6.83193 4.25117 6.82491 5.03906 6.83193C5.0319 5.38928 5.03906 3.94671 5.06055 2.5042C5.13932 2.25911 5.30404 2.09804 5.55469 2.02101C9.85156 1.993 14.1484 1.993 18.4453 2.02101C18.6959 2.09804 18.8607 2.25911 18.9395 2.5042C18.9609 3.94671 18.9681 5.38928 18.9609 6.83193C19.7488 6.82491 20.5366 6.83193 21.3242 6.85294C22.1994 6.91798 22.758 7.35916 23 8.17647ZM6.54297 3.47059C10.181 3.47059 13.819 3.47059 17.457 3.47059C17.457 4.59104 17.457 5.71147 17.457 6.83193C13.819 6.83193 10.181 6.83193 6.54297 6.83193C6.54297 5.71147 6.54297 4.59104 6.54297 3.47059ZM16.3828 9.64706C17.0724 9.62932 17.7599 9.65033 18.4453 9.71008C18.8293 9.87974 18.9797 10.1668 18.8965 10.5714C18.7774 10.8419 18.5698 11.003 18.2734 11.0546C17.555 11.0942 16.8388 11.0801 16.125 11.0126C15.67 10.7842 15.5482 10.441 15.7598 9.98319C15.9258 9.78668 16.1335 9.67462 16.3828 9.64706ZM6.54297 14.7311C10.181 14.7311 13.819 14.7311 17.457 14.7311C17.457 16.6639 17.457 18.5966 17.457 20.5294C13.819 20.5294 10.181 20.5294 6.54297 20.5294C6.54297 18.5966 6.54297 16.6639 6.54297 14.7311Z" fill="#062F81"/>
<path fill-rule="evenodd" clip-rule="evenodd" d="M8.5625 15.7815C10.8542 15.7745 13.1459 15.7815 15.4375 15.8025C15.7578 15.9389 15.9297 16.177 15.9531 16.5168C15.8958 16.937 15.6523 17.1751 15.2227 17.2311C13.0742 17.2591 10.9258 17.2591 8.77734 17.2311C8.34766 17.1751 8.10415 16.937 8.04688 16.5168C8.07605 16.1736 8.24793 15.9285 8.5625 15.7815Z" fill="#062F81"/>
<path fill-rule="evenodd" clip-rule="evenodd" d="M8.73438 18.0084C10.9115 18.0014 13.0886 18.0084 15.2656 18.0294C15.8844 18.2239 16.0635 18.6091 15.8027 19.1849C15.7055 19.3081 15.5837 19.3991 15.4375 19.458C13.1458 19.486 10.8542 19.486 8.5625 19.458C8.24221 19.3216 8.07034 19.0835 8.04688 18.7437C8.10677 18.3422 8.33593 18.0971 8.73438 18.0084Z" fill="#062F81"/>
</g>
</svg>
