<svg width="24" height="24" viewBox="0 0 24 24" fill="none" xmlns="http://www.w3.org/2000/svg">
<g opacity="0.993">
<path fill-rule="evenodd" clip-rule="evenodd" d="M11.7422 1C11.9141 1 12.0859 1 12.2578 1C12.4288 1.07798 12.5505 1.20689 12.623 1.38672C12.6445 1.94513 12.6517 2.50372 12.6445 3.0625C12.4287 3.03898 12.2139 3.01034 12 2.97656C11.7861 3.01034 11.5713 3.03898 11.3555 3.0625C11.3483 2.50372 11.3555 1.94513 11.377 1.38672C11.4495 1.20689 11.5712 1.07798 11.7422 1Z" fill="#062F81"/>
<path fill-rule="evenodd" clip-rule="evenodd" d="M11.5703 3.83594C12.7748 3.73845 13.6485 4.22542 14.1914 5.29688C12.7305 5.35415 11.2695 5.35415 9.80859 5.29688C10.1898 4.55734 10.777 4.07035 11.5703 3.83594Z" fill="#062F81"/>
<path fill-rule="evenodd" clip-rule="evenodd" d="M1 6.88672C1 6.71484 1 6.54297 1 6.37109C1.14773 6.0887 1.38405 5.9598 1.70898 5.98438C3.83765 6.21929 5.96461 6.46996 8.08984 6.73633C8.12972 6.753 8.15838 6.78166 8.17578 6.82227C8.14141 7.23361 8.17007 7.64181 8.26172 8.04688C8.21875 8.06118 8.17578 8.07554 8.13281 8.08984C7.4035 7.98612 6.67304 7.90736 5.94141 7.85352C6.44547 8.4027 6.55289 9.02575 6.26367 9.72266C5.77658 10.4554 5.11057 10.6775 4.26563 10.3887C3.46841 9.9173 3.21776 9.23694 3.51367 8.34766C3.66178 8.04198 3.88378 7.80565 4.17969 7.63867C3.25171 7.49937 2.32072 7.37046 1.38672 7.25195C1.20689 7.17942 1.07798 7.05769 1 6.88672Z" fill="#062F81"/>
<path fill-rule="evenodd" clip-rule="evenodd" d="M23 6.37109C23 6.54297 23 6.71484 23 6.88672C22.922 7.05769 22.7931 7.17942 22.6133 7.25195C21.6793 7.37046 20.7483 7.49937 19.8203 7.63867C20.5901 8.15816 20.7978 8.85284 20.4434 9.72266C19.9563 10.4554 19.2903 10.6775 18.4453 10.3887C17.6097 9.88693 17.3733 9.17794 17.7363 8.26172C17.8282 8.11395 17.9357 7.97787 18.0586 7.85352C17.3271 7.90736 16.5966 7.98612 15.8672 8.08984C15.8242 8.07554 15.7813 8.06118 15.7383 8.04688C15.8287 7.64911 15.8574 7.24804 15.8242 6.84375C15.8379 6.79446 15.8665 6.75863 15.9102 6.73633C18.0361 6.47624 20.1631 6.2256 22.291 5.98438C22.6159 5.9598 22.8523 6.0887 23 6.37109Z" fill="#062F81"/>
<path fill-rule="evenodd" clip-rule="evenodd" d="M9.42188 6.62891C11.1406 6.62891 12.8594 6.62891 14.5781 6.62891C14.7037 7.76745 14.3886 8.76291 13.6328 9.61523C12.8047 10.353 11.8881 10.4819 10.8828 10.002C10.2339 9.58666 9.79712 9.00658 9.57227 8.26172C9.42256 7.72534 9.37242 7.18105 9.42188 6.62891Z" fill="#062F81"/>
<path fill-rule="evenodd" clip-rule="evenodd" d="M3.36328 23C2.70443 23 2.04557 23 1.38672 23C1.32283 22.944 1.25121 22.8939 1.17188 22.8496C1.12046 22.763 1.06317 22.6842 1 22.6133C1 18.9896 1 15.3659 1 11.7422C1.07798 11.5712 1.20689 11.4495 1.38672 11.377C3.49233 11.3412 5.59779 11.3483 7.70313 11.3984C6.25615 15.2669 4.80954 19.1341 3.36328 23Z" fill="#062F81"/>
<path fill-rule="evenodd" clip-rule="evenodd" d="M19.3047 23C17.0846 23 14.8646 23 12.6445 23C12.6604 22.5536 12.6389 22.1096 12.5801 21.668C12.3153 21.2401 11.9715 21.1685 11.5488 21.4531C11.5059 21.5248 11.4629 21.5963 11.4199 21.668C11.3611 22.1096 11.3396 22.5536 11.3555 23C9.1354 23 6.91538 23 4.69531 23C6.13025 19.1322 7.56971 15.265 9.01367 11.3984C9.79098 11.3558 10.5716 11.3415 11.3555 11.3555C11.3388 11.8591 11.3603 12.3604 11.4199 12.8594C11.6847 13.2872 12.0285 13.3588 12.4512 13.0742C12.4941 13.0026 12.5371 12.931 12.5801 12.8594C12.6397 12.3604 12.6612 11.8591 12.6445 11.3555C13.4284 11.3415 14.209 11.3558 14.9863 11.3984C16.4303 15.265 17.8697 19.1322 19.3047 23ZM11.7852 14.4062C12.2545 14.3503 12.5338 14.5508 12.623 15.0078C12.6602 15.4397 12.6459 15.8694 12.5801 16.2969C12.3281 16.7156 11.9914 16.7945 11.5703 16.5332C11.4531 16.4062 11.3887 16.2558 11.377 16.082C11.3398 15.6501 11.3541 15.2204 11.4199 14.793C11.4925 14.6131 11.6142 14.4842 11.7852 14.4062ZM11.7852 17.6719C12.2545 17.6159 12.5338 17.8164 12.623 18.2734C12.661 18.7626 12.6467 19.2496 12.5801 19.7344C12.3281 20.1531 11.9914 20.232 11.5703 19.9707C11.4531 19.8437 11.3887 19.6933 11.377 19.5195C11.339 19.0304 11.3533 18.5434 11.4199 18.0586C11.4925 17.8788 11.6142 17.7499 11.7852 17.6719Z" fill="#062F81"/>
<path fill-rule="evenodd" clip-rule="evenodd" d="M23 11.7422C23 15.3659 23 18.9896 23 22.6133C22.944 22.6772 22.8939 22.7488 22.8496 22.8281C22.763 22.8796 22.6842 22.9368 22.6133 23C21.9544 23 21.2956 23 20.6367 23C19.1905 19.1341 17.7438 15.2669 16.2969 11.3984C18.4022 11.3483 20.5077 11.3412 22.6133 11.377C22.7931 11.4495 22.922 11.5712 23 11.7422Z" fill="#062F81"/>
</g>
</svg>
