<svg width="24" height="24" viewBox="0 0 24 24" fill="none" xmlns="http://www.w3.org/2000/svg">
<g opacity="0.998">
<path fill-rule="evenodd" clip-rule="evenodd" d="M8.28913 1.00005C8.65043 0.916794 8.96878 0.91966 9.31818 1.00005C10.6337 1.30316 11.5055 2.13606 11.9337 3.49877C12.7486 3.6956 13.4204 4.13477 13.9489 4.81627C13.1372 5.64026 12.5155 6.60949 12.0838 7.72387C11.5108 9.0983 11.0892 10.5218 10.8189 11.9944C10.2608 12.0095 9.70335 11.9944 9.14667 11.949C9.86092 10.8524 10.1682 9.64084 10.0685 8.31448C9.77397 7.378 9.15941 6.87826 8.22481 6.81525C6.98901 6.90061 5.89564 7.35493 4.94471 8.17818C4.39279 7.67363 3.76393 7.31018 3.05811 7.08784C2.99829 5.54166 3.62716 4.42859 4.94471 3.74864C5.1866 3.66068 5.42956 3.57739 5.67362 3.49877C6.10183 2.13606 6.97366 1.30316 8.28913 1.00005Z" fill="#062F81"/>
<path fill-rule="evenodd" clip-rule="evenodd" d="M17.3791 1.00005C17.6182 0.907626 17.878 0.924121 18.108 1.00005C18.5648 1.15026 18.9078 1.45313 19.1371 1.90868C19.9523 1.54344 20.6169 1.7403 21.1308 2.49928C21.2422 2.744 21.3065 3.00144 21.3238 3.27161C22.1494 3.23881 22.6925 3.63255 22.9531 4.45282C23 4.74813 23 5.00024 22.9531 5.22516C22.7994 5.66847 22.5278 6.00921 22.1385 6.24736C21.8095 6.37625 21.4808 6.50495 21.1523 6.63352C21.0867 6.63221 21.0367 6.6019 21.0022 6.54266C20.4875 5.8005 19.8515 5.20229 19.0942 4.74813C18.2854 4.2303 17.4136 3.91228 16.4787 3.79407C16.4004 3.39527 16.2396 3.00024 16.2643 2.59015C16.3118 1.79858 16.6834 1.26855 17.3791 1.00005Z" fill="#062F81"/>
<path fill-rule="evenodd" clip-rule="evenodd" d="M16.1785 5.13484C17.6293 5.27878 18.8513 5.91481 19.8445 7.04295C20.3552 7.76036 20.4909 8.54786 20.2519 9.40538C19.7641 9.0864 19.2638 8.7911 18.7512 8.51947C18.2155 8.51179 17.9796 8.79196 18.0437 9.35995C18.0892 9.49906 18.1678 9.61263 18.2795 9.70068C18.794 10.0187 19.3086 10.3367 19.8231 10.6547C19.5852 11.1185 19.3137 11.5576 19.0084 11.9722C16.6931 11.995 14.3777 12.0025 12.0623 11.995C12.2617 10.9826 12.5476 9.99825 12.9199 9.04193C13.3988 9.34872 13.8848 9.64403 14.3777 9.92784C14.6921 10.0087 14.9422 9.91021 15.128 9.63253C15.2359 9.34977 15.2002 9.09236 15.0208 8.8602C14.5134 8.52319 13.9989 8.19759 13.4773 7.88343C13.4549 7.85794 13.4406 7.82764 13.4344 7.79257C13.7651 7.01601 14.2225 6.33454 14.8065 5.74816C15.213 5.40551 15.6703 5.20107 16.1785 5.13484Z" fill="#062F81"/>
<path fill-rule="evenodd" clip-rule="evenodd" d="M1 9.2235C1 9.01147 1 8.79949 1 8.58746C1.13828 8.30561 1.35981 8.15419 1.6646 8.13315C2.67235 8.20557 3.54419 8.59932 4.28011 9.31436C4.54899 9.65678 4.76337 10.0354 4.92326 10.4501C5.4332 9.22918 6.31218 8.49474 7.56021 8.24673C7.82918 8.17785 8.10072 8.14755 8.37488 8.15587C8.70893 8.26767 8.88044 8.50996 8.8894 8.88277C8.83452 9.86899 8.51294 10.7398 7.92467 11.4951C7.74398 11.6714 7.55104 11.8304 7.34583 11.9721C5.73077 12.0024 4.11574 12.0024 2.5007 11.9721C1.84995 11.495 1.41404 10.8513 1.19295 10.0413C1.12725 9.76281 1.06294 9.49023 1 9.2235Z" fill="#062F81"/>
<path fill-rule="evenodd" clip-rule="evenodd" d="M22.9531 8.85945C23 8.99996 23 9.23867 22.9531 9.35919C22.6164 10.2249 22.302 11.1033 22.0098 11.9942C21.5094 12.0018 21.0092 11.9942 20.5091 11.9715C21.1527 10.9781 21.5386 9.88015 21.6668 8.67772C21.9806 8.39391 22.3236 8.3409 22.6959 8.51871C22.83 8.58277 22.894 8.72833 22.9531 8.85945Z" fill="#062F81"/>
<path fill-rule="evenodd" clip-rule="evenodd" d="M1 13.0001C8.31772 13.0001 15.6823 13.0001 23 13.0001C23 14.106 23 15.212 23 16.3179C22.6334 18.3244 21.7349 19.2278 19.7289 19.8756C19.4915 19.9504 19.2485 19.9918 19 20.0001C19.0072 20.7191 19.0214 21.2813 19 22.0001C19 22.5001 18.5 23.0001 18 23.0001C13.798 23.0001 10.202 23.0001 6 23.0001C5.5 23.0001 5 22.5001 5 22.0001C4.97857 21.2813 4.99286 20.7191 5 20.0001C3.06403 19.7104 2.01541 19.1112 1.2787 17.3548C1.15288 17.0116 1.05998 16.666 1 16.3179C1 15.212 1 14.106 1 13.0001Z" fill="#062F81"/>
</g>
</svg>
