<svg width="24" height="24" viewBox="0 0 24 24" fill="none" xmlns="http://www.w3.org/2000/svg">
<path opacity="0.989" fill-rule="evenodd" clip-rule="evenodd" d="M9 1C13.866 1 17.134 1 22 1C22.5 1 23 1.5 23 2C23 9 23.0289 14.9245 23 22C22.998 22.5 22.5 23 22 23C21.1625 23 21.8375 23 21 23C20.5 23 20 22.5 20 22V6C17.04 6 13.96 6 11 6C11.0072 11.5573 11.0217 16.4427 11 22C11 22.5 10.5 23 10 23C7.31432 23 5.68568 23 3 23C2.5 23 2 22.5 2 22C1.97834 19.2787 1.99278 16.7214 2 14C1.5 14 1 13.5 1 13C1 12.5 1.5 12.0051 2 12C4.09362 11.9785 5.90629 11.9928 8 12C7.99276 8.06118 7.97834 5.93878 8 2C8 1.5 8.5 1 9 1ZM11 3C11.5 3 12 3 12 3.5C12 4 11.5 3.99219 11 4C10.5 4.00781 10 4 10 3.5C10 3 10.5 3 11 3ZM14 3C14.4366 3 15 3.06338 15 3.5C15 3.93662 14.4366 4 14 4C13.5634 4 13 3.93662 13 3.5C13 3.06338 13.5634 3 14 3ZM17 3C17.4366 3 18 3.06338 18 3.5C18 3.93662 17.4366 4 17 4C16.5634 4 16 3.93662 16 3.5C16 3.06338 16.5634 3 17 3ZM20 3C20.4366 3 21 3.06338 21 3.5C21 3.93662 20.4366 4 20 4C19.5634 4 19 3.93662 19 3.5C19 3.06338 19.5634 3 20 3Z" fill="#062F81"/>
</svg>
