<svg width="24" height="24" viewBox="0 0 24 24" fill="none" xmlns="http://www.w3.org/2000/svg">
<g opacity="0.96">
<path fill-rule="evenodd" clip-rule="evenodd" d="M13.9914 1C14.4768 1 14.9622 1 15.4477 1C17.9204 1.36461 19.6422 2.63935 20.6132 4.82422C20.7918 5.29849 20.997 5.97256 21 6.5C21.0304 11.8281 21 16.6718 21 22C21 22.5 20.5 23 20 23C19.5 23 19 22.5 19 22C18.9545 16.9023 19 12 19 7C19 5 17.3079 3.3937 15.1291 3.04102C13.7603 2.95355 12.6073 3.37607 11.6703 4.30859C14.3268 5.44194 15.9713 7.2375 16 10C16 10.5 15.5 11 15 11C11.315 11.0709 7.68772 11.0422 4 11C3.5 11 3 10.5 3 10C3 8 4.04138 5.93775 6.20906 4.67383C7.17784 4.19449 8.20943 3.92951 9.30378 3.87891C10.3972 2.23838 11.9597 1.27874 13.9914 1Z" fill="#062F81"/>
<path fill-rule="evenodd" clip-rule="evenodd" d="M14 13C14.5395 12.996 15 13.5 15 14.0001C15 14.5 15 15.4609 15 16C15 16.5 14.5 17 14 17C13.5 17 13 16.5 13 16C13 15.5 13 14.5 13 14.0001C13 13.5001 13.4605 13.004 14 13Z" fill="#062F81"/>
<path fill-rule="evenodd" clip-rule="evenodd" d="M9.5 13C10.0395 12.996 10.5 13.5 10.5 14.0001C10.5 14.5 10.5 15.4609 10.5 16C10.5 16.5 10 17 9.5 17C9 17 8.5 16.5 8.5 16C8.5 15.5 8.5 14.5 8.5 14.0001C8.5 13.5001 8.9605 13.004 9.5 13Z" fill="#062F81"/>
<path fill-rule="evenodd" clip-rule="evenodd" d="M11.5 19C12.0395 18.996 12.5 19.5 12.5 20.0001C12.5 20.5 12.5 21.4609 12.5 22C12.5 22.5 12 23 11.5 23C11 23 10.5 22.5 10.5 22C10.5 21.5 10.5 20.5 10.5 20.0001C10.5 19.5001 10.9605 19.004 11.5 19Z" fill="#062F81"/>
<path fill-rule="evenodd" clip-rule="evenodd" d="M5 13C5.53949 12.996 6 13.5 6 14.0001C6 14.5 6 15.4609 6 16C6 16.5 5.5 17 5 17C4.5 17 4 16.5 4 16C4 15.5 4 14.5 4 14.0001C4 13.5001 4.4605 13.004 5 13Z" fill="#062F81"/>
<path fill-rule="evenodd" clip-rule="evenodd" d="M7 19C7.53949 18.996 8 19.5 8 20.0001C8 20.5 8 21.4609 8 22C8 22.5 7.5 23 7 23C6.5 23 6 22.5 6 22C6 21.5 6 20.5 6 20.0001C6 19.5001 6.4605 19.004 7 19Z" fill="#062F81"/>
</g>
</svg>
