<svg width="24" height="24" viewBox="0 0 24 24" fill="none" xmlns="http://www.w3.org/2000/svg">
<path d="M2 5.00037C1.5 5.00037 1 5.50037 1 6.00037V18.9998C1 19.4998 1.5 19.9999 2 20.0003C2.5 19.9998 3 19.5003 3 19.0004V17.0004H11.3325C16.0247 17.0004 20.627 17.0201 21 17.0003C21.0135 18.1835 21 18.4997 21 19.0003C21 19.4997 21.5 20.0003 22 20C22.5 19.9998 23 19.5521 23 18.9997C23 17.9997 22.991 16.6176 22.991 16.6176V14.0004L12.8831 14.0352H3V10.0004C3 7.00037 3 6.50037 3 6.00037C3 5.50037 2.5 5.00037 2 5.00037Z" fill="#062F81"/>
<path d="M11 7.00037C10 7.00037 9 8.00037 9.00504 9.00037L9.01381 10.7412L9 13.0004H23V11.7847C23 10.7308 22.9862 10.5065 22.9079 10.1517C22.6087 8.83689 21.7662 7.75167 20.6567 7.26645C20.4633 7.18297 20.1825 7.08906 20.0352 7.05776C19.8464 7.01602 18.2766 7.00037 15.1092 7.00037C11.5 7.00037 11 7.00037 11 7.00037Z" fill="#062F81"/>
<path d="M8 10.0003C8 11.1048 7.10457 12.0003 6 12.0003C4.89543 12.0003 4 11.1048 4 10.0003C4 8.89569 4.89543 8.00026 6 8.00026C7.10457 8.00026 8 8.89569 8 10.0003Z" fill="#062F81"/>
</svg>
