<svg width="24" height="24" viewBox="0 0 24 24" fill="none" xmlns="http://www.w3.org/2000/svg">
<g opacity="0.952">
<path fill-rule="evenodd" clip-rule="evenodd" d="M19 21C13.3333 21 7.66668 21 2 21C1.46811 21 1 20.5 1 20C1 18.3621 1 17.395 1 16C1 15.5 1.5 15 2 15C8.00002 15 13 15 19 15C19 17 19 19 19 21Z" fill="#062F81"/>
<path fill-rule="evenodd" clip-rule="evenodd" d="M22 15C22.5 15 23 15.5 23 16C23 17.3333 23 18.5 23 20C23 20.5 22.5 21 22 21C21 21 22 21 21 21C20.5 21 20 20.9996 20 20.9996C20 20.9996 20 16.405 20 16C20 15.5 20 14.5004 20 15C20 15 21.3333 15 22 15Z" fill="#062F81"/>
<path fill-rule="evenodd" clip-rule="evenodd" d="M20.4143 6C20.8792 6 21.048 6.58111 20.7737 6.91406C19.8792 8 20.0903 8.77707 20.8791 9.5C21.6271 10.1855 21.8792 11 21.3792 12C21.0955 12.5673 20.8792 13 20.3792 13C19.8792 13 19.4296 12.5 19.8792 12C20.6239 11.1716 20.8792 11 19.8791 10C18.8792 9 18.7608 8.06966 19.3791 7C19.562 6.71477 19.9143 6 20.4143 6Z" fill="#062F81"/>
<path fill-rule="evenodd" clip-rule="evenodd" d="M22.4143 2C22.8792 2 23.048 2.58111 22.7737 2.91406C21.8792 4 22.0903 4.77707 22.8791 5.5C23.6271 6.18553 23.8792 7 23.3792 8C23.0955 8.56732 22.8792 9 22.3792 9C21.8792 9 21.4296 8.50004 21.8792 8C22.6239 7.17158 22.8792 7 21.8791 6C20.8792 5 20.7608 4.06966 21.3791 3C21.562 2.71477 21.9143 2 22.4143 2Z" fill="#062F81"/>
</g>
</svg>
