<svg width="24" height="24" viewBox="0 0 24 24" fill="none" xmlns="http://www.w3.org/2000/svg">
<g opacity="0.995">
<path fill-rule="evenodd" clip-rule="evenodd" d="M9.03518 1.90039C9.47918 1.90039 9.92322 1.90039 10.3672 1.90039C10.3672 2.7168 10.3672 3.5332 10.3672 4.34961C9.92335 4.29374 9.47931 4.29374 9.03518 4.34961C9.03518 3.5332 9.03518 2.7168 9.03518 1.90039Z" fill="#062F81"/>
<path fill-rule="evenodd" clip-rule="evenodd" d="M13.6328 1.90039C14.0768 1.90039 14.5209 1.90039 14.9649 1.90039C14.9649 2.7168 14.9649 3.5332 14.9649 4.34961C14.5207 4.29374 14.0767 4.29374 13.6328 4.34961C13.6328 3.5332 13.6328 2.7168 13.6328 1.90039Z" fill="#062F81"/>
<path fill-rule="evenodd" clip-rule="evenodd" d="M9.33596 5.55295C10.9395 5.49516 11.8419 6.26142 12.043 7.85178C11.9894 8.8475 11.5168 9.56366 10.625 10.0002C9.73987 10.3141 8.92346 10.1852 8.17581 9.6135C7.27058 8.64559 7.16316 7.59285 7.85354 6.4553C8.24769 5.98286 8.74183 5.68208 9.33596 5.55295Z" fill="#062F81"/>
<path fill-rule="evenodd" clip-rule="evenodd" d="M13.9336 5.55344C15.3457 5.48164 16.2266 6.12617 16.5762 7.48704C16.625 7.86898 16.5892 8.24135 16.4688 8.60422C16.049 8.32334 15.5906 8.12998 15.0938 8.02415C14.4796 7.96532 13.8638 7.94384 13.2461 7.95969C13.2698 7.31159 13.1265 6.70286 12.8164 6.13352C12.8732 6.01948 12.9591 5.93354 13.0742 5.87571C13.3518 5.7291 13.6383 5.62168 13.9336 5.55344Z" fill="#062F81"/>
<path fill-rule="evenodd" clip-rule="evenodd" d="M4.69533 9.20494C5.26843 9.19776 5.84135 9.20494 6.41408 9.22642C7.08182 10.5954 8.17752 11.333 9.70119 11.4393C11.2195 11.3359 12.3152 10.6054 12.9883 9.2479C13.575 9.1978 14.1623 9.19063 14.75 9.22642C15.7512 9.39688 16.3599 9.97695 16.5762 10.9667C16.5977 11.7686 16.6049 12.5707 16.5977 13.3729C12 13.3729 7.40237 13.3729 2.80471 13.3729C2.79755 12.6136 2.80471 11.8546 2.82619 11.0956C3.01294 10.028 3.63598 9.39778 4.69533 9.20494Z" fill="#062F81"/>
<path fill-rule="evenodd" clip-rule="evenodd" d="M17.586 9.20494C18.159 9.19776 18.732 9.20494 19.3047 9.22642C20.3718 9.40547 20.9948 10.0285 21.1739 11.0956C21.1953 11.8546 21.2025 12.6136 21.1953 13.3729C20.0782 13.3729 18.961 13.3729 17.8438 13.3729C17.851 12.5564 17.8438 11.74 17.8223 10.9237C17.7659 10.4536 17.6155 10.0168 17.3711 9.61314C17.4488 9.47929 17.5204 9.34325 17.586 9.20494Z" fill="#062F81"/>
<path fill-rule="evenodd" clip-rule="evenodd" d="M3.75002 14.6191C7.73181 14.6191 11.7136 14.6191 15.6953 14.6191C15.6953 15.4128 15.6953 16.2064 15.6953 17C11.7136 17 7.73181 17 3.75002 17C3.75002 16.2064 3.75002 15.4128 3.75002 14.6191Z" fill="#062F81"/>
<path fill-rule="evenodd" clip-rule="evenodd" d="M16.9414 14.6191C18.0443 14.6191 19.1471 14.6191 20.25 14.6191C20.25 15.4128 20.25 16.2064 20.25 17C19.1471 17 18.0443 17 16.9414 17C16.9414 16.2064 16.9414 15.4128 16.9414 14.6191Z" fill="#062F81"/>
<path fill-rule="evenodd" clip-rule="evenodd" d="M23 18.9995C23 19.4995 19 22.0002 16 22.0002C12.8758 22.0002 11 21.9995 8.00001 22.0002C5.04662 22.0009 1 19.6073 1 18.9995C1 19.4556 1 18.5435 1 18.9995C1 18.5435 1.5 18.0016 2 17.9998C9.07553 17.9744 14.9245 17.9749 22 18.0002C22.5 18.002 23 18.4995 23 18.9995Z" fill="#062F81"/>
</g>
</svg>
