<svg width="24" height="24" viewBox="0 0 24 24" fill="none" xmlns="http://www.w3.org/2000/svg">
<g opacity="0.981">
<path fill-rule="evenodd" clip-rule="evenodd" d="M5.14496 6.11771C9.71386 6.10851 14.2827 6.11771 18.8515 6.14524C19.4904 6.24853 19.8492 6.69819 19.9279 7.49417C19.9901 9.32821 20.0121 11.1635 19.9938 13C14.6634 13 9.33307 13 4.00274 13C3.99543 11.3665 4.00274 9.73311 4.02471 8.09981C3.93844 7.00883 4.31186 6.34813 5.14496 6.11771Z" fill="#062F81"/>
<path fill-rule="evenodd" clip-rule="evenodd" d="M23 10.691C23 12.5429 23 14.3948 23 16.2467C22.8569 16.746 22.5561 17.0491 22.0977 17.1563C21.8689 17.1808 21.6398 17.189 21.4102 17.1809C21.4102 17.7872 21.4102 18.3936 21.4102 19C20.8659 19 20.3216 19 19.7773 19C19.7773 18.3936 19.7773 17.7872 19.7773 17.1809C14.5924 17.1809 9.40757 17.1809 4.22266 17.1809C4.22266 17.7872 4.22266 18.3936 4.22266 19C3.67838 19 3.13412 19 2.58984 19C2.58984 18.3936 2.58984 17.7872 2.58984 17.1809C2.18331 17.2309 1.79659 17.1571 1.42969 16.9596C1.22594 16.7618 1.08271 16.5242 1 16.2467C1 14.3948 1 12.5429 1 10.691C1.28981 9.87802 1.80544 9.6076 2.54688 9.87974C2.85161 10.0479 3.04496 10.3183 3.12695 10.691C3.14844 11.8053 3.1556 12.9197 3.14844 14.0343C9.04946 14.0343 14.9505 14.0343 20.8516 14.0343C20.8444 12.9197 20.8516 11.8053 20.873 10.691C21.076 9.99675 21.4985 9.69355 22.1406 9.78141C22.5753 9.91037 22.8618 10.2136 23 10.691Z" fill="#062F81"/>
</g>
</svg>
