<svg width="24" height="24" viewBox="0 0 24 24" fill="none" xmlns="http://www.w3.org/2000/svg">
<g clip-path="url(#clip0_2496_28350)">
<g opacity="0.972">
<path fill-rule="evenodd" clip-rule="evenodd" d="M11.9297 4.89844C13.4379 6.16613 14.4926 7.74422 15.0938 9.63281C15.4874 11.2491 15.2999 12.796 14.5312 14.2734C13.8792 15.5112 13.0276 16.5893 11.9766 17.5078C10.5381 16.2789 9.51464 14.7633 8.90625 12.9609C8.42728 11.147 8.66166 9.4282 9.60938 7.80469C10.2503 6.73364 11.0237 5.76492 11.9297 4.89844Z" fill="#062F81"/>
<path fill-rule="evenodd" clip-rule="evenodd" d="M4.57031 7.28906C5.7427 7.41028 6.8677 7.70714 7.94531 8.17969C7.02881 10.3587 7.08352 12.515 8.10938 14.6484C8.51377 15.4814 9.00595 16.2548 9.58594 16.9688C6.06905 15.9336 4.30343 13.5664 4.28906 9.86719C4.3006 8.9977 4.39435 8.13834 4.57031 7.28906Z" fill="#062F81"/>
<path fill-rule="evenodd" clip-rule="evenodd" d="M19.1953 7.28906C19.3905 7.30181 19.4764 7.41122 19.4531 7.61719C19.7647 9.22191 19.7178 10.8157 19.3125 12.3984C18.9699 13.5921 18.3371 14.5999 17.4141 15.4219C16.5157 16.1692 15.5002 16.6848 14.3672 16.9688C15.4614 15.663 16.188 14.1708 16.5469 12.4922C16.797 11.0005 16.6172 9.56302 16.0078 8.17969C17.0343 7.73569 18.0968 7.43883 19.1953 7.28906Z" fill="#062F81"/>
<path fill-rule="evenodd" clip-rule="evenodd" d="M-0.0234375 13.8047C-0.0234375 13.7578 -0.0234375 13.7109 -0.0234375 13.6641C0.998869 13.0592 2.09262 12.6374 3.25781 12.3984C3.82362 14.6748 5.13614 16.3701 7.19531 17.4844C8.02158 17.9108 8.88098 18.2546 9.77344 18.5156C6.62658 19.6918 3.94689 19.0277 1.73438 16.5234C1.04219 15.686 0.456249 14.7797 -0.0234375 13.8047Z" fill="#062F81"/>
<path fill-rule="evenodd" clip-rule="evenodd" d="M23.9766 13.6641C23.9766 13.7109 23.9766 13.7578 23.9766 13.8047C23.2546 15.3165 22.2547 16.6212 20.9766 17.7188C19.3372 18.9579 17.509 19.3485 15.4922 18.8906C15.0418 18.8093 14.6043 18.6843 14.1797 18.5156C15.7925 18.0844 17.23 17.3344 18.4922 16.2656C19.6321 15.213 20.3664 13.9239 20.6953 12.3984C21.8605 12.6374 22.9543 13.0592 23.9766 13.6641Z" fill="#062F81"/>
</g>
</g>
<defs>
<clipPath id="clip0_2496_28350">
<rect width="24" height="24" fill="white"/>
</clipPath>
</defs>
</svg>
