<svg width="24" height="24" viewBox="0 0 24 24" fill="none" xmlns="http://www.w3.org/2000/svg">
<path fill-rule="evenodd" clip-rule="evenodd" d="M2.86905 4.30005C1.83687 4.30005 1 5.15214 1 6.20308V15.7182C1 16.3435 1.29613 16.8983 1.75344 17.2453C1.83038 17.3036 1.93452 17.2421 1.93452 17.1455C1.93452 14.7807 3.81726 12.8637 6.13988 12.8637C8.4625 12.8637 10.3452 14.7807 10.3452 17.1455C10.3452 17.4 10.5418 17.6213 10.7964 17.6213H13.6322C13.8867 17.6213 14.0833 17.4 14.0833 17.1455C14.0833 14.7807 15.9661 12.8637 18.2887 12.8637C20.6113 12.8637 22.494 14.7807 22.494 17.1455C22.494 17.2421 22.5982 17.3036 22.6751 17.2453C23.1324 16.8983 23.4286 16.3435 23.4286 15.7182V14.281C23.4286 12.0901 22.9914 9.92249 22.1441 7.90888L21.1105 5.45344C20.8157 4.75374 20.1404 4.30005 19.3925 4.30005H2.86905ZM3.86886 6.20314C3.31658 6.20314 2.86886 6.65085 2.86886 7.20314V9.96071C2.86886 10.513 3.31658 10.9607 3.86886 10.9607H7.476C8.02829 10.9607 8.476 10.513 8.476 9.96071V7.20314C8.476 6.65085 8.02829 6.20314 7.476 6.20314H3.86886ZM9.41071 7.20314C9.41071 6.65085 9.85843 6.20314 10.4107 6.20314H14.0179C14.5701 6.20314 15.0179 6.65085 15.0179 7.20314V9.96071C15.0179 10.513 14.5701 10.9607 14.0179 10.9607H10.4107C9.85842 10.9607 9.41071 10.513 9.41071 9.96071V7.20314ZM16.9526 6.20314C16.4003 6.20314 15.9526 6.65085 15.9526 7.20314V9.96071C15.9526 10.513 16.4003 10.9607 16.9526 10.9607H20.0924C20.7973 10.9607 21.2809 10.2511 21.0232 9.59506L19.9399 6.83748C19.7895 6.4548 19.4203 6.20314 19.0091 6.20314H16.9526Z" fill="#062F81"/>
<path fill-rule="evenodd" clip-rule="evenodd" d="M21.0908 17.2396C21.0705 17.9545 20.8165 18.6502 20.3025 19.179C19.764 19.7329 19.0397 20.001 18.2885 20.001C17.5243 20.001 16.8017 19.7193 16.2699 19.167C15.7421 18.6189 15.4849 17.8908 15.4849 17.1465C15.4849 15.7106 16.4748 14.5877 17.7579 14.3421C17.9298 14.3085 18.1072 14.291 18.2887 14.291C18.4393 14.291 18.5872 14.3031 18.7313 14.3263C20.0085 14.5267 21.029 15.5841 21.0893 17.0126C21.0913 17.0566 21.0923 17.1009 21.0923 17.1455C21.0923 17.177 21.0918 17.2084 21.0908 17.2396ZM16.9548 17.6213C17.1275 18.1904 17.6171 18.5738 18.2885 18.5738C18.9628 18.5738 19.4538 18.1993 19.6245 17.6213C19.6404 17.5675 19.6534 17.5119 19.6637 17.4547C19.6656 17.4438 19.6675 17.4328 19.6692 17.4218C19.6831 17.3336 19.6903 17.2417 19.6903 17.1465C19.6903 16.3069 19.0643 15.7192 18.2885 15.7192C17.5993 15.7192 17.0283 16.1983 16.9094 16.8805C16.8946 16.9658 16.8869 17.0543 16.8869 17.1455C16.8869 17.2108 16.8906 17.2749 16.8974 17.3374C16.9083 17.4361 16.9274 17.5311 16.9548 17.6213Z" fill="#062F81"/>
<path fill-rule="evenodd" clip-rule="evenodd" d="M8.06042 19.179C7.52193 19.7329 6.79763 20.001 6.04643 20.001C5.28223 20.001 4.55966 19.7193 4.02779 19.167C3.50005 18.6189 3.24286 17.8908 3.24286 17.1465C3.24286 15.5179 4.51623 14.2919 6.04643 14.2919C7.56401 14.2919 8.85001 15.4861 8.85001 17.1465C8.85001 17.8938 8.59672 18.6273 8.06042 19.179ZM6.04643 18.5738C6.89123 18.5738 7.44822 17.986 7.44822 17.1465C7.44822 16.3069 6.8222 15.7192 6.04643 15.7192C5.27067 15.7192 4.64465 16.3261 4.64465 17.1465C4.64465 17.9669 5.20164 18.5738 6.04643 18.5738Z" fill="#062F81"/>
</svg>
