<svg width="24" height="24" viewBox="0 0 24 24" fill="none" xmlns="http://www.w3.org/2000/svg">
<path fill-rule="evenodd" clip-rule="evenodd" d="M3 3C1.89543 3 1 3.89543 1 5V16C1 17.1046 1.89543 18 3 18H21C22.1046 18 23 17.1046 23 16V5C23 3.89543 22.1046 3 21 3H3ZM15.1966 11.6277C15.8234 11.2936 15.8234 10.4582 15.1966 10.124L10.9658 7.8685C10.339 7.53435 9.55556 7.95204 9.55556 8.62035V13.1314C9.55556 13.7998 10.339 14.2174 10.9658 13.8833L15.1966 11.6277Z" fill="#062F81"/>
<path fill-rule="evenodd" clip-rule="evenodd" d="M1 20C1 19.4477 1.39766 19 1.8882 19H22.1118C22.6023 19 23 19.4477 23 20C23 20.5523 22.6023 21 22.1118 21H1.8882C1.39766 21 1 20.5523 1 20Z" fill="#062F81"/>
</svg>
