<svg width="24" height="24" viewBox="0 0 24 24" fill="none" xmlns="http://www.w3.org/2000/svg">
<path fill-rule="evenodd" clip-rule="evenodd" d="M18.5333 4.01947C20.1635 3.94438 21.7742 4.08651 23.3656 4.44585C23.3868 4.46865 23.4004 4.49572 23.4062 4.52707C22.8325 5.19341 22.3655 5.93113 22.0053 6.74022C21.5939 8.07432 21.2013 9.41439 20.8276 10.7604C20.3791 12.3867 19.3571 13.4763 17.7617 14.0294C16.6404 14.3945 15.4899 14.5976 14.31 14.6385C13.998 15.0187 13.734 15.4316 13.5181 15.8771C12.4873 18.2249 11.6752 20.6479 11.0816 23.146C10.9498 23.4044 10.74 23.4924 10.4522 23.4099C10.3372 23.349 10.3588 23.4099 10.1883 23.146C10.0177 22.882 10.8784 19.3556 10.926 19.1604C10.9735 18.9652 11.2163 18.0519 11.2441 17.9481C11.6024 16.5142 12.2116 15.2012 13.0714 14.0091C14.9685 11.2863 17.3035 9.01899 20.0764 7.20722C20.3463 7.0022 20.3463 6.79916 20.0764 6.59809C19.9625 6.56743 19.8542 6.58097 19.7515 6.6387C16.9204 8.48495 14.5313 10.7928 12.5841 13.5624C12.0687 11.9889 11.9874 10.3916 12.3405 8.77063C13.1214 6.17609 14.8472 4.63974 17.518 4.1616C17.8621 4.11146 18.2005 4.06408 18.5333 4.01947Z" fill="#062F81"/>
<path fill-rule="evenodd" clip-rule="evenodd" d="M3.11926 7.01435C4.83013 6.93546 6.48269 7.18188 8.07696 7.75368C10.1148 8.55096 11.2716 9.96967 11.5473 12.0098C10.5291 10.7198 9.22861 9.75399 7.64585 9.11245C6.57943 8.66749 5.47293 8.33443 4.32635 8.11335C3.96094 8.02679 3.76695 8.15336 3.74437 8.49301C3.78029 8.63288 3.8737 8.71948 4.02458 8.75277C6.05784 9.10953 7.89723 9.85554 9.54271 10.9907C10.5834 11.8078 11.3666 12.8002 11.8922 13.9681C11.9424 14.2195 11.9783 14.4726 12 14.7274C10.9496 14.9486 9.88621 15.0352 8.80983 14.9871C6.37496 14.7811 4.70085 13.6288 3.78748 11.5303C3.29109 10.1364 2.70192 8.77763 2.01995 7.45395C1.97926 7.34017 2.00081 7.24026 2.08462 7.15422C2.43362 7.09432 2.7785 7.04768 3.11926 7.01435Z" fill="#062F81"/>
</svg>
