<svg width="24" height="24" viewBox="0 0 24 24" fill="none" xmlns="http://www.w3.org/2000/svg">
<path opacity="0.965" fill-rule="evenodd" clip-rule="evenodd" d="M11.9419 3C13.6702 3.11689 14.7478 4.01331 15.1746 5.6892C15.3744 7.19098 14.8309 8.32582 13.5439 9.09361C13.329 9.27019 13.1573 9.47994 13.029 9.723C15.8614 11.3777 18.7032 13.0179 21.5543 14.6437C22.9367 15.7382 23.3277 17.121 22.7273 18.7919C22.1183 19.998 21.1361 20.6369 19.7806 20.7087C14.5929 20.7468 9.40525 20.7468 4.21755 20.7087C2.5156 20.5897 1.45708 19.7029 1.04201 18.0481C0.828439 16.4249 1.42922 15.2139 2.84434 14.4148C5.58098 12.8844 8.30834 11.3396 11.0264 9.78022C11.2209 8.70305 11.793 7.90201 12.7429 7.3771C13.3267 6.90483 13.4698 6.32311 13.172 5.63198C12.4458 4.71376 11.6829 4.67566 10.8833 5.51755C10.7145 5.85833 10.6192 6.22075 10.5973 6.60467C10.3413 7.1186 9.93125 7.2998 9.36709 7.14824C9.10961 7.04336 8.9284 6.86215 8.82352 6.60467C8.69049 5.09941 9.29127 4.00273 10.6259 3.31469C11.0576 3.1447 11.4963 3.03977 11.9419 3ZM11.9419 11.4109C12.1244 11.4448 12.2961 11.5115 12.4568 11.6112C15.1367 13.1705 17.8259 14.7154 20.5244 16.2457C21.338 16.9891 21.3571 17.752 20.5816 18.5344C20.3368 18.6951 20.0699 18.7904 19.7806 18.8205C14.5929 18.8587 9.40525 18.8587 4.21755 18.8205C3.13403 18.5903 2.72399 17.9323 2.98739 16.8465C3.10611 16.6131 3.26821 16.4129 3.47373 16.2457C6.30935 14.647 9.13204 13.0354 11.9419 11.4109Z" fill="#062F81"/>
</svg>
