<svg width="24" height="24" viewBox="0 0 24 24" fill="none" xmlns="http://www.w3.org/2000/svg">
<g opacity="0.986">
<path fill-rule="evenodd" clip-rule="evenodd" d="M4.60938 3.02642C6.24141 2.88016 7.40875 3.53311 8.11133 4.98528C8.63572 6.57716 8.22752 7.87597 6.88672 8.88171C6.05557 9.38114 5.16756 9.50889 4.22266 9.26497C2.61753 8.68093 1.85126 7.53823 1.92383 5.83696C2.19717 4.30999 3.09235 3.37314 4.60938 3.02642Z" fill="#062F81"/>
<path fill-rule="evenodd" clip-rule="evenodd" d="M11.7422 3.02642C12.2336 2.92628 12.5415 3.11081 12.666 3.58001C12.6947 9.20109 12.6947 14.8222 12.666 20.4433C12.4821 20.9707 12.1312 21.1198 11.6133 20.8904C11.4489 20.7844 11.3558 20.6354 11.334 20.4433C11.3053 14.8222 11.3053 9.20109 11.334 3.58001C11.3875 3.33059 11.5236 3.14606 11.7422 3.02642Z" fill="#062F81"/>
<path fill-rule="evenodd" clip-rule="evenodd" d="M18.3594 3.02642C19.9914 2.88016 21.1587 3.53311 21.8613 4.98528C22.4043 6.69281 21.9245 8.03421 20.4219 9.00947C18.8763 9.69673 17.5228 9.43411 16.3613 8.22166C15.4675 6.95892 15.4245 5.66722 16.2324 4.34652C16.7769 3.64054 17.4859 3.2005 18.3594 3.02642Z" fill="#062F81"/>
<path fill-rule="evenodd" clip-rule="evenodd" d="M1 11.5858C1 11.4296 1 11.2735 1 11.1174C1.09622 10.9158 1.25377 10.7809 1.47266 10.7128C3.90755 10.6844 6.34243 10.6844 8.77734 10.7128C9.09033 10.8104 9.2622 11.0233 9.29297 11.3516C8.12856 14.4444 6.94692 17.5318 5.74805 20.6136C5.4978 21.0084 5.1612 21.1007 4.73828 20.8904C4.64337 20.8106 4.56459 20.7184 4.50195 20.6136C3.34419 17.5958 2.17687 14.5866 1 11.5858Z" fill="#062F81"/>
<path fill-rule="evenodd" clip-rule="evenodd" d="M23 20.1026C23 20.2587 23 20.4149 23 20.571C22.9088 20.7535 22.7656 20.8883 22.5703 20.9756C20.1068 21.004 17.6432 21.004 15.1797 20.9756C14.8894 20.8584 14.7319 20.6454 14.707 20.3368C15.8717 17.2433 17.0533 14.1559 18.252 11.0748C18.504 10.6888 18.8406 10.5965 19.2617 10.798C19.3566 10.8778 19.4354 10.97 19.498 11.0748C20.6558 14.0925 21.8231 17.1018 23 20.1026Z" fill="#062F81"/>
</g>
</svg>
