<svg width="24" height="24" viewBox="0 0 24 24" fill="none" xmlns="http://www.w3.org/2000/svg">
<g opacity="0.969">
<path fill-rule="evenodd" clip-rule="evenodd" d="M23 8.74785C23 8.95427 23 9.1607 23 9.36713C22.7423 10.0073 22.2553 10.2757 21.5391 10.1722C21.3432 10.1331 21.1713 10.0506 21.0234 9.92448C17.7918 6.93557 13.9533 5.80711 9.50781 6.53906C6.94589 7.04696 4.75449 8.18921 2.93359 9.96577C2.45626 10.2519 1.96928 10.2657 1.47266 10.0071C1.24501 9.83667 1.08746 9.62335 1 9.36713C1 9.1607 1 8.95427 1 8.74785C1.06248 8.62779 1.12693 8.50393 1.19336 8.37627C4.1628 5.50904 7.765 4.05029 12 4C16.235 4.05029 19.8372 5.50904 22.8066 8.37627C22.8731 8.50393 22.9375 8.62779 23 8.74785Z" fill="#062F81"/>
<path fill-rule="evenodd" clip-rule="evenodd" d="M11.7422 8.37627C14.7662 8.3693 17.3515 9.3739 19.498 11.3901C19.836 11.8538 19.8646 12.3355 19.584 12.8351C19.0885 13.3571 18.5227 13.4465 17.8867 13.1035C15.2865 10.7417 12.293 10.1362 8.90625 11.2869C8.38409 11.5138 7.88278 11.7753 7.40234 12.0713C6.89321 12.4467 6.39189 12.8321 5.89844 13.2273C5.17618 13.441 4.63907 13.2277 4.28711 12.5874C4.11554 11.9948 4.28025 11.5062 4.78125 11.1218C6.75137 9.39809 9.07168 8.48292 11.7422 8.37627Z" fill="#062F81"/>
<path fill-rule="evenodd" clip-rule="evenodd" d="M11.6563 12.7113C13.5315 12.6578 15.1142 13.277 16.4043 14.5691C16.7337 15.1702 16.6406 15.7 16.125 16.1586C15.6738 16.4375 15.2155 16.4512 14.75 16.1999C13.3333 14.8868 11.7578 14.6804 10.0234 15.5806C9.75308 15.7715 9.49527 15.9779 9.25 16.1999C8.78452 16.4512 8.32617 16.4375 7.875 16.1586C7.44372 15.7961 7.30764 15.3488 7.4668 14.8168C7.5404 14.6363 7.64782 14.478 7.78906 14.342C8.883 13.3701 10.1721 12.8265 11.6563 12.7113Z" fill="#062F81"/>
<path fill-rule="evenodd" clip-rule="evenodd" d="M11.7852 16.9637C13.0981 17.0071 13.6782 17.6539 13.5254 18.9041C13.1856 19.7796 12.534 20.1305 11.5703 19.9569C10.6591 19.6304 10.2939 19.0043 10.4746 18.0784C10.6787 17.4485 11.1155 17.077 11.7852 16.9637Z" fill="#062F81"/>
</g>
</svg>
