<svg fill="none" height="16" viewBox="0 0 32 16" width="32" xmlns="http://www.w3.org/2000/svg">
    <path
        d="M28.8 0H3.2C1.43269 0 0 1.43269 0 3.2V12.8C0 14.5673 1.43269 16 3.2 16H28.8C30.5673 16 32 14.5673 32 12.8V3.2C32 1.43269 30.5673 0 28.8 0Z"
        fill="#F6F6F6" />
    <ellipse cx="18.9202" cy="8" fill="#F79E1B" rx="5.07937" ry="5" />
    <ellipse cx="13.0794" cy="8" fill="#EB001B" rx="5.07937" ry="5" />
    <path
        d="M15.9996 12.0908C17.3052 11.1859 18.1583 9.69077 18.1583 7.99948C18.1583 6.3082 17.3052 4.81304 15.9996 3.9082C14.6939 4.81304 13.8408 6.3082 13.8408 7.99948C13.8408 9.69077 14.6939 11.1859 15.9996 12.0908Z"
        fill="#FF5F00" />
</svg>
