<svg fill="none" height="16" viewBox="0 0 32 16" width="32" xmlns="http://www.w3.org/2000/svg">
    <path
        d="M28.8 0H3.2C1.43269 0 0 1.43269 0 3.2V12.8C0 14.5673 1.43269 16 3.2 16H28.8C30.5673 16 32 14.5673 32 12.8V3.2C32 1.43269 30.5673 0 28.8 0Z"
        fill="#F6F6F6" />
    <path clip-rule="evenodd"
        d="M6.37566 4.79992C6.58593 4.79867 7.21083 4.74238 7.47553 5.63573C7.65383 6.2375 7.93785 7.22323 8.3276 8.59292H8.48633C8.9043 7.1489 9.19142 6.16317 9.3477 5.63573C9.61515 4.73308 10.2838 4.79994 10.5512 4.79994L12.6147 4.79994V11.2188H10.5116V7.43607H10.3705L9.19814 11.2188H7.61579L6.44339 7.43326H6.30236V11.2188H4.19922V4.79994L6.37566 4.79992ZM15.6348 4.79994V8.58551H15.8026L17.2287 5.47267C17.5055 4.8532 18.0955 4.79994 18.0955 4.79994H20.1307V11.2188H17.9837V7.43326H17.8159L16.4177 10.5461C16.1409 11.1628 15.5229 11.2188 15.5229 11.2188H13.4877V4.79994H15.6348ZM27.552 7.85024C27.2525 8.69893 26.3119 9.30674 25.2707 9.30674H23.019V11.2188H20.9773V7.85024H27.552Z"
        fill="#0F754E" fill-rule="evenodd" />
    <path clip-rule="evenodd"
        d="M25.369 4.80078H20.8701C20.9772 6.22984 22.2079 7.45321 23.4819 7.45321H27.6937C27.9368 6.26549 27.1001 4.80078 25.369 4.80078Z"
        fill="url(#paint0_linear_6067_95426)" fill-rule="evenodd" />
    <defs>
        <linearGradient gradientUnits="userSpaceOnUse" id="paint0_linear_6067_95426" x1="27.735"
            x2="20.8701" y1="6.46928" y2="6.46928">
            <stop stop-color="#1F5CD7" />
            <stop offset="1" stop-color="#02AEFF" />
        </linearGradient>
    </defs>
</svg>
