<svg fill="none" height="10" viewBox="0 0 21 10" width="21" xmlns="http://www.w3.org/2000/svg">
    <g clip-path="url(#clip0_6067_95425)">
        <path
            d="M5.82778 0H9.81394C10.3704 0 10.7165 0.45354 10.5867 1.01182L8.73081 8.97967C8.59984 9.53601 8.04273 9.98993 7.48591 9.98993H3.50013C2.94448 9.98993 2.59762 9.53601 2.72742 8.97967L4.58405 1.01182C4.71385 0.45354 5.27067 0 5.82778 0Z"
            fill="#E21836" />
        <path
            d="M9.48183 0H14.0658C14.6221 0 14.3713 0.45354 14.2404 1.01182L12.3849 8.97967C12.2547 9.53601 12.2953 9.98993 11.7378 9.98993H7.15379C6.59629 9.98993 6.25128 9.53601 6.38225 8.97967L8.2377 1.01182C8.36945 0.45354 8.92511 0 9.48183 0Z"
            fill="#00447C" />
        <path
            d="M13.884 0H17.8701C18.4274 0 18.7734 0.45354 18.6426 1.01182L16.787 8.97967C16.656 9.53601 16.0985 9.98993 15.5414 9.98993H11.5571C10.9996 9.98993 10.6538 9.53601 10.7844 8.97967L12.6402 1.01182C12.7701 0.45354 13.3265 0 13.884 0Z"
            fill="#007B84" />
        <path
            d="M6.86843 2.55313C6.45851 2.55731 6.33745 2.55313 6.29878 2.544C6.28392 2.61463 6.0073 3.89063 6.00652 3.8917C5.94697 4.14985 5.90363 4.33387 5.75644 4.4527C5.67288 4.52178 5.57533 4.5551 5.46224 4.5551C5.28045 4.5551 5.17455 4.46484 5.15677 4.29365L5.15337 4.23486C5.15337 4.23486 5.20875 3.88907 5.20875 3.88713C5.20875 3.88713 5.49906 2.72433 5.55104 2.57062C5.55376 2.56188 5.55454 2.55731 5.55522 2.55313C4.99014 2.55809 4.88997 2.55313 4.88307 2.544C4.87928 2.55653 4.86529 2.62862 4.86529 2.62862L4.56886 3.93921L4.5434 4.05036L4.49414 4.41393C4.49414 4.52178 4.51532 4.6098 4.55749 4.68423C4.69254 4.92023 5.07778 4.95559 5.29571 4.95559C5.5765 4.95559 5.8399 4.89594 6.01789 4.78702C6.32686 4.60446 6.4077 4.3191 6.47979 4.06552L6.51321 3.93542C6.51321 3.93542 6.81227 2.72773 6.86308 2.57062C6.86503 2.56188 6.8658 2.55731 6.86843 2.55313ZM7.88595 3.52739C7.81386 3.52739 7.68211 3.54488 7.56377 3.60288C7.52082 3.62494 7.48021 3.65039 7.43736 3.67575L7.47603 3.53613L7.45485 3.51262C7.20389 3.56343 7.14773 3.57024 6.91591 3.60288L6.89648 3.6158C6.86956 3.83898 6.84566 4.00677 6.74588 4.44545C6.70789 4.60712 6.66844 4.77035 6.6289 4.93163L6.63959 4.95213C6.87714 4.9396 6.94923 4.9396 7.1557 4.943L7.17241 4.92483C7.19864 4.79046 7.20204 4.75898 7.26014 4.48684C7.28745 4.35781 7.34438 4.0743 7.37246 3.97335C7.42405 3.94945 7.47496 3.92594 7.52354 3.92594C7.63926 3.92594 7.62517 4.02689 7.6207 4.06711C7.61575 4.13463 7.57358 4.35519 7.53034 4.54455L7.50149 4.66678C7.48138 4.75704 7.45932 4.84477 7.43921 4.93426L7.44795 4.95213C7.68211 4.9396 7.75352 4.9396 7.95347 4.943L7.97699 4.92483C8.01313 4.71497 8.02372 4.65881 8.08785 4.35324L8.1201 4.21285C8.18277 3.93808 8.21425 3.79875 8.16684 3.68527C8.1167 3.55809 7.99642 3.52739 7.88595 3.52739ZM9.02264 3.81507C8.89818 3.83897 8.8188 3.8549 8.7399 3.8652C8.66169 3.87774 8.58542 3.8891 8.46514 3.90581L8.45561 3.91446L8.44687 3.92136C8.43434 4.01094 8.42559 4.08838 8.40898 4.17942C8.39489 4.27356 8.37322 4.38054 8.33795 4.53424C8.31065 4.6519 8.29656 4.6929 8.28102 4.73429C8.26586 4.77568 8.24915 4.81591 8.21845 4.93162L8.22564 4.94231L8.23166 4.95212C8.34407 4.94678 8.41762 4.94299 8.49321 4.94231C8.56871 4.93959 8.64692 4.94231 8.76798 4.94299L8.77857 4.93434L8.78994 4.92482C8.80743 4.82047 8.81005 4.79239 8.82074 4.74148C8.83133 4.68688 8.8496 4.61129 8.89439 4.40939C8.91557 4.31456 8.93918 4.22003 8.96113 4.12326C8.98397 4.02687 9.00787 3.93195 9.0306 3.83712L9.0272 3.82566L9.02264 3.81507ZM9.02529 3.42719C8.9122 3.36044 8.7137 3.38162 8.5801 3.47382C8.4469 3.56418 8.43174 3.69243 8.54445 3.76006C8.6556 3.82496 8.85487 3.80562 8.9873 3.71264C9.12021 3.62034 9.13683 3.49326 9.02529 3.42719ZM9.70924 4.97304C9.93805 4.97304 10.1726 4.90999 10.3491 4.72286C10.485 4.57109 10.5472 4.3453 10.5688 4.25231C10.6391 3.94412 10.5844 3.80023 10.5157 3.71259C10.4113 3.579 10.2269 3.53615 10.0356 3.53615C9.92056 3.53615 9.64657 3.54752 9.43253 3.74485C9.27883 3.88719 9.2078 4.08034 9.16496 4.26553C9.12172 4.45421 9.07197 4.79388 9.38434 4.92029C9.48072 4.96168 9.61966 4.97304 9.70924 4.97304ZM9.69137 4.27962C9.74412 4.04624 9.8064 3.85037 9.96535 3.85037C10.0899 3.85037 10.0989 3.9961 10.0436 4.23026C10.0337 4.28224 9.98819 4.47549 9.92669 4.55778C9.88374 4.61851 9.83293 4.65533 9.77677 4.65533C9.76006 4.65533 9.66066 4.65533 9.65911 4.50775C9.65833 4.43488 9.6732 4.36045 9.69137 4.27962ZM11.1408 4.94303L11.1587 4.92486C11.184 4.79049 11.1882 4.75891 11.2444 4.48687C11.2724 4.35784 11.3305 4.07433 11.3578 3.97338C11.4095 3.94938 11.4596 3.92587 11.5097 3.92587C11.6246 3.92587 11.6107 4.02682 11.6061 4.06704C11.6019 4.13466 11.5597 4.35512 11.5157 4.54448L11.4884 4.66671C11.4675 4.75707 11.4448 4.84471 11.4247 4.93429L11.4334 4.95216C11.6684 4.93963 11.7371 4.93963 11.9382 4.94303L11.9625 4.92486C11.9977 4.7149 12.0073 4.65874 12.0733 4.35327L12.1048 4.21278C12.1678 3.93801 12.1996 3.79878 12.153 3.6853C12.1014 3.55812 11.9803 3.52742 11.8714 3.52742C11.7992 3.52742 11.6668 3.54481 11.5492 3.60291C11.5071 3.62497 11.4649 3.65032 11.4235 3.67578L11.4596 3.53616L11.4402 3.51255C11.1894 3.56346 11.132 3.57026 10.9005 3.60291L10.8827 3.61583C10.8547 3.83901 10.8318 4.0067 10.732 4.44548C10.6941 4.60715 10.6546 4.77038 10.6152 4.93166L10.6257 4.95216C10.8637 4.93963 10.9347 4.93963 11.1408 4.94303ZM12.8669 4.95212C12.8816 4.88002 12.9694 4.45272 12.9702 4.45272C12.9702 4.45272 13.0449 4.13918 13.0494 4.12781C13.0494 4.12781 13.073 4.09517 13.0965 4.08225H13.1311C13.4574 4.08225 13.8259 4.08225 14.1148 3.86976C14.3113 3.72402 14.4457 3.50881 14.5057 3.24726C14.5212 3.18313 14.5327 3.10686 14.5327 3.03059C14.5327 2.93042 14.5126 2.83132 14.4545 2.75388C14.3072 2.54781 14.0138 2.54402 13.6752 2.54246C13.6742 2.54246 13.5083 2.54402 13.5083 2.54402C13.0749 2.54936 12.9011 2.54781 12.8297 2.53906C12.8236 2.57064 12.8123 2.6268 12.8123 2.6268C12.8123 2.6268 12.657 3.34636 12.657 3.34753C12.657 3.34753 12.2855 4.8774 12.268 4.94949C12.6464 4.94493 12.8016 4.94493 12.8669 4.95212ZM13.1546 3.67388C13.1546 3.67388 13.3196 2.95578 13.3189 2.9585L13.3242 2.92168L13.3265 2.8936L13.3925 2.9004C13.3925 2.9004 13.733 2.92964 13.7409 2.93042C13.8753 2.9824 13.9307 3.11638 13.892 3.29127C13.8567 3.4511 13.7531 3.58547 13.6199 3.65037C13.5102 3.70536 13.3758 3.70993 13.2373 3.70993H13.1478L13.1546 3.67388ZM14.1824 4.29292C14.1387 4.47888 14.0886 4.81855 14.3994 4.93961C14.4985 4.98178 14.5873 4.99431 14.6776 4.98974C14.7729 4.9846 14.8612 4.93679 14.943 4.868C14.9356 4.89628 14.9283 4.92455 14.9209 4.95292L14.935 4.97109C15.1585 4.96167 15.2279 4.96167 15.4701 4.96351L15.4921 4.9468C15.5274 4.73888 15.5608 4.53698 15.6527 4.13921C15.6975 3.94868 15.7422 3.76 15.7881 3.57024L15.7809 3.54936C15.5308 3.5957 15.464 3.60561 15.2234 3.63971L15.2052 3.65458C15.2027 3.67391 15.2002 3.69247 15.1979 3.71103C15.1605 3.6506 15.1062 3.599 15.0226 3.56684C14.9156 3.52477 14.6644 3.57899 14.4484 3.77564C14.2966 3.91604 14.2237 4.10841 14.1824 4.29292ZM14.7076 4.30429C14.7611 4.07509 14.8226 3.88116 14.982 3.88116C15.0827 3.88116 15.1358 3.97414 15.125 4.1327C15.1164 4.17225 15.1072 4.21393 15.0962 4.26105C15.0803 4.32916 15.063 4.39668 15.0462 4.46431C15.0291 4.51055 15.0092 4.55418 14.9873 4.58323C14.9463 4.64133 14.8488 4.67738 14.7926 4.67738C14.7767 4.67738 14.6784 4.67738 14.675 4.53242C14.6742 4.46023 14.689 4.3859 14.7076 4.30429ZM17.4505 3.5475L17.4311 3.52544C17.1837 3.57558 17.1389 3.58355 16.9115 3.61425L16.8948 3.63096C16.894 3.63368 16.8933 3.63786 16.8922 3.64165L16.8914 3.63786C16.7222 4.02834 16.7271 3.94411 16.5893 4.25152C16.5886 4.23753 16.5886 4.22878 16.5878 4.21392L16.5533 3.5475L16.5316 3.52544C16.2724 3.57558 16.2663 3.58355 16.0269 3.61425L16.0082 3.63096C16.0056 3.63893 16.0056 3.64767 16.004 3.65719L16.0056 3.66059C16.0355 3.81352 16.0283 3.77942 16.0584 4.02076C16.0724 4.1392 16.091 4.25832 16.105 4.3753C16.1286 4.57107 16.1418 4.66746 16.1707 4.96622C16.009 5.23302 15.9707 5.33397 15.8151 5.56813L15.8161 5.57046L15.7065 5.74379C15.694 5.76206 15.6826 5.77459 15.6667 5.77993C15.6492 5.78858 15.6265 5.79014 15.5949 5.79014H15.5342L15.4439 6.09036L15.7536 6.0957C15.9354 6.09492 16.0496 6.00991 16.1111 5.89565L16.3058 5.562H16.3027L16.3232 5.53849C16.4542 5.25654 17.4505 3.5475 17.4505 3.5475ZM14.1823 7.49047H14.051L14.5372 5.88239H14.6985L14.7497 5.71673L14.7546 5.90095C14.7486 6.01482 14.8382 6.11577 15.0735 6.09905H15.3456L15.4393 5.78941H15.3369C15.278 5.78941 15.2507 5.77454 15.2541 5.74267L15.2492 5.55525H14.7452V5.55622C14.5823 5.55962 14.0957 5.57187 13.9972 5.5981C13.8779 5.6288 13.7523 5.71916 13.7523 5.71916L13.8017 5.55331H13.3303L13.232 5.88239L12.7393 7.51506H12.6437L12.55 7.82247H13.4889L13.4574 7.92497H13.9201L13.9508 7.82247H14.0806L14.1823 7.49047ZM13.7971 6.20914C13.7216 6.23002 13.5811 6.29337 13.5811 6.29337L13.7061 5.88239H14.0806L13.9903 6.18183C13.9903 6.18183 13.8745 6.18863 13.7971 6.20914ZM13.8043 6.79627C13.8043 6.79627 13.6866 6.81104 13.6092 6.82853C13.5329 6.85165 13.3899 6.92452 13.3899 6.92452L13.5189 6.49682H13.8954L13.8043 6.79627ZM13.5944 7.49426H13.2187L13.3276 7.13332H13.7022L13.5944 7.49426ZM14.4992 6.49682H15.0408L14.963 6.74886H14.4142L14.3318 7.0244H14.812L14.4484 7.53633C14.423 7.57393 14.4001 7.58724 14.3748 7.59784C14.3493 7.61076 14.3159 7.62591 14.2772 7.62591H14.144L14.0525 7.92769H14.4009C14.582 7.92769 14.689 7.8453 14.768 7.73716L15.0173 7.39594L15.0708 7.74241C15.0822 7.80731 15.1288 7.8453 15.1604 7.86007C15.1953 7.87756 15.2313 7.90758 15.2823 7.91205C15.3369 7.91438 15.3763 7.91623 15.4025 7.91623H15.5737L15.6765 7.5785H15.609C15.5702 7.5785 15.5035 7.57199 15.4921 7.55985C15.4807 7.54508 15.4807 7.52234 15.4746 7.48775L15.4203 7.14051H15.1979L15.2955 7.0244H15.8432L15.9274 6.74886H15.4203L15.4993 6.49682H16.0048L16.0986 6.18601H14.5914L14.4992 6.49682ZM9.92515 7.56444L10.0516 7.14394H10.5711L10.666 6.83118H10.146L10.2254 6.57235H10.7335L10.8277 6.2695H9.55624L9.46403 6.57235H9.75289L9.67584 6.83118H9.38621L9.29021 7.14928H9.57897L9.4105 7.70561C9.38776 7.77926 9.42118 7.80734 9.44236 7.84154C9.46403 7.87487 9.48599 7.89692 9.53535 7.90945C9.58626 7.92082 9.62114 7.92762 9.66855 7.92762H10.2542L10.3586 7.58115L10.099 7.61681C10.0488 7.61681 9.90999 7.61079 9.92515 7.56444ZM9.98474 5.55141L9.85309 5.78936C9.82491 5.84134 9.79955 5.87359 9.77672 5.88846C9.75661 5.90099 9.71677 5.90624 9.65906 5.90624H9.59037L9.49855 6.21064H9.72668C9.83638 6.21064 9.92061 6.17042 9.96084 6.15031C10.0041 6.12718 10.0154 6.14039 10.0489 6.10814L10.1259 6.04139H10.8383L10.9328 5.72446H10.4114L10.5024 5.55141H9.98474ZM11.0364 7.57055C11.0243 7.55306 11.033 7.52227 11.0516 7.45814L11.2463 6.81368H11.9389C12.0399 6.81222 12.1128 6.81106 12.1602 6.80766C12.2111 6.80231 12.2665 6.78414 12.3268 6.7515C12.3891 6.7173 12.421 6.68125 12.4479 6.63986C12.4779 6.59857 12.5261 6.50821 12.5675 6.36888L12.8122 5.55333L12.0934 5.55751C12.0934 5.55751 11.8721 5.59015 11.7746 5.6262C11.6763 5.66642 11.5358 5.77874 11.5358 5.77874L11.6007 5.55517H11.1567L10.5351 7.6168C10.513 7.69686 10.4983 7.75496 10.4949 7.78984C10.4937 7.82744 10.5423 7.86466 10.5738 7.89273C10.611 7.92081 10.666 7.91625 10.7187 7.92081C10.7742 7.92499 10.8531 7.92761 10.962 7.92761H11.3032L11.408 7.57395L11.1025 7.60281C11.0699 7.60281 11.0462 7.58532 11.0364 7.57055ZM11.3719 6.37841H12.0995L12.0532 6.52337C12.0467 6.52677 12.0311 6.51618 11.9571 6.52492H11.3271L11.3719 6.37841ZM11.5177 5.89222H12.2513L12.1986 6.06682C12.1986 6.06682 11.8528 6.06342 11.7974 6.07362C11.5537 6.11578 11.4114 6.24598 11.4114 6.24598L11.5177 5.89222ZM12.0695 7.00881C12.0635 7.03047 12.0539 7.04369 12.0406 7.0536C12.0259 7.06312 12.002 7.06652 11.9663 7.06652H11.8626L11.8688 6.88998H11.4376L11.4201 7.75305C11.4194 7.81533 11.4254 7.85137 11.471 7.88023C11.5166 7.91628 11.6569 7.92084 11.8459 7.92084H12.1161L12.2137 7.59779L11.9785 7.61071L11.9002 7.61528C11.8895 7.61071 11.8793 7.60653 11.868 7.59516C11.8581 7.58535 11.8414 7.59137 11.8441 7.5291L11.8459 7.30786L12.0926 7.29766C12.2258 7.29766 12.2828 7.25433 12.3313 7.21304C12.3777 7.17349 12.3928 7.12802 12.4103 7.06652L12.4517 6.87065H12.1127L12.0695 7.00881Z"
            fill="#FEFEFE" />
    </g>
    <defs>
        <clipPath id="clip0_6067_95425">
            <rect fill="white" height="10" transform="translate(2.7002)" width="16" />
        </clipPath>
    </defs>
</svg>
