<svg fill="none" height="16" viewBox="0 0 32 16" width="32" xmlns="http://www.w3.org/2000/svg">
    <path
        d="M28.8 0H3.2C1.43269 0 0 1.43269 0 3.2V12.8C0 14.5673 1.43269 16 3.2 16H28.8C30.5673 16 32 14.5673 32 12.8V3.2C32 1.43269 30.5673 0 28.8 0Z"
        fill="#F6F6F6" />
    <path clip-rule="evenodd"
        d="M21.6002 4.52473C21.1908 4.36772 20.5494 4.19922 19.7483 4.19922C17.7067 4.19922 16.2686 5.25042 16.2563 6.75692C16.2448 7.87056 17.283 8.49177 18.0667 8.86254C18.871 9.24241 19.1414 9.4847 19.1375 9.82391C19.1324 10.3434 18.4953 10.5808 17.9014 10.5808C17.0744 10.5808 16.635 10.4633 15.9565 10.1739L15.6902 10.0508L15.4002 11.7857C15.8828 12.0021 16.7752 12.1895 17.7018 12.1992C19.8738 12.1992 21.2837 11.1601 21.2998 9.55133C21.3076 8.66965 20.757 7.99871 19.565 7.44559C18.8428 7.08706 18.4005 6.84782 18.4052 6.48477C18.4052 6.16263 18.7796 5.81815 19.5885 5.81815C20.2641 5.80742 20.7536 5.95806 21.1349 6.11508L21.3201 6.20451L21.6002 4.52473Z"
        fill="#265697" fill-rule="evenodd" />
    <path clip-rule="evenodd"
        d="M26.9323 4.39922H25.3399C24.8466 4.39922 24.4774 4.53464 24.2608 5.02987L21.2002 11.9992H23.3642C23.3642 11.9992 23.718 11.0621 23.798 10.8564C24.0345 10.8564 26.1367 10.8597 26.4372 10.8597C26.4989 11.1259 26.688 11.9992 26.688 11.9992H28.6002L26.9323 4.39922ZM24.3911 9.30091C24.5615 8.86275 25.2121 7.17502 25.2121 7.17502C25.2 7.19526 25.3813 6.73473 25.4854 6.4492L25.6247 7.10487C25.6247 7.10487 26.0192 8.92017 26.1017 9.30084L24.3911 9.30091Z"
        fill="#265697" fill-rule="evenodd" />
    <path clip-rule="evenodd" d="M12.0002 11.9992L13.3082 4.39922H15.4002L14.0913 11.9992H12.0002Z"
        fill="#265697" fill-rule="evenodd" />
    <path clip-rule="evenodd"
        d="M10.2382 4.39922L8.23988 9.59012L8.02697 8.53522C7.65497 7.31918 6.49594 6.00165 5.2002 5.34205L7.02737 11.9992L9.18688 11.9967L12.4002 4.39922H10.2382Z"
        fill="#265697" fill-rule="evenodd" />
    <path clip-rule="evenodd"
        d="M6.34529 4.40039H3.02627L3 4.56104C5.58216 5.20014 7.29076 6.74463 8 8.60039L7.2783 5.05224C7.15371 4.56332 6.79234 4.41743 6.34529 4.40039Z"
        fill="#D97B16" fill-rule="evenodd" />
</svg>
