<svg fill="none" height="24" viewBox="0 0 24 24" width="24" xmlns="http://www.w3.org/2000/svg">
    <path clip-rule="evenodd"
        d="M16.3432 1C16.4196 3.75211 14.4514 5.6614 12.4855 5.54165C12.1615 3.34537 14.4511 1 16.3432 1ZM4 12.1898C4 15.3924 6.5482 21.6809 9.62878 21.6986H9.64891C10.4147 21.6986 11.0899 21.4466 11.6867 21.2239L11.6919 21.2219C12.1296 21.0579 12.5429 20.9033 12.8698 20.9033C13.5147 20.9033 13.905 21.0691 14.3574 21.2616L14.3576 21.2617C14.8047 21.4518 15.3116 21.6672 16.0286 21.6672C18.9593 21.6672 20.9775 16.2374 20.9775 15.9846C20.9775 15.598 20.6831 15.4209 20.3981 15.2494L20.3966 15.2485L20.3958 15.248C19.7488 14.8587 18.4039 14.0496 18.4039 11.947C18.4039 10.1712 19.5921 9.27465 20.2436 8.7831L20.2438 8.78291L20.6998 8.43883L20.383 7.96272C19.0304 5.93151 16.7806 5.76867 16.0386 5.76867H16.0327C15.039 5.76867 14.1857 6.10797 13.4999 6.38098L13.4861 6.38645C13.168 6.5124 12.812 6.65337 12.6596 6.65337C12.4014 6.65337 11.9372 6.48281 11.4883 6.31759C10.8463 6.08072 10.1185 5.81306 9.43691 5.81306C7.92445 5.81306 4 6.95835 4 12.1898Z"
        fill="#333333" fill-rule="evenodd" />
</svg>
