<svg fill="none" height="24" viewBox="0 0 24 24" width="24" xmlns="http://www.w3.org/2000/svg">
    <path
        d="M6.98918 13.8776L6.36263 16.2166L4.07258 16.2651C3.3882 14.9957 3 13.5433 3 12C3 10.5076 3.36295 9.10018 4.00631 7.86096H4.0068L6.04559 8.23474L6.9387 10.2613C6.75177 10.8062 6.64989 11.3912 6.64989 12C6.64996 12.6606 6.76963 13.2936 6.98918 13.8776Z"
        fill="#FBBB00" />
    <path
        d="M20.8426 10.3187C20.946 10.8632 20.9999 11.4254 20.9999 12C20.9999 12.6444 20.9321 13.2729 20.8031 13.8792C20.365 15.9422 19.2202 17.7437 17.6343 19.0186L17.6338 19.0181L15.0659 18.887L14.7024 16.6182C15.7547 16.0011 16.5771 15.0353 17.0103 13.8792H12.1978V10.3187H17.0805H20.8426Z"
        fill="#518EF8" />
    <path
        d="M17.6338 19.0181L17.6343 19.0185C16.092 20.2583 14.1327 21 11.9999 21C8.57251 21 5.59263 19.0843 4.07251 16.2651L6.98911 13.8777C7.74915 15.9061 9.70591 17.3501 11.9999 17.3501C12.986 17.3501 13.9097 17.0835 14.7024 16.6182L17.6338 19.0181Z"
        fill="#28B446" />
    <path
        d="M17.7447 5.07197L14.8291 7.45894C14.0087 6.94615 13.039 6.64992 12 6.64992C9.65409 6.64992 7.66073 8.16013 6.93877 10.2613L4.00684 7.86099H4.00635C5.50421 4.97307 8.52168 3 12 3C14.1838 3 16.186 3.77787 17.7447 5.07197Z"
        fill="#F14336" />
</svg>
