<svg width="40" height="40" viewBox="0 0 40 40" fill="none" xmlns="http://www.w3.org/2000/svg">
<g clip-path="url(#clip0_3275_44439)">
<path d="M39.9999 20.0043C39.9999 31.0534 31.0519 40 20.006 40C8.95871 40 0 31.0534 0 20.0043C0 8.95518 8.95871 0 20.006 0C31.052 0 39.9999 8.95518 39.9999 20.0043Z" fill="#004A99"/>
<path fill-rule="evenodd" clip-rule="evenodd" d="M3.74432 26.5669L-0.15691 24.7321L15.857 22.6076C16.125 23.0959 16.4191 23.5688 16.738 24.0239L3.74432 26.5669ZM47.0354 26.5669L50.9052 24.6355L34.8913 22.5432C34.6842 23.0785 34.3977 23.578 34.0418 24.0239L47.0354 26.5669ZM44.6758 26.8888L39.7993 28.627L32.8777 26.3416L32.2485 26.1484C32.4967 25.9642 32.71 25.7351 32.8777 25.4725C33.1294 25.2471 33.3811 24.893 33.6643 24.6355L44.6758 26.8888ZM57.5751 21.9316L53.1075 24.1849L35.3003 21.9316C35.3003 21.481 35.5834 21.0303 35.7093 20.5797L57.5751 21.9316ZM59.1796 21.2556L65 17.2642H33.5384C33.5682 18.5255 33.3654 19.7814 32.9407 20.9659C32.3904 22.4831 31.3848 23.7831 30.0678 24.6794C28.7509 25.5757 27.1904 26.0224 25.6101 25.9553C24.0534 25.9307 22.5348 25.4589 21.2275 24.5938C19.9203 23.7287 18.877 22.5051 18.2166 21.0625C17.6918 19.8697 17.4338 18.572 17.4616 17.2642H-14L-8.21107 21.2556L15.857 19.9037C16.2665 21.6696 17.1114 23.2986 18.311 24.6355C19.2448 25.6977 20.3842 26.5496 21.6571 27.137C22.9299 27.7244 24.3082 28.0345 25.7045 28.0476C27.082 28.0912 28.4521 27.8256 29.7185 27.2694C30.9849 26.7133 32.1169 25.8802 33.035 24.8287C34.1397 23.4654 34.9156 21.8555 35.3003 20.129L59.1796 21.2556ZM32.8777 31.6528L33.4755 32.876L32.8777 33.1657L31.2103 33.9705L29.354 29.9468C28.136 30.4193 26.8493 30.6804 25.5472 30.7193C24.1481 30.7809 22.7501 30.5734 21.4257 30.1077L19.8212 33.9705C19.2418 34.0628 18.6493 33.937 18.1537 33.6164C18.0128 33.542 17.8892 33.4373 17.7915 33.3095C17.6937 33.1817 17.6241 33.0339 17.5874 32.876L18.1537 31.846L19.5066 29.2064C19.0749 28.9424 18.6739 28.6292 18.311 28.2729L19.4436 26.8244C21.2582 28.0509 23.3731 28.7313 25.5472 28.788C27.7409 28.8196 29.8768 28.0684 31.5878 26.6635L32.8777 27.0497L33.3811 27.2751L32.8777 27.7257C32.5113 28.1925 32.0632 28.5854 31.5564 28.8845L32.8777 31.6528ZM32.8777 10.8585C34.145 12.5474 35.0265 14.5052 35.4576 16.5882H33.444C33.2886 15.9452 33.0995 15.3113 32.8777 14.689C31.4095 11.0033 28.8449 7.88379 25.5472 5.77254C25.1382 5.51502 24.7607 5.22533 24.3202 5C24.7607 5 25.1382 5.2897 25.5472 5.45065C28.4039 6.5796 30.9284 8.44197 32.8777 10.8585ZM27.4034 25.1828C28.1093 25.0289 28.7745 24.7215 29.354 24.2814L26.2079 17.4251L29.354 15.6869L26.554 13.0474L25.4213 13.6268L20.5763 15.9766L22.1493 19.453L24.446 18.3264L27.4034 25.1828ZM18.6886 26.1484L18.1537 25.6334C17.7971 25.321 17.48 24.9641 17.2099 24.5711L6.19833 26.8244L10.8861 28.5626L18.6886 26.1484ZM15.857 21.9316C15.6683 21.481 15.5424 21.0303 15.3851 20.5797L-6.63799 21.9316L-2.20191 24.2814L15.857 21.9316Z" fill="white"/>
</g>
<defs>
<clipPath id="clip0_3275_44439">
<rect width="40" height="40" fill="white"/>
</clipPath>
</defs>
</svg>
