<svg width="40" height="40" viewBox="0 0 40 40" fill="none" xmlns="http://www.w3.org/2000/svg">
<path d="M39.9999 20.0043C39.9999 31.0534 31.0519 40 20.006 40C8.95871 40 0 31.0534 0 20.0043C0 8.95518 8.95871 0 20.006 0C31.052 0 39.9999 8.95518 39.9999 20.0043Z" fill="#BED600"/>
<path d="M19.1184 11.667C16.5131 11.667 14.8229 11.8124 13.5995 12.271C11.5434 13.0796 10.1235 14.7744 10.1235 17.0017C10.1235 18.8568 10.9791 20.2002 13.455 21.7454C16.0967 23.3623 16.6237 23.8967 16.6237 24.871C16.6237 25.9373 15.589 27.151 12.9264 27.151C11.9972 27.151 10.5975 27.0212 9.70307 26.8003L9.27629 26.6916C9.03823 27.336 8.49779 28.8604 8.33301 29.4134L8.75558 29.5389C9.56011 29.798 11.4694 30.0003 12.8374 30.0003C17.3881 30.0003 20.1033 27.2244 20.1033 24.3177C20.1033 22.5315 19.3003 21.1741 16.5857 19.4639C15.224 18.6183 14.5301 18.0699 14.1087 17.6454C13.7671 17.2022 13.7293 16.8724 13.7293 16.524C13.7293 16.1914 13.8026 15.8081 14.0198 15.5273C14.2547 15.1802 14.6856 14.9591 15.2687 14.7766C15.8681 14.5758 16.9786 14.5705 18.7082 14.5705H20.3187L21.4687 11.6671H19.1184V11.667ZM31.2892 11.667H23.1964L22.0463 14.5702H24.7288C26.5338 14.5702 26.881 14.531 27.3342 14.531C26.6799 16.0424 22.7363 26.1889 22.7363 26.1889H26.0739C26.0739 26.1889 31.0668 13.5582 31.5959 12.234C31.7425 11.9385 31.6696 11.667 31.2892 11.667Z" fill="white"/>
</svg>
