<svg width="16" height="16" viewBox="0 0 16 16" fill="none" xmlns="http://www.w3.org/2000/svg">
<g id="armchair-2-furniture-alt 5">
<path id="Vector" d="M5.99846 2.66602C4.89579 2.66602 3.99846 3.56335 3.99846 4.66602V5.71419C4.50646 6.02286 4.91865 6.50228 5.15731 7.09961L5.78492 8.66602H10.2107L10.8735 7.01107C11.0995 6.44707 11.5011 5.99905 11.9985 5.70638V4.66602C11.9985 3.56335 11.1011 2.66602 9.99846 2.66602H5.99846ZM13.35 6.66602C12.804 6.66602 12.3131 6.99853 12.1104 7.50586L11.113 9.99935H4.87997L3.91903 7.5944C3.72437 7.10773 3.29323 6.72186 2.7719 6.67253C2.50523 6.64719 2.24618 6.69884 2.01018 6.82617C1.39885 7.15417 1.18056 7.93217 1.43856 8.57617L2.57138 11.4095C2.82069 12.0317 3.36162 12.4733 3.99846 12.6139V13.3327C3.99721 13.421 4.01353 13.5087 4.04647 13.5907C4.07942 13.6727 4.12832 13.7473 4.19035 13.8102C4.25238 13.8731 4.3263 13.9231 4.4078 13.9572C4.48931 13.9913 4.57678 14.0088 4.66513 14.0088C4.75348 14.0088 4.84095 13.9913 4.92245 13.9572C5.00396 13.9231 5.07787 13.8731 5.1399 13.8102C5.20193 13.7473 5.25084 13.6727 5.28378 13.5907C5.31672 13.5087 5.33304 13.421 5.33179 13.3327V12.666H10.6651V13.3327C10.6639 13.421 10.6802 13.5087 10.7131 13.5907C10.7461 13.6727 10.795 13.7473 10.857 13.8102C10.9191 13.8731 10.993 13.9231 11.0745 13.9572C11.156 13.9913 11.2434 14.0088 11.3318 14.0088C11.4201 14.0088 11.5076 13.9913 11.5891 13.9572C11.6706 13.9231 11.7445 13.8731 11.8066 13.8102C11.8686 13.7473 11.9175 13.6727 11.9504 13.5907C11.9834 13.5087 11.9997 13.421 11.9985 13.3327V12.6126C12.6334 12.4707 13.1722 12.0292 13.4203 11.4082L14.5597 8.56055C14.8063 7.94321 14.6114 7.20399 14.0414 6.86133C13.8281 6.73266 13.5934 6.66602 13.35 6.66602Z" fill="#062F81"/>
</g>
</svg>
