<svg fill="none" height="24" viewBox="0 0 24 24" width="24" xmlns="http://www.w3.org/2000/svg">
    <path
        d="M11.5303 5.53033C11.8232 5.23744 11.8232 4.76256 11.5303 4.46967C11.2374 4.17678 10.7626 4.17678 10.4697 4.46967L3.46967 11.4697C3.32322 11.6161 3.25 11.8081 3.25 12C3.25 12.1017 3.27024 12.1987 3.30691 12.2871C3.34324 12.3749 3.39696 12.4572 3.46808 12.5287C3.46861 12.5293 3.46914 12.5298 3.46967 12.5303"
        fill="#1A1A1A" />
    <path
        d="M3.46967 12.5303L10.4697 19.5303C10.7626 19.8232 11.2374 19.8232 11.5303 19.5303C11.8232 19.2374 11.8232 18.7626 11.5303 18.4697L5.81066 12.75H20C20.4142 12.75 20.75 12.4142 20.75 12C20.75 11.5858 20.4142 11.25 20 11.25H5.81066L11.5303 5.53033"
        fill="#1A1A1A" />
</svg>
