<svg width="18" height="16" viewBox="0 0 18 16" fill="none" xmlns="http://www.w3.org/2000/svg">
<path d="M9.46967 1.53033C9.17678 1.23744 9.17678 0.762563 9.46967 0.46967C9.76256 0.176777 10.2374 0.176777 10.5303 0.46967L17.5303 7.46967C17.6768 7.61612 17.75 7.80806 17.75 8C17.75 8.10169 17.7298 8.19866 17.6931 8.28709C17.6568 8.37489 17.603 8.4572 17.5319 8.52874C17.5314 8.52927 17.5309 8.5298 17.5303 8.53033" fill="white"/>
<path d="M17.5303 8.53033L10.5303 15.5303C10.2374 15.8232 9.76256 15.8232 9.46967 15.5303C9.17678 15.2374 9.17678 14.7626 9.46967 14.4697L15.1893 8.75H1C0.585787 8.75 0.25 8.41421 0.25 8C0.25 7.58579 0.585787 7.25 1 7.25H15.1893L9.46967 1.53033" fill="white"/>
</svg>
