<svg width="16" height="16" viewBox="0 0 16 16" fill="none" xmlns="http://www.w3.org/2000/svg">
<g id="icon">
<path id="Union" d="M5.03492 7.87886L5.03455 7.87864L4.0485 7.27476C3.73178 7.0808 3.67028 6.70968 3.67028 6.46918C3.67028 6.13236 3.40427 5.86948 3.08932 5.86948C2.77438 5.86948 2.50837 6.13236 2.50837 6.46918C2.50837 6.80601 2.77438 7.06889 3.08932 7.06889C3.25803 7.06889 3.47265 7.16138 3.54246 7.39043L4.69342 11.1666C4.78515 11.4676 4.56037 11.7716 4.24596 11.7723C4.24595 11.7723 4.24595 11.7723 4.24595 11.7723C4.2457 11.7725 4.24538 11.7727 4.24501 11.7731C4.24296 11.7752 4.24169 11.778 4.24169 11.7817V12.372C4.24169 12.3757 4.24296 12.3784 4.24501 12.3805C4.24539 12.3809 4.24571 12.3812 4.24595 12.3814H11.7549C11.7551 12.3812 11.7554 12.3809 11.7558 12.3805C11.7579 12.3784 11.7591 12.3757 11.7591 12.372V11.7817C11.7591 11.778 11.7579 11.7752 11.7558 11.7731C11.7554 11.7727 11.7551 11.7724 11.7549 11.7723C11.4405 11.7716 11.2157 11.4676 11.3074 11.1666L12.4584 7.39043C12.5282 7.16138 12.7428 7.06889 12.9115 7.06889C13.2265 7.06889 13.4925 6.80601 13.4925 6.46918C13.4925 6.13314 13.2254 5.86948 12.9097 5.86948C12.5948 5.86948 12.3288 6.13236 12.3288 6.46918C12.3288 6.70981 12.2679 7.08045 11.9509 7.2748L10.9667 7.87843L5.03492 7.87886ZM5.03492 7.87886C5.45167 8.13321 5.98777 7.98866 6.22789 7.56632L7.39122 5.68305C7.57622 5.38358 7.55951 5.06472 7.52094 4.80601C7.50907 4.72638 7.49249 4.63827 7.47716 4.55679C7.46873 4.51199 7.46068 4.46919 7.45399 4.43091C7.43325 4.31216 7.41948 4.20679 7.41948 4.10807C7.41948 3.77125 7.68549 3.50837 8.00043 3.50837C8.31538 3.50837 8.58139 3.77125 8.58139 4.10807C8.58139 4.20679 8.56762 4.31216 8.54687 4.43091C8.54018 4.4692 8.53212 4.51201 8.52369 4.55682C8.50835 4.6383 8.49177 4.7264 8.4799 4.80602C8.44131 5.06473 8.42459 5.3836 8.60961 5.68309L9.77298 7.56633M5.03492 7.87886L9.77298 7.56633M9.77298 7.56633C10.013 7.98838 10.551 8.13362 10.9665 7.87854L9.77298 7.56633Z" fill="#062F81" stroke="#062F81" stroke-width="0.571429"/>
<path id="Vector" d="M4.21827 10.9992H11.7795C12.1933 10.9992 12.4989 11.3452 12.4989 11.7313V12.3384C12.4989 12.7246 12.1933 13.0706 11.7795 13.0706H4.21827C3.80448 13.0706 3.49888 12.7246 3.49888 12.3384V11.7313C3.49888 11.3452 3.80448 10.9992 4.21827 10.9992Z" fill="#062F81" stroke="white" stroke-width="0.857143"/>
<circle id="Ellipse 103" cx="12.8867" cy="6.44336" r="1" fill="#062F81"/>
<circle id="Ellipse 104" cx="8" cy="4.11133" r="1" fill="#062F81"/>
<circle id="Ellipse 105" cx="3.11328" cy="6.44336" r="1" fill="#062F81"/>
</g>
</svg>
