<svg width="16" height="16" viewBox="0 0 16 16" fill="none" xmlns="http://www.w3.org/2000/svg">
<g id="icon">
<g id="Subtract">
<path d="M6.90556 4.11005C7.00437 3.98117 6.91248 3.79492 6.75008 3.79492H4.14733C4.01116 3.79492 3.91652 3.9304 3.96337 4.05826L4.80511 6.35506C4.85827 6.50011 5.05055 6.52945 5.14455 6.40686L6.90556 4.11005Z" fill="#062F81"/>
<path d="M5.96461 6.57561C5.86579 6.7045 5.95768 6.89074 6.12008 6.89074H9.68759C9.84626 6.89074 9.93912 6.71198 9.84788 6.58217L8.14168 4.15454C8.06563 4.04633 7.9064 4.04302 7.82591 4.14799L5.96461 6.57561Z" fill="#062F81"/>
<path d="M10.7016 6.48532C10.7931 6.61553 10.9935 6.58806 11.0465 6.43802L11.8894 4.0562C11.9345 3.9287 11.84 3.79492 11.7047 3.79492H9.18784C9.02917 3.79492 8.93632 3.97368 9.02755 4.1035L10.7016 6.48532Z" fill="#062F81"/>
<path d="M2.98128 4.47028C3.07288 4.34228 3.2704 4.36909 3.32456 4.51688L4.09803 6.62741C4.14489 6.75526 4.05024 6.89074 3.91408 6.89074H1.6303C1.47086 6.89074 1.37819 6.71046 1.47097 6.58081L2.98128 4.47028Z" fill="#062F81"/>
<path d="M4.51393 7.76224C4.48564 7.68506 4.41218 7.63374 4.32997 7.63374H1.56881C1.40171 7.63374 1.31131 7.8295 1.41967 7.95671L6.26542 13.6448C6.40719 13.8112 6.67374 13.6556 6.59851 13.4503L4.51393 7.76224Z" fill="#062F81"/>
<path d="M10.531 7.89501C10.5761 7.76752 10.4815 7.63374 10.3463 7.63374H5.55419C5.41802 7.63374 5.32338 7.76922 5.37023 7.89707L7.80822 14.5495C7.87139 14.7218 8.11563 14.7205 8.17687 14.5474L10.531 7.89501Z" fill="#062F81"/>
<path d="M9.67644 13.717C9.53547 13.8824 9.27009 13.7295 9.34261 13.5246L11.381 7.7643C11.4087 7.68605 11.4827 7.63374 11.5657 7.63374H14.4345C14.6016 7.63374 14.692 7.8295 14.5837 7.95671L9.67644 13.717Z" fill="#062F81"/>
<path d="M12.5786 4.37998C12.6315 4.23065 12.8305 4.20251 12.9226 4.33132L14.5324 6.58081C14.6252 6.71046 14.5325 6.89074 14.3731 6.89074H11.9673C11.832 6.89074 11.7375 6.75696 11.7826 6.62947L12.5786 4.37998Z" fill="#062F81"/>
<path d="M6.75008 3.84419C6.87164 3.84419 6.94042 3.9836 6.86646 4.08007L5.10545 6.37688C5.03509 6.46864 4.89116 6.44668 4.85138 6.33811L4.00964 4.0413C3.97456 3.9456 4.0454 3.84419 4.14733 3.84419H6.75008ZM6.12008 6.84147C5.99852 6.84147 5.92974 6.70206 6.00371 6.60559L7.86501 4.17797C7.92526 4.0994 8.04444 4.10187 8.10137 4.18287L9.80757 6.6105C9.87587 6.70767 9.80636 6.84147 9.68759 6.84147H6.12008ZM11.0001 6.42159C10.9604 6.53389 10.8104 6.55446 10.7419 6.45699L9.06786 4.07517C8.99957 3.978 9.06908 3.84419 9.18784 3.84419H11.7047C11.8059 3.84419 11.8767 3.94433 11.843 4.03976L11.0001 6.42159ZM3.02135 4.49895C3.08991 4.40314 3.23775 4.42321 3.2783 4.53383L4.05177 6.64436C4.08684 6.74006 4.016 6.84147 3.91408 6.84147H1.6303C1.51096 6.84147 1.44159 6.70653 1.51104 6.60948L3.02135 4.49895ZM4.32997 7.68301C4.3915 7.68301 4.44649 7.72142 4.46767 7.77919L6.55225 13.4673C6.60856 13.6209 6.40904 13.7374 6.30293 13.6128L1.45718 7.92476C1.37606 7.82954 1.44373 7.68301 1.56881 7.68301H4.32997ZM10.3463 7.68301C10.4475 7.68301 10.5183 7.78315 10.4845 7.87858L8.13042 14.531C8.08459 14.6605 7.90176 14.6615 7.85448 14.5325L5.41649 7.88012C5.38142 7.78442 5.45226 7.68301 5.55419 7.68301H10.3463ZM9.63893 13.685C9.53342 13.8089 9.33477 13.6944 9.38906 13.541L11.4274 7.78074C11.4482 7.72216 11.5036 7.68301 11.5657 7.68301H14.4345C14.5596 7.68301 14.6273 7.82954 14.5462 7.92476L9.63893 13.685ZM12.6251 4.39641C12.6646 4.28464 12.8136 4.26357 12.8826 4.35999L14.4923 6.60948C14.5618 6.70653 14.4924 6.84147 14.3731 6.84147H11.9673C11.866 6.84147 11.7953 6.74133 11.829 6.6459L12.6251 4.39641Z" stroke="url(#paint0_linear_7732_30577)" stroke-opacity="0.1" stroke-width="0.0985394"/>
</g>
</g>
<defs>
<linearGradient id="paint0_linear_7732_30577" x1="7.39349" y1="3.85181" x2="8.31526" y2="15.8073" gradientUnits="userSpaceOnUse">
<stop stop-color="white"/>
<stop offset="1" stop-color="white" stop-opacity="0"/>
</linearGradient>
</defs>
</svg>
