<svg width="28" height="28" viewBox="0 0 28 28" fill="none" xmlns="http://www.w3.org/2000/svg">
<path d="M12.0818 7.19405C12.2547 6.9685 12.0939 6.64258 11.8097 6.64258H7.25489C7.0166 6.64258 6.85098 6.87967 6.93298 7.10341L8.40602 11.1228C8.49904 11.3767 8.83554 11.428 9.00003 11.2135L12.0818 7.19405Z" fill="white"/>
<path d="M10.4351 11.5088C10.2622 11.7343 10.423 12.0603 10.7072 12.0603H16.9504C17.228 12.0603 17.3905 11.7474 17.2309 11.5203L14.245 7.27191C14.1119 7.08254 13.8333 7.07675 13.6924 7.26045L10.4351 11.5088Z" fill="white"/>
<path d="M18.7248 11.3508C18.885 11.5786 19.2356 11.5306 19.3285 11.268L20.8035 7.09981C20.8825 6.87669 20.717 6.64258 20.4803 6.64258H16.0758C15.7981 6.64258 15.6356 6.9554 15.7953 7.18258L18.7248 11.3508Z" fill="white"/>
<path d="M5.21431 7.82445C5.37461 7.60045 5.72026 7.64737 5.81505 7.906L7.16862 11.5994C7.25062 11.8232 7.085 12.0603 6.8467 12.0603H2.85009C2.57108 12.0603 2.4089 11.7448 2.57127 11.5179L5.21431 7.82445Z" fill="white"/>
<path d="M7.89644 13.5854C7.84694 13.4503 7.71838 13.3605 7.57452 13.3605H2.74249C2.45005 13.3605 2.29186 13.7031 2.4815 13.9257L10.9616 23.8799C11.2096 24.1711 11.6761 23.8988 11.5445 23.5396L7.89644 13.5854Z" fill="white"/>
<path d="M18.4263 13.8177C18.5052 13.5946 18.3397 13.3605 18.103 13.3605H9.7169C9.4786 13.3605 9.31298 13.5976 9.39498 13.8213L13.6615 25.463C13.772 25.7647 14.1994 25.7623 14.3066 25.4594L18.4263 13.8177Z" fill="white"/>
<path d="M16.9308 24.0062C16.6842 24.2957 16.2197 24.0281 16.3466 23.6695L19.9138 13.589C19.9623 13.452 20.0918 13.3605 20.237 13.3605H25.2575C25.5499 13.3605 25.7081 13.7031 25.5185 13.9257L16.9308 24.0062Z" fill="white"/>
<path d="M22.0096 7.66642C22.1021 7.40511 22.4504 7.35585 22.6117 7.58127L25.4287 11.5179C25.5911 11.7448 25.4289 12.0603 25.1499 12.0603H20.9398C20.7031 12.0603 20.5376 11.8261 20.6166 11.603L22.0096 7.66642Z" fill="white"/>
<path d="M11.8097 6.7288C12.0224 6.7288 12.1428 6.97276 12.0134 7.14159L8.9316 11.161C8.80848 11.3216 8.55661 11.2832 8.48698 11.0932L7.01393 7.07374C6.95255 6.90627 7.07653 6.7288 7.25489 6.7288H11.8097ZM13.7608 7.31291L13.6924 7.26045L13.7608 7.31291C13.8663 7.17541 14.0748 7.17974 14.1745 7.32149L17.1603 11.5698C17.2798 11.7399 17.1582 11.974 16.9504 11.974H10.7072C10.4945 11.974 10.3741 11.7301 10.5036 11.5613L13.7608 7.31291ZM19.2472 11.2392C19.1777 11.4358 18.9152 11.4718 18.7953 11.3012L15.8658 7.133C15.7463 6.96296 15.868 6.7288 16.0758 6.7288H20.4803C20.6575 6.7288 20.7813 6.90404 20.7222 7.07105L19.2472 11.2392ZM5.28442 7.87463C5.40441 7.70696 5.66314 7.74208 5.73409 7.93567L7.08767 11.6291C7.14904 11.7966 7.02507 11.974 6.8467 11.974H2.85009C2.64125 11.974 2.51985 11.7379 2.64139 11.5681L5.28442 7.87463ZM7.57452 13.4467C7.6822 13.4467 7.77843 13.514 7.81549 13.6151L11.4635 23.5692C11.562 23.8381 11.2129 24.0419 11.0272 23.824L2.54713 13.8698C2.40518 13.7032 2.5236 13.4467 2.74249 13.4467H7.57452ZM18.103 13.4467C18.2802 13.4467 18.4041 13.622 18.345 13.789L14.2253 25.4307C14.1451 25.6574 13.8252 25.6592 13.7424 25.4334L9.47593 13.7917C9.41456 13.6242 9.53853 13.4467 9.7169 13.4467H18.103ZM16.8652 23.9503C16.6806 24.167 16.3329 23.9667 16.4279 23.6982L19.9951 13.6178C20.0314 13.5152 20.1283 13.4467 20.237 13.4467H25.2575C25.4764 13.4467 25.5948 13.7032 25.4529 13.8698L16.8652 23.9503ZM22.0909 7.69519C22.1601 7.49959 22.4208 7.46272 22.5416 7.63145L25.3586 11.5681C25.4801 11.7379 25.3588 11.974 25.1499 11.974H20.9398C20.7626 11.974 20.6388 11.7988 20.6979 11.6318L22.0909 7.69519Z" stroke="url(#paint0_linear_4306_57184)" stroke-opacity="0.1" stroke-width="0.172444"/>
<defs>
<linearGradient id="paint0_linear_4306_57184" x1="12.9357" y1="6.74213" x2="14.5488" y2="27.6643" gradientUnits="userSpaceOnUse">
<stop stop-color="white"/>
<stop offset="1" stop-color="white" stop-opacity="0"/>
</linearGradient>
</defs>
</svg>
