<svg fill="none" height="24" viewBox="0 0 24 24" width="24" xmlns="http://www.w3.org/2000/svg">
    <path clip-rule="evenodd"
        d="M2.75 12C2.75 6.89137 6.89137 2.75 12 2.75C17.1086 2.75 21.25 6.89137 21.25 12C21.25 17.1086 17.1086 21.25 12 21.25C6.89137 21.25 2.75 17.1086 2.75 12ZM12 1.25C6.06294 1.25 1.25 6.06294 1.25 12C1.25 17.9371 6.06294 22.75 12 22.75C17.9371 22.75 22.75 17.9371 22.75 12C22.75 6.06294 17.9371 1.25 12 1.25ZM12 6.25C11.5858 6.25 11.25 6.58579 11.25 7C11.25 7.41421 11.5858 7.75 12 7.75H12.01C12.4242 7.75 12.76 7.41421 12.76 7C12.76 6.58579 12.4242 6.25 12.01 6.25H12ZM9.25 11C9.25 10.5858 9.58579 10.25 10 10.25H12C12.4142 10.25 12.75 10.5858 12.75 11V15.25H14C14.4142 15.25 14.75 15.5858 14.75 16C14.75 16.4142 14.4142 16.75 14 16.75H12H10C9.58579 16.75 9.25 16.4142 9.25 16C9.25 15.5858 9.58579 15.25 10 15.25H11.25V11.75H10C9.58579 11.75 9.25 11.4142 9.25 11Z"
        fill="black" fill-rule="evenodd" />
</svg>
