<svg fill="none" height="24" viewBox="0 0 24 24" width="24" xmlns="http://www.w3.org/2000/svg">
    <path clip-rule="evenodd"
        d="M7.664 3.68889C5.135 3.68889 3.5 5.38289 3.5 8.0055V15.9897C3.5 18.6123 5.135 20.3063 7.664 20.3063H16.332C18.864 20.3063 20.5 18.6123 20.5 15.9897V8.0055C20.5 5.38289 18.864 3.68889 16.334 3.68889H7.664ZM16.332 21.7725H7.664C4.276 21.7725 2 19.448 2 15.9897V8.0055C2 4.54713 4.276 2.22266 7.664 2.22266H16.334C19.723 2.22266 22 4.54713 22 8.0055V15.9897C22 19.448 19.723 21.7725 16.332 21.7725Z"
        fill="#586EBB" fill-rule="evenodd" />
    <path clip-rule="evenodd"
        d="M11.994 16.6407C11.58 16.6407 11.244 16.3122 11.244 15.9075V11.9976C11.244 11.5929 11.58 11.2645 11.994 11.2645C12.408 11.2645 12.744 11.5929 12.744 11.9976V15.9075C12.744 16.3122 12.408 16.6407 11.994 16.6407Z"
        fill="#586EBB" fill-rule="evenodd" />
    <path clip-rule="evenodd"
        d="M11.9989 9.26461C11.4459 9.26461 10.9939 8.82767 10.9939 8.28711C10.9939 7.74656 11.4369 7.30962 11.9889 7.30962H11.9989C12.5519 7.30962 12.9989 7.74656 12.9989 8.28711C12.9989 8.82767 12.5519 9.26461 11.9989 9.26461Z"
        fill="#586EBB" fill-rule="evenodd" />
</svg>
