<svg width="24" height="21" viewBox="0 0 24 21" fill="none" xmlns="http://www.w3.org/2000/svg">
<path d="M8.49999 0.166504C6.57032 0.166504 4.99999 1.73684 4.99999 3.6665V5.50081C5.88899 6.04098 6.61032 6.87996 7.02799 7.92529L8.12629 10.6665H15.8714L17.0312 7.77034C17.4267 6.78334 18.1297 5.99931 19 5.48714V3.6665C19 1.73684 17.4297 0.166504 15.5 0.166504H8.49999ZM21.3652 7.1665C20.4097 7.1665 19.5506 7.7484 19.196 8.63623L17.4505 12.9998H6.54263L4.86099 8.79118C4.52033 7.93951 3.76584 7.26423 2.85351 7.1779C2.38684 7.13356 1.9335 7.22394 1.5205 7.44678C0.450666 8.02078 0.0686742 9.38228 0.520174 10.5093L2.5026 15.4676C2.9389 16.5565 3.88551 17.3292 4.99999 17.5754V18.8332C4.99781 18.9878 5.02637 19.1413 5.08402 19.2847C5.14167 19.4282 5.22725 19.5588 5.3358 19.6689C5.44436 19.779 5.57371 19.8664 5.71634 19.9261C5.85897 19.9857 6.01205 20.0165 6.16666 20.0165C6.32127 20.0165 6.47434 19.9857 6.61698 19.9261C6.75961 19.8664 6.88896 19.779 6.99751 19.6689C7.10606 19.5588 7.19165 19.4282 7.2493 19.2847C7.30695 19.1413 7.33551 18.9878 7.33332 18.8332V17.6665H16.6667V18.8332C16.6645 18.9878 16.693 19.1413 16.7507 19.2847C16.8083 19.4282 16.8939 19.5588 17.0025 19.6689C17.111 19.779 17.2404 19.8664 17.383 19.9261C17.5256 19.9857 17.6787 20.0165 17.8333 20.0165C17.9879 20.0165 18.141 19.9857 18.2836 19.9261C18.4263 19.8664 18.5556 19.779 18.6642 19.6689C18.7727 19.5588 18.8583 19.4282 18.916 19.2847C18.9736 19.1413 19.0022 18.9878 19 18.8332V17.5731C20.1111 17.3247 21.0541 16.5521 21.4883 15.4653L23.4821 10.4819C23.9138 9.4016 23.5727 8.10797 22.5752 7.5083C22.2019 7.28313 21.7911 7.1665 21.3652 7.1665Z" fill="white"/>
</svg>
