<svg width="22" height="20" viewBox="0 0 22 20" fill="none" xmlns="http://www.w3.org/2000/svg">
<path fill-rule="evenodd" clip-rule="evenodd" d="M1.95924 10.4827C1.28885 10.5839 0.824343 11.2311 0.921727 11.9281L1.87322 18.7384C1.97061 19.4355 2.59301 19.9184 3.26339 19.8172L20.7862 17.1705C21.4565 17.0693 21.9211 16.4222 21.8237 15.7251L20.8722 8.9148C20.7748 8.21777 20.1524 7.7348 19.482 7.83605L1.95924 10.4827ZM13.6963 11.5223C13.8919 11.2498 13.838 10.8645 13.576 10.6612C13.314 10.4578 12.9434 10.5138 12.7478 10.7863L11.8627 12.0194L9.29125 11.7982C9.16051 11.7869 9.03312 11.8466 8.95472 11.9559C8.82889 12.1312 8.86354 12.3792 9.03214 12.51L10.6239 13.7452L9.56234 15.2241L10.2702 14.2374L9.41095 14.1898C9.28229 14.1829 9.15857 14.2431 9.08158 14.3504C8.95416 14.5279 8.98923 14.7789 9.15996 14.9114L9.56234 15.2241L10.5108 15.9601L10.9134 16.2724C11.0841 16.4049 11.3255 16.3684 11.453 16.1909C11.5301 16.0834 11.5503 15.9432 11.5073 15.8169L11.2189 14.974L10.5108 15.9601L13.6963 11.5223ZM11.5727 14.481L13.1645 15.7162C13.3331 15.8471 13.5717 15.811 13.6975 15.6357C13.7759 15.5265 13.7947 15.3826 13.7471 15.2554L12.8115 12.7552L11.5727 14.481Z" fill="#586EBB"/>
<path d="M0.059214 8.93068C0.158037 8.6106 0.377244 8.33161 0.690482 8.17344L16.6177 0.128411C17.2268 -0.179217 17.9605 0.0848202 18.257 0.718135L21.039 6.67266C20.5227 6.22617 19.834 6.00074 19.117 6.1091L1.59366 8.75569C0.961196 8.85097 0.420366 9.18973 0.0460376 9.66737C-0.0210421 9.42076 -0.013256 9.1642 0.059214 8.93068Z" fill="#586EBB"/>
</svg>
