<svg fill="none" height="20" viewBox="0 0 20 20" width="20" xmlns="http://www.w3.org/2000/svg">
    <rect fill="#EDF3FC" height="20" rx="10" width="20" />
    <path
        d="M7.4742 15V5H10.1196C11.3485 5 12.2584 5.24743 12.8494 5.7423C13.4498 6.23716 13.75 6.95612 13.75 7.89916C13.75 8.53408 13.6046 9.0803 13.3138 9.53782C13.023 9.986 12.5915 10.3315 12.0192 10.5742C11.4564 10.817 10.7575 10.9384 9.92261 10.9384H8.74062V15H7.4742ZM6.25 13.0952V12.1849H11.0624V13.0952H6.25ZM6.25 10.9384V9.87395H9.47233V10.9384H6.25ZM9.73968 9.87395C10.3119 9.87395 10.795 9.81326 11.189 9.69188C11.5924 9.5705 11.902 9.36975 12.1177 9.08964C12.3335 8.80952 12.4414 8.4267 12.4414 7.94118C12.4414 7.30626 12.2444 6.83473 11.8504 6.52661C11.4564 6.21849 10.8419 6.06443 10.007 6.06443H8.74062V9.87395H9.73968Z"
        fill="#062F81" />
</svg>
