<svg width="18" height="20" viewBox="0 0 18 20" fill="none" xmlns="http://www.w3.org/2000/svg">
<path fill-rule="evenodd" clip-rule="evenodd" d="M0 4V16C0 18.2091 1.79086 20 4 20H8.34315C8.65091 20 8.95502 19.9645 9.25 19.8959V16C9.25 13.3766 11.3766 11.25 14 11.25H17.8959C17.9645 10.955 18 10.6509 18 10.3431V4C18 1.79086 16.2091 0 14 0H4C1.79086 0 0 1.79086 0 4ZM11.1716 18.8284C11.039 18.961 10.898 19.0833 10.75 19.1949V16C10.75 14.2051 12.2051 12.75 14 12.75H17.1949C17.0833 12.898 16.961 13.039 16.8284 13.1716L11.1716 18.8284ZM9.88388 8.05551C9.84142 8.09798 9.79666 8.13675 9.75 8.17183L9.75 4.00006C9.75 3.58584 9.41421 3.25006 9 3.25006C8.58579 3.25006 8.25 3.58584 8.25 4.00006L8.25 8.17183C8.20334 8.13675 8.15858 8.09798 8.11612 8.05551L6.53033 6.46973C6.23744 6.17683 5.76256 6.17683 5.46967 6.46973C5.17678 6.76262 5.17678 7.23749 5.46967 7.53039L7.05546 9.11617C8.1294 10.1901 9.8706 10.1901 10.9445 9.11617L12.5303 7.53039C12.8232 7.23749 12.8232 6.76262 12.5303 6.46973C12.2374 6.17683 11.7626 6.17683 11.4697 6.46973L9.88388 8.05551Z" fill="#586EBB"/>
</svg>
