<svg width="48" height="48" viewBox="0 0 48 48" fill="none" xmlns="http://www.w3.org/2000/svg">
<rect width="48" height="48" rx="18" fill="#DFE1F7"/>
<path fill-rule="evenodd" clip-rule="evenodd" d="M15 18V30C15 32.2091 16.7909 34 19 34H23.3431C23.6509 34 23.955 33.9645 24.25 33.8959V30C24.25 27.3766 26.3766 25.25 29 25.25H32.8959C32.9645 24.955 33 24.6509 33 24.3431V18C33 15.7909 31.2091 14 29 14H19C16.7909 14 15 15.7909 15 18ZM26.1716 32.8284C26.039 32.961 25.898 33.0833 25.75 33.1949V30C25.75 28.2051 27.2051 26.75 29 26.75H32.1949C32.0833 26.898 31.961 27.039 31.8284 27.1716L26.1716 32.8284ZM24.8839 22.0558C24.8414 22.0982 24.7967 22.137 24.75 22.1721L24.75 18.0003C24.75 17.5861 24.4142 17.2503 24 17.2503C23.5858 17.2503 23.25 17.5861 23.25 18.0003L23.25 22.1721C23.2033 22.137 23.1586 22.0982 23.1161 22.0558L21.5303 20.47C21.2374 20.1771 20.7626 20.1771 20.4697 20.47C20.1768 20.7629 20.1768 21.2377 20.4697 21.5306L22.0555 23.1164C23.1294 24.1904 24.8706 24.1904 25.9445 23.1164L27.5303 21.5306C27.8232 21.2377 27.8232 20.7629 27.5303 20.47C27.2374 20.1771 26.7626 20.1771 26.4697 20.47L24.8839 22.0558Z" fill="#586EBB"/>
</svg>
