<svg width="114" height="22" viewBox="0 0 114 22" fill="none" xmlns="http://www.w3.org/2000/svg">
<g clip-path="url(#clip0_10465_37544)">
<path d="M110.091 4.26367L106.202 8.37089V4.26367H103.387V14.632H106.202V10.2682L110.365 14.632H114.001L108.88 9.19941L113.63 4.26367H110.091Z" fill="white"/>
<path d="M98.4209 8.13059H94.5312V4.26367H91.7148V14.632H94.5312V10.5439H98.4209V14.632H101.236V4.26367H98.4209V8.13059Z" fill="white"/>
<path d="M16.7153 9.88051C16.648 11.8147 16.3836 12.201 15.2305 12.201V14.632H15.6607C18.5381 14.632 19.2297 13.2314 19.3361 10.1193L19.4534 6.67552H22.1509V14.632H24.9657V4.26367H16.9125L16.7153 9.88051Z" fill="white"/>
<path d="M31.9605 7.41264H29.9281V4.26367H27.1133V14.6334H31.9997C35.0679 14.6334 36.1632 12.7553 36.1632 10.9862C36.1632 8.70259 34.6377 7.41264 31.9605 7.41264ZM31.7446 12.3484H29.9265V9.71539H31.7446C32.7225 9.71539 33.3077 10.1208 33.3077 10.9862C33.3093 11.9253 32.7429 12.3484 31.7446 12.3484Z" fill="white"/>
<path d="M45.3308 4.02305V0.173828H42.516V4.02305C39.2913 4.28105 37.1211 6.43638 37.1211 9.43792C37.1211 12.4586 39.2913 14.614 42.516 14.8719V18.7772H45.3308V14.8719C48.5555 14.6331 50.7257 12.4586 50.7257 9.43792C50.7257 6.41721 48.5571 4.26335 45.3308 4.02305ZM42.516 12.3672C40.9529 12.1638 39.975 11.0596 39.975 9.43939C39.975 7.81921 40.9529 6.71353 42.516 6.51156V12.3672ZM45.3308 12.3672V6.51009C46.8939 6.71206 47.8718 7.81773 47.8718 9.43792C47.8718 11.0581 46.8954 12.1638 45.3308 12.3672Z" fill="white"/>
<path d="M61.2827 11.4451V7.96439C61.2827 5.42281 59.5631 3.82031 56.6701 3.82031C53.6801 3.82031 52.0967 5.51568 51.959 7.28329H54.8129C54.9099 6.89704 55.3402 6.23363 56.6701 6.23363C57.7654 6.23363 58.4679 6.71276 58.4679 7.96439H55.6719C53.17 7.96439 51.6836 9.19832 51.6836 11.2608C51.6836 13.4161 53.3093 14.8889 55.6515 14.8889C57.3695 14.8889 58.3239 14.1237 58.7401 13.5444C59.111 14.2446 59.9324 14.6309 61.0073 14.6309H61.9852V12.2367C61.4783 12.2367 61.2827 12.0156 61.2827 11.4451ZM58.4679 10.764C58.4679 11.961 57.5682 12.6421 56.3963 12.6421C55.3793 12.6421 54.5782 12.2927 54.5782 11.2608C54.5782 10.248 55.4575 10.0829 56.2195 10.0829H58.4679V10.764Z" fill="white"/>
<path d="M73.3412 5.73611H70.1947V2.80828H77.4859V0.173828H67.2422V14.6316H73.3412C76.7224 14.6316 78.6578 13.0483 78.6578 10.1382C78.6578 7.39463 76.7224 5.73611 73.3412 5.73611ZM73.2035 12.0164H70.1931V8.26H73.2035C74.7666 8.26 75.6475 8.9411 75.6475 10.1382C75.6475 11.3721 74.7681 12.0164 73.2035 12.0164Z" fill="white"/>
<path d="M89.4311 11.4451V7.96439C89.4311 5.42281 87.7116 3.82031 84.8186 3.82031C81.8285 3.82031 80.2451 5.51568 80.1074 7.28329H82.9613C83.0583 6.89704 83.4886 6.23363 84.8186 6.23363C85.9138 6.23363 86.6163 6.71276 86.6163 7.96439H83.8203C81.3184 7.96439 79.832 9.19832 79.832 11.2608C79.832 13.4161 81.4577 14.8889 83.8 14.8889C85.518 14.8889 86.4724 14.1237 86.8886 13.5444C87.2594 14.2446 88.0808 14.6309 89.1557 14.6309H90.1337V12.2367C89.6267 12.2367 89.4311 12.0156 89.4311 11.4451ZM86.6163 10.764C86.6163 11.961 85.7167 12.6421 84.5447 12.6421C83.5277 12.6421 82.7266 12.2927 82.7266 11.2608C82.7266 10.248 83.606 10.0829 84.3679 10.0829H86.6163V10.764Z" fill="white"/>
<path d="M15.0519 19.0527H0V21.9997H15.0519V19.0527Z" fill="white"/>
<path d="M10.2621 2.15828C9.8318 0.952355 9.33737 0 7.64286 0C5.94835 0 5.42107 0.947933 4.97045 2.15828L0.3125 14.6318H3.40111L4.47602 11.6671H10.4185L11.4152 14.6318H14.6994L10.2621 2.15828ZM5.37569 9.16237L7.4864 3.25069H7.56463L9.55799 9.16237H5.37569Z" fill="white"/>
</g>
<defs>
<clipPath id="clip0_10465_37544">
<rect width="114" height="22" fill="white"/>
</clipPath>
</defs>
</svg>
