<svg width="238" height="34" viewBox="0 0 238 34" fill="none" xmlns="http://www.w3.org/2000/svg">
<g clip-path="url(#clip0_7729_32414)">
<path d="M102.32 0.285156V23.0812H106.885V4.26994H117.051V23.0812H121.616V0.285156H102.32Z" fill="white"/>
<path d="M133.799 6.00391C130.906 6.00391 129.606 7.84104 129.128 8.6173V6.78016H124.828V29.6797H129.128V21.0633C129.738 21.9689 131.092 23.4438 133.799 23.4438C138.046 23.4438 140.62 20.0283 140.62 14.9308C140.594 9.83343 138.019 6.00391 133.799 6.00391ZM136.188 14.7238C136.188 17.596 134.941 19.7178 132.658 19.7178C130.375 19.7178 129.075 17.5701 129.075 14.7238C129.075 11.8258 130.349 9.75581 132.658 9.75581C134.941 9.75581 136.188 11.7999 136.188 14.7238Z" fill="white"/>
<path d="M193.835 6.78125L187.863 16.7432V6.78125H183.59V23.0826H187.837L193.782 13.0689V23.0826H198.082V6.78125H193.835Z" fill="white"/>
<path d="M212.332 6.78125L208.272 17.0278L204.503 6.78125H199.805L206.095 22.591L203.335 29.6808H207.714L216.738 6.78125H212.332Z" fill="white"/>
<path d="M231.764 6.78125L228.075 16.7949L224.545 6.833L224.518 6.78125H218.148V23.0826H222.209V11.2318L226.456 23.1602H229.349L233.755 11.0765V23.0826H238.002V6.78125H231.764Z" fill="white"/>
<path d="M174.089 6.78125L170.427 16.7949L166.87 6.833V6.78125H160.5V23.0826H164.534V11.2318L168.781 23.1602H171.674L176.107 11.0765V23.0826H180.327V6.78125H174.089Z" fill="white"/>
<path d="M25.4279 15.5524C25.3218 18.6057 24.9236 19.2008 23.1719 19.2008V23.0304H23.8354C28.2148 23.0304 29.2765 20.831 29.4357 15.9147L29.6215 10.4809H33.709V23.0045H37.9822V6.70312H25.7464L25.4279 15.5524Z" fill="white"/>
<path d="M48.652 11.6712H45.5467V6.70312H41.2734V23.0304H48.7051C53.3765 23.0304 55.0486 20.0806 55.0486 17.2861C55.0486 13.7153 52.7129 11.6712 48.652 11.6712ZM48.307 19.4596H45.5467V15.3196H48.307C49.7933 15.3196 50.6958 15.9664 50.6958 17.312C50.6958 18.7868 49.8464 19.4596 48.307 19.4596Z" fill="white"/>
<path d="M68.9824 6.33995V0.285156H64.7092V6.33995C59.799 6.75395 56.5078 10.1436 56.5078 14.8788C56.5078 19.6398 59.799 23.0295 64.7092 23.4435V29.6018H68.9824V23.4176C73.8927 23.0295 77.1838 19.6139 77.1838 14.8529C77.2104 10.1177 73.8927 6.7022 68.9824 6.33995ZM64.7092 19.4846C62.3205 19.174 60.8341 17.4145 60.8341 14.8788C60.8341 12.343 62.3205 10.5835 64.7092 10.273V19.4846ZM68.9824 19.4846V10.2471C71.3712 10.5576 72.8575 12.3171 72.8575 14.8529C72.8575 17.3887 71.3712 19.1482 68.9824 19.4846Z" fill="white"/>
<path d="M93.269 18.0334V12.5479C93.269 8.53724 90.6414 6.02734 86.2355 6.02734C81.6703 6.02734 79.2815 8.69249 79.0692 11.487H83.422C83.5813 10.866 84.2183 9.831 86.2355 9.831C87.9076 9.831 88.9693 10.5814 88.9693 12.5479H84.7226C80.9271 12.5479 78.6445 14.4885 78.6445 17.7488C78.6445 21.1385 81.1129 23.4672 84.6961 23.4672C87.3237 23.4672 88.7569 22.2511 89.3939 21.3455C89.9513 22.4581 91.1988 23.0532 92.8444 23.0532H94.3307V19.2754C93.561 19.2754 93.269 18.9132 93.269 18.0334ZM88.9958 16.9467C88.9958 18.8356 87.6157 19.8964 85.8374 19.8964C84.2979 19.8964 83.077 19.3531 83.077 17.7229C83.077 16.1187 84.4041 15.8599 85.5719 15.8599H88.9958V16.9467Z" fill="white"/>
<path d="M22.9055 29.3438H0V33.9754H22.9055V29.3438Z" fill="white"/>
<path d="M15.6054 3.38965C14.9684 1.50076 14.2252 0 11.6241 0C9.04955 0 8.2533 1.50076 7.56321 3.38965L0.476562 23.0548H5.17445L6.82004 18.3973H15.8708L17.3837 23.0548H22.3735L15.6054 3.38965ZM8.17367 14.4384L11.3852 5.12329H11.4914L14.5172 14.4384H8.17367Z" fill="white"/>
<path d="M150.653 23.4155C145.716 23.4155 142.398 19.9223 142.398 14.7214C142.398 9.5205 145.583 6.02734 150.334 6.02734C155.112 6.02734 158.217 9.44287 158.217 14.6955V15.5753H146.937C147.149 18.0334 148.556 19.5601 150.679 19.5601C152.856 19.5601 153.732 18.0076 153.732 18.0076C153.732 18.0076 156.97 18.0076 158.085 18.0076C157.793 20.0776 155.908 23.4155 150.653 23.4155ZM153.626 12.6255C153.387 11.3576 152.59 9.57225 150.334 9.57225C148.37 9.57225 147.335 10.8143 146.99 12.6255H153.626Z" fill="white"/>
</g>
<defs>
<clipPath id="clip0_7729_32414">
<rect width="238" height="34" fill="white"/>
</clipPath>
</defs>
</svg>
