<svg width="49" height="24" viewBox="0 0 49 24" fill="none" xmlns="http://www.w3.org/2000/svg">
<g clip-path="url(#clip0_7729_29649)">
<path fill-rule="evenodd" clip-rule="evenodd" d="M17.0611 17.5912H6.95082V19.7036H17.0611V17.5912ZM11.9225 6.62357L10.5276 10.8364H13.3174L11.9821 6.62357H11.9225ZM12.0775 4.3083C13.2221 4.3083 13.5559 4.98856 13.842 5.84784L16.8346 14.7509H14.617L13.9493 12.6385H9.96721L9.23994 14.7509H7.1535L10.2891 5.84784C10.5872 4.97663 10.9329 4.3083 12.0775 4.3083ZM18.9687 0H5.0313C3.69691 0 2.41718 0.530609 1.47363 1.4751C0.530081 2.41959 0 3.70059 0 5.0363V18.9756C0.00315716 20.3093 0.534632 21.5872 1.47784 22.5291C2.42105 23.471 3.69898 24 5.0313 24H18.9687C20.301 24 21.5789 23.471 22.5222 22.5291C23.4654 21.5872 23.9968 20.3093 24 18.9756V5.0363C24 3.70059 23.4699 2.41959 22.5264 1.4751C21.5828 0.530609 20.3031 0 18.9687 0ZM32 4H29V20H32V4ZM46.6349 6.11986C44.9111 4.67377 42.6769 3.91773 40.3914 4.00711H35V20H40.3914C45.7163 20 48.9911 16.9397 48.9911 12.0228C49.0438 10.9356 48.8616 9.84983 48.456 8.83385C48.0505 7.81786 47.4304 6.89376 46.6349 6.11986ZM38.2349 6.7985H40.3515C41.0754 6.74016 41.8037 6.83611 42.4846 7.07952C43.1654 7.32293 43.7821 7.70781 44.2906 8.20672C44.7992 8.70563 45.187 9.30629 45.4265 9.9659C45.6661 10.6255 45.7514 11.3278 45.6764 12.0228C45.7419 12.7158 45.65 13.4142 45.407 14.0697C45.1641 14.7251 44.776 15.322 44.2695 15.8189C43.763 16.3158 43.1503 16.7009 42.4738 16.9475C41.7973 17.1941 41.0732 17.2963 40.3515 17.247H38.2482L38.2349 6.7985Z" fill="#EF3124"/>
</g>
<defs>
<clipPath id="clip0_7729_29649">
<rect width="49" height="24" fill="white"/>
</clipPath>
</defs>
</svg>
