<svg width="56" height="20" viewBox="0 0 56 20" fill="none" xmlns="http://www.w3.org/2000/svg">
<g id="Frame" clip-path="url(#clip0_7822_28295)">
<g id="Group">
<path id="Vector" d="M16.7835 0H5.16185C2.84203 0 0.972656 1.86937 0.972656 4.18919V15.8108C0.972656 18.1306 2.84203 20 5.16185 20H16.7835C19.1033 20 20.9727 18.1306 20.9727 15.8108V4.18919C20.9952 1.86937 19.1033 0 16.7835 0Z" fill="#EF3124"/>
<path id="Vector_2" d="M9.77924 9.03248L10.9729 5.51897H11.018L12.1441 9.03248H9.77924ZM12.527 4.86582C12.2792 4.14509 12.009 3.58203 11.063 3.58203C10.1171 3.58203 9.82429 4.14509 9.55402 4.86582L6.94141 12.2982H8.67564L9.28375 10.5415H12.5946L13.1576 12.2982H15.0045L12.527 4.86582Z" fill="white"/>
<path id="Vector_3" d="M15.1851 14.6621H6.76172V16.4189H15.1851V14.6621Z" fill="white"/>
<path id="Vector_4" d="M29.3943 6.17193H32.6826C33.9438 6.17193 34.597 6.71247 34.597 7.7485C34.597 8.76202 33.8988 9.32508 32.6826 9.32508H29.3943V6.17193ZM32.8177 4.00977H26.9844V16.4197H29.3718V11.5548H32.8177C35.4979 11.5548 37.0519 10.1809 37.0519 7.77103C37.0519 5.36112 35.5429 4.00977 32.8177 4.00977Z" fill="white"/>
<path id="Vector_5" d="M41.4472 14.8419C40.4337 14.8419 39.8256 14.3464 39.8256 13.5356C39.8256 12.8599 40.3436 12.4771 41.1769 12.4771H43.3391V13.3329C43.3391 14.1888 42.5283 14.8419 41.4472 14.8419ZM45.5463 13.8284V10.9005C45.5463 8.6257 44.0598 7.29688 41.5823 7.29688C40.3661 7.29688 39.3751 7.65724 38.6769 8.37796C38.2265 8.80588 37.9337 9.36895 37.8211 9.99958V10.0671H40.0733L40.0958 10.0221C40.1634 9.88696 40.5012 9.16624 41.6499 9.16624C42.6859 9.16624 43.3841 9.8194 43.3841 10.8104H40.8391C38.7445 10.8104 37.5508 11.8014 37.5508 13.5581C37.5508 15.3599 38.9021 16.5762 40.9517 16.5762C42.4607 16.5762 43.2039 15.7653 43.4967 15.3374C43.767 16.0356 44.4427 16.441 45.4111 16.441H46.1544V14.5491H46.1093C45.7039 14.5041 45.5463 14.3014 45.5463 13.8284Z" fill="white"/>
<path id="Vector_6" d="M52.7306 7.52344L50.5909 13.2442L48.4288 7.52344H45.9062L49.4423 16.2622L48.0234 20.0009H50.3207L55.0279 7.52344H52.7306Z" fill="white"/>
</g>
</g>
<defs>
<clipPath id="clip0_7822_28295">
<rect width="54.0541" height="20" fill="white" transform="translate(0.972656)"/>
</clipPath>
</defs>
</svg>
