<svg width="145" height="20" viewBox="0 0 145 20" fill="none" xmlns="http://www.w3.org/2000/svg">
<g clip-path="url(#clip0_9318_34772)">
<circle cx="10" cy="10" r="10" fill="black"/>
<path fill-rule="evenodd" clip-rule="evenodd" d="M6 15.8164H13.9104V14.2148H6V15.8164Z" fill="white"/>
<path fill-rule="evenodd" clip-rule="evenodd" d="M8.87861 8.91627L9.9454 5.69845H9.98488L10.9925 8.91627H8.87861ZM11.3476 5.10445C11.1308 4.44811 10.8808 3.92969 10.0244 3.92969C9.16796 3.92969 8.90201 4.44599 8.67369 5.10445L6.32031 11.8925H7.88096L8.42423 10.291H11.4271L11.9308 11.8925H13.5902L11.3476 5.10445Z" fill="white"/>
</g>
<path d="M33.532 11.724L32.476 8.838C32.424 8.71 32.37 8.558 32.314 8.382C32.258 8.206 32.202 8.016 32.146 7.812C32.094 8.016 32.04 8.208 31.984 8.388C31.928 8.564 31.874 8.718 31.822 8.85L30.772 11.724H33.532ZM36.382 15H35.134C34.994 15 34.88 14.966 34.792 14.898C34.704 14.826 34.638 14.738 34.594 14.634L33.946 12.864H30.352L29.704 14.634C29.672 14.726 29.61 14.81 29.518 14.886C29.426 14.962 29.31 15 29.17 15H27.916L31.324 6.324H32.974L36.382 15ZM42.9049 15H41.4229V9.978H39.9109C39.8629 10.734 39.7889 11.386 39.6889 11.934C39.5889 12.478 39.4689 12.94 39.3289 13.32C39.1929 13.7 39.0389 14.006 38.8669 14.238C38.6989 14.466 38.5189 14.644 38.3269 14.772C38.1349 14.9 37.9369 14.984 37.7329 15.024C37.5289 15.068 37.3229 15.09 37.1149 15.09C36.8949 15.09 36.7329 15.07 36.6289 15.03C36.5289 14.994 36.4789 14.942 36.4789 14.874V13.95H36.8329C36.9649 13.95 37.0969 13.93 37.2289 13.89C37.3609 13.85 37.4889 13.768 37.6129 13.644C37.7369 13.52 37.8549 13.344 37.9669 13.116C38.0789 12.884 38.1809 12.58 38.2729 12.204C38.3689 11.824 38.4529 11.36 38.5249 10.812C38.5969 10.264 38.6529 9.608 38.6929 8.844H42.9049V15ZM46.8788 13.938C47.2148 13.938 47.4648 13.854 47.6288 13.686C47.7968 13.518 47.8808 13.302 47.8808 13.038C47.8808 12.926 47.8608 12.818 47.8208 12.714C47.7848 12.61 47.7268 12.518 47.6468 12.438C47.5668 12.358 47.4628 12.296 47.3348 12.252C47.2068 12.204 47.0528 12.18 46.8728 12.18H45.7748V13.938H46.8788ZM46.8668 11.124C47.2948 11.124 47.6568 11.176 47.9528 11.28C48.2488 11.384 48.4888 11.524 48.6728 11.7C48.8568 11.876 48.9888 12.08 49.0688 12.312C49.1528 12.54 49.1948 12.78 49.1948 13.032C49.1948 13.32 49.1428 13.586 49.0388 13.83C48.9388 14.07 48.7888 14.278 48.5888 14.454C48.3928 14.626 48.1508 14.76 47.8628 14.856C47.5788 14.952 47.2528 15 46.8848 15H44.3648V8.844H45.7748V11.124H46.8668ZM54.491 13.986C55.087 13.942 55.547 13.742 55.871 13.386C56.199 13.03 56.363 12.542 56.363 11.922C56.363 11.302 56.199 10.814 55.871 10.458C55.547 10.098 55.087 9.896 54.491 9.852V13.986ZM53.195 9.852C52.899 9.876 52.635 9.94 52.403 10.044C52.175 10.144 51.979 10.282 51.815 10.458C51.655 10.634 51.533 10.846 51.449 11.094C51.365 11.338 51.323 11.614 51.323 11.922C51.323 12.23 51.365 12.508 51.449 12.756C51.533 13 51.655 13.21 51.815 13.386C51.979 13.558 52.175 13.696 52.403 13.8C52.635 13.9 52.899 13.962 53.195 13.986V9.852ZM54.539 8.754C55.031 8.782 55.479 8.876 55.883 9.036C56.291 9.192 56.639 9.406 56.927 9.678C57.219 9.95 57.445 10.274 57.605 10.65C57.765 11.026 57.845 11.446 57.845 11.91C57.845 12.378 57.765 12.802 57.605 13.182C57.445 13.558 57.219 13.882 56.927 14.154C56.639 14.426 56.291 14.642 55.883 14.802C55.479 14.962 55.031 15.056 54.539 15.084V17.064H53.147V15.084C52.655 15.056 52.205 14.962 51.797 14.802C51.393 14.642 51.045 14.426 50.753 14.154C50.465 13.882 50.241 13.558 50.081 13.182C49.921 12.802 49.841 12.378 49.841 11.91C49.841 11.446 49.921 11.026 50.081 10.65C50.241 10.274 50.465 9.95 50.753 9.678C51.045 9.406 51.393 9.192 51.797 9.036C52.205 8.876 52.655 8.782 53.147 8.754V6.324H54.539V8.754ZM62.2184 12.372C61.7904 12.392 61.4304 12.43 61.1384 12.486C60.8464 12.538 60.6124 12.606 60.4364 12.69C60.2604 12.774 60.1344 12.872 60.0584 12.984C59.9824 13.096 59.9444 13.218 59.9444 13.35C59.9444 13.61 60.0204 13.796 60.1724 13.908C60.3284 14.02 60.5304 14.076 60.7784 14.076C61.0824 14.076 61.3444 14.022 61.5644 13.914C61.7884 13.802 62.0064 13.634 62.2184 13.41V12.372ZM58.8224 9.702C59.5304 9.054 60.3824 8.73 61.3784 8.73C61.7384 8.73 62.0604 8.79 62.3444 8.91C62.6284 9.026 62.8684 9.19 63.0644 9.402C63.2604 9.61 63.4084 9.86 63.5084 10.152C63.6124 10.444 63.6644 10.764 63.6644 11.112V15H62.9924C62.8524 15 62.7444 14.98 62.6684 14.94C62.5924 14.896 62.5324 14.81 62.4884 14.682L62.3564 14.238C62.2004 14.378 62.0484 14.502 61.9004 14.61C61.7524 14.714 61.5984 14.802 61.4384 14.874C61.2784 14.946 61.1064 15 60.9224 15.036C60.7424 15.076 60.5424 15.096 60.3224 15.096C60.0624 15.096 59.8224 15.062 59.6024 14.994C59.3824 14.922 59.1924 14.816 59.0324 14.676C58.8724 14.536 58.7484 14.362 58.6604 14.154C58.5724 13.946 58.5284 13.704 58.5284 13.428C58.5284 13.272 58.5544 13.118 58.6064 12.966C58.6584 12.81 58.7424 12.662 58.8584 12.522C58.9784 12.382 59.1324 12.25 59.3204 12.126C59.5084 12.002 59.7384 11.894 60.0104 11.802C60.2864 11.71 60.6064 11.636 60.9704 11.58C61.3344 11.52 61.7504 11.484 62.2184 11.472V11.112C62.2184 10.7 62.1304 10.396 61.9544 10.2C61.7784 10 61.5244 9.9 61.1924 9.9C60.9524 9.9 60.7524 9.928 60.5924 9.984C60.4364 10.04 60.2984 10.104 60.1784 10.176C60.0584 10.244 59.9484 10.306 59.8484 10.362C59.7524 10.418 59.6444 10.446 59.5244 10.446C59.4204 10.446 59.3324 10.42 59.2604 10.368C59.1884 10.312 59.1304 10.248 59.0864 10.176L58.8224 9.702ZM75.2261 15H73.6001V7.566H69.8321V15H68.2121V6.324H75.2261V15ZM78.3078 13.404C78.4758 13.608 78.6578 13.752 78.8538 13.836C79.0538 13.92 79.2698 13.962 79.5018 13.962C79.7258 13.962 79.9278 13.92 80.1078 13.836C80.2878 13.752 80.4398 13.624 80.5638 13.452C80.6918 13.28 80.7898 13.064 80.8578 12.804C80.9258 12.54 80.9598 12.23 80.9598 11.874C80.9598 11.514 80.9298 11.21 80.8698 10.962C80.8138 10.71 80.7318 10.506 80.6238 10.35C80.5158 10.194 80.3838 10.08 80.2278 10.008C80.0758 9.936 79.9018 9.9 79.7058 9.9C79.3978 9.9 79.1358 9.966 78.9198 10.098C78.7038 10.226 78.4998 10.408 78.3078 10.644V13.404ZM78.2298 9.684C78.4818 9.4 78.7678 9.17 79.0878 8.994C79.4078 8.818 79.7838 8.73 80.2158 8.73C80.5518 8.73 80.8578 8.8 81.1338 8.94C81.4138 9.08 81.6538 9.284 81.8538 9.552C82.0578 9.816 82.2138 10.144 82.3218 10.536C82.4338 10.924 82.4898 11.37 82.4898 11.874C82.4898 12.334 82.4278 12.76 82.3038 13.152C82.1798 13.544 82.0018 13.884 81.7698 14.172C81.5418 14.46 81.2638 14.686 80.9358 14.85C80.6118 15.01 80.2478 15.09 79.8438 15.09C79.4998 15.09 79.2058 15.038 78.9618 14.934C78.7178 14.826 78.4998 14.678 78.3078 14.49V17.01H76.8258V8.844H77.7318C77.9238 8.844 78.0498 8.934 78.1098 9.114L78.2298 9.684ZM87.6003 11.214C87.6003 11.022 87.5723 10.842 87.5163 10.674C87.4643 10.502 87.3843 10.352 87.2763 10.224C87.1683 10.096 87.0303 9.996 86.8623 9.924C86.6983 9.848 86.5063 9.81 86.2863 9.81C85.8583 9.81 85.5203 9.932 85.2723 10.176C85.0283 10.42 84.8723 10.766 84.8043 11.214H87.6003ZM84.7743 12.108C84.7983 12.424 84.8543 12.698 84.9423 12.93C85.0303 13.158 85.1463 13.348 85.2903 13.5C85.4343 13.648 85.6043 13.76 85.8003 13.836C86.0003 13.908 86.2203 13.944 86.4603 13.944C86.7003 13.944 86.9063 13.916 87.0783 13.86C87.2543 13.804 87.4063 13.742 87.5343 13.674C87.6663 13.606 87.7803 13.544 87.8763 13.488C87.9763 13.432 88.0723 13.404 88.1643 13.404C88.2883 13.404 88.3803 13.45 88.4403 13.542L88.8663 14.082C88.7023 14.274 88.5183 14.436 88.3143 14.568C88.1103 14.696 87.8963 14.8 87.6723 14.88C87.4523 14.956 87.2263 15.01 86.9943 15.042C86.7663 15.074 86.5443 15.09 86.3283 15.09C85.9003 15.09 85.5023 15.02 85.1343 14.88C84.7663 14.736 84.4463 14.526 84.1743 14.25C83.9023 13.97 83.6883 13.626 83.5323 13.218C83.3763 12.806 83.2983 12.33 83.2983 11.79C83.2983 11.37 83.3663 10.976 83.5023 10.608C83.6383 10.236 83.8323 9.914 84.0843 9.642C84.3403 9.366 84.6503 9.148 85.0143 8.988C85.3823 8.828 85.7963 8.748 86.2563 8.748C86.6443 8.748 87.0023 8.81 87.3303 8.934C87.6583 9.058 87.9403 9.24 88.1763 9.48C88.4123 9.716 88.5963 10.008 88.7283 10.356C88.8643 10.7 88.9323 11.094 88.9323 11.538C88.9323 11.762 88.9083 11.914 88.8603 11.994C88.8123 12.07 88.7203 12.108 88.5843 12.108H84.7743ZM97.1785 8.832V15H95.8405V11.568C95.8405 11.428 95.8465 11.27 95.8585 11.094C95.8745 10.918 95.8985 10.754 95.9305 10.602L94.1185 13.926C94.0305 14.098 93.8905 14.184 93.6985 14.184H93.5425C93.3505 14.184 93.2105 14.098 93.1225 13.926L91.2865 10.584C91.3145 10.736 91.3365 10.902 91.3525 11.082C91.3725 11.262 91.3825 11.424 91.3825 11.568V15H90.0445V8.832H91.2685C91.3725 8.832 91.4745 8.854 91.5745 8.898C91.6785 8.942 91.7645 9.03 91.8325 9.162L93.2845 11.754C93.3485 11.874 93.4085 12.002 93.4645 12.138C93.5205 12.27 93.5725 12.404 93.6205 12.54C93.6685 12.404 93.7185 12.268 93.7705 12.132C93.8265 11.996 93.8865 11.87 93.9505 11.754L95.3905 9.162C95.4625 9.026 95.5485 8.938 95.6485 8.898C95.7485 8.854 95.8505 8.832 95.9545 8.832H97.1785ZM104.178 8.844V15H102.696V11.406C102.696 11.314 102.7 11.214 102.708 11.106C102.72 10.994 102.734 10.882 102.75 10.77C102.67 10.954 102.582 11.116 102.486 11.256C102.478 11.264 102.438 11.32 102.366 11.424C102.294 11.524 102.2 11.654 102.084 11.814C101.972 11.974 101.844 12.156 101.7 12.36C101.556 12.56 101.41 12.764 101.262 12.972C100.914 13.464 100.52 14.02 100.08 14.64C100.024 14.724 99.9501 14.806 99.8581 14.886C99.7701 14.966 99.6681 15.006 99.5521 15.006H98.6461V8.85H100.128V12.444C100.128 12.536 100.122 12.638 100.11 12.75C100.102 12.858 100.09 12.968 100.074 13.08C100.162 12.884 100.25 12.722 100.338 12.594C100.342 12.586 100.38 12.532 100.452 12.432C100.524 12.332 100.616 12.202 100.728 12.042C100.844 11.882 100.974 11.702 101.118 11.502C101.262 11.298 101.408 11.09 101.556 10.878C101.904 10.386 102.3 9.83 102.744 9.21C102.8 9.122 102.874 9.04 102.966 8.964C103.058 8.884 103.162 8.844 103.278 8.844H104.178ZM111.234 8.844L107.88 16.692C107.836 16.796 107.778 16.874 107.706 16.926C107.638 16.982 107.532 17.01 107.388 17.01H106.284L107.436 14.538L104.946 8.844H106.248C106.364 8.844 106.454 8.872 106.518 8.928C106.586 8.984 106.636 9.048 106.668 9.12L107.976 12.312C108.02 12.42 108.056 12.528 108.084 12.636C108.116 12.744 108.146 12.854 108.174 12.966C108.21 12.854 108.246 12.744 108.282 12.636C108.318 12.524 108.358 12.414 108.402 12.306L109.638 9.12C109.67 9.04 109.722 8.974 109.794 8.922C109.87 8.87 109.954 8.844 110.046 8.844H111.234ZM119.104 8.832V15H117.766V11.568C117.766 11.428 117.772 11.27 117.784 11.094C117.8 10.918 117.824 10.754 117.856 10.602L116.044 13.926C115.956 14.098 115.816 14.184 115.624 14.184H115.468C115.276 14.184 115.136 14.098 115.048 13.926L113.212 10.584C113.24 10.736 113.262 10.902 113.278 11.082C113.298 11.262 113.308 11.424 113.308 11.568V15H111.97V8.832H113.194C113.298 8.832 113.4 8.854 113.5 8.898C113.604 8.942 113.69 9.03 113.758 9.162L115.21 11.754C115.274 11.874 115.334 12.002 115.39 12.138C115.446 12.27 115.498 12.404 115.546 12.54C115.594 12.404 115.644 12.268 115.696 12.132C115.752 11.996 115.812 11.87 115.876 11.754L117.316 9.162C117.388 9.026 117.474 8.938 117.574 8.898C117.674 8.854 117.776 8.832 117.88 8.832H119.104Z" fill="#1A1A1A"/>
<defs>
<clipPath id="clip0_9318_34772">
<rect width="20" height="20" fill="white"/>
</clipPath>
</defs>
</svg>
