<svg width="47" height="16" viewBox="0 0 47 16" fill="none" xmlns="http://www.w3.org/2000/svg">
<g clip-path="url(#clip0_6970_36522)">
<path d="M22.211 0.464844H19.562L15.2707 5.02437V0.464844H13.209V10.9529H15.2707V6.28627L19.6938 10.9529H22.4747L17.3804 5.54818L22.211 0.464844Z" fill="#808080"/>
<path d="M24.2259 7.53646C24.106 8.94122 23.9022 9.23884 23.0751 9.23884H22.8594V11.0246H23.3988C25.0889 11.0246 25.7961 10.1317 26.0119 7.72693L26.2276 5.11979H28.3014V10.9531H30.2552V3.45312H24.5855L24.2259 7.53646Z" fill="#808080"/>
<path d="M37.0518 3.45312L35.2058 8.27455L33.3359 3.45312H31.1543L34.2109 10.846L32.9883 13.9888H34.9661L39.0416 3.45312H37.0518Z" fill="#808080"/>
<path d="M43.6191 3.65476C42.6481 3.65476 41.869 4.02381 41.3895 4.70238C41.5813 3.14286 42.2166 2.54762 43.9787 2.19048L46.4959 1.71429V0L43.9427 0.488095C41.1019 1.02381 39.9032 2.27381 39.6754 4.97619C39.6155 5.82143 39.6035 6.32143 39.6035 6.92857C39.6035 9.52381 41.0179 11.131 43.3074 11.131C45.489 11.131 47.0113 9.58333 47.0113 7.36905C46.9993 5.11905 45.6688 3.65476 43.6191 3.65476ZM43.2954 9.41667C42.2406 9.41667 41.5813 8.64286 41.5813 7.39286C41.5813 6.16667 42.2526 5.38095 43.2954 5.38095C44.3383 5.38095 45.0095 6.16667 45.0095 7.39286C45.0095 8.63095 44.3383 9.41667 43.2954 9.41667Z" fill="#808080"/>
<path d="M7.06096 1.92885C6.77327 1.0479 6.42566 0.357422 5.26295 0.357422C4.10023 0.357422 3.74063 1.0479 3.42897 1.91695L0.228516 10.9646H2.35017L3.09335 8.82171H7.18082L7.86407 10.9646H10.1176L7.06096 1.92885ZM3.70467 7.00028L5.15507 2.71456H5.20301L6.5695 7.00028H3.70467Z" fill="#808080"/>
<path d="M10.3446 13.8691H0V16.0001H10.3446V13.8691Z" fill="#EF3124"/>
</g>
<defs>
<clipPath id="clip0_6970_36522">
<rect width="47" height="16" fill="white"/>
</clipPath>
</defs>
</svg>
