<svg width="109" height="16" viewBox="0 0 109 16" fill="none" xmlns="http://www.w3.org/2000/svg">
<g clip-path="url(#clip0_7729_30215)">
<path d="M46.8594 0.132812V10.8604H48.9502V2.008H53.6058V10.8604H55.6966V0.132812H46.8594Z" fill="black"/>
<path d="M61.2766 2.82422C59.9516 2.82422 59.356 3.68875 59.1372 4.05405V3.18952H57.168V13.9658H59.1372V9.91098C59.4168 10.3372 60.0367 11.0312 61.2766 11.0312C63.2215 11.0312 64.4006 9.42391 64.4006 7.02513C64.3884 4.62635 63.2093 2.82422 61.2766 2.82422ZM62.3706 6.92772C62.3706 8.27932 61.7993 9.27779 60.7539 9.27779C59.7085 9.27779 59.1129 8.26714 59.1129 6.92772C59.1129 5.56394 59.6964 4.58982 60.7539 4.58982C61.7993 4.58982 62.3706 5.55177 62.3706 6.92772Z" fill="black"/>
<path d="M88.7741 3.19141L86.0391 7.87938V3.19141H84.082V10.8626H86.0269L88.7498 6.15031V10.8626H90.719V3.19141H88.7741Z" fill="black"/>
<path d="M97.2453 3.19141L95.3855 8.01332L93.6594 3.19141H91.5078L94.3887 10.6313L93.1245 13.9677H95.1302L99.2631 3.19141H97.2453Z" fill="black"/>
<path d="M106.142 3.19141L104.452 7.90374L102.836 3.21576L102.824 3.19141H99.9062V10.8626H101.766V5.28577L103.711 10.8992H105.036L107.054 5.21272V10.8626H108.999V3.19141H106.142Z" fill="black"/>
<path d="M79.7315 3.19141L78.054 7.90374L76.4252 3.21576V3.19141H73.5078V10.8626H75.3555V5.28577L77.3004 10.8992H78.6254L80.6554 5.21272V10.8626H82.5881V3.19141H79.7315Z" fill="black"/>
<path d="M11.6465 7.31673C11.5979 8.75356 11.4156 9.03362 10.6133 9.03362V10.8358H10.9172C12.9229 10.8358 13.4091 9.80075 13.482 7.4872L13.5671 4.93012H15.4391V10.8236H17.3962V3.15234H11.7924L11.6465 7.31673Z" fill="black"/>
<path d="M22.2816 5.49024H20.8594V3.15234H18.9023V10.8358H22.3059C24.4453 10.8358 25.2111 9.44763 25.2111 8.13256C25.2111 6.45219 24.1414 5.49024 22.2816 5.49024ZM22.1236 9.15539H20.8594V7.20714H22.1236C22.8043 7.20714 23.2176 7.51155 23.2176 8.14473C23.2176 8.8388 22.8286 9.15539 22.1236 9.15539Z" fill="black"/>
<path d="M31.5921 2.98213V0.132812H29.635V2.98213C27.3862 3.17695 25.8789 4.77208 25.8789 7.00039C25.8789 9.24088 27.3862 10.836 29.635 11.0308V13.9289H31.5921V11.0187C33.8409 10.836 35.3482 9.2287 35.3482 6.98822C35.3603 4.75991 33.8409 3.1526 31.5921 2.98213ZM29.635 9.16782C28.541 9.0217 27.8603 8.1937 27.8603 7.00039C27.8603 5.80709 28.541 4.97908 29.635 4.83297V9.16782ZM31.5921 9.16782V4.82079C32.6861 4.96691 33.3668 5.79491 33.3668 6.98822C33.3668 8.18152 32.6861 9.00953 31.5921 9.16782Z" fill="black"/>
<path d="M42.7134 8.48586V5.90443C42.7134 4.01706 41.51 2.83594 39.4922 2.83594C37.4014 2.83594 36.3074 4.09012 36.2101 5.40519H38.2036C38.2766 5.11295 38.5683 4.62589 39.4922 4.62589C40.258 4.62589 40.7442 4.97901 40.7442 5.90443H38.7993C37.061 5.90443 36.0156 6.81767 36.0156 8.35192C36.0156 9.94705 37.1461 11.0429 38.7871 11.0429C39.9905 11.0429 40.6469 10.4706 40.9387 10.0445C41.1939 10.5681 41.7653 10.8481 42.5189 10.8481H43.1996V9.07034C42.8471 9.07034 42.7134 8.89986 42.7134 8.48586ZM40.7563 7.97445C40.7563 8.86334 40.1242 9.36257 39.3098 9.36257C38.6048 9.36257 38.0456 9.10687 38.0456 8.33974C38.0456 7.5848 38.6534 7.46303 39.1883 7.46303H40.7563V7.97445Z" fill="black"/>
<path d="M10.4904 13.8086H0V15.9882H10.4904V13.8086Z" fill="black"/>
<path d="M7.14749 1.59513C6.85575 0.706241 6.51539 0 5.32414 0C4.14504 0 3.78036 0.706241 3.46432 1.59513L0.21875 10.8493H2.37031L3.12396 8.65753H7.26904L7.96192 10.8493H10.2472L7.14749 1.59513ZM3.7439 6.79452L5.21474 2.41096H5.26336L6.64911 6.79452H3.7439Z" fill="black"/>
<path d="M68.9953 11.0186C66.7343 11.0186 65.2148 9.37475 65.2148 6.92726C65.2148 4.47977 66.6735 2.83594 68.8494 2.83594C71.0374 2.83594 72.4596 4.44324 72.4596 6.91509V7.32909H67.2935C67.3907 8.48586 68.035 9.20428 69.0074 9.20428C70.0042 9.20428 70.4053 8.47369 70.4053 8.47369C70.4053 8.47369 71.8883 8.47369 72.3988 8.47369C72.2651 9.44781 71.4021 11.0186 68.9953 11.0186ZM70.3567 5.94096C70.2473 5.34431 69.8826 4.50413 68.8494 4.50413C67.9499 4.50413 67.4758 5.0886 67.3178 5.94096H70.3567Z" fill="black"/>
</g>
<defs>
<clipPath id="clip0_7729_30215">
<rect width="109" height="16" fill="white"/>
</clipPath>
</defs>
</svg>
