<svg width="58" height="20" viewBox="0 0 58 20" fill="none" xmlns="http://www.w3.org/2000/svg">
<g clip-path="url(#clip0_7208_24236)">
<mask id="mask0_7208_24236" style="mask-type:luminance" maskUnits="userSpaceOnUse" x="0" y="0" width="20" height="20">
<path d="M2.80365e-07 9.99763C-0.000467976 11.9755 0.585623 13.9092 1.68415 15.554C2.78268 17.1988 4.3443 18.4809 6.17152 19.2381C7.99874 19.9953 10.0095 20.1937 11.9494 19.8081C13.8894 19.4226 15.6715 18.4703 17.0702 17.0719C18.469 15.6735 19.4216 13.8916 19.8077 11.9518C20.1937 10.0119 19.9958 8.00111 19.239 6.17371C18.4822 4.34631 17.2005 2.78439 15.5559 1.68547C13.9114 0.58655 11.9779 5.5428e-08 10 0C7.34824 -7.43114e-08 4.80506 1.05324 2.92977 2.9281C1.05447 4.80295 0.000628063 7.34588 2.80365e-07 9.99763Z" fill="white"/>
</mask>
<g mask="url(#mask0_7208_24236)">
<path d="M19.9976 16.4264H0V12.1473H19.9976V16.4264ZM19.9976 3.58789H0V7.86819H19.9976V3.58789Z" fill="#FFCC00"/>
</g>
<mask id="mask1_7208_24236" style="mask-type:luminance" maskUnits="userSpaceOnUse" x="0" y="0" width="20" height="20">
<path d="M2.80365e-07 9.99763C-0.000467976 11.9755 0.585623 13.9092 1.68415 15.554C2.78268 17.1988 4.3443 18.4809 6.17152 19.2381C7.99874 19.9953 10.0095 20.1937 11.9494 19.8081C13.8894 19.4226 15.6715 18.4703 17.0702 17.0719C18.469 15.6735 19.4216 13.8916 19.8077 11.9518C20.1937 10.0119 19.9958 8.00111 19.239 6.17371C18.4822 4.34631 17.2005 2.78439 15.5559 1.68547C13.9114 0.58655 11.9779 5.5428e-08 10 0C7.34824 -7.43114e-08 4.80506 1.05324 2.92977 2.9281C1.05447 4.80295 0.000628063 7.34588 2.80365e-07 9.99763Z" fill="white"/>
</mask>
<g mask="url(#mask1_7208_24236)">
<path d="M19.9976 3.5886H0V0.00195312H19.9976V3.5886ZM19.9976 16.426H0V19.9948H19.9976V16.426ZM19.9976 7.86772H0V12.1468H19.9976V7.86772Z" fill="#1D1D1B"/>
</g>
<path d="M25.5663 16.0433C25.6333 16.0491 25.7008 16.0407 25.7643 16.0184C25.8277 15.9962 25.8857 15.9607 25.9344 15.9142C25.9966 15.838 26.0287 15.7415 26.0244 15.6432C26.0285 15.5841 26.0171 15.5249 25.9913 15.4716C25.9656 15.4183 25.9264 15.3725 25.8776 15.3389C25.7825 15.2864 25.6748 15.261 25.5663 15.2656H25.3639V16.0433H25.5663ZM25.5296 14.8394C25.5897 14.8424 25.6498 14.8324 25.7058 14.8102C25.7618 14.7879 25.8123 14.7539 25.8539 14.7104C25.9116 14.6397 25.9393 14.5491 25.9309 14.4583C25.9353 14.4121 25.9292 14.3655 25.913 14.322C25.8968 14.2786 25.8709 14.2393 25.8374 14.2073C25.7951 14.173 25.7465 14.1473 25.6943 14.1319C25.642 14.1164 25.5873 14.1115 25.5331 14.1174H25.3639V14.8394H25.5296ZM25.6101 13.6924C26.2268 13.6924 26.4777 13.9599 26.4777 14.4026C26.4825 14.5354 26.4451 14.6662 26.3709 14.7764C26.2967 14.8865 26.1894 14.9704 26.0646 15.0158C26.2077 15.0522 26.3364 15.131 26.4339 15.2419C26.5318 15.3757 26.5803 15.5392 26.5713 15.7047C26.5809 15.8172 26.5622 15.9302 26.5169 16.0336C26.4717 16.137 26.4012 16.2274 26.312 16.2966C26.1037 16.4267 25.86 16.4887 25.6148 16.4741H24.6087C24.54 16.4741 24.5234 16.4576 24.5234 16.3901V16.1711C24.5234 16.0693 24.5767 16.0847 24.6087 16.0847H24.8158V14.0818H24.6087C24.5767 14.0818 24.5234 14.0972 24.5234 13.9966V13.7776C24.5234 13.6758 24.5767 13.6924 24.6087 13.6924H25.6101Z" fill="black"/>
<path d="M29.008 16.4116C29.008 16.44 29.0163 16.4685 28.9512 16.4685H28.4162C28.3511 16.4685 28.3227 16.4247 28.2978 16.3264L28.286 16.2779L28.2374 16.3229C28.1918 16.3692 28.14 16.409 28.0836 16.4412C27.9609 16.509 27.8223 16.5425 27.6823 16.5383C27.5932 16.5472 27.5034 16.5315 27.4226 16.4929C27.3418 16.4543 27.2732 16.3943 27.2242 16.3193C27.1597 16.1886 27.1303 16.0434 27.139 15.8979V14.8432H26.9318C26.9117 14.8432 26.875 14.8432 26.875 14.7876V14.5236C26.875 14.5035 26.875 14.4668 26.9318 14.4668H27.5971C27.6622 14.4668 27.6539 14.4952 27.6539 14.5236V15.7724C27.6475 15.8566 27.66 15.9411 27.6906 16.0198C27.708 16.057 27.7361 16.0881 27.7713 16.1092C27.8065 16.1303 27.8473 16.1404 27.8883 16.1382C28.0185 16.1272 28.14 16.0681 28.2292 15.9725V14.8479H28.0232C28.0031 14.8479 27.9652 14.848 27.9652 14.7923V14.5283C27.9652 14.5082 27.9652 14.4715 28.0232 14.4715H28.6873C28.7524 14.4715 28.7441 14.4999 28.7441 14.5283V15.7535C28.7364 15.8699 28.7504 15.9867 28.7855 16.098H28.9548C28.9832 16.098 29.0116 16.0897 29.0116 16.1536V16.4176L29.008 16.4116Z" fill="black"/>
<path d="M30.2208 14.8032C30.1672 14.7935 30.113 14.7884 30.0586 14.7878C29.8159 14.7878 29.7994 14.9417 29.7994 14.9902C29.7994 15.032 29.8134 15.0727 29.8391 15.1057C29.8648 15.1387 29.9008 15.1622 29.9414 15.1725C30.0136 15.2056 30.0787 15.2257 30.2089 15.2743C30.3587 15.3195 30.4933 15.4046 30.5984 15.5205C30.68 15.6249 30.7241 15.7537 30.7238 15.8863C30.7257 15.9715 30.7105 16.0562 30.6792 16.1355C30.6479 16.2147 30.6011 16.287 30.5415 16.3479C30.4735 16.4134 30.3926 16.4641 30.304 16.4969C30.2154 16.5297 30.121 16.5439 30.0266 16.5385C29.8432 16.5385 29.3164 16.4533 29.3164 16.3017V15.859C29.3164 15.7987 29.3519 15.8022 29.372 15.8022H29.649C29.7141 15.8022 29.7058 15.8389 29.7058 15.8756V16.0792C29.798 16.1138 29.8951 16.133 29.9935 16.136C30.2042 16.136 30.2409 16.0106 30.2409 15.9324C30.2409 15.8141 30.1639 15.7714 30.0823 15.7336C30.0006 15.6957 29.8668 15.6531 29.7899 15.6247C29.6701 15.5848 29.5609 15.5184 29.4703 15.4305C29.3791 15.3311 29.331 15.1996 29.3365 15.0648C29.3349 14.9783 29.3509 14.8925 29.3837 14.8124C29.4165 14.7324 29.4653 14.66 29.5271 14.5996C29.6026 14.5288 29.692 14.4746 29.7897 14.4404C29.8873 14.4062 29.991 14.3926 30.0941 14.4007C30.2362 14.4007 30.6138 14.4528 30.6138 14.5865V15.0044C30.6138 15.0695 30.5889 15.0612 30.5605 15.0612H30.2811C30.261 15.0612 30.2243 15.0612 30.2243 15.0044V14.8055L30.2208 14.8032Z" fill="black"/>
<path d="M31.5597 14.2026C31.5141 14.2053 31.4684 14.1987 31.4255 14.1831C31.3826 14.1675 31.3433 14.1433 31.31 14.112C31.2768 14.0807 31.2503 14.0429 31.2322 14.001C31.2141 13.959 31.2048 13.9139 31.2048 13.8682C31.2048 13.8225 31.2141 13.7773 31.2322 13.7354C31.2503 13.6935 31.2768 13.6557 31.31 13.6244C31.3433 13.5931 31.3826 13.5689 31.4255 13.5533C31.4684 13.5377 31.5141 13.5311 31.5597 13.5338C31.6449 13.5389 31.725 13.5763 31.7836 13.6385C31.8421 13.7006 31.8747 13.7828 31.8747 13.8682C31.8747 13.9536 31.8421 14.0358 31.7836 14.0979C31.725 14.1601 31.6449 14.1975 31.5597 14.2026ZM32.1349 16.4126C32.1349 16.441 32.1432 16.4694 32.0781 16.4694H31.0447C31.0246 16.4694 30.9879 16.4694 30.9879 16.4126V16.1486C30.9879 16.1285 30.9879 16.093 31.0447 16.093H31.304V14.843H31.04C31.0199 14.843 30.9844 14.843 30.9844 14.7873V14.5234C30.9844 14.5033 30.9844 14.4666 31.04 14.4666H31.7621C31.8272 14.4666 31.8189 14.495 31.8189 14.5234V16.093H32.0781C32.1432 16.093 32.1349 16.1202 32.1349 16.1486V16.4126Z" fill="black"/>
<path d="M34.5211 16.4128C34.5211 16.4412 34.5294 16.4696 34.4642 16.4696H33.799C33.7789 16.4696 33.7422 16.4696 33.7422 16.4128V15.164C33.751 15.0789 33.7341 14.9932 33.6937 14.9178C33.6754 14.8874 33.6493 14.8625 33.618 14.8458C33.5867 14.8291 33.5515 14.8213 33.5161 14.8231C33.3837 14.8359 33.2601 14.895 33.1669 14.99V16.0932H33.3729C33.438 16.0932 33.4309 16.1204 33.4309 16.1488V16.4128C33.4309 16.4412 33.438 16.4696 33.3729 16.4696H32.4401C32.42 16.4696 32.3833 16.4696 32.3833 16.4128V16.1488C32.3833 16.1287 32.3833 16.0932 32.4401 16.0932H32.6473V15.1889C32.6538 15.0722 32.6402 14.9553 32.607 14.8432H32.4164C32.3525 14.8432 32.3596 14.8077 32.3596 14.7876V14.5236C32.3596 14.5035 32.3596 14.4668 32.4164 14.4668H32.9811C33.0533 14.4668 33.0651 14.5283 33.0935 14.6207L33.1101 14.6787L33.1338 14.6574C33.2893 14.4965 33.5019 14.4034 33.7256 14.3981C33.8036 14.3917 33.8819 14.4041 33.9541 14.4344C34.0262 14.4647 34.0899 14.512 34.1399 14.5721C34.2278 14.7111 34.2693 14.8744 34.2583 15.0385V16.0932H34.4654C34.5305 16.0932 34.5223 16.1204 34.5223 16.1488V16.4128H34.5211Z" fill="black"/>
<path d="M35.9682 15.228V15.1877C35.9692 15.1316 35.9637 15.0756 35.9516 15.0208C35.9384 14.9558 35.9077 14.8957 35.8628 14.8468C35.8327 14.8206 35.7977 14.8007 35.7597 14.7883C35.7218 14.7758 35.6817 14.7712 35.6419 14.7746C35.6022 14.7781 35.5635 14.7895 35.5282 14.8082C35.493 14.8269 35.4618 14.8525 35.4367 14.8835C35.3688 14.9857 35.3322 15.1054 35.3313 15.228H35.9682ZM35.3313 15.6044C35.3313 15.9003 35.4414 16.111 35.7776 16.111C35.9182 16.1104 36.0569 16.0784 36.1836 16.0175C36.199 16.0092 36.2108 16.0057 36.2274 15.9974C36.2477 15.9869 36.2698 15.9801 36.2925 15.9773C36.3025 15.9766 36.3125 15.9795 36.3206 15.9853C36.3288 15.9911 36.3348 15.9996 36.3375 16.0092L36.4381 16.246C36.4447 16.2602 36.4487 16.2754 36.4499 16.291C36.4499 16.3146 36.4345 16.3395 36.386 16.3726C36.1871 16.4808 35.9638 16.5362 35.7373 16.5336C35.6174 16.5415 35.4972 16.5245 35.3842 16.4837C35.2711 16.443 35.1677 16.3794 35.0804 16.2969C34.9419 16.1548 34.8164 15.911 34.8164 15.5133C34.8164 15.1581 34.8933 14.8894 35.0839 14.6716C35.1587 14.5803 35.2536 14.5074 35.3612 14.4588C35.4688 14.4101 35.5862 14.387 35.7042 14.3911C36.0202 14.3911 36.515 14.5284 36.515 15.4695C36.515 15.5795 36.5032 15.5997 36.4227 15.5997L35.3313 15.6044Z" fill="black"/>
<path d="M37.7493 14.8032C37.6954 14.7936 37.6407 14.7884 37.5859 14.7878C37.3433 14.7878 37.3267 14.9417 37.3267 14.9902C37.3267 15.0321 37.3407 15.0727 37.3665 15.1057C37.3922 15.1387 37.4282 15.1622 37.4687 15.1725C37.5421 15.2056 37.6072 15.2258 37.7363 15.2743C37.8863 15.3189 38.021 15.4041 38.1257 15.5205C38.2082 15.6244 38.2525 15.7536 38.2512 15.8863C38.253 15.9715 38.2379 16.0562 38.2066 16.1355C38.1753 16.2147 38.1285 16.287 38.0689 16.3479C38.0008 16.4134 37.9199 16.4641 37.8313 16.4969C37.7427 16.5297 37.6483 16.5439 37.554 16.5385C37.3717 16.5385 36.8438 16.4533 36.8438 16.3018V15.859C36.8438 15.7987 36.8804 15.8022 36.9006 15.8022H37.1752C37.2403 15.8022 37.232 15.8389 37.232 15.8756V16.0792C37.3241 16.1137 37.4213 16.1329 37.5196 16.136C37.7303 16.136 37.767 16.0106 37.767 15.9324C37.767 15.8141 37.6901 15.7714 37.6096 15.7336C37.5291 15.6957 37.3942 15.6531 37.3172 15.6247C37.1973 15.5845 37.0877 15.5182 36.9964 15.4305C36.9052 15.3311 36.8572 15.1996 36.8627 15.0648C36.861 14.9783 36.8771 14.8925 36.9098 14.8125C36.9426 14.7324 36.9914 14.66 37.0533 14.5996C37.129 14.5288 37.2186 14.4746 37.3164 14.4404C37.4143 14.4061 37.5181 14.3926 37.6214 14.4007C37.7635 14.4007 38.1399 14.4528 38.1399 14.5866V15.0044C38.1399 15.0695 38.1162 15.0612 38.0878 15.0612H37.8073C37.7872 15.0612 37.7517 15.0612 37.7517 15.0044V14.8055L37.7493 14.8032Z" fill="black"/>
<path d="M39.4747 14.8032C39.4211 14.7936 39.3669 14.7884 39.3125 14.7878C39.0698 14.7878 39.0533 14.9417 39.0533 14.9902C39.0533 15.0321 39.0673 15.0727 39.093 15.1058C39.1187 15.1388 39.1547 15.1623 39.1953 15.1725C39.2687 15.2057 39.3326 15.2258 39.4628 15.2743C39.6125 15.3191 39.7468 15.4043 39.8511 15.5205C39.9345 15.624 39.9793 15.7534 39.9777 15.8863C39.9796 15.9715 39.9644 16.0562 39.9331 16.1355C39.9018 16.2148 39.855 16.287 39.7955 16.348C39.7274 16.4134 39.6465 16.4642 39.5579 16.497C39.4693 16.5298 39.3749 16.5439 39.2805 16.5385C39.0971 16.5385 38.5703 16.4533 38.5703 16.3018V15.8591C38.5703 15.7987 38.607 15.8023 38.6271 15.8023H38.9029C38.968 15.8023 38.9598 15.839 38.9598 15.8757V16.0793C39.0519 16.1139 39.149 16.1331 39.2474 16.1361C39.4581 16.1361 39.4948 16.0106 39.4948 15.9325C39.4948 15.8141 39.4179 15.7715 39.3362 15.7336C39.2545 15.6957 39.1219 15.6531 39.045 15.6247C38.9249 15.5848 38.8152 15.5185 38.7242 15.4306C38.6334 15.3309 38.5854 15.1995 38.5904 15.0648C38.5888 14.9784 38.6048 14.8925 38.6376 14.8125C38.6704 14.7325 38.7192 14.66 38.781 14.5996C38.8567 14.5288 38.9463 14.4745 39.0441 14.4403C39.142 14.4061 39.2459 14.3926 39.3492 14.4008C39.4901 14.4008 39.8677 14.4528 39.8677 14.5866V15.0044C39.8677 15.0695 39.8428 15.0613 39.8144 15.0613H39.5315C39.5114 15.0613 39.4747 15.0613 39.4747 15.0044V14.8056V14.8032Z" fill="black"/>
<path d="M43.211 5.03106C43.2115 5.14942 43.247 5.26499 43.3131 5.36317C43.3792 5.46136 43.4729 5.53776 43.5824 5.58273C43.6919 5.6277 43.8122 5.63923 43.9283 5.61585C44.0443 5.59247 44.1508 5.53524 44.2343 5.45138C44.3179 5.36752 44.3747 5.26079 44.3976 5.14467C44.4205 5.02855 44.4085 4.90824 44.3631 4.79893C44.3177 4.68963 44.2409 4.59622 44.1425 4.53051C44.044 4.4648 43.9283 4.42973 43.81 4.42973C43.7308 4.42877 43.6523 4.44369 43.5791 4.4736C43.5058 4.50351 43.4393 4.5478 43.3835 4.60387C43.3276 4.65993 43.2836 4.72662 43.254 4.79999C43.2243 4.87337 43.2097 4.95194 43.211 5.03106Z" fill="white"/>
<path d="M46.355 6.99633L46.3183 7.01764L46.239 6.80102C46.2265 6.7662 46.2035 6.73611 46.1732 6.71491C46.1429 6.6937 46.1067 6.68243 46.0697 6.68265H45.685C45.661 6.68265 45.6373 6.68741 45.6152 6.69666C45.593 6.70591 45.573 6.71946 45.5561 6.73653C45.5393 6.7536 45.526 6.77384 45.517 6.79609C45.5081 6.81833 45.5036 6.84214 45.5039 6.86612V11.8176C45.5038 11.8415 45.5083 11.8651 45.5174 11.8873C45.5264 11.9094 45.5397 11.9295 45.5565 11.9464C45.5734 11.9634 45.5934 11.9768 45.6155 11.986C45.6375 11.9952 45.6611 11.9999 45.685 11.9999H46.3775C46.4014 12 46.4251 11.9954 46.4473 11.9863C46.4694 11.9772 46.4895 11.9637 46.5063 11.9468C46.5232 11.9298 46.5365 11.9096 46.5455 11.8874C46.5545 11.8653 46.5589 11.8415 46.5586 11.8176V7.80836L46.5799 7.79652C46.8616 7.64974 47.1528 7.55978 47.7163 7.55978C48.3886 7.55978 48.5236 7.81309 48.5236 8.22029V11.8176C48.5233 11.8416 48.5278 11.8655 48.5368 11.8877C48.5458 11.91 48.5593 11.9302 48.5763 11.9472C48.5932 11.9642 48.6135 11.9776 48.6357 11.9867C48.658 11.9957 48.6818 12.0002 48.7059 11.9999H49.396C49.4201 12.0002 49.4441 11.9957 49.4665 11.9867C49.4888 11.9777 49.5092 11.9643 49.5264 11.9473C49.5436 11.9304 49.5572 11.9102 49.5665 11.8879C49.5758 11.8656 49.5806 11.8417 49.5806 11.8176V8.24988C49.5806 7.1585 48.9355 6.58203 47.7163 6.58203C47.2329 6.59108 46.7615 6.73454 46.355 6.99633Z" fill="black"/>
<path d="M44.3315 6.86316C44.3319 6.83934 44.3277 6.81566 44.3189 6.79349C44.3101 6.77133 44.2971 6.75112 44.2804 6.73405C44.2638 6.71698 44.244 6.70339 44.222 6.69406C44.2001 6.68472 44.1765 6.67984 44.1527 6.67969H43.4768C43.4529 6.67984 43.4293 6.68472 43.4073 6.69404C43.3853 6.70335 43.3654 6.71693 43.3487 6.73399C43.3319 6.75104 43.3188 6.77123 43.3099 6.7934C43.301 6.81557 43.2966 6.83928 43.2969 6.86316V11.817C43.2966 11.8408 43.301 11.8645 43.3099 11.8866C43.3188 11.9087 43.332 11.9288 43.3487 11.9458C43.3655 11.9627 43.3854 11.9762 43.4074 11.9854C43.4294 11.9946 43.453 11.9993 43.4768 11.9993H44.1527C44.1765 11.9993 44.2 11.9946 44.2219 11.9854C44.2439 11.9761 44.2637 11.9627 44.2804 11.9457C44.297 11.9287 44.3101 11.9086 44.3189 11.8865C44.3277 11.8644 44.3319 11.8408 44.3315 11.817V6.86316Z" fill="black"/>
<path d="M42.0303 4.38625C42.0306 4.36217 42.0261 4.33828 42.017 4.31601C42.0078 4.29373 41.9943 4.27353 41.9771 4.25661C41.96 4.2397 41.9396 4.22642 41.9172 4.21758C41.8949 4.20873 41.8709 4.2045 41.8468 4.20514H41.178C41.1539 4.20467 41.1299 4.209 41.1075 4.21788C41.085 4.22675 41.0645 4.24 41.0473 4.25685C41.03 4.2737 41.0162 4.29381 41.0067 4.31602C40.9973 4.33824 40.9923 4.36211 40.9922 4.38625V11.8164C40.9923 11.8406 40.9973 11.8645 41.0067 11.8868C41.0162 11.9091 41.0299 11.9293 41.0472 11.9462C41.0645 11.9632 41.0849 11.9765 41.1074 11.9855C41.1298 11.9945 41.1538 11.999 41.178 11.9987H41.8468C41.871 11.9992 41.8949 11.9948 41.9173 11.9858C41.9397 11.9768 41.9601 11.9635 41.9772 11.9464C41.9943 11.9294 42.0078 11.9092 42.017 11.8868C42.0261 11.8645 42.0306 11.8405 42.0303 11.8164V4.38625Z" fill="black"/>
<path d="M30.5781 9.33736C30.5781 10.0215 30.5781 12.0942 32.8366 12.0942C33.5173 12.0942 33.96 12.054 34.5459 11.8658C34.5788 11.8535 34.6068 11.831 34.626 11.8016C34.6452 11.7722 34.6544 11.7374 34.6525 11.7024V11.1461C34.6538 11.1151 34.6472 11.0843 34.633 11.0567C34.6189 11.0291 34.5979 11.0056 34.572 10.9886C34.5456 10.9747 34.5167 10.9662 34.487 10.9638C34.4573 10.9614 34.4274 10.965 34.3991 10.9744C33.8859 11.0817 33.3619 11.1286 32.8378 11.1141C31.9003 11.1141 31.7133 10.5223 31.6541 9.8724V9.8357H34.7235C34.7723 9.83539 34.8189 9.81579 34.8533 9.7812C34.8877 9.7466 34.907 9.69981 34.907 9.65104V9.33381C34.907 8.00213 34.746 6.57812 32.8426 6.57812C30.584 6.57812 30.584 8.65554 30.584 9.33381L30.5781 9.33736ZM31.6435 8.87216C31.6955 8.18797 31.8802 7.55824 32.8272 7.55824C33.6558 7.55824 33.812 8.00213 33.831 8.87334V8.90767H31.6482V8.87216H31.6435Z" fill="black"/>
<path d="M35.7148 9.33771C35.7148 10.0219 35.7148 12.0946 37.9734 12.0946C38.6575 12.0946 39.0991 12.0543 39.6838 11.8661C39.7173 11.8544 39.7462 11.8322 39.766 11.8027C39.7859 11.7733 39.7956 11.7382 39.7939 11.7028V11.1464C39.7935 11.1159 39.7857 11.0859 39.771 11.059C39.7564 11.0322 39.7354 11.0094 39.7099 10.9925C39.6847 10.9789 39.657 10.9706 39.6285 10.9682C39.6 10.9657 39.5713 10.9692 39.5442 10.9783C39.0277 11.0853 38.5006 11.1322 37.9734 11.118C37.0347 11.118 36.8512 10.5262 36.7897 9.8763V9.83961H39.8614C39.9096 9.83868 39.9556 9.81877 39.9893 9.78421C40.0229 9.74965 40.0416 9.70321 40.0413 9.65495V9.33771C40.0413 8.00604 39.8839 6.58203 37.9757 6.58203C35.7172 6.58203 35.7172 8.65945 35.7172 9.33771H35.7148ZM36.7873 8.87251C36.8358 8.18833 37.024 7.55859 37.971 7.55859C38.7996 7.55859 38.9558 8.00249 38.9772 8.8737V8.90803H36.7849V8.87251H36.7873Z" fill="black"/>
<path d="M24.7555 4.17773C24.7299 4.17773 24.7046 4.1828 24.6811 4.19264C24.6575 4.20249 24.6361 4.21691 24.6182 4.23508C24.6002 4.25325 24.5861 4.2748 24.5765 4.29848C24.567 4.32217 24.5622 4.34751 24.5625 4.37305V11.802C24.5624 11.8274 24.5672 11.8526 24.5769 11.876C24.5865 11.8995 24.6007 11.9209 24.6187 11.9388C24.6366 11.9568 24.658 11.971 24.6814 11.9806C24.7049 11.9902 24.7301 11.9951 24.7555 11.995H27.1714C28.8984 11.995 29.8525 11.1865 29.8525 9.71159C29.8525 8.90666 29.4666 8.22485 28.8191 7.88157C28.8085 7.87585 28.7982 7.86953 28.7884 7.86263C28.7971 7.85584 28.8062 7.84952 28.8156 7.84369C29.0577 7.67323 29.2556 7.44727 29.3925 7.1847C29.5295 6.92213 29.6016 6.63059 29.6028 6.33446C29.6028 5.52598 29.2749 4.17773 27.1004 4.17773H24.7555ZM27.1489 5.22058C28.2746 5.22058 28.4321 5.75562 28.4321 6.33446C28.4321 7.06836 28.0391 7.42465 27.2294 7.42465H25.6539V5.22058H27.1489ZM27.2294 8.46987C28.3007 8.46987 28.6747 8.79421 28.6747 9.71159C28.6747 10.3247 28.5066 10.9509 27.2093 10.9509H25.6539V8.46514L27.2294 8.46987Z" fill="black"/>
<path d="M50.4922 9.33736C50.4922 10.0215 50.4922 12.0942 52.7543 12.0942C53.4325 12.0942 53.8752 12.054 54.46 11.8658C54.4947 11.8542 54.5246 11.8317 54.5454 11.8016C54.5661 11.7714 54.5764 11.7354 54.5748 11.6989V11.1425C54.5743 11.1126 54.567 11.0833 54.5534 11.0566C54.5399 11.0299 54.5205 11.0067 54.4967 10.9886C54.4423 10.9616 54.3795 10.9565 54.3215 10.9744C53.8083 11.0818 53.2843 11.1287 52.7602 11.1141C51.8132 11.1141 51.6309 10.5223 51.5765 9.8724V9.8357H54.6541C54.7019 9.83416 54.7473 9.81399 54.7805 9.77949C54.8136 9.74499 54.832 9.6989 54.8317 9.65104V9.33381C54.8317 8.00213 54.6695 6.57812 52.7696 6.57812C50.5052 6.57812 50.5052 8.65554 50.5076 9.33381L50.4922 9.33736ZM51.5646 8.87216C51.6167 8.18797 51.8014 7.55824 52.7483 7.55824C53.5769 7.55824 53.7308 8.00213 53.7498 8.87334V8.90767H51.5611V8.87216H51.5646Z" fill="black"/>
<path d="M55.8338 6.5918C55.822 6.5918 55.8125 6.59179 55.8125 6.60837V6.77053C55.8126 6.77313 55.8133 6.77568 55.8145 6.778C55.8156 6.78033 55.8173 6.78239 55.8193 6.78406C55.8213 6.78572 55.8236 6.78696 55.8261 6.78769C55.8286 6.78842 55.8312 6.78862 55.8338 6.78829H56.1368V7.82759C56.1367 7.82997 56.137 7.83235 56.1378 7.83459C56.1387 7.83682 56.14 7.83885 56.1416 7.84054C56.1433 7.84222 56.1454 7.84353 56.1476 7.84436C56.1498 7.84519 56.1522 7.84552 56.1546 7.84535H56.3262C56.3286 7.84552 56.331 7.84519 56.3332 7.84436C56.3355 7.84353 56.3375 7.84222 56.3392 7.84054C56.3409 7.83885 56.3422 7.83682 56.343 7.83459C56.3438 7.83235 56.3442 7.82997 56.344 7.82759V6.78829H56.6458C56.6482 6.78847 56.6506 6.78813 56.6528 6.7873C56.6551 6.78647 56.6571 6.78517 56.6588 6.78349C56.6605 6.7818 56.6618 6.77977 56.6626 6.77754C56.6634 6.7753 56.6638 6.77291 56.6636 6.77053V6.60955C56.6636 6.59771 56.6565 6.59298 56.6458 6.59298L55.8338 6.5918Z" fill="white"/>
<path d="M57.7782 6.59193C57.7699 6.59193 57.764 6.59193 57.7616 6.59903L57.4171 7.39567L57.0762 6.59903C57.0736 6.59643 57.0704 6.59444 57.067 6.59321C57.0635 6.59199 57.0598 6.59155 57.0561 6.59193H56.8501C56.8419 6.59193 56.8359 6.59193 56.8359 6.6085V7.82773C56.8359 7.83956 56.8359 7.84548 56.8501 7.84548H57.0206C57.0221 7.84613 57.0237 7.84647 57.0253 7.84647C57.027 7.84647 57.0286 7.84613 57.0301 7.84548C57.0372 7.84548 57.0372 7.83601 57.0372 7.83128C57.0372 7.82654 57.0301 7.12105 57.0301 6.97309L57.3343 7.67621C57.3343 7.67621 57.3426 7.68687 57.3508 7.68687H57.4822C57.4897 7.68596 57.4965 7.68213 57.5012 7.67621C57.5012 7.67621 57.745 7.10803 57.8007 6.97309C57.8007 7.12342 57.8007 7.83128 57.8007 7.83128C57.7988 7.83583 57.7988 7.84093 57.8007 7.84548C57.8007 7.84548 57.8125 7.84548 57.8149 7.84548H57.9782C57.9912 7.84548 57.9983 7.83956 57.9983 7.82773V6.60969C57.9983 6.59785 57.9912 6.59311 57.9782 6.59311L57.7782 6.59193Z" fill="white"/>
<path d="M10 0.343278C11.9097 0.343278 13.7766 0.909594 15.3645 1.97061C16.9523 3.03163 18.1899 4.53968 18.9207 6.30407C19.6514 8.06846 19.8426 10.0099 19.4699 11.883C19.0973 13.756 18.1775 15.4764 16.8271 16.8267C15.4766 18.177 13.756 19.0965 11.883 19.469C10.0099 19.8414 8.06847 19.65 6.30417 18.919C4.53987 18.188 3.03196 16.9503 1.97114 15.3623C0.910319 13.7743 0.344231 11.9074 0.344466 9.99763C0.347599 7.43789 1.36592 4.98391 3.17604 3.17401C4.98616 1.36412 7.44027 0.346097 10 0.343278ZM10 7.00911e-08C8.02232 -0.000234044 6.08899 0.586017 4.44451 1.68461C2.80003 2.78321 1.51828 4.3448 0.761346 6.17189C0.00441255 7.99898 -0.193698 10.0095 0.192071 11.9492C0.57784 13.8889 1.53016 15.6706 2.92859 17.069C4.32702 18.4675 6.10875 19.4198 8.04844 19.8056C9.98813 20.1913 11.9987 19.9932 13.8257 19.2363C15.6528 18.4794 17.2144 17.1976 18.313 15.5531C19.4116 13.9086 19.9979 11.9753 19.9976 9.99763C19.9973 7.34619 18.9439 4.80344 17.069 2.92859C15.1942 1.05373 12.6514 0.000313943 10 7.00911e-08Z" fill="white"/>
</g>
<defs>
<clipPath id="clip0_7208_24236">
<rect width="57.9984" height="20" fill="white"/>
</clipPath>
</defs>
</svg>
