<svg width="40" height="40" viewBox="0 0 40 40" fill="none" xmlns="http://www.w3.org/2000/svg">
<rect width="40" height="40" rx="20" fill="#414042"/>
<mask id="mask0_7208_36432" style="mask-type:luminance" maskUnits="userSpaceOnUse" x="8" y="8" width="24" height="24">
<path d="M8.00781 20C8.00781 26.6408 13.3653 32 20.0039 32C26.6425 32 31.9999 26.6408 31.9999 20C31.9999 13.3592 26.6425 8 20.0039 8C13.3653 8 8.00781 13.3592 8.00781 20Z" fill="white"/>
</mask>
<g mask="url(#mask0_7208_36432)">
<path d="M32.0006 27.6872H8.125V22.561H32.0006V27.6872ZM32.0006 12.3086H8.125V17.4348H32.0006V12.3086Z" fill="#FFCB05"/>
</g>
<mask id="mask1_7208_36432" style="mask-type:luminance" maskUnits="userSpaceOnUse" x="8" y="8" width="24" height="24">
<path d="M8.00781 20C8.00781 26.6408 13.3653 32 20.0039 32C26.6425 32 31.9999 26.6408 31.9999 20C31.9999 13.3592 26.6425 8 20.0039 8C13.3653 8 8.00781 13.3592 8.00781 20Z" fill="white"/>
</mask>
<g mask="url(#mask1_7208_36432)">
<path d="M32.0006 12.3107H8.125V8H32.0006V12.3107ZM32.0006 27.6893H8.125V32H32.0006V27.6893ZM32.0006 17.4369H8.125V22.5631H32.0006V17.4369Z" fill="black"/>
</g>
<path d="M19.9961 8.46602C26.2852 8.46602 31.4098 13.5922 31.4098 19.8835C31.4098 26.1748 26.2852 31.301 19.9961 31.301C13.7069 31.301 8.58233 26.1748 8.58233 19.8835C8.58233 13.5922 13.7069 8.46602 19.9961 8.46602ZM19.9961 8C13.3575 8 8 13.3592 8 20C8 26.6408 13.3575 32 19.9961 32C26.6346 32 31.9921 26.6408 31.9921 20C31.9921 13.3592 26.6346 8 19.9961 8Z" fill="white"/>
</svg>
