<svg width="225" height="79" viewBox="0 0 225 79" fill="none" xmlns="http://www.w3.org/2000/svg">
<g clip-path="url(#clip0_7208_38498)">
<mask id="mask0_7208_38498" style="mask-type:luminance" maskUnits="userSpaceOnUse" x="0" y="0" width="78" height="79">
<path d="M1.08765e-06 39.285C-0.00181547 46.9582 2.27188 54.4595 6.53353 60.8404C10.7952 67.2213 16.8534 72.1951 23.9419 75.1327C31.0305 78.0704 38.831 78.8399 46.3569 77.3441C53.8829 75.8482 60.7962 72.1542 66.2226 66.7291C71.6489 61.304 75.3447 54.3915 76.8423 46.8659C78.3399 39.3403 77.5722 31.5397 74.6362 24.4504C71.7002 17.3612 66.7279 11.3018 60.348 7.03864C53.9682 2.77548 46.4673 0.5 38.7942 0.5C28.5069 0.5 18.6409 4.58598 11.3658 11.8593C4.09074 19.1326 0.00243652 28.9977 1.08765e-06 39.285Z" fill="white"/>
</mask>
<g mask="url(#mask0_7208_38498)">
<path d="M77.5792 64.2201H0V47.6196H77.5792V64.2201ZM77.5792 14.4141H0V31.0192H77.5792V14.4141Z" fill="#FFCC00"/>
</g>
<mask id="mask1_7208_38498" style="mask-type:luminance" maskUnits="userSpaceOnUse" x="0" y="0" width="78" height="79">
<path d="M1.08765e-06 39.285C-0.00181547 46.9582 2.27188 54.4595 6.53353 60.8404C10.7952 67.2213 16.8534 72.1951 23.9419 75.1327C31.0305 78.0704 38.831 78.8399 46.3569 77.3441C53.8829 75.8482 60.7962 72.1542 66.2226 66.7291C71.6489 61.304 75.3447 54.3915 76.8423 46.8659C78.3399 39.3403 77.5722 31.5397 74.6362 24.4504C71.7002 17.3612 66.7279 11.3018 60.348 7.03864C53.9682 2.77548 46.4673 0.5 38.7942 0.5C28.5069 0.5 18.6409 4.58598 11.3658 11.8593C4.09074 19.1326 0.00243652 28.9977 1.08765e-06 39.285Z" fill="white"/>
</mask>
<g mask="url(#mask1_7208_38498)">
<path d="M77.5792 14.418H0V0.503906H77.5792V14.418ZM77.5792 64.2195H0V78.0647H77.5792V64.2195ZM77.5792 31.0185H0V47.619H77.5792V31.0185Z" fill="#1D1D1B"/>
</g>
<path d="M99.1902 62.7371C99.4501 62.7599 99.7119 62.7271 99.9582 62.6407C100.204 62.5544 100.429 62.4166 100.618 62.2366C100.86 61.9407 100.984 61.5664 100.967 61.185C100.983 60.9557 100.939 60.7263 100.839 60.5194C100.739 60.3125 100.587 60.1351 100.398 60.0048C100.029 59.8008 99.6113 59.7023 99.1902 59.7201H98.4049V62.7371H99.1902ZM99.0478 58.0669C99.2812 58.0785 99.5143 58.0398 99.7314 57.9535C99.9485 57.8671 100.144 57.7351 100.306 57.5664C100.53 57.2921 100.637 56.9408 100.605 56.5883C100.622 56.4091 100.598 56.2284 100.535 56.0598C100.472 55.8912 100.372 55.739 100.242 55.6147C100.078 55.4814 99.8892 55.382 99.6866 55.3221C99.4841 55.2622 99.2716 55.243 99.0616 55.2657H98.4049V58.0669H99.0478ZM99.3601 53.6172C101.753 53.6172 102.726 54.655 102.726 56.3724C102.745 56.8874 102.599 57.395 102.312 57.8223C102.024 58.2497 101.608 58.5749 101.123 58.7511C101.678 58.8925 102.178 59.1982 102.556 59.6282C102.936 60.1472 103.124 60.7817 103.089 61.4238C103.126 61.86 103.054 62.2987 102.878 62.6997C102.703 63.1008 102.429 63.4515 102.083 63.7198C101.275 64.2245 100.33 64.4652 99.3785 64.4086H95.4752C95.2088 64.4086 95.1445 64.3443 95.1445 64.0826V63.233C95.1445 62.8381 95.3512 62.8978 95.4752 62.8978H96.2788V55.128H95.4752C95.3512 55.128 95.1445 55.1877 95.1445 54.7973V53.9478C95.1445 53.5529 95.3512 53.6172 95.4752 53.6172H99.3601Z" fill="white"/>
<path d="M112.537 64.1698C112.537 64.2801 112.569 64.3903 112.316 64.3903H110.241C109.988 64.3903 109.878 64.2204 109.781 63.8392L109.736 63.6509L109.547 63.8254C109.37 64.0051 109.169 64.1596 108.95 64.2846C108.475 64.5475 107.937 64.6775 107.394 64.6612C107.048 64.6959 106.699 64.635 106.386 64.4852C106.073 64.3354 105.806 64.1024 105.616 63.8117C105.366 63.3047 105.252 62.7413 105.286 62.1769V58.0853H104.482C104.404 58.0853 104.262 58.0853 104.262 57.8695V56.8454C104.262 56.7673 104.262 56.625 104.482 56.625H107.063C107.315 56.625 107.283 56.7352 107.283 56.8454V61.6901C107.259 62.0166 107.307 62.3446 107.426 62.6499C107.493 62.7941 107.602 62.9149 107.739 62.9967C107.876 63.0786 108.034 63.1177 108.193 63.1091C108.698 63.0663 109.169 62.8371 109.515 62.4662V58.1036H108.716C108.638 58.1036 108.491 58.1037 108.491 57.8878V56.8638C108.491 56.7857 108.491 56.6434 108.716 56.6434H111.292C111.545 56.6434 111.513 56.7536 111.513 56.8638V61.6166C111.483 62.0682 111.537 62.5213 111.673 62.9529H112.33C112.44 62.9529 112.55 62.9208 112.55 63.1688V64.1928L112.537 64.1698Z" fill="white"/>
<path d="M117.247 57.9217C117.039 57.8843 116.829 57.8644 116.618 57.862C115.676 57.862 115.612 58.4589 115.612 58.6472C115.612 58.8096 115.666 58.9673 115.766 59.0954C115.866 59.2234 116.006 59.3146 116.163 59.3544C116.443 59.483 116.696 59.5611 117.201 59.7493C117.782 59.9247 118.304 60.2549 118.712 60.7045C119.028 61.1096 119.2 61.6093 119.198 62.1234C119.206 62.454 119.147 62.7827 119.025 63.0902C118.904 63.3977 118.722 63.6779 118.491 63.9144C118.227 64.1684 117.913 64.3652 117.569 64.4924C117.226 64.6196 116.859 64.6745 116.494 64.6537C115.782 64.6537 113.738 64.3231 113.738 63.7353V62.0178C113.738 61.7836 113.876 61.7974 113.954 61.7974H115.029C115.281 61.7974 115.249 61.9398 115.249 62.0821V62.872C115.606 63.0063 115.983 63.0808 116.365 63.0924C117.182 63.0924 117.325 62.6056 117.325 62.3025C117.325 61.8433 117.026 61.678 116.709 61.5311C116.393 61.3841 115.874 61.2188 115.575 61.1086C115.111 60.9539 114.687 60.6964 114.335 60.3555C113.981 59.9697 113.795 59.4595 113.816 58.9365C113.81 58.6012 113.872 58.268 113.999 57.9577C114.126 57.6473 114.316 57.3662 114.556 57.1318C114.849 56.8575 115.195 56.6472 115.574 56.5143C115.953 56.3815 116.355 56.3291 116.755 56.3603C117.306 56.3603 118.771 56.5624 118.771 57.0813V58.7023C118.771 58.9549 118.675 58.9227 118.565 58.9227H117.481C117.403 58.9227 117.26 58.9228 117.26 58.7023V57.9308L117.247 57.9217Z" fill="white"/>
<path d="M122.431 55.5968C122.254 55.6074 122.077 55.5816 121.91 55.5212C121.744 55.4608 121.591 55.3669 121.463 55.2454C121.334 55.1239 121.231 54.9773 121.161 54.8147C121.09 54.652 121.054 54.4767 121.054 54.2996C121.054 54.1224 121.09 53.9471 121.161 53.7845C121.231 53.6218 121.334 53.4752 121.463 53.3537C121.591 53.2322 121.744 53.1384 121.91 53.0779C122.077 53.0175 122.254 52.9918 122.431 53.0023C122.762 53.022 123.072 53.1672 123.3 53.4084C123.527 53.6495 123.653 53.9683 123.653 54.2996C123.653 54.6309 123.527 54.9497 123.3 55.1908C123.072 55.4319 122.762 55.5772 122.431 55.5968ZM124.663 64.1703C124.663 64.2805 124.695 64.3907 124.442 64.3907H120.433C120.355 64.3907 120.213 64.3907 120.213 64.1703V63.1463C120.213 63.0682 120.213 62.9304 120.433 62.9304H121.439V58.0812H120.415C120.337 58.0812 120.199 58.0812 120.199 57.8653V56.8413C120.199 56.7632 120.199 56.6209 120.415 56.6209H123.216C123.469 56.6209 123.437 56.7311 123.437 56.8413V62.9304H124.442C124.695 62.9304 124.663 63.0361 124.663 63.1463V64.1703Z" fill="white"/>
<path d="M133.925 64.1699C133.925 64.2801 133.957 64.3903 133.705 64.3903H131.124C131.046 64.3903 130.904 64.3903 130.904 64.1699V59.3252C130.938 58.9951 130.872 58.6624 130.715 58.37C130.645 58.252 130.543 58.1555 130.422 58.0908C130.3 58.0261 130.164 57.9956 130.026 58.0026C129.513 58.0525 129.033 58.2818 128.672 58.6501V62.93H129.471C129.723 62.93 129.696 63.0356 129.696 63.1458V64.1699C129.696 64.2801 129.723 64.3903 129.471 64.3903H125.852C125.774 64.3903 125.632 64.3903 125.632 64.1699V63.1458C125.632 63.0677 125.632 62.93 125.852 62.93H126.656V59.4216C126.681 58.969 126.628 58.5154 126.5 58.0807H125.76C125.512 58.0807 125.54 57.9429 125.54 57.8649V56.8408C125.54 56.7628 125.54 56.6204 125.76 56.6204H127.951C128.231 56.6204 128.277 56.8592 128.387 57.2174L128.451 57.4424L128.543 57.3597C129.147 56.7357 129.971 56.3744 130.839 56.3541C131.142 56.3291 131.446 56.3774 131.725 56.4949C132.005 56.6124 132.253 56.7957 132.447 57.0291C132.788 57.5682 132.948 58.2019 132.906 58.8384V62.93H133.709C133.962 62.93 133.93 63.0356 133.93 63.1458V64.1699H133.925Z" fill="white"/>
<path d="M139.531 59.5766V59.4204C139.535 59.2028 139.513 58.9855 139.466 58.773C139.415 58.5208 139.296 58.2874 139.122 58.0979C139.005 57.9961 138.869 57.9188 138.722 57.8707C138.575 57.8226 138.419 57.8046 138.265 57.8179C138.111 57.8312 137.961 57.8755 137.824 57.948C137.687 58.0206 137.566 58.12 137.469 58.2403C137.206 58.6365 137.064 59.1009 137.06 59.5766H139.531ZM137.06 61.0369C137.06 62.1849 137.487 63.0023 138.791 63.0023C139.337 62.9998 139.875 62.8759 140.366 62.6395C140.426 62.6074 140.472 62.5936 140.536 62.5615C140.615 62.5207 140.701 62.4943 140.789 62.4834C140.828 62.4809 140.866 62.4919 140.898 62.5144C140.93 62.537 140.953 62.5698 140.963 62.6074L141.354 63.5258C141.379 63.5808 141.395 63.6399 141.4 63.7003C141.4 63.7921 141.34 63.8886 141.152 64.0171C140.38 64.4366 139.514 64.6516 138.635 64.6417C138.17 64.6721 137.704 64.6062 137.265 64.4482C136.827 64.2902 136.425 64.0434 136.087 63.7233C135.549 63.1722 135.062 62.2262 135.062 60.6833C135.062 59.3056 135.361 58.2632 136.1 57.4183C136.391 57.0639 136.759 56.7813 137.176 56.5925C137.593 56.4038 138.049 56.3139 138.507 56.33C139.733 56.33 141.652 56.8626 141.652 60.5134C141.652 60.9404 141.606 61.0185 141.294 61.0185L137.06 61.0369Z" fill="white"/>
<path d="M146.447 57.9217C146.237 57.8844 146.025 57.8644 145.813 57.862C144.871 57.862 144.807 58.459 144.807 58.6473C144.807 58.8096 144.862 58.9673 144.961 59.0954C145.061 59.2235 145.201 59.3146 145.358 59.3544C145.643 59.483 145.895 59.5611 146.396 59.7494C146.978 59.9226 147.501 60.2531 147.907 60.7045C148.227 61.1077 148.399 61.6087 148.394 62.1235C148.401 62.454 148.342 62.7827 148.221 63.0902C148.099 63.3978 147.918 63.678 147.686 63.9144C147.422 64.1685 147.108 64.3652 146.765 64.4925C146.421 64.6197 146.055 64.6746 145.689 64.6538C144.982 64.6538 142.934 64.3231 142.934 63.7353V62.0179C142.934 61.7837 143.076 61.7975 143.154 61.7975H144.219C144.472 61.7975 144.44 61.9398 144.44 62.0822V62.872C144.797 63.0059 145.174 63.0804 145.556 63.0924C146.373 63.0924 146.515 62.6057 146.515 62.3026C146.515 61.8434 146.217 61.6781 145.905 61.5311C145.592 61.3842 145.069 61.2188 144.77 61.1086C144.305 60.9528 143.88 60.6956 143.526 60.3555C143.172 59.9698 142.986 59.4596 143.007 58.9366C143.001 58.6012 143.063 58.2681 143.19 57.9577C143.317 57.6473 143.506 57.3663 143.746 57.1319C144.04 56.8574 144.388 56.6471 144.767 56.5142C145.147 56.3814 145.55 56.329 145.951 56.3604C146.502 56.3604 147.962 56.5624 147.962 57.0814V58.7024C147.962 58.9549 147.87 58.9228 147.76 58.9228H146.672C146.594 58.9228 146.456 58.9228 146.456 58.7024V57.9309L146.447 57.9217Z" fill="white"/>
<path d="M153.137 57.9219C152.93 57.8845 152.719 57.8646 152.508 57.8622C151.567 57.8622 151.502 58.4591 151.502 58.6474C151.503 58.8098 151.557 58.9675 151.657 59.0955C151.756 59.2236 151.896 59.3148 152.054 59.3546C152.338 59.4832 152.586 59.5612 153.091 59.7495C153.672 59.9231 154.193 60.2536 154.598 60.7047C154.921 61.1061 155.095 61.6079 155.089 62.1236C155.096 62.4542 155.037 62.7829 154.916 63.0904C154.794 63.3979 154.613 63.6781 154.382 63.9146C154.118 64.1686 153.804 64.3654 153.46 64.4926C153.116 64.6198 152.75 64.6747 152.384 64.6539C151.672 64.6539 149.629 64.3233 149.629 63.7355V62.018C149.629 61.7838 149.771 61.7976 149.849 61.7976H150.919C151.172 61.7976 151.14 61.94 151.14 62.0823V62.8722C151.497 63.0065 151.874 63.081 152.256 63.0926C153.073 63.0926 153.215 62.6058 153.215 62.3027C153.215 61.8435 152.917 61.6782 152.6 61.5312C152.283 61.3843 151.769 61.219 151.47 61.1088C151.004 60.9541 150.579 60.6967 150.226 60.3557C149.874 59.9689 149.688 59.4594 149.707 58.9367C149.7 58.6014 149.763 58.2682 149.89 57.9579C150.017 57.6475 150.206 57.3664 150.446 57.132C150.74 56.8573 151.088 56.6468 151.467 56.514C151.847 56.3811 152.25 56.3289 152.651 56.3605C153.197 56.3605 154.662 56.5626 154.662 57.0815V58.7025C154.662 58.9551 154.565 58.9229 154.455 58.9229H153.358C153.28 58.9229 153.137 58.9229 153.137 58.7025V57.931V57.9219Z" fill="white"/>
<path d="M167.641 20.0166C167.643 20.4757 167.781 20.9241 168.037 21.305C168.293 21.6859 168.657 21.9823 169.082 22.1567C169.506 22.3312 169.973 22.3759 170.423 22.2852C170.874 22.1945 171.287 21.9725 171.611 21.6472C171.935 21.3218 172.155 20.9078 172.244 20.4573C172.333 20.0068 172.287 19.5401 172.11 19.1161C171.934 18.692 171.636 18.3297 171.254 18.0747C170.873 17.8198 170.424 17.6838 169.965 17.6838C169.658 17.68 169.353 17.7379 169.069 17.8539C168.785 17.97 168.527 18.1418 168.31 18.3593C168.093 18.5768 167.922 18.8355 167.808 19.1202C167.693 19.4048 167.636 19.7096 167.641 20.0166Z" fill="white"/>
<path d="M179.833 27.6385L179.691 27.7212L179.383 26.8808C179.335 26.7457 179.245 26.629 179.128 26.5467C179.01 26.4645 178.87 26.4208 178.726 26.4216H177.234C177.141 26.4216 177.049 26.44 176.963 26.4759C176.877 26.5118 176.799 26.5644 176.734 26.6306C176.668 26.6968 176.617 26.7754 176.582 26.8617C176.547 26.948 176.53 27.0403 176.531 27.1334V46.3422C176.531 46.4348 176.548 46.5267 176.583 46.6125C176.619 46.6982 176.67 46.7762 176.735 46.842C176.801 46.9077 176.878 46.9598 176.964 46.9954C177.05 47.031 177.141 47.0494 177.234 47.0494H179.92C180.013 47.05 180.105 47.0321 180.191 46.9967C180.277 46.9613 180.355 46.9092 180.42 46.8433C180.486 46.7775 180.537 46.6992 180.572 46.6132C180.607 46.5271 180.624 46.435 180.623 46.3422V30.7887L180.706 30.7428C181.798 30.1733 182.928 29.8243 185.114 29.8243C187.722 29.8243 188.246 30.807 188.246 32.3867V46.3422C188.245 46.4354 188.262 46.5279 188.297 46.6143C188.332 46.7006 188.384 46.7791 188.45 46.845C188.516 46.9109 188.595 46.9629 188.681 46.998C188.767 47.0332 188.86 47.0506 188.953 47.0494H191.63C191.724 47.0506 191.817 47.0332 191.904 46.9982C191.99 46.9632 192.07 46.9113 192.136 46.8455C192.203 46.7797 192.256 46.7014 192.292 46.6149C192.328 46.5285 192.347 46.4358 192.347 46.3422V32.5015C192.347 28.2676 189.844 26.0312 185.114 26.0312C183.239 26.0664 181.41 26.6229 179.833 27.6385Z" fill="white"/>
<path d="M171.978 27.1258C171.98 27.0334 171.964 26.9415 171.93 26.8556C171.896 26.7696 171.845 26.6912 171.781 26.625C171.716 26.5588 171.639 26.506 171.554 26.4698C171.469 26.4336 171.377 26.4147 171.285 26.4141H168.663C168.57 26.4147 168.479 26.4336 168.393 26.4697C168.308 26.5059 168.231 26.5586 168.166 26.6247C168.101 26.6909 168.05 26.7692 168.015 26.8552C167.981 26.9412 167.964 27.0332 167.965 27.1258V46.3438C167.964 46.4363 167.981 46.528 168.015 46.6138C168.05 46.6995 168.101 46.7776 168.166 46.8434C168.231 46.9091 168.308 46.9614 168.394 46.997C168.479 47.0327 168.57 47.051 168.663 47.051H171.285C171.377 47.051 171.469 47.0327 171.554 46.997C171.639 46.9613 171.716 46.9089 171.78 46.8431C171.845 46.7772 171.896 46.6992 171.93 46.6134C171.964 46.5277 171.98 46.4361 171.978 46.3438V27.1258Z" fill="white"/>
<path d="M163.047 17.5192C163.048 17.4258 163.03 17.3332 162.995 17.2467C162.96 17.1603 162.907 17.0819 162.841 17.0163C162.774 16.9507 162.695 16.8992 162.608 16.8649C162.521 16.8306 162.428 16.8142 162.335 16.8167H159.74C159.647 16.8148 159.554 16.8316 159.467 16.8661C159.38 16.9005 159.3 16.9519 159.233 17.0172C159.166 17.0826 159.113 17.1606 159.076 17.2468C159.039 17.333 159.02 17.4256 159.02 17.5192V46.344C159.02 46.4378 159.039 46.5306 159.076 46.6171C159.113 46.7035 159.166 46.7818 159.233 46.8476C159.3 46.9133 159.379 46.9651 159.466 47C159.553 47.035 159.647 47.0524 159.74 47.0511H162.335C162.429 47.053 162.522 47.036 162.609 47.0012C162.695 46.9664 162.774 46.9144 162.841 46.8484C162.907 46.7824 162.96 46.7038 162.995 46.6171C163.03 46.5305 163.048 46.4376 163.047 46.344V17.5192Z" fill="white"/>
<path d="M118.625 36.7198C118.625 39.3741 118.625 47.4149 127.387 47.4149C130.027 47.4149 131.745 47.2588 134.018 46.5286C134.145 46.4808 134.254 46.3936 134.328 46.2796C134.403 46.1656 134.439 46.0308 134.431 45.8949V43.7366C134.436 43.6165 134.41 43.497 134.356 43.3899C134.301 43.2828 134.219 43.1918 134.119 43.1258C134.017 43.0718 133.904 43.039 133.789 43.0295C133.674 43.02 133.558 43.0341 133.448 43.0707C131.457 43.4868 129.425 43.6686 127.391 43.6126C123.754 43.6126 123.029 41.3166 122.799 38.7955V38.6531H134.707C134.896 38.6519 135.077 38.5759 135.21 38.4417C135.344 38.3075 135.418 38.126 135.418 37.9368V36.7061C135.418 31.5399 134.794 26.0156 127.41 26.0156C118.648 26.0156 118.648 34.0748 118.648 36.7061L118.625 36.7198ZM122.758 34.9151C122.96 32.2609 123.676 29.8179 127.35 29.8179C130.564 29.8179 131.171 31.5399 131.244 34.9197V35.0529H122.776V34.9151H122.758Z" fill="white"/>
<path d="M138.555 36.7217C138.555 39.3759 138.555 47.4167 147.316 47.4167C149.971 47.4167 151.684 47.2606 153.952 46.5305C154.082 46.485 154.194 46.3988 154.271 46.2846C154.348 46.1704 154.386 46.0343 154.379 45.8967V43.7384C154.378 43.6199 154.347 43.5035 154.29 43.3994C154.234 43.2953 154.152 43.2068 154.053 43.1415C153.955 43.0886 153.848 43.0565 153.737 43.047C153.627 43.0375 153.515 43.0509 153.41 43.0864C151.407 43.5014 149.362 43.6833 147.316 43.6282C143.675 43.6282 142.963 41.3322 142.724 38.8111V38.6688H154.641C154.828 38.6651 155.006 38.5879 155.137 38.4538C155.268 38.3198 155.34 38.1396 155.339 37.9524V36.7217C155.339 31.5556 154.728 26.0312 147.326 26.0312C138.564 26.0312 138.564 34.0904 138.564 36.7217H138.555ZM142.715 34.917C142.903 32.2628 143.634 29.8197 147.307 29.8197C150.522 29.8197 151.128 31.5418 151.211 34.9216V35.0548H142.706V34.917H142.715Z" fill="white"/>
<path d="M96.0259 16.707C95.9268 16.707 95.8287 16.7267 95.7373 16.7649C95.6459 16.8031 95.563 16.859 95.4934 16.9295C95.4237 17 95.3688 17.0836 95.3317 17.1755C95.2946 17.2673 95.2762 17.3657 95.2774 17.4647V46.2848C95.2768 46.3833 95.2957 46.4809 95.3331 46.572C95.3705 46.6631 95.4256 46.7459 95.4953 46.8155C95.5649 46.8851 95.6477 46.9402 95.7387 46.9776C95.8298 47.015 95.9274 47.034 96.0259 47.0334H105.398C112.098 47.0334 115.8 43.8969 115.8 38.1752C115.8 35.0525 114.303 32.4075 111.791 31.0758C111.749 31.0536 111.71 31.0291 111.671 31.0023C111.705 30.976 111.74 30.9514 111.777 30.9288C112.716 30.2675 113.484 29.3909 114.015 28.3723C114.546 27.3537 114.826 26.2227 114.831 25.0739C114.831 21.9375 113.559 16.707 105.123 16.707H96.0259ZM105.311 20.7527C109.678 20.7527 110.289 22.8283 110.289 25.0739C110.289 27.921 108.764 29.3032 105.623 29.3032H99.5113V20.7527H105.311ZM105.623 33.358C109.779 33.358 111.23 34.6163 111.23 38.1752C111.23 40.5539 110.578 42.9831 105.545 42.9831H99.5113V33.3397L105.623 33.358Z" fill="white"/>
<path d="M195.887 36.7198C195.887 39.3741 195.887 47.4149 204.662 47.4149C207.294 47.4149 209.011 47.2588 211.279 46.5286C211.414 46.4838 211.53 46.3964 211.611 46.2795C211.691 46.1627 211.731 46.0228 211.725 45.8811V43.7228C211.723 43.6069 211.694 43.4929 211.642 43.3895C211.589 43.2861 211.514 43.196 211.422 43.1258C211.211 43.0209 210.967 43.0012 210.742 43.0707C208.751 43.4872 206.718 43.6691 204.685 43.6126C201.012 43.6126 200.304 41.3166 200.093 38.7955V38.6531H212.033C212.218 38.6471 212.394 38.5689 212.523 38.4351C212.651 38.3012 212.723 38.1224 212.721 37.9368V36.7061C212.721 31.5399 212.092 26.0156 204.722 26.0156C195.937 26.0156 195.937 34.0748 195.946 36.7061L195.887 36.7198ZM200.047 34.9151C200.249 32.2609 200.966 29.8179 204.639 29.8179C207.854 29.8179 208.451 31.5399 208.524 34.9197V35.0529H200.033V34.9151H200.047Z" fill="white"/>
<path d="M216.61 26.0703C216.564 26.0703 216.527 26.0703 216.527 26.1346V26.7637C216.528 26.7738 216.53 26.7837 216.535 26.7927C216.54 26.8017 216.546 26.8097 216.554 26.8162C216.561 26.8226 216.57 26.8274 216.58 26.8303C216.59 26.8331 216.6 26.8339 216.61 26.8326H217.786V30.8645C217.785 30.8737 217.786 30.883 217.789 30.8916C217.793 30.9003 217.798 30.9082 217.804 30.9147C217.811 30.9212 217.819 30.9263 217.827 30.9295C217.836 30.9327 217.845 30.934 217.854 30.9334H218.52C218.53 30.934 218.539 30.9327 218.547 30.9295C218.556 30.9263 218.564 30.9212 218.571 30.9147C218.577 30.9082 218.582 30.9003 218.585 30.8916C218.589 30.883 218.59 30.8737 218.589 30.8645V26.8326H219.76C219.769 26.8333 219.779 26.832 219.787 26.8288C219.796 26.8255 219.804 26.8205 219.81 26.814C219.817 26.8074 219.822 26.7995 219.825 26.7909C219.828 26.7822 219.83 26.7729 219.829 26.7637V26.1392C219.829 26.0933 219.802 26.0749 219.76 26.0749L216.61 26.0703Z" fill="white"/>
<path d="M224.147 26.0669C224.115 26.0669 224.092 26.0669 224.083 26.0945L222.747 29.185L221.424 26.0945C221.414 26.0844 221.402 26.0767 221.388 26.0719C221.375 26.0671 221.361 26.0654 221.346 26.0669H220.547C220.515 26.0669 220.492 26.0669 220.492 26.1312V30.8611C220.492 30.907 220.492 30.93 220.547 30.93H221.209C221.214 30.9325 221.221 30.9338 221.227 30.9338C221.233 30.9338 221.239 30.9325 221.245 30.93C221.273 30.93 221.273 30.8932 221.273 30.8749C221.273 30.8565 221.245 28.1196 221.245 27.5456L222.425 30.2733C222.425 30.2733 222.458 30.3146 222.49 30.3146H222.999C223.028 30.3111 223.055 30.2963 223.073 30.2733C223.073 30.2733 224.019 28.0691 224.235 27.5456C224.235 28.1288 224.235 30.8749 224.235 30.8749C224.228 30.8925 224.228 30.9123 224.235 30.93C224.235 30.93 224.281 30.93 224.29 30.93H224.924C224.974 30.93 225.002 30.907 225.002 30.8611V26.1358C225.002 26.0899 224.974 26.0715 224.924 26.0715L224.147 26.0669Z" fill="white"/>
<path d="M38.7942 1.83172C46.2029 1.83172 53.4451 4.0287 59.6052 8.14482C65.7652 12.261 70.5662 18.1113 73.4012 24.9561C76.2362 31.8009 76.9777 39.3327 75.532 46.5989C74.0863 53.8652 70.5183 60.5395 65.2793 65.7779C60.0403 71.0163 53.3655 74.5835 46.0991 76.0283C38.8326 77.4731 31.301 76.7306 24.4565 73.8948C17.6121 71.059 11.7623 66.2573 7.64688 60.0967C3.53151 53.9362 1.33542 46.6937 1.33633 39.285C1.34848 29.3547 5.29897 19.8347 12.3212 12.8133C19.3434 5.79198 28.8639 1.84265 38.7942 1.83172ZM38.7942 0.5C31.122 0.499092 23.6217 2.77341 17.2421 7.03531C10.8625 11.2972 5.89004 17.3553 2.95358 24.4433C0.0171181 31.5314 -0.751435 39.3311 0.745124 46.8559C2.24168 54.3808 5.93613 61.2929 11.3612 66.718C16.7863 72.1431 23.6984 75.8375 31.2233 77.3341C38.7481 78.8306 46.5478 78.0621 53.6359 75.1256C60.7239 72.1892 66.782 67.2167 71.0439 60.8371C75.3058 54.4575 77.5801 46.9573 77.5792 39.285C77.578 28.999 73.4913 19.1345 66.218 11.8612C58.9447 4.58787 49.0803 0.501218 38.7942 0.5Z" fill="white"/>
</g>
<defs>
<clipPath id="clip0_7208_38498">
<rect width="225" height="77.5884" fill="white" transform="translate(0 0.5)"/>
</clipPath>
</defs>
</svg>
