<svg fill="none" height="20" viewBox="0 0 145 20" width="145" xmlns="http://www.w3.org/2000/svg">
    <g clip-path="url(#clip0_202_14190)">
        <path
            d="M18.8296 8.60524C18.7108 8.66459 18.592 8.78328 18.4732 8.84263C17.701 9.4361 16.5131 9.85153 14.8499 10.3263C11.4047 11.2165 8.90992 11.3946 6.05875 12.0474C5.52415 12.1661 4.93016 12.3441 4.39556 12.5815C4.93016 12.8189 5.52415 13.1156 6.05875 13.2937C7.18734 12.9969 7.78133 12.8189 9.44452 12.5222C10.0979 12.4035 12.0581 12.1067 13.4837 11.7506C16.0973 11.2759 19.8394 10.1483 18.8296 8.60524ZM17.2258 5.45984C16.6913 5.22245 15.9785 4.98506 15.2657 4.80702C14.9687 5.04441 14.5529 5.2818 14.0183 5.51919C14.9093 5.69723 15.6221 5.93462 16.3349 6.11266C16.5131 6.11266 17.107 5.57853 17.2258 5.45984ZM4.69256 8.78328C8.01893 7.83372 11.5235 7.53699 15.0875 6.58743C13.7213 6.23135 12.9491 6.05331 11.4641 6.23135C9.32572 6.46874 7.00914 6.94352 4.98956 7.53699C4.21736 7.77438 0.0593994 8.90197 1.24739 10.5637C1.24739 10.5637 1.96018 9.61414 4.69256 8.78328ZM2.37598 14.3619C2.37598 14.6587 2.55418 14.9554 2.96997 15.2521C3.02937 15.0741 3.08877 14.9554 3.20757 14.8367C2.91057 14.718 2.61358 14.54 2.37598 14.3619ZM3.92037 14.2432C4.15796 14.1245 4.45496 13.9465 4.81136 13.8278C4.33616 13.6497 3.86097 13.4124 3.32637 13.175C3.08877 13.2937 2.91057 13.4717 2.73238 13.5904C3.14817 13.8278 3.56397 14.0058 3.92037 14.2432ZM16.8101 7.24025C16.1567 7.53699 15.1469 7.89307 13.7807 8.18981C12.6521 8.48654 9.86031 8.84263 6.89034 9.49545C5.93995 9.67349 3.38577 10.267 2.13838 11.3352C2.49478 11.6319 2.67298 11.6913 3.08877 11.8693C3.62337 11.5726 4.33616 11.2759 5.34595 10.9791C7.18734 10.5043 8.55352 10.267 10.1573 10.0296C11.7611 9.79218 14.8499 9.13936 16.5725 8.54589C17.107 8.36785 17.6416 8.07111 17.998 7.77438C17.9386 7.65568 16.8101 7.18091 16.8101 7.24025ZM17.7604 6.58743C18.1168 6.76548 18.4138 6.88417 18.7108 7.06221C18.9484 6.64678 18.7702 6.40939 18.3544 6.05331C18.1762 6.2907 17.998 6.46874 17.7604 6.58743ZM2.19778 12.5815C1.90078 12.4035 1.72258 12.2848 1.42559 12.1067C1.30679 12.4035 1.54439 12.7002 1.84138 12.8782C1.96018 12.7595 2.07898 12.7002 2.19778 12.5815ZM16.4537 3.44203C16.3943 3.67942 16.1567 3.91681 15.9785 4.09485C16.4537 4.21355 16.9883 4.39159 17.4634 4.56963C17.404 4.1542 16.8695 3.73877 16.4537 3.44203ZM0.712794 6.2907C4.21736 4.03551 8.07833 2.72987 14.6717 3.79812C15.0281 3.62008 15.2063 3.38269 15.3251 2.96726C13.6619 2.37378 11.8799 2.19574 9.56332 2.25509C7.54373 2.31444 3.80157 3.0266 1.84138 4.21355L2.43538 3.44203C3.80157 2.61117 7.42494 1.54292 10.1573 1.54292C12.0581 1.48358 13.0679 1.60227 15.3251 2.19574C15.1469 1.83966 14.6717 1.60227 13.9589 1.30554C11.7611 0.355981 7.66253 0.296633 4.27676 1.72097C4.69256 1.42423 5.10836 1.18684 5.64295 0.949452C6.77154 0.474675 8.55352 -0.0594496 10.8701 -0.000102467C12.7115 0.0592447 14.8499 0.652716 16.1567 1.95835C16.3943 2.19574 16.5131 2.49248 16.5725 2.72987C17.6416 3.26399 18.2356 3.73877 18.592 4.33224C18.7108 4.62898 18.7702 4.92571 18.7108 5.34114C19.1266 5.57853 19.3642 5.81592 19.5424 6.11266C19.7206 6.35005 19.8394 6.58743 19.8394 6.88417C19.8988 7.18091 19.8988 7.59634 19.6018 8.01177C19.9582 8.18981 20.2552 8.66459 20.3146 8.90197C20.4928 9.67349 19.9582 10.445 19.3048 11.0385C18.5326 11.6913 16.8695 12.4628 15.4439 12.8189C12.7115 13.4717 10.2761 13.7684 8.37533 14.1245C9.20692 14.3026 10.3949 14.5993 12.3551 14.5993C16.4537 14.5993 20.077 12.7002 20.077 12.7002C20.077 12.7002 20.0176 12.9376 19.8988 13.175C17.2258 14.5993 13.0679 15.2521 11.3453 15.1334C9.56332 15.0741 8.01893 14.7773 6.59334 14.3619C6.11815 14.4806 5.70235 14.5993 5.28655 14.8367C7.54373 15.8456 9.20692 16.083 11.1671 16.2017C13.1273 16.3204 16.3943 15.9049 19.1266 14.896C19.0078 15.0147 18.9484 15.1928 18.8296 15.3115C17.404 16.0236 14.4341 16.7951 12.9491 16.8545C11.4641 16.9138 9.68212 16.8545 8.07833 16.5578C6.71214 16.3204 5.64295 15.9049 4.45496 15.3708C4.21736 15.5489 4.15796 15.7269 4.09856 15.9643C8.61292 18.2788 12.8303 18.3382 17.6416 16.8545L17.2258 17.2699C11.9393 19.4064 7.78133 18.5756 4.57376 17.0325C4.45496 16.9732 4.33616 16.9138 4.27676 16.8545C4.57376 17.3886 7.00914 19.1097 9.74151 19.3471C11.6423 19.5251 13.8995 19.169 15.2657 18.6349L14.4935 19.0503C13.8401 19.3471 12.0581 20.1186 9.62272 19.9405C6.35574 19.7032 4.51436 18.2788 3.68277 17.5667C3.32637 17.2106 3.14817 16.7951 3.02937 16.3204C2.31658 15.9643 1.84138 15.5489 1.42559 14.9554C1.12859 14.5993 1.18799 14.2432 1.24739 13.8871C1.24739 13.7684 1.30679 13.7091 1.30679 13.5904C0.950392 13.353 0.593995 13.0563 0.415796 12.8189C0.118799 12.2254 0.296997 11.7506 0.534595 11.3946C0.356397 11.1572 0.178198 10.9791 0.0593995 10.7417C0 10.445 0 10.2076 0 9.91088C0.0593995 9.4361 0.296997 8.96132 0.653394 8.60524C1.36619 7.77438 2.49478 7.18091 4.39556 6.52809C6.29634 5.93462 7.00914 5.81592 8.43473 5.51919C10.0979 5.1631 12.0581 5.04441 13.7213 4.45094C9.14752 3.62008 4.33616 4.33224 0.415796 7.00286L0.712794 6.2907Z"
            fill="#562737" />
        <path d="M26.3733 3.02686H30.2343V4.15445H27.6207V9.08027H26.3733V3.02686Z"
            fill="#562737" />
        <path
            d="M33.7983 8.24945H31.3629L31.0065 9.02096H29.6997L32.3727 2.9082H32.7885L35.4615 9.02096H34.1547L33.7983 8.24945ZM32.5509 5.22274L31.7193 7.24055H33.3231L32.5509 5.22274Z"
            fill="#562737" />
        <path
            d="M40.5104 7.24055C40.5104 8.36814 39.6194 9.13966 38.1939 9.13966C37.1247 9.13966 36.2337 8.60553 35.8179 7.77467L36.6495 7.1812C37.0653 7.77467 37.5405 8.07141 38.1344 8.07141C38.7284 8.07141 39.2036 7.77467 39.2036 7.24055C39.2036 6.82512 38.9066 6.52838 38.2533 6.52838H37.4811V5.46013H38.1939C38.7284 5.46013 39.0254 5.1634 39.0254 4.74797C39.0254 4.33254 38.7284 4.0358 38.1939 4.0358C37.6593 4.0358 37.2435 4.27319 36.9465 4.80731L36.1149 4.21384C36.5307 3.38298 37.2435 2.9082 38.3126 2.9082C39.56 2.9082 40.3322 3.56102 40.3322 4.62927C40.3322 5.10405 40.0946 5.57883 39.7382 5.81622C40.154 6.11295 40.5104 6.64708 40.5104 7.24055Z"
            fill="#562737" />
        <path d="M41.5203 3.02686H46.5692V9.02092H45.3218V4.15445H42.7677V9.08027H41.5203V3.02686Z"
            fill="#562737" />
        <path
            d="M47.9353 3.02686H50.1925C51.4399 3.02686 52.3903 3.79837 52.3903 4.98531C52.3903 6.11291 51.4993 6.94377 50.1925 6.94377H49.1827V9.08027H47.9353V3.02686ZM50.1925 5.81617C50.7865 5.81617 51.0835 5.46009 51.0835 4.92597C51.0835 4.45119 50.7271 4.0951 50.1925 4.0951H49.1827V5.81617H50.1925Z"
            fill="#562737" />
        <path
            d="M53.0437 6.05358C53.0437 4.27317 54.4693 2.96753 56.2513 2.96753C58.0333 2.96753 59.4588 4.33251 59.4588 6.05358C59.4588 7.834 58.0333 9.13964 56.2513 9.13964C54.4693 9.13964 53.0437 7.77465 53.0437 6.05358ZM58.1521 6.05358C58.1521 4.92599 57.3205 4.09513 56.1919 4.09513C55.0633 4.09513 54.2317 4.92599 54.2317 6.05358C54.2317 7.24053 55.0633 8.01204 56.1919 8.01204C57.3205 8.01204 58.1521 7.18118 58.1521 6.05358Z"
            fill="#562737" />
        <path
            d="M66.3491 2.9082V9.02096H65.1017V5.81622L63.6167 7.71533H63.2009L61.7159 5.81622V9.02096H60.4685V2.9082H60.8843L63.4385 6.1723L65.9927 2.9082H66.3491Z"
            fill="#562737" />
        <path
            d="M67.7153 3.02686H71.7545V4.15445H68.9627V5.40074H70.2101C71.3981 5.40074 72.2297 6.11291 72.2297 7.18116C72.2297 8.24941 71.3981 9.02092 70.2101 9.02092H67.7153V3.02686ZM70.1507 7.95267C70.6853 7.95267 71.0417 7.65594 71.0417 7.18116C71.0417 6.70638 70.7447 6.40964 70.1507 6.40964H68.9627V8.01202H70.1507V7.95267Z"
            fill="#562737" />
        <path
            d="M76.7441 8.24945H74.2494L73.893 9.02096H72.5862L75.2592 2.9082H75.675L78.3479 9.02096H77.0411L76.7441 8.24945ZM75.4968 5.22274L74.6652 7.24055H76.2689L75.4968 5.22274Z"
            fill="#562737" />
        <path
            d="M79.1794 3.02686H80.4268V5.3414H83.0998V3.02686H84.3472V9.02092H83.0998V6.40964H80.4268V9.02092H79.1794V3.02686Z"
            fill="#562737" />
        <path
            d="M89.5149 9.02092L86.9608 5.87552V9.02092H85.7134V3.02686H86.9608V5.81617L89.2773 3.02686H90.7623L88.4457 5.87552L91.0593 9.08027H89.5149V9.02092Z"
            fill="#562737" />
        <path d="M26.3733 10.9792H31.0658V16.9733H30.3531V11.6321H27.0861V16.9733H26.3733V10.9792Z"
            fill="#562737" />
        <path
            d="M32.729 10.9792H34.8674C36.0554 10.9792 36.7682 11.6914 36.7682 12.7003C36.7682 13.7092 36.0554 14.4807 34.8674 14.4807H33.4418V16.9733H32.729V10.9792ZM34.808 13.8279C35.5802 13.8279 35.996 13.3531 35.996 12.7003C35.996 12.0475 35.5802 11.5727 34.808 11.5727H33.4418V13.7686H34.808V13.8279Z"
            fill="#562737" />
        <path
            d="M37.9563 10.9792H41.8173V11.6321H38.6691V13.4718H41.0451V14.1246H38.6691V16.3798H41.9361V17.0327H37.9563V10.9792Z"
            fill="#562737" />
        <path
            d="M48.6482 10.8606V16.9734H47.9354V12.7004L46.0346 15.3116H45.7376L43.8368 12.7004V17.0327H43.124V10.8606H43.3616L45.8564 14.3027L48.3512 10.8606H48.6482Z"
            fill="#562737" />
        <path
            d="M55.182 10.8606V16.9734H54.4692V12.3443L50.5489 17.0921H50.3113V10.9793H51.0241V15.6084L54.9444 10.8606H55.182Z"
            fill="#562737" />
        <path
            d="M61.7161 10.9792L59.5777 15.549C59.1025 16.5579 58.6867 17.0327 57.8551 17.0327C57.6769 17.0327 57.4987 16.9733 57.3799 16.914V16.3205C57.5581 16.3798 57.7363 16.3798 57.8551 16.3798C58.2115 16.3798 58.5085 16.2018 58.7461 15.727L56.3701 10.9792H57.1423L59.1025 14.9555L60.9439 10.9792H61.7161Z"
            fill="#562737" />
        <path
            d="M68.3092 10.8606V16.9734H67.5964V12.7004L65.6957 15.3116H65.4581L63.5573 12.7004V17.0327H62.8445V10.8606H63.0821L65.5769 14.3027L68.0716 10.8606H68.3092Z"
            fill="#562737" />
    </g>
    <defs>
        <clipPath id="clip0_202_14190">
            <rect fill="white" height="20" width="91" />
        </clipPath>
    </defs>
</svg>
