<svg fill="none" height="32" viewBox="0 0 230 32" width="230" xmlns="http://www.w3.org/2000/svg">
    <g clip-path="url(#clip0_3121_39695)">
        <path
            d="M73.0055 13.768C72.8163 13.8629 72.627 14.0529 72.4378 14.1478C71.2077 15.0974 69.3153 15.7621 66.6658 16.5217C61.1778 17.946 57.2037 18.2309 52.6618 19.2754C51.8102 19.4653 50.864 19.7502 50.0124 20.13C50.864 20.5098 51.8102 20.9846 52.6618 21.2695C54.4596 20.7947 55.4058 20.5098 58.0553 20.0351C59.0961 19.8451 62.2186 19.3704 64.4895 18.8006C68.6529 18.041 74.6141 16.2368 73.0055 13.768ZM70.4507 8.73535C69.5991 8.35553 68.4637 7.97571 67.3282 7.69084C66.8551 8.07066 66.1927 8.45048 65.3411 8.83031C66.7605 9.11517 67.8959 9.49499 69.0314 9.77986C69.3153 9.77986 70.2615 8.92526 70.4507 8.73535ZM50.4855 14.0529C55.7843 12.5336 61.367 12.0588 67.0443 10.5395C64.868 9.96977 63.6379 9.68491 61.2724 9.96977C57.866 10.3496 54.1758 11.1092 50.9586 12.0588C49.7285 12.4386 43.105 14.2428 44.9974 16.9015C44.9974 16.9015 46.1329 15.3822 50.4855 14.0529ZM46.7953 22.9787C46.7953 23.4535 47.0791 23.9282 47.7415 24.403C47.8361 24.1181 47.9307 23.9282 48.12 23.7383C47.6468 23.5484 47.1737 23.2635 46.7953 22.9787ZM49.2554 22.7888C49.6339 22.5989 50.107 22.314 50.6747 22.1241C49.9178 21.8392 49.1608 21.4594 48.3092 21.0796C47.9307 21.2695 47.6468 21.5543 47.363 21.7443C48.0253 22.1241 48.6877 22.4089 49.2554 22.7888ZM69.7884 11.584C68.7475 12.0588 67.139 12.6285 64.9627 13.1033C63.1648 13.5781 58.7176 14.1478 53.9865 15.1923C52.4726 15.4772 48.4038 16.4267 46.4168 18.1359C46.9845 18.6107 47.2684 18.7057 47.9307 18.9905C48.7823 18.5158 49.9178 18.041 51.5263 17.5662C54.4596 16.8066 56.6359 16.4267 59.1907 16.0469C61.7455 15.6671 66.6658 14.6226 69.4099 13.673C70.2615 13.3882 71.1131 12.9134 71.6808 12.4386C71.5862 12.2487 69.7884 11.4891 69.7884 11.584ZM71.3023 10.5395C71.8701 10.8244 72.3432 11.0143 72.8163 11.2991C73.1948 10.6345 72.9109 10.2546 72.2485 9.68491C71.9647 10.0647 71.6808 10.3496 71.3023 10.5395ZM46.5114 20.13C46.0383 19.8451 45.7544 19.6552 45.2813 19.3704C45.0921 19.8451 45.4705 20.3199 45.9437 20.6048C46.1329 20.4149 46.3221 20.3199 46.5114 20.13ZM69.2206 5.50686C69.126 5.88669 68.7475 6.26651 68.4637 6.55137C69.2206 6.74129 70.0722 7.02615 70.8292 7.31102C70.7346 6.64633 69.883 5.98164 69.2206 5.50686ZM44.1458 10.0647C49.7285 6.45642 55.879 4.3674 66.382 6.0766C66.9497 5.79173 67.2336 5.41191 67.4228 4.74722C64.7734 3.79767 61.9348 3.5128 58.2445 3.60775C55.0274 3.70271 49.0662 4.84218 45.9437 6.74129L46.8899 5.50686C49.0662 4.17749 54.8381 2.46829 59.1907 2.46829C62.2186 2.37333 63.8272 2.56324 67.4228 3.5128C67.139 2.94307 66.382 2.56324 65.2465 2.08847C61.7455 0.569178 55.2166 0.474223 49.8232 2.75315C50.4855 2.27838 51.1479 1.89856 51.9995 1.51873C53.7973 0.759089 56.6359 -0.0955101 60.3262 -0.000554572C63.2595 0.0944009 66.6658 1.04396 68.7475 3.13298C69.126 3.5128 69.3153 3.98758 69.4099 4.3674C71.1131 5.222 72.0593 5.98164 72.627 6.9312C72.8163 7.40597 72.9109 7.88075 72.8163 8.54544C73.4786 8.92526 73.8571 9.30508 74.141 9.77986C74.4248 10.1597 74.6141 10.5395 74.6141 11.0143C74.7087 11.4891 74.7087 12.1537 74.2356 12.8184C74.8033 13.1033 75.2764 13.8629 75.3711 14.2428C75.6549 15.4772 74.8033 16.7116 73.7625 17.6612C72.5324 18.7057 69.883 19.9401 67.6121 20.5098C63.2595 21.5543 59.38 22.0291 56.3521 22.5988C57.6768 22.8837 59.5692 23.3585 62.6917 23.3585C69.2206 23.3585 74.9926 20.3199 74.9926 20.3199C74.9926 20.3199 74.898 20.6997 74.7087 21.0796C70.4507 23.3585 63.8272 24.403 61.0832 24.2131C58.2445 24.1181 55.7843 23.6434 53.5134 22.9787C52.7564 23.1686 52.0941 23.3585 51.4317 23.7383C55.0274 25.3526 57.6768 25.7324 60.7993 25.9223C63.9218 26.1122 69.126 25.4475 73.4786 23.8333C73.2894 24.0232 73.1948 24.308 73.0055 24.498C70.7346 25.6374 66.0035 26.8718 63.6379 26.9668C61.2724 27.0618 58.4337 26.9668 55.879 26.492C53.7027 26.1122 51.9995 25.4475 50.107 24.5929C49.7285 24.8778 49.6339 25.1626 49.5393 25.5425C56.7306 29.2457 63.4487 29.3407 71.1131 26.9668L70.4507 27.6315C62.0294 31.0499 55.4058 29.7205 50.2963 27.2517C50.107 27.1567 49.9178 27.0618 49.8232 26.9668C50.2963 27.8214 54.1758 30.5751 58.5284 30.9549C61.5563 31.2398 65.1519 30.6701 67.3282 29.8155L66.0981 30.4802C65.0573 30.9549 62.2186 32.1894 58.3391 31.9045C53.1349 31.5247 50.2016 29.2457 48.8769 28.1063C48.3092 27.5365 48.0253 26.8718 47.8361 26.1122C46.7006 25.5425 45.9437 24.8778 45.2813 23.9282C44.8082 23.3585 44.9028 22.7888 44.9974 22.219C44.9974 22.0291 45.0921 21.9342 45.0921 21.7443C44.5243 21.3644 43.9566 20.8897 43.6727 20.5098C43.1996 19.5603 43.4835 18.8006 43.862 18.2309C43.5781 17.8511 43.2942 17.5662 43.105 17.1864C43.0104 16.7116 43.0104 16.3318 43.0104 15.857C43.105 15.0974 43.4835 14.3377 44.0512 13.768C45.1867 12.4386 46.9845 11.4891 50.0124 10.4445C53.0403 9.49499 54.1758 9.30508 56.4467 8.83031C59.0961 8.26057 62.2186 8.07066 64.868 7.12111C57.5821 5.79173 49.9178 6.9312 43.6727 11.2042L44.1458 10.0647Z"
            fill="white" />
        <path d="M85.0225 4.84229H91.1729V6.64644H87.0095V14.5277H85.0225V4.84229Z" fill="white" />
        <path
            d="M96.8502 13.1983H92.9707L92.403 14.4328H90.3213L94.5793 4.65234H95.2416L99.4996 14.4328H97.4179L96.8502 13.1983ZM94.8631 8.35561L93.5384 11.5841H96.0932L94.8631 8.35561Z"
            fill="white" />
        <path
            d="M107.543 11.5841C107.543 13.3882 106.123 14.6227 103.852 14.6227C102.149 14.6227 100.73 13.7681 100.067 12.4387L101.392 11.4891C102.054 12.4387 102.811 12.9135 103.758 12.9135C104.704 12.9135 105.461 12.4387 105.461 11.5841C105.461 10.9194 104.988 10.4446 103.947 10.4446H102.717V8.73543H103.852C104.704 8.73543 105.177 8.26065 105.177 7.59596C105.177 6.93128 104.704 6.4565 103.852 6.4565C103.001 6.4565 102.338 6.83632 101.865 7.69092L100.54 6.74136C101.203 5.41199 102.338 4.65234 104.042 4.65234C106.029 4.65234 107.259 5.69685 107.259 7.40605C107.259 8.1657 106.88 8.92534 106.312 9.30516C106.975 9.77994 107.543 10.6345 107.543 11.5841Z"
            fill="white" />
        <path d="M109.151 4.84229H117.194V14.4328H115.207V6.64644H111.138V14.5277H109.151V4.84229Z"
            fill="white" />
        <path
            d="M119.37 4.84229H122.966C124.953 4.84229 126.467 6.07671 126.467 7.97582C126.467 9.77997 125.047 11.1093 122.966 11.1093H121.357V14.5277H119.37V4.84229ZM122.966 9.30519C123.912 9.30519 124.385 8.73546 124.385 7.88086C124.385 7.12122 123.817 6.55148 122.966 6.55148H121.357V9.30519H122.966Z"
            fill="white" />
        <path
            d="M127.508 9.68524C127.508 6.83658 129.779 4.74756 132.617 4.74756C135.456 4.74756 137.727 6.93153 137.727 9.68524C137.727 12.5339 135.456 14.6229 132.617 14.6229C129.779 14.6229 127.508 12.439 127.508 9.68524ZM135.645 9.68524C135.645 7.88109 134.32 6.55171 132.523 6.55171C130.725 6.55171 129.4 7.88109 129.4 9.68524C129.4 11.5844 130.725 12.8188 132.523 12.8188C134.32 12.8188 135.645 11.4894 135.645 9.68524Z"
            fill="white" />
        <path
            d="M148.703 4.65234V14.4328H146.716V9.30516L144.35 12.3437H143.688L141.322 9.30516V14.4328H139.335V4.65234H139.998L144.066 9.8749L148.135 4.65234H148.703Z"
            fill="white" />
        <path
            d="M150.879 4.84229H157.314V6.64644H152.866V8.6405H154.853C156.746 8.6405 158.071 9.77997 158.071 11.4892C158.071 13.1984 156.746 14.4328 154.853 14.4328H150.879V4.84229ZM154.759 12.7236C155.61 12.7236 156.178 12.2488 156.178 11.4892C156.178 10.7295 155.705 10.2547 154.759 10.2547H152.866V12.8185H154.759V12.7236Z"
            fill="white" />
        <path
            d="M165.262 13.1983H161.288L160.72 14.4328H158.638L162.896 4.65234H163.559L167.817 14.4328H165.735L165.262 13.1983ZM163.275 8.35561L161.95 11.5841H164.505L163.275 8.35561Z"
            fill="white" />
        <path
            d="M169.141 4.84229H171.128V8.54555H175.386V4.84229H177.374V14.4328H175.386V10.2547H171.128V14.4328H169.141V4.84229Z"
            fill="white" />
        <path
            d="M185.606 14.4328L181.537 9.40015V14.4328H179.55V4.84229H181.537V9.30519L185.227 4.84229H187.593L183.902 9.40015L188.066 14.5277H185.606V14.4328Z"
            fill="white" />
        <path d="M85.0225 17.5664H92.4976V27.1569H91.3621V18.6109H86.1579V27.1569H85.0225V17.5664Z"
            fill="white" />
        <path
            d="M95.1471 17.5664H98.5535C100.446 17.5664 101.581 18.7059 101.581 20.3201C101.581 21.9344 100.446 23.1688 98.5535 23.1688H96.2826V27.1569H95.1471V17.5664ZM98.4589 22.1243C99.6889 22.1243 100.351 21.3646 100.351 20.3201C100.351 19.2756 99.6889 18.516 98.4589 18.516H96.2826V22.0293H98.4589V22.1243Z"
            fill="white" />
        <path
            d="M103.474 17.5664H109.624V18.6109H104.609V21.5545H108.394V22.599H104.609V26.2074H109.813V27.2519H103.474V17.5664Z"
            fill="white" />
        <path
            d="M120.506 17.3765V27.1569H119.37V20.3201L116.342 24.4981H115.869L112.841 20.3201V27.2518H111.706V17.3765H112.084L116.058 22.8839L120.033 17.3765H120.506Z"
            fill="white" />
        <path
            d="M130.914 17.3765V27.1569H129.779V19.7504L123.534 27.3468H123.155V17.5664H124.291V24.9729L130.536 17.3765H130.914Z"
            fill="white" />
        <path
            d="M141.322 17.5664L137.916 24.878C137.159 26.4922 136.497 27.2519 135.172 27.2519C134.888 27.2519 134.604 27.1569 134.415 27.062V26.1124C134.699 26.2074 134.983 26.2074 135.172 26.2074C135.74 26.2074 136.213 25.9225 136.591 25.1628L132.806 17.5664H134.037L137.159 23.9284L140.092 17.5664H141.322Z"
            fill="white" />
        <path
            d="M151.826 17.3765V27.1569H150.69V20.3201L147.662 24.4981H147.284L144.256 20.3201V27.2518H143.12V17.3765H143.499L147.473 22.8839L151.447 17.3765H151.826Z"
            fill="white" />
    </g>
    <defs>
        <clipPath id="clip0_3121_39695">
            <rect fill="white" height="32" transform="translate(43.0104)" width="144.961" />
        </clipPath>
    </defs>
</svg>
