<svg fill="none" height="40" viewBox="0 0 40 40" width="40" xmlns="http://www.w3.org/2000/svg">
    <path
        d="M1.41548 12.5678C8.30652 8.03695 15.9269 5.40145 28.8365 7.62191C29.168 7.47417 29.4588 7.24621 29.6833 6.958C29.9079 6.66978 30.0595 6.3301 30.1247 5.96867C26.9007 4.85499 23.4109 4.40536 18.8919 4.48145C14.8022 4.59213 7.50904 6.10702 3.60344 8.4174L4.78943 6.93018C7.51585 5.33228 14.6455 3.19483 19.9756 3.09107C23.425 2.96285 26.8707 3.43066 30.1656 4.47453C29.7771 3.70671 28.8433 3.32626 27.4937 2.71062C23.1928 0.704602 15.0749 0.552422 8.44284 3.47153C9.3125 2.88507 10.2238 2.36485 11.1693 1.91513C14.4114 0.547115 17.9044 -0.101474 21.4138 0.0128716C24.9854 0.0820446 29.2182 1.32716 31.8219 3.91423C32.1916 4.34382 32.4618 4.85201 32.6126 5.40145C34.6574 6.44597 35.8638 7.41439 36.5386 8.5765C36.8358 9.18185 36.936 9.86726 36.8249 10.5341C37.4877 10.9062 38.0624 11.4208 38.5085 12.0421C38.8139 12.4906 39.0143 13.004 39.0947 13.5431C39.1845 13.9286 39.1845 14.3301 39.0945 14.7156C39.0046 15.101 38.8273 15.4599 38.5766 15.7636C39.2325 16.1514 39.7195 16.7766 39.9398 17.5137C40.2602 19.0701 39.2582 20.5849 37.9496 21.7609C36.4364 23.0959 33.0965 24.6662 30.3837 25.3648C24.9786 26.7483 20.2074 27.3086 16.4176 28.0072C18.9638 28.6614 21.582 28.9822 24.2084 28.9618C32.2581 28.9618 39.3877 25.1365 39.3877 25.1365C39.3877 25.1365 39.2173 25.6484 39.0674 26.0773C33.9485 29.1832 25.8033 30.4905 22.334 30.3314C19.1443 30.2178 15.9826 29.6854 12.9278 28.7474C12.0334 28.9796 11.1582 29.2826 10.3104 29.6535C13.9617 31.323 17.896 32.2625 21.8977 32.4205C25.7488 32.6972 32.1218 31.7702 37.527 29.8196C37.2816 30.0617 37.1589 30.4559 36.9067 30.6842C34.0985 32.1023 28.2367 33.5618 25.3126 33.6863C22.1204 33.8372 18.9216 33.6424 15.7701 33.1053C13.3187 32.5998 10.9331 31.8082 8.66095 30.7465C8.47796 30.8809 8.32337 31.0511 8.2063 31.2471C8.08923 31.4432 8.01206 31.661 7.97935 31.8878C16.8402 36.5363 25.1763 36.6331 34.6233 33.6863L33.7577 34.5233C23.295 38.7498 15.1567 37.1104 8.87907 34.0737C8.6814 33.9769 8.42239 33.8731 8.24517 33.7624C8.81772 34.7793 13.6367 38.2933 19.0145 38.736C22.7046 39.0289 26.4148 38.5583 29.9202 37.3525L28.3525 38.1757C25.373 39.5836 22.0877 40.1933 18.8101 39.9465C12.3893 39.5176 8.77001 36.6677 7.1546 35.1805C6.44809 34.518 5.97017 33.6425 5.79139 32.6833C4.52306 32.0873 3.44415 31.1433 2.67645 29.9579C2.32237 29.3056 2.23194 28.5392 2.42426 27.8204C2.46356 27.6211 2.52295 27.4264 2.60147 27.2394C1.9292 26.8145 1.34562 26.2599 0.883828 25.6069C0.64322 25.1552 0.534648 24.6431 0.57087 24.131C0.607092 23.6188 0.786602 23.1277 1.08831 22.7155C0.718411 22.3522 0.413922 21.9262 0.18859 21.4565C0.0247077 20.9342 -0.0332575 20.3836 0.0181883 19.8379C0.186829 18.8545 0.640018 17.9443 1.32006 17.2231C2.72416 15.5976 4.91894 14.3386 8.70866 13.0727C11.3242 12.2218 13.9871 11.5288 16.6835 10.9976C19.9347 10.2436 23.8267 10.0015 27.0984 8.86011C18.0126 7.25529 8.57234 8.70793 0.877012 14.0273L1.41548 12.5678ZM32.3604 6.93018C32.1501 7.43395 31.8337 7.8849 31.4334 8.25139C32.4305 8.52875 33.4132 8.85658 34.3779 9.23364C34.2621 8.35515 33.2397 7.50432 32.3331 6.93018M4.37365 25.1504C3.86474 24.8683 3.37101 24.5589 2.89457 24.2234C2.62874 24.8114 3.12631 25.4409 3.65796 25.7453C3.88289 25.5239 4.13509 25.3371 4.33957 25.1296M34.9982 13.2457C35.6305 13.5181 36.2412 13.8396 36.8249 14.2072C37.2407 13.4186 36.9817 12.9137 36.1433 12.1873C35.8044 12.5751 35.4301 12.9294 35.0255 13.2457M33.0829 14.4355C31.1581 15.2621 29.1645 15.9126 27.1257 16.3792C24.8968 16.9395 19.444 17.7212 13.5958 18.994C11.7418 19.4021 6.71837 20.5849 4.25778 22.6947C4.83911 23.1255 5.45996 23.4984 6.11175 23.8084C7.49904 22.9664 9.00779 22.3502 10.5831 21.9822C13.7097 21.1633 16.8798 20.5259 20.0779 20.0731C24.3354 19.3933 28.5385 18.3992 32.6535 17.0986C33.6732 16.7501 34.6358 16.2488 35.5094 15.6114C34.7489 15.0995 33.9234 14.6946 33.0556 14.4078M7.77486 28.443C8.34666 28.1093 8.94383 27.8224 9.56067 27.5853C8.61324 27.1979 7.65218 26.7759 6.67748 26.2986C6.26505 26.5456 5.87901 26.8354 5.52556 27.1633C6.26852 27.5922 7.01147 28.0211 7.77486 28.4153M4.68719 28.7197C4.68719 29.3284 5.03481 29.8611 5.8391 30.5182C5.94408 30.1969 6.10831 29.8988 6.32304 29.6397C5.76413 29.3561 5.21884 29.0448 4.68719 28.7197ZM9.22668 17.6036C15.7974 15.6737 22.702 15.0719 29.6749 13.2042C26.9484 12.4709 25.4557 12.1597 22.5657 12.5124C18.2524 13.0172 13.9872 13.8801 9.81287 15.0926C8.26562 15.5561 0.113613 17.8595 2.46515 21.1037C2.46515 21.1452 3.86245 19.1807 9.21305 17.6451M33.8736 10.8938C32.6302 10.3533 31.35 9.90479 30.0429 9.55184C29.3079 10.139 28.4869 10.6058 27.6096 10.9353C29.164 11.2541 30.6981 11.6676 32.2036 12.1735C32.4763 12.3049 33.6827 11.1705 33.8736 10.9007M37.118 17.2439C36.9135 17.4168 36.6886 17.5898 36.4364 17.7696C34.9437 18.9179 32.5989 19.8448 29.3341 20.7164C22.5657 22.5356 17.6513 22.7916 12.0622 24.175C10.9463 24.4525 9.85081 24.8085 8.78364 25.2403C9.86936 25.7822 10.9819 26.2671 12.1167 26.6929C14.2958 26.0403 16.5162 25.5388 18.7624 25.1919C20.0097 24.9774 23.8608 24.2995 26.6622 23.7047C31.6856 22.6325 39.0606 20.3013 37.1044 17.2439"
        fill="#224E75" />
</svg>
