<svg fill="none" height="144" viewBox="0 0 118 144" width="118" xmlns="http://www.w3.org/2000/svg">
    <path clip-rule="evenodd"
        d="M58.3438 9.85001C59.3571 9.21666 60.6429 9.21666 61.6562 9.85001L94.9896 30.6833C95.9033 31.2544 96.4583 32.2559 96.4583 33.3333V45.8333C96.4583 47.5592 95.0592 48.9583 93.3333 48.9583H26.6667C24.9408 48.9583 23.5417 47.5592 23.5417 45.8333V33.3333C23.5417 32.2559 24.0967 31.2544 25.0104 30.6833L58.3438 9.85001ZM29.7917 35.0654V42.7083H90.2083V35.0654L60 16.1851L29.7917 35.0654Z"
        fill="#DFE1F7" fill-rule="evenodd" />
    <path clip-rule="evenodd"
        d="M19.375 87.5C19.375 85.7741 20.7741 84.375 22.5 84.375H97.5C99.2259 84.375 100.625 85.7741 100.625 87.5C100.625 89.2259 99.2259 90.625 97.5 90.625H22.5C20.7741 90.625 19.375 89.2259 19.375 87.5Z"
        fill="#DFE1F7" fill-rule="evenodd" />
    <path clip-rule="evenodd"
        d="M27.7083 62.5C27.7083 60.7741 29.1074 59.375 30.8333 59.375H39.1667C40.8926 59.375 42.2917 60.7741 42.2917 62.5C42.2917 64.2259 40.8926 65.625 39.1667 65.625H33.9583V83.3333C33.9583 85.0592 32.5592 86.4583 30.8333 86.4583C29.1074 86.4583 27.7083 85.0592 27.7083 83.3333V62.5Z"
        fill="#DFE1F7" fill-rule="evenodd" />
    <path clip-rule="evenodd"
        d="M77.7083 62.5C77.7083 60.7741 79.1074 59.375 80.8333 59.375H89.1667C90.8926 59.375 92.2917 60.7741 92.2917 62.5C92.2917 64.2259 90.8926 65.625 89.1667 65.625H83.9583V83.3333C83.9583 85.0592 82.5592 86.4583 80.8333 86.4583C79.1074 86.4583 77.7083 85.0592 77.7083 83.3333V62.5Z"
        fill="#DFE1F7" fill-rule="evenodd" />
    <path clip-rule="evenodd"
        d="M52.7083 62.5C52.7083 60.7741 54.1074 59.375 55.8333 59.375H64.1667C65.8926 59.375 67.2917 60.7741 67.2917 62.5C67.2917 64.2259 65.8926 65.625 64.1667 65.625H58.9583V83.3333C58.9583 85.0592 57.5592 86.4583 55.8333 86.4583C54.1074 86.4583 52.7083 85.0592 52.7083 83.3333V62.5Z"
        fill="#DFE1F7" fill-rule="evenodd" />
    <path
        d="M10.8047 135.93V125.61H6.85469C6.77469 127.03 6.66469 128.29 6.52469 129.39C6.39135 130.49 6.23469 131.457 6.05469 132.29C5.87469 133.123 5.67469 133.837 5.45469 134.43C5.23469 135.023 4.99802 135.523 4.74469 135.93H10.8047ZM15.7547 135.93V140.67C15.7547 140.903 15.6747 141.09 15.5147 141.23C15.3614 141.37 15.158 141.44 14.9047 141.44H13.2847V138H2.66469V140.67C2.66469 140.903 2.58469 141.09 2.42469 141.23C2.27135 141.37 2.06802 141.44 1.81469 141.44H0.194688V135.93H1.77469C1.96135 135.83 2.14469 135.67 2.32469 135.45C2.51135 135.23 2.69135 134.92 2.86469 134.52C3.03802 134.12 3.20135 133.613 3.35469 133C3.51469 132.387 3.65802 131.64 3.78469 130.76C3.91135 129.873 4.01802 128.837 4.10469 127.65C4.19802 126.463 4.26802 125.093 4.31469 123.54H13.5047V135.93H15.7547ZM19.7213 135.34C20.0013 135.68 20.3046 135.92 20.6313 136.06C20.9646 136.2 21.3246 136.27 21.7113 136.27C22.0846 136.27 22.4213 136.2 22.7213 136.06C23.0213 135.92 23.2746 135.707 23.4813 135.42C23.6946 135.133 23.8579 134.773 23.9713 134.34C24.0846 133.9 24.1413 133.383 24.1413 132.79C24.1413 132.19 24.0913 131.683 23.9913 131.27C23.8979 130.85 23.7613 130.51 23.5813 130.25C23.4013 129.99 23.1813 129.8 22.9213 129.68C22.6679 129.56 22.3779 129.5 22.0513 129.5C21.5379 129.5 21.1013 129.61 20.7413 129.83C20.3813 130.043 20.0413 130.347 19.7213 130.74V135.34ZM19.5913 129.14C20.0113 128.667 20.4879 128.283 21.0213 127.99C21.5546 127.697 22.1813 127.55 22.9013 127.55C23.4613 127.55 23.9713 127.667 24.4313 127.9C24.8979 128.133 25.2979 128.473 25.6313 128.92C25.9713 129.36 26.2313 129.907 26.4113 130.56C26.5979 131.207 26.6913 131.95 26.6913 132.79C26.6913 133.557 26.5879 134.267 26.3813 134.92C26.1746 135.573 25.8779 136.14 25.4913 136.62C25.1113 137.1 24.6479 137.477 24.1013 137.75C23.5613 138.017 22.9546 138.15 22.2812 138.15C21.7079 138.15 21.2179 138.063 20.8113 137.89C20.4046 137.71 20.0413 137.463 19.7213 137.15V141.35H17.2513V127.74H18.7613C19.0813 127.74 19.2913 127.89 19.3913 128.19L19.5913 129.14ZM37.6259 127.74L32.0359 140.82C31.9626 140.993 31.8659 141.123 31.7459 141.21C31.6326 141.303 31.4559 141.35 31.2159 141.35H29.3759L31.2959 137.23L27.1459 127.74H29.3159C29.5093 127.74 29.6593 127.787 29.7659 127.88C29.8793 127.973 29.9626 128.08 30.0159 128.2L32.1959 133.52C32.2693 133.7 32.3293 133.88 32.3759 134.06C32.4293 134.24 32.4793 134.423 32.5259 134.61C32.5859 134.423 32.6459 134.24 32.7059 134.06C32.7659 133.873 32.8326 133.69 32.9059 133.51L34.9659 128.2C35.0193 128.067 35.1059 127.957 35.2259 127.87C35.3526 127.783 35.4926 127.74 35.6459 127.74H37.6259ZM45.8028 129.57H41.3228V138H38.8528V127.74H45.8028V129.57ZM51.4788 127.58C52.2388 127.58 52.9288 127.703 53.5488 127.95C54.1754 128.197 54.7088 128.547 55.1488 129C55.5954 129.453 55.9387 130.007 56.1788 130.66C56.4188 131.313 56.5388 132.043 56.5388 132.85C56.5388 133.663 56.4188 134.397 56.1788 135.05C55.9387 135.703 55.5954 136.26 55.1488 136.72C54.7088 137.18 54.1754 137.533 53.5488 137.78C52.9288 138.027 52.2388 138.15 51.4788 138.15C50.7121 138.15 50.0154 138.027 49.3888 137.78C48.7621 137.533 48.2254 137.18 47.7788 136.72C47.3388 136.26 46.9954 135.703 46.7488 135.05C46.5088 134.397 46.3888 133.663 46.3888 132.85C46.3888 132.043 46.5088 131.313 46.7488 130.66C46.9954 130.007 47.3388 129.453 47.7788 129C48.2254 128.547 48.7621 128.197 49.3888 127.95C50.0154 127.703 50.7121 127.58 51.4788 127.58ZM51.4788 136.25C52.3321 136.25 52.9621 135.963 53.3688 135.39C53.7821 134.817 53.9888 133.977 53.9888 132.87C53.9888 131.763 53.7821 130.92 53.3688 130.34C52.9621 129.76 52.3321 129.47 51.4788 129.47C50.6121 129.47 49.9688 129.763 49.5488 130.35C49.1354 130.93 48.9288 131.77 48.9288 132.87C48.9288 133.97 49.1354 134.81 49.5488 135.39C49.9688 135.963 50.6121 136.25 51.4788 136.25ZM67.6431 127.74V138H65.1731V132.01C65.1731 131.857 65.1798 131.69 65.1931 131.51C65.2131 131.323 65.2365 131.137 65.2631 130.95C65.1298 131.257 64.9831 131.527 64.8231 131.76C64.8098 131.773 64.7431 131.867 64.6231 132.04C64.5031 132.207 64.3465 132.423 64.1531 132.69C63.9665 132.957 63.7531 133.26 63.5131 133.6C63.2731 133.933 63.0298 134.273 62.7831 134.62C62.2031 135.44 61.5465 136.367 60.8131 137.4C60.7198 137.54 60.5965 137.677 60.4431 137.81C60.2965 137.943 60.1265 138.01 59.9331 138.01H58.4231V127.75H60.8931V133.74C60.8931 133.893 60.8831 134.063 60.8631 134.25C60.8498 134.43 60.8298 134.613 60.8031 134.8C60.9498 134.473 61.0965 134.203 61.2431 133.99C61.2498 133.977 61.3131 133.887 61.4331 133.72C61.5531 133.553 61.7065 133.337 61.8931 133.07C62.0865 132.803 62.3031 132.503 62.5431 132.17C62.7831 131.83 63.0265 131.483 63.2731 131.13C63.8531 130.31 64.5131 129.383 65.2531 128.35C65.3465 128.203 65.4698 128.067 65.6231 127.94C65.7765 127.807 65.9498 127.74 66.1431 127.74H67.6431ZM63.1731 125.14C63.4198 125.14 63.6265 125.113 63.7931 125.06C63.9598 125.007 64.0931 124.92 64.1931 124.8C64.2931 124.673 64.3631 124.507 64.4031 124.3C64.4431 124.093 64.4631 123.84 64.4631 123.54H65.9231C66.0965 123.54 66.2231 123.613 66.3031 123.76C66.3898 123.9 66.4331 124.057 66.4331 124.23C66.4331 124.57 66.3565 124.88 66.2031 125.16C66.0498 125.433 65.8298 125.667 65.5431 125.86C65.2565 126.047 64.9131 126.193 64.5131 126.3C64.1131 126.4 63.6665 126.45 63.1731 126.45C62.6798 126.45 62.2331 126.4 61.8331 126.3C61.4331 126.193 61.0898 126.047 60.8031 125.86C60.5165 125.667 60.2965 125.433 60.1431 125.16C59.9898 124.88 59.9131 124.57 59.9131 124.23C59.9131 124.057 59.9531 123.9 60.0331 123.76C60.1198 123.613 60.2498 123.54 60.4231 123.54H61.8831C61.8831 123.84 61.9031 124.093 61.9431 124.3C61.9831 124.507 62.0531 124.673 62.1531 124.8C62.2531 124.92 62.3831 125.007 62.5431 125.06C62.7098 125.113 62.9198 125.14 63.1731 125.14ZM79.7666 136.35C80.6199 136.35 81.2566 136.077 81.6766 135.53C82.0966 134.983 82.3066 134.183 82.3066 133.13C82.3066 132.083 82.0999 131.287 81.6866 130.74C81.2799 130.193 80.6566 129.92 79.8166 129.92C78.9766 129.92 78.3366 130.18 77.8966 130.7C77.4566 131.213 77.2366 131.983 77.2366 133.01C77.2366 134.097 77.4432 134.927 77.8566 135.5C78.2766 136.067 78.9132 136.35 79.7666 136.35ZM80.4866 125.88C79.8599 125.92 79.3232 126.043 78.8766 126.25C78.4366 126.45 78.0699 126.723 77.7766 127.07C77.4899 127.41 77.2699 127.82 77.1166 128.3C76.9699 128.773 76.8832 129.3 76.8566 129.88C77.0232 129.62 77.2266 129.383 77.4666 129.17C77.7132 128.95 77.9866 128.763 78.2866 128.61C78.5932 128.45 78.9232 128.327 79.2766 128.24C79.6366 128.153 80.0199 128.11 80.4266 128.11C81.1066 128.11 81.7199 128.23 82.2666 128.47C82.8132 128.71 83.2766 129.05 83.6566 129.49C84.0432 129.93 84.3366 130.46 84.5366 131.08C84.7432 131.693 84.8466 132.373 84.8466 133.12C84.8466 133.893 84.7232 134.59 84.4766 135.21C84.2366 135.83 83.8932 136.36 83.4466 136.8C83.0066 137.233 82.4732 137.567 81.8466 137.8C81.2199 138.033 80.5266 138.15 79.7666 138.15C79.0266 138.15 78.3432 138.03 77.7166 137.79C77.0966 137.55 76.5599 137.16 76.1066 136.62C75.6532 136.08 75.2999 135.38 75.0466 134.52C74.7932 133.653 74.6666 132.597 74.6666 131.35C74.6666 130.303 74.7632 129.33 74.9566 128.43C75.1499 127.53 75.4666 126.743 75.9066 126.07C76.3466 125.39 76.9232 124.843 77.6366 124.43C78.3499 124.017 79.2299 123.77 80.2766 123.69L83.9266 123.41L84.0566 124.69C84.0832 124.963 84.0432 125.197 83.9366 125.39C83.8299 125.577 83.6399 125.677 83.3666 125.69L80.4866 125.88ZM92.183 133.62C91.4696 133.653 90.8696 133.717 90.383 133.81C89.8963 133.897 89.5063 134.01 89.213 134.15C88.9196 134.29 88.7096 134.453 88.583 134.64C88.4563 134.827 88.393 135.03 88.393 135.25C88.393 135.683 88.5196 135.993 88.773 136.18C89.033 136.367 89.3696 136.46 89.783 136.46C90.2896 136.46 90.7263 136.37 91.093 136.19C91.4663 136.003 91.8296 135.723 92.183 135.35V133.62ZM86.523 129.17C87.703 128.09 89.123 127.55 90.783 127.55C91.383 127.55 91.9196 127.65 92.393 127.85C92.8663 128.043 93.2663 128.317 93.593 128.67C93.9196 129.017 94.1663 129.433 94.333 129.92C94.5063 130.407 94.593 130.94 94.593 131.52V138H93.473C93.2396 138 93.0596 137.967 92.933 137.9C92.8063 137.827 92.7063 137.683 92.633 137.47L92.413 136.73C92.153 136.963 91.8996 137.17 91.653 137.35C91.4063 137.523 91.1496 137.67 90.883 137.79C90.6163 137.91 90.3296 138 90.023 138.06C89.723 138.127 89.3896 138.16 89.023 138.16C88.5896 138.16 88.1896 138.103 87.823 137.99C87.4563 137.87 87.1396 137.693 86.873 137.46C86.6063 137.227 86.3996 136.937 86.253 136.59C86.1063 136.243 86.033 135.84 86.033 135.38C86.033 135.12 86.0763 134.863 86.163 134.61C86.2496 134.35 86.3896 134.103 86.583 133.87C86.783 133.637 87.0396 133.417 87.353 133.21C87.6663 133.003 88.0496 132.823 88.503 132.67C88.963 132.517 89.4963 132.393 90.103 132.3C90.7096 132.2 91.403 132.14 92.183 132.12V131.52C92.183 130.833 92.0363 130.327 91.743 130C91.4496 129.667 91.0263 129.5 90.473 129.5C90.073 129.5 89.7396 129.547 89.473 129.64C89.213 129.733 88.983 129.84 88.783 129.96C88.583 130.073 88.3996 130.177 88.233 130.27C88.073 130.363 87.893 130.41 87.693 130.41C87.5196 130.41 87.373 130.367 87.253 130.28C87.133 130.187 87.0363 130.08 86.963 129.96L86.523 129.17ZM105.859 127.74V138H103.389V133.46H99.3892V138H96.9192V127.74H99.3892V131.63H103.389V127.74H105.859ZM114.436 128.39C114.556 128.197 114.719 128.04 114.926 127.92C115.133 127.8 115.353 127.74 115.586 127.74H117.526L115.136 131.55C114.969 131.817 114.799 132.033 114.626 132.2C114.453 132.36 114.243 132.487 113.996 132.58C114.329 132.68 114.603 132.83 114.816 133.03C115.029 133.223 115.223 133.47 115.396 133.77L117.796 138H116.086C115.653 138 115.316 137.927 115.076 137.78C114.836 137.633 114.633 137.423 114.466 137.15L112.956 134.31C112.823 134.063 112.649 133.88 112.436 133.76C112.229 133.64 111.986 133.58 111.706 133.58H110.776V138H108.306V127.74H110.776V131.97H111.576C111.856 131.97 112.079 131.92 112.246 131.82C112.419 131.713 112.566 131.553 112.686 131.34L114.436 128.39Z"
        fill="white" />
</svg>
