<svg fill="none" height="40" viewBox="0 0 40 40" width="40" xmlns="http://www.w3.org/2000/svg">
    <circle cx="20" cy="20" fill="#F6F6FD" r="20" />
    <path clip-rule="evenodd"
        d="M19.6025 10.364C19.8457 10.212 20.1543 10.212 20.3975 10.364L28.3975 15.364C28.6168 15.5011 28.75 15.7414 28.75 16V19C28.75 19.4142 28.4142 19.75 28 19.75H12C11.5858 19.75 11.25 19.4142 11.25 19V16C11.25 15.7414 11.3832 15.5011 11.6025 15.364L19.6025 10.364ZM12.75 16.4157V18.25H27.25V16.4157L20 11.8844L12.75 16.4157Z"
        fill="#586EBB" fill-rule="evenodd" />
    <path clip-rule="evenodd"
        d="M10.25 29C10.25 28.5858 10.5858 28.25 11 28.25H29C29.4142 28.25 29.75 28.5858 29.75 29C29.75 29.4142 29.4142 29.75 29 29.75H11C10.5858 29.75 10.25 29.4142 10.25 29Z"
        fill="#586EBB" fill-rule="evenodd" />
    <path clip-rule="evenodd"
        d="M12.25 23C12.25 22.5858 12.5858 22.25 13 22.25H15C15.4142 22.25 15.75 22.5858 15.75 23C15.75 23.4142 15.4142 23.75 15 23.75H13.75V28C13.75 28.4142 13.4142 28.75 13 28.75C12.5858 28.75 12.25 28.4142 12.25 28V23Z"
        fill="#586EBB" fill-rule="evenodd" />
    <path clip-rule="evenodd"
        d="M24.25 23C24.25 22.5858 24.5858 22.25 25 22.25H27C27.4142 22.25 27.75 22.5858 27.75 23C27.75 23.4142 27.4142 23.75 27 23.75H25.75V28C25.75 28.4142 25.4142 28.75 25 28.75C24.5858 28.75 24.25 28.4142 24.25 28V23Z"
        fill="#586EBB" fill-rule="evenodd" />
    <path clip-rule="evenodd"
        d="M18.25 23C18.25 22.5858 18.5858 22.25 19 22.25H21C21.4142 22.25 21.75 22.5858 21.75 23C21.75 23.4142 21.4142 23.75 21 23.75H19.75V28C19.75 28.4142 19.4142 28.75 19 28.75C18.5858 28.75 18.25 28.4142 18.25 28V23Z"
        fill="#586EBB" fill-rule="evenodd" />
</svg>
