<svg width="249" height="48" viewBox="0 0 249 48" fill="none" xmlns="http://www.w3.org/2000/svg">
<g clip-path="url(#clip0_6631_24539)">
<path d="M24.165 0C10.8019 0 0 10.7281 0 24C0 37.2719 10.8019 48 24.165 48C37.5282 48 48.3301 37.2719 48.3301 24C48.3301 10.7281 37.4168 0 24.165 0ZM20.7129 34.1751L18.9311 39.3733C12.2496 37.1613 7.79517 30.8571 7.79517 23.7788C7.79517 16.7005 12.2496 10.5069 19.0425 8.18433L20.8242 13.3825C16.3699 14.8203 13.4745 19.023 13.4745 23.6682C13.3631 28.5346 16.2585 32.7373 20.7129 34.1751ZM29.0648 39.4839L27.3945 34.2857C31.9602 32.8479 34.9669 28.6452 34.9669 23.8894C34.9669 19.1336 31.9602 15.0415 27.5058 13.6037L29.2876 8.29493C36.0805 10.5069 40.6462 16.8111 40.6462 23.8894C40.5349 31.0783 35.8578 37.3825 29.0648 39.4839Z" fill="#00BEF0"/>
<path d="M245.325 28.2014L247.997 31.4088C245.213 34.2843 241.761 35.0585 238.977 35.0585C236.305 35.0585 234.411 34.6161 232.741 33.8419C229.178 32.0724 227.396 28.5332 227.396 24.2198C227.396 17.6945 231.85 12.8281 238.42 12.8281C245.77 12.8281 249.334 18.2475 248.777 25.3258H232.073C232.184 27.0954 233.187 28.7544 234.634 29.6392C235.859 30.4134 237.307 30.7452 239.2 30.7452C241.316 30.8558 243.432 30.0816 245.325 28.2014ZM232.296 21.5655H244.1C243.766 19.0217 241.65 16.8097 238.309 16.8097C234.746 16.8097 232.63 19.2429 232.296 21.5655ZM120.045 34.5055H126.059L116.593 23.5562L125.947 13.2705H120.045L112.918 21.4549H110.802V13.2705H106.237V34.3949H110.802V25.9894H112.918L120.045 34.5055ZM139.756 17.1415C135.858 17.1415 133.297 20.1277 133.297 23.888C133.297 27.6484 135.858 30.6346 139.756 30.6346C143.653 30.6346 146.103 27.759 146.103 23.888C146.103 20.2383 143.765 17.1415 139.756 17.1415ZM140.535 12.8281C146.549 12.8281 151.003 17.4733 151.003 23.888C151.003 30.1922 146.66 35.0585 140.535 35.0585C137.64 35.0585 135.301 34.0631 133.631 32.2936V43.3535H128.954V13.3811H133.52V15.9249C135.301 13.8235 137.529 12.8281 140.535 12.8281ZM201.115 13.3811H182.072V17.5839H189.311V34.5055H193.988V17.5839H201.226V13.3811H201.115ZM103.007 13.3811H83.9647V17.5839H91.2031V34.5055H95.7688V17.5839H103.007V13.3811ZM78.2854 23.9986C78.2854 20.0171 75.5014 17.1415 71.6038 17.1415C67.8176 17.1415 64.9222 20.0171 64.9222 23.9986C64.9222 27.9802 67.7062 30.8558 71.6038 30.8558C75.39 30.8558 78.2854 27.9802 78.2854 23.9986ZM60.2451 23.9986C60.2451 17.6945 65.1449 12.9387 71.7152 12.9387C78.2854 12.9387 83.1852 17.6945 83.1852 23.9986C83.1852 30.3028 78.2854 35.1691 71.7152 35.1691C65.1449 35.1691 60.2451 30.3028 60.2451 23.9986ZM223.721 13.3811V34.5055H219.155V20.9019L208.019 34.5055H204.344V13.3811H208.91V26.9848L220.046 13.3811H223.721ZM178.954 34.5055H174.389V13.3811H178.954V34.5055ZM167.039 27.3166C167.039 25.4364 165.703 24.1092 163.921 24.1092H159.244V30.6346H163.921C165.703 30.6346 167.039 29.1968 167.039 27.3166ZM171.716 27.3166C171.716 31.5194 168.598 34.5055 164.144 34.5055H154.789V13.3811H159.355V20.2383H164.589C168.932 20.2383 171.716 23.0032 171.716 27.3166Z" fill="white"/>
</g>
<defs>
<clipPath id="clip0_6631_24539">
<rect width="249" height="48" fill="white"/>
</clipPath>
</defs>
</svg>
