<svg width="104" height="21" viewBox="0 0 104 21" fill="none" xmlns="http://www.w3.org/2000/svg">
<g clip-path="url(#clip0_6631_24549)">
<path d="M10.093 0.496094C4.51163 0.496094 0 4.96614 0 10.4961C0 16.026 4.51163 20.4961 10.093 20.4961C15.6744 20.4961 20.186 16.026 20.186 10.4961C20.186 4.96614 15.6279 0.496094 10.093 0.496094ZM8.65116 14.7357L7.90698 16.9016C5.11628 15.98 3.25581 13.3532 3.25581 10.4039C3.25581 7.45462 5.11628 4.87397 7.95349 3.90623L8.69768 6.07213C6.83721 6.67121 5.62791 8.42236 5.62791 10.3578C5.5814 12.3855 6.7907 14.1366 8.65116 14.7357ZM12.1395 16.9477L11.4419 14.7818C13.3488 14.1827 14.6047 12.4316 14.6047 10.45C14.6047 8.46844 13.3488 6.76337 11.4884 6.1643L12.2326 3.95231C15.0698 4.87397 16.9767 7.5007 16.9767 10.45C16.9302 13.4454 14.9767 16.0721 12.1395 16.9477Z" fill="#00BEF0"/>
<path d="M102.465 12.2454L103.582 13.5818C102.419 14.7799 100.977 15.1025 99.8142 15.1025C98.698 15.1025 97.9073 14.9182 97.2096 14.5956C95.7212 13.8583 94.977 12.3836 94.977 10.5864C94.977 7.86749 96.8375 5.83984 99.5817 5.83984C102.651 5.83984 104.14 8.09791 103.907 11.0472H96.9305C96.977 11.7845 97.3957 12.4758 98.0003 12.8445C98.5119 13.167 99.1166 13.3053 99.9073 13.3053C100.791 13.3514 101.675 13.0288 102.465 12.2454ZM97.0236 9.4804H101.954C101.814 8.42049 100.931 7.49883 99.5352 7.49883C98.0468 7.49883 97.1631 8.51265 97.0236 9.4804ZM50.1398 14.8721H52.6515L48.698 10.3099L52.6049 6.02418H50.1398L47.1631 9.43431H46.2794V6.02418H44.3724V14.826H46.2794V11.3237H47.1631L50.1398 14.8721ZM58.3724 7.63708C56.7445 7.63708 55.6747 8.88132 55.6747 10.4481C55.6747 12.015 56.7445 13.2592 58.3724 13.2592C60.0003 13.2592 61.0236 12.061 61.0236 10.4481C61.0236 8.9274 60.0468 7.63708 58.3724 7.63708ZM58.698 5.83984C61.2096 5.83984 63.0701 7.77533 63.0701 10.4481C63.0701 13.0749 61.2561 15.1025 58.698 15.1025C57.4887 15.1025 56.5119 14.6878 55.8143 13.9504V18.5587H53.8608V6.07026H55.7677V7.13017C56.5119 6.25459 57.4422 5.83984 58.698 5.83984ZM84.0003 6.07026H76.0468V7.82141H79.0701V14.8721H81.0236V7.82141H84.0468V6.07026H84.0003ZM43.0236 6.07026H35.0701V7.82141H38.0933V14.8721H40.0003V7.82141H43.0236V6.07026ZM32.698 10.4942C32.698 8.83524 31.5352 7.63708 29.9073 7.63708C28.3259 7.63708 27.1166 8.83524 27.1166 10.4942C27.1166 12.1532 28.2794 13.3514 29.9073 13.3514C31.4887 13.3514 32.698 12.1532 32.698 10.4942ZM25.1631 10.4942C25.1631 7.86749 27.2096 5.88593 29.9538 5.88593C32.698 5.88593 34.7445 7.86749 34.7445 10.4942C34.7445 13.1209 32.698 15.1486 29.9538 15.1486C27.2096 15.1486 25.1631 13.1209 25.1631 10.4942ZM93.4422 6.07026V14.8721H91.5352V9.2039L86.884 14.8721H85.3491V6.07026H87.2561V11.7385L91.9073 6.07026H93.4422ZM74.7445 14.8721H72.8375V6.07026H74.7445V14.8721ZM69.7677 11.8767C69.7677 11.0933 69.2096 10.5403 68.4654 10.5403H66.5119V13.2592H68.4654C69.2096 13.2592 69.7677 12.6601 69.7677 11.8767ZM71.7212 11.8767C71.7212 13.6279 70.4189 14.8721 68.5584 14.8721H64.6515V6.07026H66.5584V8.9274H68.7445C70.5584 8.9274 71.7212 10.0795 71.7212 11.8767Z" fill="#181716"/>
</g>
<defs>
<clipPath id="clip0_6631_24549">
<rect width="104" height="20" fill="white" transform="translate(0 0.496094)"/>
</clipPath>
</defs>
</svg>
