<svg fill="none" height="32" viewBox="0 0 232 32" width="232" xmlns="http://www.w3.org/2000/svg">
    <path d="M75.1065 23.5261V14.2136H80.625V10.8076H65.6V14.2136H71.0969V23.5261H75.1065Z"
        fill="white" />
    <path d="M86.2299 10.8076H82.2203V23.5261H86.2299V10.8076Z" fill="white" />
    <path
        d="M89.1615 10.8076V23.5261H92.8477V16.4986L99.7243 23.5261H103.13V10.8076H99.4441V17.792L92.7399 10.8076H89.1615Z"
        fill="white" />
    <path
        d="M111.02 18.7189L115.633 23.5261H120.807L114.361 16.9082L120.57 10.8076H115.698L111.02 15.5932H109.942V10.8076H106.084V23.5261H109.942V18.7189H111.02Z"
        fill="white" />
    <path
        d="M128.783 20.8312C126.196 20.8312 124.536 19.2791 124.536 17.1881C124.536 15.0971 126.196 13.5881 128.783 13.5881C131.348 13.5881 133.029 15.1187 133.029 17.1881C133.029 19.2791 131.348 20.8312 128.783 20.8312ZM128.783 10.4624C123.566 10.4624 120.44 13.3941 120.44 17.1881C120.44 20.9821 123.566 23.9138 128.783 23.9138C133.956 23.9138 137.104 20.9821 137.104 17.1881C137.082 13.3941 133.956 10.4624 128.783 10.4624Z"
        fill="white" />
    <path
        d="M151.784 10.8076H138.914V23.5261H142.795V19.0854H151.223V16.283H142.795V14.0411H151.784V10.8076Z"
        fill="white" />
    <path
        d="M166.378 10.8076H153.508V23.5261H157.388V19.0854H165.796V16.283H157.388V14.0411H166.378V10.8076Z"
        fill="white" />
</svg>
