<svg fill="none" height="32" viewBox="0 0 230 32" width="230" xmlns="http://www.w3.org/2000/svg">
    <path d="M35.0456 23.5256V14.2131H40.5545V10.8071H25.5555V14.2131H31.043V23.5256H35.0456Z"
        fill="white" />
    <path d="M46.1495 10.8071H42.1469V23.5256H46.1495V10.8071Z" fill="white" />
    <path
        d="M49.0762 10.8071V23.5256H52.756V16.4981L59.6207 23.5256H63.0207V10.8071H59.3409V17.7915L52.6484 10.8071H49.0762Z"
        fill="white" />
    <path
        d="M70.8967 18.7184L75.5019 23.5256H80.6665L74.2322 16.9077L80.4298 10.8071H75.5664L70.8967 15.5927H69.8208V10.8071H65.9688V23.5256H69.8208V18.7184H70.8967Z"
        fill="white" />
    <path
        d="M88.6286 20.8312C86.0463 20.8312 84.3893 19.2791 84.3893 17.1881C84.3893 15.0971 86.0463 13.5881 88.6286 13.5881C91.1894 13.5881 92.8679 15.1187 92.8679 17.1881C92.8679 19.2791 91.1894 20.8312 88.6286 20.8312ZM88.6286 10.4624C83.421 10.4624 80.3007 13.3941 80.3007 17.1881C80.3007 20.9821 83.421 23.9138 88.6286 23.9138C93.7933 23.9138 96.9351 20.9821 96.9351 17.1881C96.9136 13.3941 93.7933 10.4624 88.6286 10.4624Z"
        fill="white" />
    <path
        d="M111.59 10.8071H98.7429V23.5256H102.616V19.0849H111.03V16.2825H102.616V14.0406H111.59V10.8071Z"
        fill="white" />
    <path
        d="M126.158 10.8071H113.311V23.5256H117.184V19.0849H125.577V16.2825H117.184V14.0406H126.158V10.8071Z"
        fill="white" />
    <path
        d="M129.687 16.8C129.687 12.8121 132.915 9.6001 136.875 9.6001H196.914C200.895 9.6001 204.101 12.8336 204.101 16.8C204.101 20.7665 200.873 24 196.914 24H136.875C132.915 24.0215 129.687 20.788 129.687 16.8Z"
        fill="white" />
    <path
        d="M138.661 14.6877H140.899C141.372 14.6877 141.652 14.7308 141.867 14.817C142.255 14.9679 142.448 15.3344 142.448 15.7008C142.448 16.1104 142.233 16.4984 141.803 16.6278C141.609 16.6924 141.351 16.7356 140.899 16.7356H138.661V14.6877ZM136.186 12.7476V20.8313H138.639V18.6541H141.243C141.846 18.6541 142.448 18.6325 143.029 18.4601C144.148 18.0936 144.988 17.102 144.988 15.7439C144.988 14.3859 144.17 13.3943 143.072 13.0062C142.47 12.7907 141.889 12.7476 141.265 12.7476H136.186Z"
        fill="black" />
    <path
        d="M150.733 14.6877C151.185 14.6877 151.465 14.7308 151.659 14.817C152.046 14.9679 152.24 15.2697 152.24 15.7008C152.24 16.1535 152.003 16.4984 151.594 16.6278C151.401 16.6924 151.164 16.7356 150.733 16.7356H148.474V14.6877H150.733ZM153.144 18.2014C154.069 17.7487 154.801 16.8864 154.801 15.7008C154.801 14.3212 154.047 13.3943 152.928 13.0062C152.326 12.7907 151.745 12.7476 151.121 12.7476H146.021V20.8313H148.474V18.6541H150.69L152.24 20.8313H155.016L153.144 18.2014Z"
        fill="black" />
    <path d="M158.889 12.7476H156.35V20.8313H158.889V12.7476Z" fill="black" />
    <path
        d="M165.173 18.9559H164.979L162.806 12.7476H159.922L163.193 20.8313H166.787L169.907 12.7476H167.238L165.173 18.9559Z"
        fill="black" />
    <path
        d="M174.447 14.623H174.641L175.803 17.8781H173.264L174.447 14.623ZM176.406 19.6673L176.879 20.8313H179.655L176.341 12.7476H172.747L169.433 20.8313H172.209L172.661 19.6673H176.406Z"
        fill="black" />
    <path d="M185.121 20.8313V14.9032H188.607V12.7476H179.074V14.9032H182.582V20.8313H185.121Z"
        fill="black" />
    <path
        d="M197.861 12.7476H189.64V20.8313H197.861V18.9775H192.093V17.5547H197.516V15.938H192.093V14.6014H197.861V12.7476Z"
        fill="black" />
</svg>
