<svg fill="none" height="18" viewBox="0 0 48 18" width="48" xmlns="http://www.w3.org/2000/svg">
    <path
        d="M0.400146 9C0.400146 4 4.40015 0 9.40015 0H38.4001C43.4001 0 47.4001 4 47.4001 9C47.4001 14 43.4001 18 38.4001 18H9.40015C4.40015 18 0.400146 14 0.400146 9Z"
        fill="black" />
    <path clip-rule="evenodd"
        d="M8.3001 3.30005H4.1001V6.80005V11.7001V14.5H8.3001H11.2001H15.5001V3.30005H11.2001H8.3001Z"
        fill="white" fill-rule="evenodd" opacity="0.01" />
    <path d="M11.9002 12.4H11.2002V13.1H11.9002V12.4Z" fill="#333333" opacity="0.56" />
    <path d="M8.3001 12.4H7.6001V13.1H8.3001V12.4Z" fill="#333333" opacity="0.56" />
    <path
        d="M7.6001 6.80005V7.50005H9.0001V6.80005H7.6001ZM8.3001 8.30005H11.1001V6.90005H8.3001V8.30005ZM11.9001 7.60005V6.90005H10.5001V7.60005H11.9001ZM11.2001 7.60005H11.9001V6.20005H11.2001V7.60005ZM11.2001 6.80005V7.50005H12.6001V6.80005H11.2001ZM11.9001 8.30005V6.90005V8.30005ZM11.2001 7.60005V8.30005H12.6001V7.60005H11.2001ZM11.9001 7.60005V9.00005V7.60005ZM11.2001 8.30005V11.2001H12.6001V8.30005H11.2001ZM11.9001 10.4H11.2001V11.8H11.9001V10.4ZM11.9001 11.1V8.20005H10.5001V11.1H11.9001ZM11.2001 7.60005H8.4001V9.00005H11.2001V7.60005ZM7.6001 8.30005V11.2001H9.0001V8.30005H7.6001ZM8.3001 10.4H7.6001V11.8H8.3001V10.4ZM8.3001 11.1V8.20005H6.9001V11.1H8.3001ZM8.3001 8.30005V7.60005H6.9001V8.30005H8.3001ZM8.3001 7.60005V6.90005H6.9001V7.60005H8.3001ZM7.6001 7.60005H8.3001V6.20005H7.6001V7.60005ZM7.6001 12.6V13.3H9.0001V12.6H7.6001ZM8.3001 14H9.0001V12.6H8.3001V14ZM8.3001 13.3V14H9.7001V13.3H8.3001ZM9.1001 14.7001H10.5001V13.3H9.1001V14.7001ZM11.2001 14V13.3H9.8001V14H11.2001ZM10.5001 12.6H9.1001V14H10.5001V12.6ZM9.8001 13.3V12.6H8.4001V13.3H9.8001ZM9.1001 11.8H8.4001V13.2001H9.1001V11.8ZM10.5001 5.40005V6.80005H11.9001V5.40005H10.5001ZM11.2001 6.10005H10.5001V7.50005H11.2001V6.10005ZM11.2001 6.80005V5.40005H9.8001V6.80005H11.2001ZM10.5001 6.10005H11.2001V4.70005H10.5001V6.10005ZM7.6001 5.40005V6.80005H9.0001V5.40005H7.6001ZM8.3001 7.60005H9.0001V6.20005H8.3001V7.60005ZM9.8001 6.80005V6.10005H8.4001V6.80005H9.8001ZM9.1001 6.80005H10.5001V5.40005H9.1001V6.80005ZM11.2001 6.10005V5.40005H9.8001V6.10005H11.2001ZM10.5001 4.70005H9.1001V6.10005H10.5001V4.70005ZM9.1001 4.70005V6.10005V4.70005ZM9.1001 4.70005H8.4001V6.10005H9.1001V4.70005ZM11.9001 4.70005V5.40005H13.3001V4.70005H11.9001ZM12.6001 4.70005H11.9001V6.10005H12.6001V4.70005ZM12.6001 5.40005V4.70005H11.2001V5.40005H12.6001ZM11.9001 5.40005H12.6001V4.00005H11.9001V5.40005ZM11.9001 5.40005V6.10005H13.3001V5.40005H11.9001ZM12.6001 6.80005H13.3001V5.40005H12.6001V6.80005ZM14.0001 6.10005V5.40005H12.6001V6.10005H14.0001ZM13.3001 4.70005H12.6001V6.10005H13.3001V4.70005ZM11.9001 6.10005V6.80005H13.3001V6.10005H11.9001ZM12.6001 6.10005H11.9001V7.50005H12.6001V6.10005ZM12.6001 6.80005V6.10005H11.2001V6.80005H12.6001ZM11.9001 6.80005H12.6001V5.40005H11.9001V6.80005ZM11.9001 6.80005V7.50005H13.3001V6.80005H11.9001ZM12.6001 8.30005H13.3001V6.90005H12.6001V8.30005ZM14.0001 7.60005V6.90005H12.6001V7.60005H14.0001ZM13.3001 6.10005H12.6001V7.50005H13.3001V6.10005ZM14.0001 6.80005V7.50005H15.4001V6.80005H14.0001ZM14.8001 6.80005H14.1001V8.20005H14.8001V6.80005ZM14.8001 7.60005V6.90005H13.4001V7.60005H14.8001ZM14.0001 7.60005H14.7001V6.20005H14.0001V7.60005ZM12.6001 8.30005V9.00005H14.0001V8.30005H12.6001ZM13.3001 8.30005H12.6001V9.70005H13.3001V8.30005ZM13.3001 9.00005V8.30005H11.9001V9.00005H13.3001ZM12.6001 9.00005H13.3001V7.60005H12.6001V9.00005ZM14.0001 8.30005V7.60005H12.6001V8.30005H14.0001ZM13.3001 8.30005H14.0001V6.90005H13.3001V8.30005ZM13.3001 7.60005V8.30005H14.7001V7.60005H13.3001ZM14.0001 9.00005H14.7001V7.60005H14.0001V9.00005ZM14.0001 8.30005V9.00005H15.4001V8.30005H14.0001ZM14.8001 8.30005H14.1001V9.70005H14.8001V8.30005ZM14.8001 9.00005V8.30005H13.4001V9.00005H14.8001ZM14.0001 7.60005H13.3001V9.00005H14.0001V7.60005ZM13.3001 9.70005V10.4H14.7001V9.70005H13.3001ZM14.0001 11.1H14.7001V9.70005H14.0001V11.1ZM15.5001 10.4V9.70005H14.1001V10.4H15.5001ZM14.8001 9.00005H14.1001V10.4H14.8001V9.00005ZM14.8001 9.70005V9.00005H13.4001V9.70005H14.8001ZM14.0001 8.30005H13.3001V9.70005H14.0001V8.30005ZM12.6001 9.00005V9.70005H14.0001V9.00005H12.6001ZM13.3001 9.00005H12.6001V10.4H13.3001V9.00005ZM11.9001 9.70005V10.4H13.3001V9.70005H11.9001ZM12.6001 11.1H13.3001V9.70005H12.6001V11.1ZM14.0001 10.4V9.70005H12.6001V10.4H14.0001ZM13.3001 10.4H14.0001V9.00005H13.3001V10.4ZM12.6001 10.4V11.1H14.0001V10.4H12.6001ZM13.3001 11.8H14.0001V10.4H13.3001V11.8ZM14.8001 11.1V10.4H13.4001V11.1H14.8001ZM14.0001 9.70005H13.3001V11.1H14.0001V9.70005ZM12.6001 11.1V11.8H14.0001V11.1H12.6001ZM13.3001 11.1H12.6001V12.5H13.3001V11.1ZM13.3001 11.8V11.1H11.9001V11.8H13.3001ZM12.6001 11.8H13.3001V10.4H12.6001V11.8ZM9.8001 12.6V13.3H11.2001V12.6H9.8001ZM10.5001 14H11.2001V12.6H10.5001V14ZM11.9001 13.3V12.6H10.5001V13.3H11.9001ZM11.2001 11.8H10.5001V13.2001H11.2001V11.8ZM9.8001 11.1V11.8H11.2001V11.1H9.8001ZM10.5001 11.1H9.1001V12.5H10.5001V11.1ZM9.8001 11.8V11.1H8.4001V11.8H9.8001ZM9.1001 10.4H8.4001V11.8H9.1001V10.4ZM7.6001 11.1V11.8H9.0001V11.1H7.6001ZM8.3001 12.6H9.0001V11.2001H8.3001V12.6ZM8.3001 11.8V12.5H9.7001V11.8H8.3001ZM9.1001 13.3H10.5001V11.9H9.1001V13.3ZM11.2001 12.6V11.9H9.8001V12.6H11.2001ZM10.5001 12.6H11.2001V11.2001H10.5001V12.6ZM11.9001 11.8V11.1H10.5001V11.8H11.9001ZM11.2001 10.4H10.5001V11.8H11.2001V10.4ZM11.9001 11.8V12.5H13.3001V11.8H11.9001ZM12.6001 11.8H11.9001V13.2001H12.6001V11.8ZM12.6001 12.6V11.9H11.2001V12.6H12.6001ZM11.9001 12.6H12.6001V11.2001H11.9001V12.6ZM6.2001 11.1V11.8H7.6001V11.1H6.2001ZM6.9001 12.6H7.6001V11.2001H6.9001V12.6ZM6.9001 11.8V12.5H8.3001V11.8H6.9001ZM7.6001 11.8H6.9001V13.2001H7.6001V11.8ZM7.6001 12.6V11.9H6.2001V12.6H7.6001ZM6.9001 11.1H6.2001V12.5H6.9001V11.1ZM6.9001 11.8V11.1H5.5001V11.8H6.9001ZM6.2001 11.8H6.9001V10.4H6.2001V11.8ZM4.8001 10.4V11.1H6.2001V10.4H4.8001ZM5.5001 11.8H6.2001V10.4H5.5001V11.8ZM6.9001 11.1V10.4H5.5001V11.1H6.9001ZM6.2001 9.70005H5.5001V11.1H6.2001V9.70005ZM5.5001 9.00005V9.70005H6.9001V9.00005H5.5001ZM6.2001 10.4H6.9001V9.00005H6.2001V10.4ZM6.2001 9.70005V10.4H7.6001V9.70005H6.2001ZM6.9001 9.70005H6.2001V11.1H6.9001V9.70005ZM6.9001 10.4V9.70005H5.5001V10.4H6.9001ZM6.2001 9.00005H5.5001V10.4H6.2001V9.00005ZM4.8001 9.70005V10.4H6.2001V9.70005H4.8001ZM5.5001 9.70005H4.8001V11.1H5.5001V9.70005ZM5.5001 10.4V9.70005H4.1001V10.4H5.5001ZM4.8001 10.4H5.5001V9.00005H4.8001V10.4ZM6.2001 9.70005V9.00005H4.8001V9.70005H6.2001ZM5.5001 9.70005H6.2001V8.30005H5.5001V9.70005ZM4.1001 6.80005V7.50005H5.5001V6.80005H4.1001ZM4.8001 8.30005H5.5001V6.90005H4.8001V8.30005ZM6.2001 7.60005V6.90005H4.8001V7.60005H6.2001ZM5.5001 6.10005H4.8001V7.50005H5.5001V6.10005ZM5.5001 7.60005V8.30005H6.9001V7.60005H5.5001ZM6.2001 9.00005H6.9001V7.60005H6.2001V9.00005ZM6.2001 8.30005V9.00005H7.6001V8.30005H6.2001ZM6.9001 8.30005H6.2001V9.70005H6.9001V8.30005ZM6.9001 9.00005V8.30005H5.5001V9.00005H6.9001ZM6.2001 7.60005H5.5001V9.00005H6.2001V7.60005ZM4.8001 8.30005V9.00005H6.2001V8.30005H4.8001ZM5.5001 8.30005H4.8001V9.70005H5.5001V8.30005ZM5.5001 9.00005V8.30005H4.1001V9.00005H5.5001ZM4.8001 9.00005H5.5001V7.60005H4.8001V9.00005ZM6.2001 8.30005V7.60005H4.8001V8.30005H6.2001ZM5.5001 8.30005H6.2001V6.90005H5.5001V8.30005ZM6.9001 6.10005V6.80005H8.3001V6.10005H6.9001ZM7.6001 6.10005H6.9001V7.50005H7.6001V6.10005ZM6.2001 6.80005V7.50005H7.6001V6.80005H6.2001ZM6.9001 6.80005H6.2001V8.20005H6.9001V6.80005ZM6.9001 7.60005V6.90005H5.5001V7.60005H6.9001ZM6.2001 7.60005H6.9001V6.20005H6.2001V7.60005ZM7.6001 6.80005V6.10005H6.2001V6.80005H7.6001ZM6.9001 6.80005H7.6001V5.40005H6.9001V6.80005ZM5.5001 5.40005V6.10005H6.9001V5.40005H5.5001ZM6.2001 6.80005H6.9001V5.40005H6.2001V6.80005ZM7.6001 6.10005V5.40005H6.2001V6.10005H7.6001ZM6.9001 4.70005H6.2001V6.10005H6.9001V4.70005ZM6.2001 4.70005V5.40005H7.6001V4.70005H6.2001ZM6.9001 6.10005H7.6001V4.70005H6.9001V6.10005ZM8.3001 5.40005V4.70005H6.9001V5.40005H8.3001ZM7.6001 4.00005H6.9001V5.40005H7.6001V4.00005ZM8.3001 4.00005V4.70005H9.7001V4.00005H8.3001ZM9.1001 5.40005H10.5001V4.00005H9.1001V5.40005ZM11.2001 4.70005V4.00005H9.8001V4.70005H11.2001ZM10.5001 3.30005H9.1001V4.70005H10.5001V3.30005ZM8.3001 7.60005H7.6001V8.30005H8.3001V7.60005ZM11.2001 7.60005V8.30005H11.9001V7.60005H11.2001ZM11.2001 6.80005V6.10005H10.5001V6.80005H11.2001ZM11.9001 6.80005H12.6001V6.10005H11.9001V6.80005ZM11.9001 7.60005H11.2001V8.30005H11.9001V7.60005ZM11.9001 7.60005H12.6001V6.90005H11.9001V7.60005ZM11.9001 8.30005V9.00005H12.6001V8.30005H11.9001ZM11.9001 8.30005V7.60005H11.2001V8.30005H11.9001ZM11.9001 11.1V11.8H12.6001V11.1H11.9001ZM11.2001 11.1H10.5001V11.8H11.2001V11.1ZM11.2001 8.30005H11.9001V7.60005H11.2001V8.30005ZM8.3001 8.30005V7.60005H7.6001V8.30005H8.3001ZM8.3001 11.1V11.8H9.0001V11.1H8.3001ZM7.6001 11.1H6.9001V11.8H7.6001V11.1ZM8.3001 6.80005H9.0001V6.10005H8.3001V6.80005ZM7.6001 6.80005V6.10005H6.9001V6.80005H7.6001ZM8.3001 13.3H7.6001V14H8.3001V13.3ZM9.1001 13.3H9.8001V12.6H9.1001V13.3ZM9.1001 14H8.4001V14.7001H9.1001V14ZM10.5001 14V14.7001H11.2001V14H10.5001ZM10.5001 13.3H11.2001V12.6H10.5001V13.3ZM9.1001 13.3H8.4001V14H9.1001V13.3ZM8.3001 12.6V11.9H7.6001V12.6H8.3001ZM9.1001 12.6H9.8001V11.9H9.1001V12.6ZM11.2001 6.80005V7.50005H11.9001V6.80005H11.2001ZM10.5001 6.80005H9.8001V7.50005H10.5001V6.80005ZM11.2001 5.40005H11.9001V4.70005H11.2001V5.40005ZM10.5001 5.40005V4.70005H9.8001V5.40005H10.5001ZM8.3001 6.80005H7.6001V7.50005H8.3001V6.80005ZM9.1001 6.80005V7.50005H9.8001V6.80005H9.1001ZM9.1001 6.10005V5.40005H8.4001V6.10005H9.1001ZM10.5001 6.10005V6.80005H11.2001V6.10005H10.5001ZM10.5001 5.40005H11.2001V4.70005H10.5001V5.40005ZM8.3001 5.40005V4.70005H7.6001V5.40005H8.3001ZM12.6001 5.40005V6.10005H13.3001V5.40005H12.6001ZM11.9001 5.40005H11.2001V6.10005H11.9001V5.40005ZM12.6001 4.70005H13.3001V4.00005H12.6001V4.70005ZM11.9001 4.70005V4.00005H11.2001V4.70005H11.9001ZM12.6001 6.10005H11.9001V6.80005H12.6001V6.10005ZM13.3001 6.10005V6.80005H14.0001V6.10005H13.3001ZM12.6001 5.40005V4.70005H11.9001V5.40005H12.6001ZM13.3001 5.40005H14.0001V4.70005H13.3001V5.40005ZM12.6001 6.80005V7.50005H13.3001V6.80005H12.6001ZM11.9001 6.80005H11.2001V7.50005H11.9001V6.80005ZM12.6001 6.10005H13.3001V5.40005H12.6001V6.10005ZM11.9001 6.10005V5.40005H11.2001V6.10005H11.9001ZM12.6001 7.60005H11.9001V8.30005H12.6001V7.60005ZM13.3001 7.60005V8.30005H14.0001V7.60005H13.3001ZM12.6001 6.80005V6.10005H11.9001V6.80005H12.6001ZM13.3001 6.80005H14.0001V6.10005H13.3001V6.80005ZM14.8001 7.60005V8.30005H15.5001V7.60005H14.8001ZM14.0001 7.60005H13.3001V8.30005H14.0001V7.60005ZM14.8001 6.80005H15.5001V6.10005H14.8001V6.80005ZM14.0001 6.80005V6.10005H13.3001V6.80005H14.0001ZM13.3001 9.00005V9.70005H14.0001V9.00005H13.3001ZM12.6001 9.00005H11.9001V9.70005H12.6001V9.00005ZM12.6001 8.30005V7.60005H11.9001V8.30005H12.6001ZM13.3001 8.30005V9.00005H14.0001V8.30005H13.3001ZM13.3001 7.60005V6.90005H12.6001V7.60005H13.3001ZM14.0001 7.60005H14.7001V6.90005H14.0001V7.60005ZM14.0001 8.30005H13.3001V9.00005H14.0001V8.30005ZM14.8001 8.30005H15.5001V7.60005H14.8001V8.30005ZM14.8001 9.00005V9.70005H15.5001V9.00005H14.8001ZM14.0001 9.00005H13.3001V9.70005H14.0001V9.00005ZM13.3001 8.30005V7.60005H12.6001V8.30005H13.3001ZM14.0001 8.30005H14.7001V7.60005H14.0001V8.30005ZM14.0001 10.4H13.3001V11.1H14.0001V10.4ZM14.8001 10.4V11.1H15.5001V10.4H14.8001ZM14.8001 9.70005H15.5001V9.00005H14.8001V9.70005ZM14.0001 9.70005H13.3001V10.4H14.0001V9.70005ZM14.0001 9.00005H14.7001V8.30005H14.0001V9.00005ZM13.3001 9.00005V8.30005H12.6001V9.00005H13.3001ZM13.3001 9.70005V10.4H14.0001V9.70005H13.3001ZM12.6001 9.70005V9.00005H11.9001V9.70005H12.6001ZM12.6001 10.4H11.9001V11.1H12.6001V10.4ZM13.3001 10.4V11.1H14.0001V10.4H13.3001ZM14.0001 9.70005H14.7001V9.00005H14.0001V9.70005ZM13.3001 9.70005V9.00005H12.6001V9.70005H13.3001ZM13.3001 11.1H12.6001V11.8H13.3001V11.1ZM14.0001 11.1V11.8H14.7001V11.1H14.0001ZM13.3001 10.4V9.70005H12.6001V10.4H13.3001ZM14.0001 10.4H14.7001V9.70005H14.0001V10.4ZM13.3001 11.8V12.5H14.0001V11.8H13.3001ZM12.6001 11.8H11.9001V12.5H12.6001V11.8ZM13.3001 11.1H14.0001V10.4H13.3001V11.1ZM12.6001 11.1V10.4H11.9001V11.1H12.6001ZM10.5001 13.3H9.8001V14H10.5001V13.3ZM11.2001 13.3V14H11.9001V13.3H11.2001ZM10.5001 12.6V11.9H9.8001V12.6H10.5001ZM11.2001 12.6H11.9001V11.9H11.2001V12.6ZM10.5001 11.8V12.5H11.2001V11.8H10.5001ZM9.1001 11.8H8.4001V12.5H9.1001V11.8ZM9.1001 11.1H9.8001V10.4H9.1001V11.1ZM8.3001 11.1V10.4H7.6001V11.1H8.3001ZM8.3001 11.8H7.6001V12.5H8.3001V11.8ZM9.1001 11.8H9.8001V11.1H9.1001V11.8ZM9.1001 12.6H8.4001V13.3H9.1001V12.6ZM10.5001 12.6V13.3H11.2001V12.6H10.5001ZM10.5001 11.8V11.1H9.8001V11.8H10.5001ZM11.2001 11.8V12.5H11.9001V11.8H11.2001ZM10.5001 11.1V10.4H9.8001V11.1H10.5001ZM11.2001 11.1H11.9001V10.4H11.2001V11.1ZM12.6001 12.6V13.3H13.3001V12.6H12.6001ZM11.9001 12.6H11.2001V13.3H11.9001V12.6ZM12.6001 11.8H13.3001V11.1H12.6001V11.8ZM11.9001 11.8V11.1H11.2001V11.8H11.9001ZM6.9001 11.8H6.2001V12.5H6.9001V11.8ZM7.6001 11.8H8.3001V11.1H7.6001V11.8ZM7.6001 12.6V13.3H8.3001V12.6H7.6001ZM6.9001 12.6H6.2001V13.3H6.9001V12.6ZM6.9001 11.8H7.6001V11.1H6.9001V11.8ZM6.2001 11.8H5.5001V12.5H6.2001V11.8ZM6.9001 11.1H7.6001V10.4H6.9001V11.1ZM6.2001 11.1V10.4H5.5001V11.1H6.2001ZM5.5001 11.1H4.8001V11.8H5.5001V11.1ZM6.2001 11.1V11.8H6.9001V11.1H6.2001ZM5.5001 10.4V9.70005H4.8001V10.4H5.5001ZM6.2001 10.4H6.9001V9.70005H6.2001V10.4ZM6.2001 9.70005H5.5001V10.4H6.2001V9.70005ZM6.9001 9.70005H7.6001V9.00005H6.9001V9.70005ZM6.9001 10.4V11.1H7.6001V10.4H6.9001ZM6.2001 10.4H5.5001V11.1H6.2001V10.4ZM6.2001 9.70005H6.9001V9.00005H6.2001V9.70005ZM5.5001 9.70005V9.00005H4.8001V9.70005H5.5001ZM5.5001 10.4V11.1H6.2001V10.4H5.5001ZM4.8001 10.4H4.1001V11.1H4.8001V10.4ZM4.8001 9.70005V9.00005H4.1001V9.70005H4.8001ZM5.5001 9.70005V10.4H6.2001V9.70005H5.5001ZM6.2001 9.00005H6.9001V8.30005H6.2001V9.00005ZM5.5001 9.00005V8.30005H4.8001V9.00005H5.5001ZM4.8001 7.60005H4.1001V8.30005H4.8001V7.60005ZM5.5001 7.60005V8.30005H6.2001V7.60005H5.5001ZM4.8001 6.80005V6.10005H4.1001V6.80005H4.8001ZM5.5001 6.80005H6.2001V6.10005H5.5001V6.80005ZM6.2001 8.30005H5.5001V9.00005H6.2001V8.30005ZM6.9001 8.30005H7.6001V7.60005H6.9001V8.30005ZM6.9001 9.00005V9.70005H7.6001V9.00005H6.9001ZM6.2001 9.00005H5.5001V9.70005H6.2001V9.00005ZM6.2001 8.30005H6.9001V7.60005H6.2001V8.30005ZM5.5001 8.30005V7.60005H4.8001V8.30005H5.5001ZM5.5001 9.00005V9.70005H6.2001V9.00005H5.5001ZM4.8001 9.00005H4.1001V9.70005H4.8001V9.00005ZM4.8001 8.30005V7.60005H4.1001V8.30005H4.8001ZM5.5001 8.30005V9.00005H6.2001V8.30005H5.5001ZM6.2001 7.60005H6.9001V6.90005H6.2001V7.60005ZM5.5001 7.60005V6.90005H4.8001V7.60005H5.5001ZM7.6001 6.80005V7.50005H8.3001V6.80005H7.6001ZM6.9001 6.80005V6.10005H6.2001V6.80005H6.9001ZM6.9001 7.60005V8.30005H7.6001V7.60005H6.9001ZM6.2001 7.60005H5.5001V8.30005H6.2001V7.60005ZM6.2001 6.80005V6.10005H5.5001V6.80005H6.2001ZM6.9001 6.80005V7.50005H7.6001V6.80005H6.9001ZM7.6001 6.10005H8.3001V5.40005H7.6001V6.10005ZM6.9001 6.10005V5.40005H6.2001V6.10005H6.9001ZM6.2001 6.10005H5.5001V6.80005H6.2001V6.10005ZM6.9001 6.10005V6.80005H7.6001V6.10005H6.9001ZM6.2001 5.40005V4.70005H5.5001V5.40005H6.2001ZM6.9001 5.40005H7.6001V4.70005H6.9001V5.40005ZM6.9001 5.40005H6.2001V6.10005H6.9001V5.40005ZM7.6001 5.40005V6.10005H8.3001V5.40005H7.6001ZM6.9001 4.70005V4.00005H6.2001V4.70005H6.9001ZM7.6001 4.70005H8.3001V4.00005H7.6001V4.70005ZM9.1001 4.70005H8.4001V5.40005H9.1001V4.70005ZM10.5001 4.70005V5.40005H11.2001V4.70005H10.5001ZM9.1001 4.00005V3.30005H8.4001V4.00005H9.1001ZM10.5001 4.00005H11.2001V3.30005H10.5001V4.00005Z"
        fill="white" />
    <path clip-rule="evenodd"
        d="M8.30005 6.8H7.60004V7.5V8.2V11.1H8.30005V8.2H11.1V11.1H11.8V8.2V7.5V6.8H11.1V7.5H8.30005V6.8ZM8.30005 12.6H9.00005V13.3H10.4V14H9.00005V13.3H8.30005V12.6ZM11.2001 5.4H10.5V6.8H11.2001V5.4ZM8.30005 5.4H9.00005H10.4V6.1H9.00005V6.8H8.30005V5.4ZM12.6 4.7H11.9V5.4H12.6V4.7ZM12.6 5.4H13.3V6.1H12.6V5.4ZM12.6 6.1H11.9V6.8H12.6V6.1ZM12.6 6.8H13.3V7.5H12.6V6.8ZM14.8 6.8H14.1V7.5H14.8V6.8ZM13.3 8.3H14V9H14.7001V8.3H14V7.6H13.3V8.3H12.6V9H13.3V8.3ZM14 9.7H13.3V10.4H12.6V9.7H13.3V9H14V9.7H14.7001V10.4H14V9.7ZM13.3 10.4H14V11.1H13.3V10.4ZM13.3 11.1H12.6V11.8H13.3V11.1ZM10.5 12.6H11.2001V13.3H10.5V12.6ZM10.5 11.1H11.2001V11.8H10.5V12.5H9.10004V11.8H8.40005V11.1H9.10004V11.8H10.5V11.1ZM12.6 11.8H11.9V12.5H12.6V11.8ZM6.90005 11.1H6.20005V11.8H6.90005V12.5H7.60004V11.8H6.90005V11.1ZM5.50005 10.4H6.20005V11.1H5.50005V10.4ZM6.20005 9H5.50005V9.7H4.80005V10.4H5.50005V9.7H6.20005V10.4H6.90005V9.7H6.20005V9ZM4.80005 6.8H5.50005V7.5H4.80005V6.8ZM6.20005 7.6H5.50005V8.3H4.80005V9H5.50005V8.3H6.20005V9H6.90005V8.3H6.20005V7.6ZM7.60004 6.1H6.90005V6.8H6.20005V7.5H6.90005V6.8H7.60004V6.1ZM6.20005 5.4H6.90005V6.1H6.20005V5.4ZM6.90005 4.7H7.60004V5.4H6.90005V4.7ZM9.10004 4H10.5V4.7H9.10004V4Z"
        fill="#333333" fill-rule="evenodd" />
    <path clip-rule="evenodd"
        d="M11.2001 8.30005H8.40015V11.1H9.10014V11.9H10.5001V11.1H11.2001V8.30005Z" fill="#FFDD2D"
        fill-rule="evenodd" />
    <path
        d="M20.8 7.39995H22.7001C23.1001 7.39995 23.3001 7.39995 23.5001 7.49995C23.8001 7.59995 24.0001 7.89995 24.0001 8.29995C24.0001 8.69995 23.8001 8.99995 23.5001 9.09995C23.3001 9.19995 23.1001 9.19995 22.7001 9.19995H20.8V7.39995ZM18.8 5.69995V12.7H20.9V10.7999H23.1C23.6 10.7999 24.1 10.8 24.6 10.6C25.6 10.3 26.3 9.39995 26.3 8.29995C26.3 7.19995 25.6001 6.29995 24.7001 5.89995C24.2001 5.69995 23.7001 5.69995 23.2001 5.69995H18.8Z"
        fill="white" />
    <path
        d="M30.2002 7.29995H30.4002L31.4002 10.1H29.3002L30.2002 7.29995ZM31.9002 11.7L32.3002 12.7H34.7002L31.9002 5.69995H28.8002L26.0002 12.7H28.4002L28.8002 11.7H31.9002Z"
        fill="white" />
    <path
        d="M39.7001 5.69995L38.0001 8.89995L36.2001 5.69995H33.8L36.9001 10.7999V12.7H39.1001V10.7L42.0001 5.69995H39.7001Z"
        fill="white" />
</svg>
