<svg fill="none" height="48" viewBox="0 0 92 48" width="92" xmlns="http://www.w3.org/2000/svg">
    <path
        d="M67.271 0H24C10.7452 0 0 10.7452 0 24C0 37.255 10.7452 48 24 48H67.271C80.526 48 91.271 37.255 91.271 24C91.271 10.7452 80.526 0 67.271 0Z"
        fill="black" />
    <path
        d="M26.467 8.20099C24.471 8.20099 21.992 9.43399 21.0681 10.302L21.4313 11.127C21.4313 11.127 18.618 11.165 17.1679 12.098C15.7179 13.031 15.0567 13.666 14.3426 15.174C13.6275 15.208 10.9464 16.346 9.3936 17.49C9.3936 17.49 8.0885 22.431 10.5604 24.563L9 26.705C9.3936 28.054 11.0931 29.424 12.782 29.588C13.5419 30.509 12.0679 32.338 12.0679 32.338C12.6919 34.319 16.8926 36.496 19.4015 36.496L19.0561 37.662C19.0561 37.662 21.8506 39.697 26.36 39.507C30.172 39.63 33.273 38.72 34.06 37.662L33.661 36.496C37.143 35.977 39.773 34.842 41.236 32.432C41.236 32.432 40.147 30.141 40.527 29.567C42.216 29.403 43.795 27.74 44.215 27.013L42.683 24.602C43.905 23.229 44.589 19.609 43.691 17.49C42.138 16.346 39.483 15.415 38.768 15.381C38.484 13.707 36.663 12.399 36.663 12.399C34.938 10.899 31.801 11.127 31.801 11.127L32.056 10.302C31.256 9.40999 28.731 8.20099 26.467 8.20099Z"
        fill="white" />
    <path
        d="M21.8136 12.886C19.8171 12.378 18.312 13.074 17.0098 14.031C15.7049 14.991 15.19 16.235 15.3045 16.68C14.2374 16.243 11.8946 17.598 10.7793 18.248C10.7793 18.248 9.91631 22.469 12.1225 24.103C12.0078 25.249 11.1989 26.626 10.7793 26.884C11.5066 28.03 13.0476 28.344 13.7003 28.053C14.7911 29.563 14.264 31.61 13.658 32.263C15.3534 33.793 19.3987 34.435 20.5836 34.531C20.5836 34.531 19.5406 32.087 19.0749 30.072C17.7879 24.505 18.4806 17.559 18.4806 17.559C18.4806 17.559 15.4742 21.059 17.15 29.496C17.433 30.921 17.8329 32.427 17.8329 32.427C17.554 32.288 16.8736 32.372 15.6224 31.739C16.1584 31.162 15.9279 27.738 14.3488 26.059C14.3488 26.059 13.5974 26.405 13.0459 26.176C13.417 25.948 13.8803 24.493 13.8803 23.38C12.0948 22.312 12.2842 20.383 12.3725 19.369C13.2487 18.8 14.8201 17.833 16.7972 18.677C16.7452 18.198 16.8805 16.923 17.423 16.031C17.423 16.031 18.0834 14.882 19.5749 14.521C21.0665 14.161 21.8136 12.886 21.8136 12.886Z"
        fill="#333333" />
    <path
        d="M31.4009 12.886C33.3979 12.378 34.9029 13.074 36.2049 14.031C37.5099 14.991 38.0249 16.235 37.9099 16.68C38.9769 16.243 41.3199 17.598 42.4359 18.248C42.4359 18.248 43.2989 22.469 41.0919 24.103C41.2069 25.249 42.0159 26.626 42.4359 26.884C41.7079 28.03 40.1669 28.344 39.5149 28.053C38.4239 29.563 38.9509 31.61 39.5569 32.263C37.8609 33.793 33.8159 34.435 32.6309 34.531C32.6309 34.531 33.6739 32.087 34.1399 30.073C35.4269 24.505 34.7339 17.559 34.7339 17.559C34.7339 17.559 37.7409 21.059 36.0649 29.496C35.7819 30.921 35.3819 32.427 35.3819 32.427C35.6609 32.288 36.3409 32.372 37.5919 31.739C37.0569 31.162 37.2869 27.738 38.8659 26.059C38.8659 26.059 39.6169 26.405 40.1689 26.176C39.7979 25.948 39.3349 24.493 39.3349 23.38C41.1199 22.312 40.9309 20.383 40.8419 19.369C39.9659 18.8 38.3949 17.833 36.4179 18.677C36.4699 18.198 36.3339 16.923 35.7919 16.031C35.7919 16.031 35.1319 14.882 33.6399 14.521C32.1479 14.161 31.4009 12.886 31.4009 12.886Z"
        fill="#333333" />
    <path clip-rule="evenodd"
        d="M26.77 16.139C25.333 16.134 23.435 16.516 23.435 16.516L22.864 10.838L26.702 9.67902L30.351 10.838L30.038 16.516C30.038 16.516 28.184 16.144 26.77 16.139ZM26.77 14.52C25.973 14.499 24.947 14.643 24.947 14.643L24.713 11.953L26.702 11.414L28.676 11.953V14.643C28.676 14.643 27.584 14.542 26.77 14.52Z"
        fill="#333333" fill-rule="evenodd" />
    <path clip-rule="evenodd"
        d="M26.588 37.715C29.909 37.676 32.036 36.686 32.036 36.686L30.737 32.606C30.737 32.606 27.95 33.414 26.607 33.415C25.265 33.414 22.522 32.606 22.522 32.606L21.179 36.686C21.179 36.686 23.266 37.676 26.588 37.715ZM26.607 36.353C28.499 36.346 29.667 35.957 30.302 35.7L29.954 34.302C29.171 34.559 27.813 34.843 26.607 34.853C25.402 34.843 24.035 34.631 23.252 34.374L22.95 35.7C23.584 35.957 24.716 36.346 26.607 36.353Z"
        fill="#333333" fill-rule="evenodd" />
    <path clip-rule="evenodd"
        d="M33.332 18.305H19.8833C19.9876 18.45 20.4114 19.155 20.563 19.563C20.7151 19.971 20.8271 20.383 20.8322 20.637C20.8362 20.838 20.8607 21.462 20.8927 22.278L20.893 22.286C20.9565 23.904 21.0498 26.283 21.076 27.688C21.0876 28.307 21.2253 29.129 21.7225 29.801C22.229 30.485 23.084 30.982 24.458 30.982H25.425C25.521 30.982 25.586 31.007 25.639 31.042C25.694 31.08 25.745 31.139 25.797 31.223C25.849 31.308 25.903 31.427 25.953 31.54C25.999 31.643 26.051 31.758 26.111 31.862C26.132 31.89 26.215 32.001 26.293 32.05C26.375 32.103 26.479 32.135 26.608 32.135C26.738 32.135 26.844 32.102 26.927 32.051C27.006 32.002 27.084 31.889 27.106 31.862C27.169 31.754 27.232 31.636 27.278 31.53C27.327 31.417 27.376 31.306 27.426 31.221C27.476 31.137 27.526 31.079 27.58 31.042C27.63 31.007 27.694 30.982 27.79 30.982H28.757C30.131 30.982 30.986 30.485 31.493 29.801C31.99 29.129 32.127 28.308 32.139 27.688C32.165 26.283 32.259 23.904 32.322 22.286V22.279C32.354 21.463 32.379 20.838 32.383 20.637C32.388 20.383 32.5 19.971 32.652 19.563C32.804 19.155 33.228 18.45 33.332 18.305ZM22.443 20.209C22.427 20.122 22.41 20.038 22.392 19.962H30.861C30.838 20.046 30.821 20.131 30.809 20.21C30.779 20.407 30.773 20.723 30.773 20.723C30.707 22.378 30.575 25.825 30.575 27.539C30.575 28.247 30.347 28.704 30.045 28.983C29.74 29.265 29.337 29.384 28.954 29.372C28.903 29.371 28.801 29.369 28.692 29.367C28.546 29.365 28.388 29.362 28.324 29.359C27.939 29.341 27.565 29.359 27.239 29.448C27.003 29.513 26.786 29.618 26.611 29.779C26.2 29.374 25.538 29.195 24.86 29.226C24.796 29.229 24.622 29.232 24.461 29.234C24.336 29.236 24.219 29.238 24.166 29.239C23.446 29.262 22.717 28.666 22.717 27.539C22.717 25.667 22.595 22.523 22.533 20.91C22.533 20.91 22.488 20.45 22.443 20.209Z"
        fill="#333333" fill-rule="evenodd" />
    <path
        d="M22.373 19.962C22.391 20.038 22.408 20.122 22.424 20.209C22.469 20.45 22.514 20.91 22.514 20.91C22.576 22.523 22.698 25.667 22.698 27.539C22.698 28.666 23.427 29.262 24.147 29.239C24.2 29.238 24.317 29.236 24.442 29.234C24.603 29.232 24.778 29.229 24.841 29.226C25.519 29.195 26.181 29.374 26.592 29.779C26.767 29.618 26.984 29.513 27.22 29.448C27.546 29.359 27.92 29.342 28.306 29.359C28.369 29.362 28.527 29.365 28.673 29.367C28.782 29.369 28.884 29.371 28.935 29.372C29.318 29.384 29.721 29.265 30.026 28.983C30.328 28.704 30.556 28.247 30.556 27.539C30.556 25.825 30.688 22.378 30.754 20.723C30.754 20.723 30.76 20.407 30.79 20.21C30.802 20.131 30.819 20.046 30.843 19.962H22.373Z"
        fill="#FFDD2D" />
    <path d="M56.952 31.857V16.143H52V31.857H56.952Z" fill="white" />
    <path
        d="M68.8959 31.857C75.1679 31.857 78.2719 28.523 78.2719 24C78.2719 19.411 75.1679 16.143 69.4239 16.143H60.5759V31.857H68.8959ZM68.3999 19.906C71.8009 19.906 73.2199 21.425 73.2199 24C73.2199 26.377 71.8009 28.193 68.3999 28.193H65.3629V19.906H68.3999Z"
        fill="white" />
</svg>
