<svg fill="none" height="33" viewBox="0 0 88 33" width="88" xmlns="http://www.w3.org/2000/svg">
    <path
        d="M70.5903 0H16.6043C7.434 0 0 7.38572 0 16.4965C0 25.6072 7.434 32.9931 16.6043 32.9931H70.5903C79.7606 32.9931 87.1946 25.6073 87.1946 16.4966C87.1946 7.38589 79.7606 0 70.5903 0Z"
        fill="#333333" />
    <path
        d="M19.8242 4.85742C21.3267 4.86218 23.3393 5.64532 24.0335 6.29313L23.7599 6.91102C23.7599 6.91102 25.88 6.93913 26.9729 7.63797C28.0657 8.33682 28.564 8.81209 29.1021 9.94084C29.641 9.96633 31.6618 10.8184 32.8319 11.6751C32.8319 11.6751 33.8155 15.3744 31.9527 16.9708L33.1286 18.5748C32.8319 19.5848 31.5511 20.6109 30.2784 20.7333C29.7056 21.423 30.8165 22.7927 30.8165 22.7927C30.3462 24.2758 27.0871 25.6031 25.1964 25.6031L25.5499 26.7048C25.5499 26.7048 23.153 28.1338 19.8235 28.1362C16.4942 28.1338 14.0973 26.7048 14.0973 26.7048L14.4508 25.6031C12.56 25.6031 9.30094 24.2758 8.83064 22.7927C8.83064 22.7927 9.94153 21.423 9.36881 20.7333C8.09597 20.6109 6.81521 19.5848 6.51855 18.5748L7.69451 16.9708C5.8316 15.3744 6.81521 11.6751 6.81521 11.6751C7.98542 10.8184 10.0061 9.96633 10.545 9.94084C11.0831 8.81209 11.5814 8.33682 12.6743 7.63797C13.7671 6.93913 15.8873 6.91102 15.8873 6.91102L15.6136 6.29313C16.3079 5.64532 18.3218 4.86218 19.8242 4.85742Z"
        fill="white" />
    <path
        d="M23.4717 8.22779C24.9763 7.84707 26.1107 8.36813 27.0921 9.08506C28.0755 9.80348 28.4636 10.7347 28.3774 11.0681C29.1814 10.741 30.9471 11.7554 31.7877 12.2421C31.7877 12.2421 32.4381 15.4029 30.7754 16.6258C30.8617 17.4845 31.4714 18.5152 31.7877 18.7082C31.2395 19.5668 30.0782 19.8019 29.5864 19.5838C28.7642 20.7147 29.1614 22.2471 29.6182 22.7358C28.3404 23.8819 25.2917 24.3626 24.3988 24.4345C24.3988 24.4345 25.1847 22.6041 25.5358 21.0958C26.5057 16.9276 25.9836 11.7264 25.9836 11.7264C25.9836 11.7264 28.2494 14.3469 26.9865 20.6643C26.7731 21.731 26.4718 22.8585 26.4718 22.8585C26.6819 22.755 27.1947 22.8178 28.1376 22.3438C27.7338 21.9117 27.9075 19.3482 29.0975 18.0905C29.0975 18.0905 29.6638 18.3501 30.0795 18.1781C29.7999 18.0075 29.4506 16.9182 29.4506 16.0846C30.7962 15.2855 30.6535 13.841 30.587 13.0813C29.9266 12.6554 28.7424 11.9313 27.2523 12.5634C27.2915 12.2049 27.1895 11.2506 26.7806 10.5822C26.7806 10.5822 26.283 9.72195 25.1588 9.45205C24.0349 9.18217 23.4717 8.22779 23.4717 8.22779Z"
        fill="#333333" />
    <path clip-rule="evenodd"
        d="M16.7543 22.9941C16.7543 22.9941 18.46 23.4816 19.8351 23.4826C21.21 23.4816 22.9164 22.9941 22.9164 22.9941L23.9284 26.0491C23.9284 26.0491 22.3385 26.79 19.8349 26.819C17.3313 26.79 15.7422 26.0491 15.7422 26.0491L16.7543 22.9941ZM17.1206 25.3291C17.5986 25.5216 18.4103 25.7941 19.8357 25.7998C21.2612 25.7941 22.0721 25.5216 22.55 25.3291L22.183 24.222C21.5193 24.4149 20.7437 24.5828 19.8349 24.5902C18.9261 24.5828 18.1513 24.4149 17.4876 24.222L17.1206 25.3291Z"
        fill="#333333" fill-rule="evenodd" />
    <path
        d="M16.1756 8.22779C14.6709 7.84707 13.5366 8.36813 12.5552 9.08506C11.5718 9.80348 11.1837 10.7347 11.27 11.0681C10.4658 10.741 8.70017 11.7554 7.85969 12.2421C7.85969 12.2421 7.20929 15.4029 8.87195 16.6258C8.78552 17.4845 8.17589 18.5152 7.85969 18.7082C8.40778 19.5668 9.56914 19.8019 10.061 19.5838C10.8831 20.7147 10.4859 22.2471 10.0292 22.7358C11.3069 23.8819 14.3556 24.3626 15.2486 24.4345C15.2486 24.4345 14.4625 22.6041 14.1116 21.0958C13.1416 16.9276 13.6637 11.7264 13.6637 11.7264C13.6637 11.7264 11.3979 14.3469 12.6609 20.6643C12.8742 21.731 13.1755 22.8585 13.1755 22.8585C12.9654 22.755 12.4526 22.8178 11.5096 22.3438C11.9135 21.9117 11.7398 19.3482 10.5498 18.0905C10.5498 18.0905 9.98354 18.3501 9.56787 18.1781C9.84753 18.0075 10.1967 16.9182 10.1967 16.0846C8.85106 15.2855 8.99382 13.841 9.06037 13.0813C9.7207 12.6554 10.9049 11.9313 12.395 12.5634C12.3558 12.2049 12.4578 11.2506 12.8666 10.5822C12.8666 10.5822 13.3643 9.72195 14.4884 9.45205C15.6125 9.18217 16.1756 8.22779 16.1756 8.22779Z"
        fill="#333333" />
    <path clip-rule="evenodd"
        d="M14.7549 12.2852H24.8922C24.8136 12.3939 24.4942 12.9223 24.38 13.2272C24.2652 13.533 24.181 13.8415 24.1771 14.0316C24.174 14.1822 24.1556 14.6494 24.1314 15.2602L24.1313 15.2664C24.0834 16.4779 24.0131 18.2588 23.9933 19.3109C23.9846 19.7749 23.8808 20.3901 23.506 20.8933C23.1245 21.4054 22.4801 21.7773 21.4442 21.7773H20.7156C20.6435 21.7773 20.594 21.7958 20.5547 21.8225C20.513 21.8512 20.4742 21.8952 20.4354 21.958C20.3963 22.0218 20.3554 22.1107 20.3175 22.1952C20.2829 22.2723 20.2443 22.3583 20.1987 22.4365C20.1832 22.457 20.1204 22.5402 20.0619 22.5775C19.9995 22.6171 19.9202 22.6405 19.8235 22.6405C19.7269 22.6405 19.6477 22.6171 19.5851 22.5775C19.5266 22.5402 19.4639 22.457 19.4484 22.4365C19.4027 22.3583 19.3641 22.2723 19.3296 22.1952C19.2916 22.1107 19.2509 22.0218 19.2116 21.958C19.1728 21.8952 19.134 21.8512 19.0923 21.8225C19.053 21.7958 19.0035 21.7773 18.9316 21.7773H18.2029C17.1669 21.7773 16.5225 21.4054 16.141 20.8933C15.7663 20.3901 15.6625 19.7749 15.6538 19.3109C15.634 18.2588 15.5637 16.4779 15.5159 15.2664L15.5156 15.2604C15.4915 14.6495 15.473 14.1822 15.47 14.0316C15.4661 13.8415 15.3818 13.533 15.2671 13.2272C15.1529 12.9223 14.8334 12.3939 14.7549 12.2852ZM19.8235 20.8757C20.1331 20.5729 20.6315 20.4395 21.1417 20.4627C21.1895 20.4649 21.3207 20.4667 21.4424 20.4685C21.5364 20.47 21.6247 20.4713 21.6647 20.4726C22.2075 20.4896 22.7569 20.043 22.7569 19.1997C22.7569 17.7976 22.8484 15.4437 22.8955 14.2358C22.8955 14.2358 22.9294 13.8916 22.9632 13.711C22.9752 13.6463 22.9883 13.5832 23.0019 13.5261H16.6451C16.6588 13.5832 16.6718 13.6463 16.6839 13.711C16.7176 13.8916 16.7515 14.2358 16.7515 14.2358C16.7986 15.4437 16.8902 17.7976 16.8902 19.1997C16.8902 20.043 17.4397 20.4896 17.9825 20.4726C18.0225 20.4713 18.1106 20.47 18.2046 20.4685C18.3264 20.4667 18.4577 20.4649 18.5053 20.4627C19.0155 20.4395 19.5139 20.5729 19.8235 20.8757Z"
        fill="#333333" fill-rule="evenodd" />
    <path
        d="M16.6445 13.5273H23.0033C22.9898 13.5845 22.9768 13.6476 22.9646 13.7122C22.931 13.8928 22.8971 14.2371 22.8971 14.2371C22.85 15.445 22.7582 17.7988 22.7582 19.201C22.7582 20.0444 22.2089 20.4908 21.6661 20.4738C21.6261 20.4725 21.5378 20.4712 21.444 20.4699C21.3222 20.4681 21.1909 20.4661 21.1433 20.464C20.6391 20.4411 20.1332 20.5816 19.823 20.8767C19.8189 20.8803 19.8269 20.8732 19.823 20.8767C19.8189 20.8732 19.8269 20.8803 19.823 20.8767C19.5125 20.5816 19.0088 20.4411 18.5046 20.464C18.457 20.4661 18.3258 20.4681 18.2039 20.4699C18.1101 20.4712 18.0217 20.4725 17.9818 20.4738C17.439 20.4908 16.8896 20.0444 16.8896 19.201C16.8896 17.7988 16.7979 15.445 16.7508 14.2371C16.7508 14.2371 16.7169 13.8928 16.6833 13.7122C16.6711 13.6476 16.6581 13.5845 16.6445 13.5273Z"
        fill="#FFDD2D" />
    <path clip-rule="evenodd"
        d="M19.8237 5.83203L22.715 6.70021L22.2851 10.9514C22.2851 10.9514 20.9003 10.6741 19.8237 10.6688C18.7474 10.6741 17.3624 10.9514 17.3624 10.9514L16.9326 6.70021L19.8237 5.83203ZM19.8237 7.13116L18.3258 7.53474L18.5026 9.54889C18.5026 9.54889 19.2315 9.4474 19.8237 9.45588C20.416 9.4474 21.145 9.54889 21.145 9.54889L21.3217 7.53474L19.8237 7.13116Z"
        fill="#333333" fill-rule="evenodd" />
    <path
        d="M45.302 10.7168H38.0176V22.2767H41.562V19.1682H45.302C46.182 19.1682 47.0376 19.1439 47.8687 18.8767C49.482 18.3667 50.6798 16.9339 50.6798 14.9911C50.6798 13.0482 49.5065 11.6397 47.9176 11.0811C47.0376 10.7654 46.2065 10.7168 45.302 10.7168ZM41.562 16.4482V13.5097H44.7887C45.4731 13.5097 45.8642 13.5825 46.182 13.7039C46.7442 13.9225 47.0131 14.4325 47.0131 14.9668C47.0131 15.5497 46.6954 16.1082 46.0842 16.3024C45.7909 16.3996 45.4487 16.4482 44.7887 16.4482H41.562Z"
        fill="white" />
    <path
        d="M55.7608 18.051L57.4475 13.3882H57.7164L59.403 18.051H55.7608ZM54.8808 20.601H60.2586L60.943 22.2767H64.9275L60.1608 10.7168H54.9786L50.2119 22.2767H54.2208L54.8808 20.601Z"
        fill="white" />
    <path
        d="M73.5545 10.7168L70.67 15.9868H70.5478L67.6389 10.7168H63.5078L68.7634 19.2167V22.2767H72.43V18.9253L77.4167 10.7168H73.5545Z"
        fill="white" />
</svg>
