<svg fill="none" height="32" viewBox="0 0 230 32" width="230" xmlns="http://www.w3.org/2000/svg">
    <path d="M33.4631 23.3551V13.7264H38.9556V10.2446H23.9584V13.7264H29.4509V23.3551H33.4631Z"
        fill="white" />
    <path d="M44.5768 10.2446H40.5646V23.3551H44.5768V10.2446Z" fill="white" />
    <path
        d="M47.4945 10.2446V23.3551H51.1848V16.1121L58.029 23.3551H61.4404V10.2446H57.7716V17.4231L51.0775 10.2446H47.4945Z"
        fill="white" />
    <path
        d="M69.3146 18.3903L73.9275 23.3551H79.0767L72.6616 16.5205L78.8407 10.2446H73.9918L69.3146 15.1664H68.2418V10.2446H64.3799V23.3551H68.2418V18.3903H69.3146Z"
        fill="white" />
    <path
        d="M87.0582 20.5617C84.4621 20.5617 82.8101 18.9712 82.8101 16.822C82.8101 14.6727 84.4621 13.1038 87.0582 13.1038C89.6114 13.1038 91.3063 14.6727 91.3063 16.822C91.3063 18.9712 89.6114 20.5617 87.0582 20.5617ZM87.0582 9.87988C81.8446 9.87988 78.7336 12.9103 78.7336 16.822C78.7336 20.7336 81.866 23.7641 87.0582 23.7641C92.2289 23.7641 95.3614 20.7336 95.3614 16.822C95.3614 12.9103 92.2289 9.87988 87.0582 9.87988Z"
        fill="white" />
    <path
        d="M110.015 10.2446H97.1848V23.3551H101.047V18.7772H109.457V15.8757H101.047V13.576H110.015V10.2446Z"
        fill="white" />
    <path
        d="M124.583 10.2446H111.753V23.3551H115.637V18.7772H124.026V15.8757H115.637V13.576H124.583V10.2446Z"
        fill="white" />
    <path
        d="M207.379 16.8001C207.379 18.7129 206.628 20.5398 205.298 21.8938C203.967 23.2479 202.165 24.0001 200.299 24.0001H136.662C134.796 24.0001 132.994 23.2479 131.663 21.8938C130.333 20.5398 129.582 18.7129 129.582 16.8001C129.582 14.8873 130.333 13.0604 131.663 11.7064C132.994 10.3523 134.796 9.6001 136.662 9.6001H200.299C202.165 9.6001 203.967 10.3523 205.298 11.7064C206.628 13.0604 207.379 14.8873 207.379 16.8001Z"
        fill="white" />
    <path clip-rule="evenodd"
        d="M198.775 16.499C198.84 16.37 198.883 16.2411 198.926 16.1121L199.054 15.7253H199.119C199.097 16.0262 199.076 16.456 199.054 17.0363C199.033 17.5951 199.033 18.2614 199.033 18.9921V20.69H201.393V12.6948H198.454L196.33 17.2298H196.222L194.098 12.6948H191.073V20.7115H193.412V18.9062C193.412 18.1969 193.39 17.5736 193.39 17.0148C193.39 16.456 193.347 16.0477 193.326 15.7253H193.39C193.433 15.8542 193.476 15.9617 193.519 16.0906C193.519 16.1121 193.519 16.1121 193.54 16.1336C193.583 16.2626 193.626 16.3915 193.691 16.5205C193.733 16.628 193.798 16.7569 193.862 16.8859L193.884 16.9503V16.9718C193.948 17.1223 194.034 17.3157 194.141 17.5092L195.021 19.422H197.445L198.303 17.5521C198.411 17.3157 198.518 17.1223 198.582 16.9503C198.647 16.7784 198.711 16.628 198.775 16.499ZM189.485 17.7241C189.485 18.7772 189.099 19.5724 188.348 20.0883C187.597 20.6041 186.503 20.862 185.066 20.862C183.65 20.862 182.555 20.6041 181.804 20.0883C181.053 19.5724 180.689 18.7772 180.689 17.7241V12.6948H183.306V17.7456C183.306 17.9175 183.349 18.1109 183.414 18.2614C183.499 18.4333 183.607 18.5623 183.735 18.6912C184.036 18.9277 184.486 19.0781 185.087 19.0781C185.58 19.1211 186.052 18.9706 186.439 18.6912C186.589 18.5838 186.696 18.4333 186.782 18.2614C186.868 18.0895 186.911 17.9175 186.889 17.7456V12.6948H189.464L189.485 17.7241ZM176.569 12.6948V20.7115H179.08V12.6948H176.569ZM172.257 16.1121C172.214 16.2411 172.171 16.37 172.107 16.499C172.042 16.628 171.978 16.7784 171.913 16.9503C171.849 17.1223 171.742 17.3157 171.635 17.5521L170.776 19.422H168.352L167.472 17.5092C167.365 17.2942 167.279 17.1223 167.215 16.9503C167.15 16.7999 167.086 16.6495 167.022 16.5205L167 16.4775C166.957 16.37 166.914 16.2626 166.872 16.1336C166.85 16.0906 166.829 16.0262 166.829 15.9832C166.807 15.8972 166.764 15.8112 166.743 15.7253H166.678C166.7 16.0262 166.721 16.456 166.743 17.0148C166.764 17.5736 166.764 18.1969 166.764 18.9062V20.7115H164.426V12.6948H167.451L169.575 17.2298H169.682L171.806 12.6948H174.746V20.7115H172.386V19.0136C172.386 18.2829 172.407 17.6166 172.428 17.0578C172.45 16.499 172.471 16.0477 172.493 15.7468H172.428C172.386 15.8542 172.364 15.9617 172.321 16.0477C172.278 16.0692 172.278 16.0906 172.257 16.1121ZM157.131 15.8542V14.5217H162.838V12.6948H154.706V20.69H162.838V18.8632H157.131V17.4662H162.473V15.8757H157.131V15.8542ZM149.128 16.6709C149.3 16.6709 149.471 16.6709 149.643 16.6495C149.75 16.628 149.879 16.6065 149.986 16.5635C150.179 16.499 150.351 16.3915 150.48 16.2196C150.587 16.0477 150.651 15.8542 150.63 15.6393C150.651 15.4459 150.608 15.2524 150.501 15.102C150.394 14.9515 150.244 14.8226 150.072 14.7581C149.965 14.7151 149.836 14.6721 149.707 14.6506C149.514 14.6292 149.343 14.6077 149.15 14.6077H146.897V16.6709H149.128ZM149.493 12.6948C149.815 12.6948 150.115 12.7163 150.394 12.7378C150.694 12.7593 150.995 12.8453 151.274 12.9527C151.81 13.1247 152.282 13.4686 152.604 13.9199C152.969 14.4142 153.14 15.016 153.119 15.6178C153.14 16.1551 152.969 16.6924 152.647 17.1223C152.346 17.5306 151.939 17.8745 151.488 18.0895L153.333 20.69H150.587L149.042 18.5408H146.897V20.69H144.472V12.6948H149.493ZM139.387 16.6709C139.559 16.6709 139.752 16.6709 139.924 16.6495C140.052 16.628 140.16 16.6065 140.267 16.5635C140.46 16.499 140.653 16.37 140.761 16.1981C140.868 16.0262 140.932 15.8327 140.911 15.6393C140.911 15.4459 140.868 15.2739 140.761 15.1235C140.653 14.9515 140.503 14.8441 140.331 14.7581C140.203 14.7151 140.074 14.6721 139.945 14.6506C139.752 14.6292 139.559 14.6077 139.366 14.6077H137.156V16.6709H139.387ZM139.752 12.6948C140.074 12.6948 140.374 12.7163 140.653 12.7378C140.954 12.7593 141.254 12.8453 141.533 12.9527C142.069 13.1462 142.541 13.49 142.885 13.9414C143.249 14.4357 143.442 15.0375 143.421 15.6393C143.442 16.2626 143.249 16.8644 142.863 17.3587C142.52 17.81 142.026 18.1539 141.469 18.3259C141.19 18.4118 140.889 18.4763 140.589 18.4978C140.288 18.5193 140.01 18.5408 139.709 18.5408H137.135V20.69H134.71V12.6948H139.752Z"
        fill="#333333" fill-rule="evenodd" />
</svg>
