<svg width="138" height="36" viewBox="0 0 138 36" fill="none" xmlns="http://www.w3.org/2000/svg">
<path d="M119.119 12.1074V13.1733C123.11 13.2622 125.488 14.9721 125.488 17.9922C125.488 21.0123 123.11 22.589 119.119 22.6778V23.7437H115.957V22.6778C111.987 22.589 109.609 21.0123 109.609 17.9922C109.609 14.9721 111.987 13.2622 115.957 13.1733V12.1074H119.119ZM115.957 20.4127V15.4606C113.775 15.5494 112.816 16.5709 112.816 17.9922C112.816 19.4134 113.775 20.3239 115.957 20.4127ZM119.119 15.4606V20.4127C121.322 20.3239 122.26 19.4134 122.26 17.9922C122.26 16.5709 121.322 15.5494 119.119 15.4606Z" fill="#333333"/>
<path d="M102.228 12.1074V13.1733C106.219 13.2622 108.597 14.9721 108.597 17.9922C108.597 21.0123 106.219 22.589 102.228 22.6778V23.7437H99.0655V22.6778C95.096 22.589 92.7188 21.0123 92.7188 17.9922C92.7188 14.9721 95.096 13.2622 99.0655 13.1733V12.1074H102.228ZM99.0655 20.4127V15.4606C96.8847 15.5494 95.9249 16.5709 95.9249 17.9922C95.9249 19.4134 96.8847 20.3239 99.0655 20.4127ZM102.228 15.4606V20.4127C104.431 20.3239 105.369 19.4134 105.369 17.9922C105.369 16.5709 104.431 15.5494 102.228 15.4606Z" fill="#333333"/>
<path d="M84.9103 12.418C89.1418 12.418 91.6938 14.8607 91.6938 18.014C91.6938 21.1674 89.1418 23.6101 84.9103 23.6101C80.6575 23.6101 78.1055 21.1674 78.1055 18.014C78.1055 14.8607 80.6575 12.418 84.9103 12.418ZM84.9103 21.0341C87.0042 21.0341 88.3785 19.7461 88.3785 18.014C88.3785 16.2819 87.0042 15.0161 84.9103 15.0161C82.7951 15.0161 81.4426 16.2819 81.4426 18.014C81.4426 19.7461 82.7951 21.0341 84.9103 21.0341Z" fill="#333333"/>
<path d="M70.4217 19.2802H69.5492V23.2774H66.3867V12.707H69.5492V16.682H70.4217L74.2388 12.707H78.2082L73.1484 17.7702L78.4048 23.2774H74.1951L70.4217 19.2802Z" fill="#333333"/>
<path d="M60.0612 23.2774H53.6484V12.707H56.8114V15.5495H60.0612C60.8464 15.5495 61.6752 15.5717 62.373 15.8382C63.8341 16.3933 64.7503 17.6147 64.7503 19.369C64.7503 21.2122 63.6818 22.5668 62.0459 23.0331C61.435 23.2108 60.7809 23.2774 60.0612 23.2774ZM59.5158 18.0366H56.8114V20.7236H59.5158C60.0612 20.7236 60.4101 20.7236 60.759 20.5682C61.2608 20.3461 61.566 19.8798 61.566 19.3246C61.566 18.7917 61.2608 18.3475 60.7372 18.1699C60.3664 18.0366 59.952 18.0366 59.5158 18.0366Z" fill="#333333"/>
<path d="M48.0921 19.3468H43.0102V23.2774H39.8477V12.707H43.0102V16.571H48.0921V12.707H51.2546V23.2774H48.0921V19.3468Z" fill="#333333"/>
<path d="M29.2094 18.8583L34.6621 12.707H37.4538V23.2774H34.2913V17.1261L28.8386 23.2774H26.0469V12.707H29.2094V18.8583Z" fill="#333333"/>
<path d="M20.2451 23.2774H16.9735V15.5273H12.4805V12.707H24.738V15.5273H20.2451V23.2774Z" fill="#333333"/>
</svg>
