<svg fill="none" height="40" viewBox="0 0 40 40" width="40" xmlns="http://www.w3.org/2000/svg">
    <circle cx="20" cy="20" fill="#F9DE56" r="20" />
    <path
        d="M19.9037 9C18.5437 9 16.8541 9.83991 16.2247 10.4314L16.4722 10.9934C16.4722 10.9934 14.5549 11.0188 13.5667 11.6549C12.5784 12.2903 12.1278 12.7226 11.6411 13.7498C11.1538 13.7732 9.32648 14.5479 8.2683 15.3274C8.2683 15.3274 7.37881 18.6932 9.06346 20.1452L8 21.6047C8.2683 22.5235 9.42651 23.4567 10.5775 23.5679C11.0954 24.1958 10.0909 25.4419 10.0909 25.4419C10.5161 26.791 13.379 28.2738 15.0889 28.2738L14.8535 29.0677C14.8535 29.0677 16.7579 30.4539 19.8316 30.3249C22.4295 30.4093 24.5427 29.7889 25.0789 29.0677L24.807 28.2738C27.1804 27.9204 28.9723 27.1471 29.9699 25.5057C29.9699 25.5057 29.227 23.9453 29.4866 23.5535C30.6372 23.4423 31.7137 22.3094 32 21.8147L30.9558 20.1719C31.7885 19.2373 32.2547 16.7705 31.6423 15.3274C30.5843 14.5479 28.7746 13.9145 28.2878 13.8912C28.0942 12.7507 26.8529 11.8594 26.8529 11.8594C25.6776 10.8376 23.539 10.9934 23.539 10.9934L23.7127 10.4314C23.1682 9.82413 21.4471 9 19.9037 9Z"
        fill="white" />
    <path
        d="M16.7326 12.1915C15.3718 11.845 14.346 12.3192 13.4586 12.9717C12.5693 13.625 12.2183 14.4724 12.2964 14.7757C11.5691 14.4779 9.9724 15.4008 9.21239 15.8434C9.21239 15.8434 8.62422 18.7193 10.1278 19.8316C10.0496 20.6132 9.49833 21.5505 9.21239 21.7262C9.70801 22.5071 10.7583 22.7212 11.203 22.5229C11.9465 23.5515 11.5873 24.9458 11.1743 25.3905C12.3297 26.4328 15.0867 26.8706 15.8942 26.9358C15.8942 26.9358 15.1834 25.2704 14.866 23.8987C13.9888 20.1061 14.461 15.3748 14.461 15.3748C14.461 15.3748 12.412 17.7586 13.5541 23.5055C13.747 24.4764 14.0195 25.5016 14.0195 25.5016C13.8295 25.4076 13.3657 25.4646 12.513 25.0336C12.8783 24.6405 12.7212 22.3088 11.645 21.1642C11.645 21.1642 11.133 21.4002 10.7571 21.2438C11.01 21.0887 11.3258 20.0978 11.3258 19.3396C10.1089 18.6122 10.238 17.2982 10.2982 16.6072C10.8953 16.2195 11.9662 15.5607 13.3137 16.1358C13.2783 15.8098 13.3705 14.9418 13.7402 14.3338C13.7402 14.3338 14.1903 13.5509 15.2068 13.3052C16.2233 13.0596 16.7326 12.1915 16.7326 12.1915Z"
        fill="#333333" />
    <path
        d="M23.2665 12.1915C24.6272 11.845 25.6529 12.3192 26.5406 12.9717C27.4297 13.625 27.7812 14.4724 27.703 14.7757C28.43 14.4779 30.0269 15.4008 30.7869 15.8434C30.7869 15.8434 31.3753 18.7193 29.8718 19.8316C29.9493 20.6132 30.5006 21.5505 30.7869 21.7262C30.2912 22.5071 29.2408 22.7212 28.7959 22.5229C28.0531 23.5515 28.4122 24.9458 28.8248 25.3905C27.6693 26.4328 24.9128 26.8706 24.1048 26.9358C24.1048 26.9358 24.816 25.2704 25.1332 23.8987C26.0106 20.1061 25.5383 15.3748 25.5383 15.3748C25.5383 15.3748 27.5869 17.7586 26.4452 23.5055C26.2523 24.4764 25.9797 25.5016 25.9797 25.5016C26.1699 25.4076 26.6333 25.4646 27.486 25.0336C27.1208 24.6405 27.278 22.3088 28.3545 21.1642C28.3545 21.1642 28.866 21.4002 29.2422 21.2438C28.9895 21.0887 28.6737 20.0978 28.6737 19.3396C29.8903 18.6122 29.7612 17.2982 29.7008 16.6072C29.1042 16.2195 28.0332 15.5607 26.6855 16.1358C26.7212 15.8098 26.6285 14.9418 26.2591 14.3338C26.2591 14.3338 25.8088 13.5509 24.7927 13.3052C23.7759 13.0596 23.2665 12.1915 23.2665 12.1915Z"
        fill="#333333" />
    <path clip-rule="evenodd"
        d="M20.111 14.4071C19.1313 14.4037 17.8379 14.6638 17.8379 14.6638L17.4486 10.7964L20.0643 10.0066L22.551 10.7964L22.3382 14.6638C22.3382 14.6638 21.0749 14.4106 20.111 14.4071ZM20.111 13.3044C19.568 13.29 18.8684 13.3882 18.8684 13.3882L18.7091 11.556L20.0643 11.1882L21.41 11.556V13.3882C21.41 13.3882 20.6657 13.3188 20.111 13.3044Z"
        fill="#333333" fill-rule="evenodd" />
    <path clip-rule="evenodd"
        d="M19.9867 29.1041C22.251 29.0773 23.7003 28.4035 23.7003 28.4035L22.8153 25.6244C22.8153 25.6244 20.9156 26.1747 20.0005 26.1754C19.0853 26.1747 17.2158 25.6244 17.2158 25.6244L16.3008 28.4035C16.3008 28.4035 17.7232 29.0773 19.9867 29.1041ZM20.0005 28.1763C21.2891 28.1715 22.0862 27.9067 22.518 27.7317L22.2812 26.7793C21.7477 26.9542 20.8223 27.1477 20.0005 27.1546C19.1787 27.1477 18.247 27.0036 17.7136 26.828L17.5076 27.7317C17.9401 27.9067 18.7111 28.1715 20.0005 28.1763Z"
        fill="#333333" fill-rule="evenodd" />
    <path clip-rule="evenodd"
        d="M24.5825 15.8825H15.4174C15.4884 15.9813 15.7773 16.4617 15.8806 16.7389C15.9843 17.0175 16.0606 17.2981 16.0641 17.471C16.0668 17.6083 16.0835 18.033 16.1053 18.5889L16.1055 18.5944C16.1488 19.6964 16.2124 21.3165 16.2302 22.2737C16.2381 22.6957 16.332 23.2557 16.6708 23.7134C17.016 24.1793 17.5982 24.5176 18.5354 24.5176H19.1945C19.2597 24.5176 19.3043 24.5347 19.3393 24.5588C19.3778 24.5848 19.4128 24.6246 19.4478 24.6823C19.4828 24.7399 19.5199 24.8209 19.5542 24.8977C19.5858 24.9677 19.6201 25.0459 19.662 25.1173C19.6757 25.1358 19.7327 25.212 19.7856 25.2456C19.8419 25.282 19.9126 25.3026 19.9998 25.3026C20.089 25.3026 20.1611 25.2806 20.2174 25.2456C20.271 25.2127 20.3252 25.1358 20.3403 25.1173C20.3829 25.0439 20.4254 24.9629 20.4563 24.8916C20.49 24.814 20.5236 24.7385 20.5579 24.6809C20.5923 24.6233 20.6259 24.5841 20.663 24.5581C20.6966 24.5347 20.7406 24.5176 20.8058 24.5176H21.4649C22.4013 24.5176 22.9842 24.1793 23.3295 23.7134C23.668 23.2557 23.7621 22.6957 23.7696 22.2737C23.7875 21.3165 23.8513 19.6964 23.8946 18.5944V18.5895C23.9165 18.0337 23.933 17.6083 23.9358 17.471C23.9399 17.2981 24.0161 17.0175 24.1198 16.7389C24.2227 16.4617 24.5118 15.9813 24.5825 15.8825ZM17.1616 17.1794C17.1506 17.1204 17.1389 17.0635 17.1266 17.0113H22.8991C22.8833 17.0683 22.8716 17.1259 22.8634 17.1801C22.8428 17.3146 22.8387 17.5301 22.8387 17.5301C22.794 18.6575 22.7041 21.005 22.7041 22.1729C22.7041 22.6546 22.5482 22.9661 22.343 23.1555C22.1349 23.3476 21.8603 23.4293 21.5994 23.421C21.5644 23.4204 21.4951 23.419 21.4203 23.4176C21.3214 23.4162 21.2136 23.4142 21.1703 23.4121C20.9074 23.4005 20.6527 23.4121 20.4302 23.4732C20.2696 23.5171 20.122 23.5885 20.0018 23.6983C19.7224 23.4224 19.2707 23.301 18.8086 23.3215C18.7661 23.3236 18.6473 23.3257 18.5367 23.327C18.4523 23.3284 18.372 23.3298 18.3363 23.3305C17.8454 23.3462 17.3483 22.94 17.3483 22.1729C17.3483 20.8972 17.2653 18.7556 17.2227 17.657C17.2227 17.657 17.1925 17.3434 17.1616 17.1794Z"
        fill="#333333" fill-rule="evenodd" />
    <path
        d="M17.1135 17.0113C17.1259 17.0634 17.1376 17.1204 17.1485 17.1794C17.1794 17.3434 17.2096 17.657 17.2096 17.657C17.2522 18.7556 17.3353 20.8972 17.3353 22.1728C17.3353 22.94 17.8323 23.3462 18.3232 23.3305C18.3589 23.3298 18.4393 23.3284 18.5237 23.327C18.6342 23.3257 18.753 23.3236 18.7956 23.3215C19.2576 23.3009 19.7094 23.4224 19.9895 23.6983C20.1089 23.5885 20.2565 23.5171 20.4172 23.4732C20.6396 23.4121 20.8943 23.4004 21.1573 23.4121C21.2005 23.4142 21.3083 23.4162 21.4079 23.4176C21.482 23.419 21.5514 23.4203 21.5864 23.421C21.8473 23.4293 22.1219 23.3476 22.3299 23.1555C22.5352 22.9661 22.691 22.6546 22.691 22.1728C22.691 21.0049 22.781 18.6575 22.8263 17.5301C22.8263 17.5301 22.8297 17.3146 22.8503 17.1801C22.8586 17.1259 22.8702 17.0689 22.886 17.0113H17.1135Z"
        fill="#FFDD2D" />
</svg>
