<svg fill="none" height="20" viewBox="0 0 115 20" width="115" xmlns="http://www.w3.org/2000/svg">
    <path d="M5.95075 14.5971V8.5792H9.38955V6.40308H0V8.5792H3.43881V14.5971H5.95075Z"
        fill="#333333" />
    <path d="M12.9089 6.40308H10.397V14.5971H12.9089V6.40308Z" fill="#333333" />
    <path
        d="M14.7358 6.40308V14.5971H17.0463V10.0702L21.3314 14.5971H23.4672V6.40308H21.1702V10.8896L16.9791 6.40308H14.7358Z"
        fill="#333333" />
    <path
        d="M28.3969 11.4941L31.285 14.5971H34.5089L30.4924 10.3255L34.3611 6.40308H31.3253L28.3969 9.4792H27.7253V6.40308H25.3074V14.5971H27.7253V11.4941H28.3969Z"
        fill="#333333" />
    <path
        d="M39.5059 12.8509C37.8805 12.8509 36.8462 11.8569 36.8462 10.5136C36.8462 9.17033 37.8805 8.18973 39.5059 8.18973C41.1044 8.18973 42.1656 9.17033 42.1656 10.5136C42.1656 11.8569 41.1044 12.8509 39.5059 12.8509ZM39.5059 6.1748C36.2417 6.1748 34.2939 8.06883 34.2939 10.5136C34.2939 12.9584 36.2551 14.8524 39.5059 14.8524C42.7432 14.8524 44.7044 12.9584 44.7044 10.5136C44.7044 8.06883 42.7432 6.1748 39.5059 6.1748Z"
        fill="#333333" />
    <path
        d="M53.879 6.40308H45.8462V14.5971H48.2641V11.7359H53.5298V9.92248H48.2641V8.48517H53.879V6.40308Z"
        fill="#333333" />
    <path
        d="M63.0001 6.40308H54.9673V14.5971H57.3986V11.7359H62.6509V9.92248H57.3986V8.48517H63.0001V6.40308Z"
        fill="#333333" />
    <path
        d="M114.837 10.5C114.837 11.6955 114.367 12.8373 113.534 13.6836C112.702 14.5299 111.573 15 110.405 15H70.5627C69.3941 15 68.2657 14.5299 67.4329 13.6836C66.6 12.8373 66.1299 11.6955 66.1299 10.5C66.1299 9.30448 66.6 8.16269 67.4329 7.31642C68.2657 6.47015 69.3941 6 70.5627 6H110.405C111.573 6 112.702 6.47015 113.534 7.31642C114.367 8.16269 114.837 9.30448 114.837 10.5Z"
        fill="#333333" />
    <path clip-rule="evenodd"
        d="M109.451 10.3119C109.491 10.2313 109.518 10.1507 109.545 10.0701L109.625 9.82836H109.666C109.652 10.0164 109.639 10.2851 109.625 10.6478C109.612 10.997 109.612 11.4134 109.612 11.8701V12.9313H111.09V7.93433H109.249L107.919 10.7687H107.852L106.522 7.93433H104.628V12.9448H106.093V11.8164C106.093 11.3731 106.079 10.9836 106.079 10.6343C106.079 10.2851 106.052 10.0298 106.039 9.82836H106.079C106.106 9.90895 106.133 9.97612 106.16 10.0567C106.16 10.0701 106.16 10.0701 106.173 10.0836C106.2 10.1642 106.227 10.2448 106.267 10.3254C106.294 10.3925 106.334 10.4731 106.375 10.5537L106.388 10.594V10.6075C106.428 10.7015 106.482 10.8224 106.549 10.9433L107.1 12.1388H108.618L109.155 10.9701C109.222 10.8224 109.29 10.7015 109.33 10.594C109.37 10.4866 109.41 10.3925 109.451 10.3119ZM103.634 11.0776C103.634 11.7358 103.393 12.2328 102.922 12.5552C102.452 12.8776 101.767 13.0388 100.867 13.0388C99.9806 13.0388 99.2956 12.8776 98.8254 12.5552C98.3553 12.2328 98.1269 11.7358 98.1269 11.0776V7.93433H99.7657V11.091C99.7657 11.1985 99.7926 11.3194 99.8329 11.4134C99.8866 11.5209 99.9538 11.6015 100.034 11.6821C100.222 11.8298 100.505 11.9239 100.881 11.9239C101.19 11.9507 101.485 11.8567 101.727 11.6821C101.821 11.6149 101.888 11.5209 101.942 11.4134C101.996 11.306 102.022 11.1985 102.009 11.091V7.93433H103.621L103.634 11.0776ZM95.5478 7.93433V12.9448H97.1194V7.93433H95.5478ZM92.8478 10.0701C92.8209 10.1507 92.7941 10.2313 92.7538 10.3119C92.7135 10.3925 92.6732 10.4866 92.6329 10.594C92.5926 10.7015 92.5254 10.8224 92.4582 10.9701L91.9209 12.1388H90.403L89.8523 10.9433C89.7851 10.809 89.7314 10.7015 89.6911 10.594C89.6508 10.5 89.6105 10.406 89.5702 10.3254L89.5568 10.2985C89.5299 10.2313 89.503 10.1642 89.4761 10.0836C89.4627 10.0567 89.4493 10.0164 89.4493 9.98955C89.4359 9.93582 89.409 9.88209 89.3956 9.82836H89.3553C89.3687 10.0164 89.3821 10.2851 89.3956 10.6343C89.409 10.9836 89.409 11.3731 89.409 11.8164V12.9448H87.9448V7.93433H89.8388L91.1687 10.7687H91.2359L92.5657 7.93433H94.406V12.9448H92.9284V11.8836C92.9284 11.4269 92.9418 11.0104 92.9553 10.6612C92.9687 10.3119 92.9821 10.0298 92.9956 9.84179H92.9553C92.9284 9.90895 92.915 9.97612 92.8881 10.0298C92.8612 10.0433 92.8612 10.0567 92.8478 10.0701ZM83.3776 9.90895V9.07612H86.9508V7.93433H81.8597V12.9313H86.9508V11.7896H83.3776V10.9164H86.7224V9.92239H83.3776V9.90895ZM78.3672 10.4194C78.4747 10.4194 78.5821 10.4194 78.6896 10.406C78.7567 10.3925 78.8373 10.3791 78.9045 10.3522C79.0254 10.3119 79.1329 10.2448 79.2135 10.1373C79.2806 10.0298 79.3209 9.90895 79.3075 9.77462C79.3209 9.65373 79.2941 9.53283 79.2269 9.4388C79.1597 9.34477 79.0657 9.26418 78.9582 9.22388C78.8911 9.19701 78.8105 9.17015 78.7299 9.15671C78.609 9.14328 78.5015 9.12985 78.3806 9.12985H76.9702V10.4194H78.3672ZM78.5956 7.93433C78.797 7.93433 78.9851 7.94776 79.1597 7.96119C79.3478 7.97462 79.5359 8.02836 79.7105 8.09552C80.0463 8.20298 80.3418 8.41791 80.5433 8.7C80.7717 9.00895 80.8791 9.38507 80.8657 9.76119C80.8791 10.097 80.7717 10.4328 80.5702 10.7015C80.3821 10.9567 80.1269 11.1716 79.8448 11.306L81 12.9313H79.2806L78.3135 11.5881H76.9702V12.9313H75.4523V7.93433H78.5956ZM72.2687 10.4194C72.3762 10.4194 72.497 10.4194 72.6045 10.406C72.6851 10.3925 72.7523 10.3791 72.8194 10.3522C72.9403 10.3119 73.0612 10.2313 73.1284 10.1239C73.1956 10.0164 73.2358 9.89552 73.2224 9.77462C73.2224 9.65373 73.1956 9.54627 73.1284 9.45224C73.0612 9.34477 72.9672 9.27761 72.8597 9.22388C72.7791 9.19701 72.6985 9.17015 72.6179 9.15671C72.497 9.14328 72.3762 9.12985 72.2553 9.12985H70.8717V10.4194H72.2687ZM72.497 7.93433C72.6985 7.93433 72.8866 7.94776 73.0612 7.96119C73.2493 7.97462 73.4373 8.02836 73.612 8.09552C73.9478 8.21642 74.2433 8.43134 74.4582 8.71343C74.6866 9.02239 74.8075 9.39851 74.7941 9.77462C74.8075 10.1642 74.6866 10.5403 74.4448 10.8493C74.2299 11.1313 73.9209 11.3463 73.5717 11.4537C73.397 11.5075 73.209 11.5478 73.0209 11.5612C72.8329 11.5746 72.6582 11.5881 72.4702 11.5881H70.8582V12.9313H69.3403V7.93433H72.497Z"
        fill="white" fill-rule="evenodd" />
</svg>
