<svg fill="none" height="20" viewBox="0 0 112 20" width="112" xmlns="http://www.w3.org/2000/svg">
    <path d="M5.94157 14.7037V8.88337H9.39065V6.75464H0V8.88337H3.4356V14.7037H5.94157Z"
        fill="black" />
    <path d="M12.8937 6.75464H10.3877V14.7037H12.8937V6.75464Z" fill="black" />
    <path
        d="M14.7261 6.75464V14.7037H17.0299V10.3115L21.3278 14.7037H23.4565V6.75464H21.1527V11.1199L16.9626 6.75464H14.7261Z"
        fill="black" />
    <path
        d="M28.3876 11.6992L31.2708 14.7037H34.5043L30.4759 10.5675L34.3561 6.75464H31.3112L28.3876 9.74563H27.7139V6.75464H25.3022V14.7037H27.7139V11.6992H28.3876Z"
        fill="black" />
    <path
        d="M39.4892 13.0193C37.8724 13.0193 36.835 12.0493 36.835 10.7424C36.835 9.4355 37.8724 8.4924 39.4892 8.4924C41.0925 8.4924 42.1434 9.44898 42.1434 10.7424C42.1434 12.0493 41.0925 13.0193 39.4892 13.0193ZM39.4892 6.53882C36.2287 6.53882 34.2751 8.37114 34.2751 10.7424C34.2751 13.1136 36.2287 14.9459 39.4892 14.9459C42.7227 14.9459 44.6897 13.1136 44.6897 10.7424C44.6763 8.37114 42.7227 6.53882 39.4892 6.53882Z"
        fill="black" />
    <path
        d="M53.8649 6.75464H45.8215V14.7037H48.2467V11.9283H53.5146V10.1768H48.2467V8.77558H53.8649V6.75464Z"
        fill="black" />
    <path
        d="M62.986 6.75464H54.9426V14.7037H57.3678V11.9283H62.6222V10.1768H57.3678V8.77558H62.986V6.75464Z"
        fill="black" />
    <path
        d="M65.1956 10.5C65.1956 8.00747 67.2165 6 69.6955 6H107.285C109.778 6 111.785 8.02094 111.785 10.5C111.785 12.979 109.764 14.9999 107.285 14.9999H69.6955C67.2165 15.0134 65.1956 12.9925 65.1956 10.5Z"
        fill="black" />
    <path
        d="M70.8138 9.17961H72.215C72.5114 9.17961 72.6865 9.20655 72.8213 9.26044C73.0638 9.35476 73.185 9.5838 73.185 9.81284C73.185 10.0688 73.0503 10.3113 72.7809 10.3922C72.6596 10.4326 72.4979 10.4595 72.215 10.4595H70.8138V9.17961ZM69.2644 7.96704V13.0194H70.8003V11.6586H72.4305C72.8078 11.6586 73.185 11.6452 73.5488 11.5374C74.2494 11.3083 74.7748 10.6886 74.7748 9.83978C74.7748 8.99099 74.2629 8.37123 73.5757 8.12872C73.1985 7.99399 72.8347 7.96704 72.444 7.96704H69.2644Z"
        fill="white" />
    <path
        d="M78.3722 9.17961C78.6551 9.17961 78.8303 9.20655 78.9515 9.26044C79.1941 9.35476 79.3153 9.54338 79.3153 9.81284C79.3153 10.0958 79.1671 10.3113 78.9111 10.3922C78.7899 10.4326 78.6417 10.4595 78.3722 10.4595H76.9576V9.17961H78.3722ZM79.8812 11.3757C80.4605 11.0928 80.9186 10.5538 80.9186 9.81284C80.9186 8.95057 80.447 8.37123 79.7465 8.12872C79.3692 7.99399 79.0054 7.96704 78.6147 7.96704H75.4216V13.0194H76.9576V11.6586H78.3453L79.3153 13.0194H81.0533L79.8812 11.3757Z"
        fill="white" />
    <path d="M83.4785 7.96704H81.8887V13.0194H83.4785V7.96704Z" fill="white" />
    <path
        d="M87.4124 11.8473H87.2911L85.9304 7.96704H84.125L86.1729 13.0194H88.4229L90.3764 7.96704H88.7058L87.4124 11.8473Z"
        fill="white" />
    <path
        d="M93.2193 9.13919H93.3405L94.0681 11.1736H92.4783L93.2193 9.13919ZM94.4453 12.2919L94.7417 13.0194H96.4797L94.4049 7.96704H92.1549L90.0801 13.0194H91.8181L92.101 12.2919H94.4453Z"
        fill="white" />
    <path d="M99.9019 13.0194V9.31434H102.084V7.96704H96.116V9.31434H98.3121V13.0194H99.9019Z"
        fill="white" />
    <path
        d="M107.878 7.96704H102.731V13.0194H107.878V11.8607H104.267V10.9715H107.662V9.96104H104.267V9.12572H107.878V7.96704Z"
        fill="white" />
</svg>
