<svg width="63" height="9" viewBox="0 0 63 9" fill="none" xmlns="http://www.w3.org/2000/svg">
<path d="M5.95075 8.59198V2.57407H9.38955V0.397949H0V2.57407H3.43881V8.59198H5.95075Z" fill="#333333"/>
<path d="M12.909 0.397949H10.397V8.59198H12.909V0.397949Z" fill="#333333"/>
<path d="M14.7357 0.397949V8.59198H17.0462V4.06511L21.3313 8.59198H23.4671V0.397949H21.1701V4.88452L16.979 0.397949H14.7357Z" fill="#333333"/>
<path d="M28.397 5.48899L31.285 8.59198H34.5089L30.4925 4.32034L34.3612 0.397949H31.3253L28.397 3.47407H27.7253V0.397949H25.3074V8.59198H27.7253V5.48899H28.397Z" fill="#333333"/>
<path d="M39.506 6.84604C37.8806 6.84604 36.8463 5.85201 36.8463 4.50873C36.8463 3.16544 37.8806 2.18485 39.506 2.18485C41.1045 2.18485 42.1657 3.16544 42.1657 4.50873C42.1657 5.85201 41.1045 6.84604 39.506 6.84604ZM39.506 0.169922C36.2418 0.169922 34.294 2.06395 34.294 4.50873C34.294 6.9535 36.2552 8.84753 39.506 8.84753C42.7433 8.84753 44.7045 6.9535 44.7045 4.50873C44.7045 2.06395 42.7433 0.169922 39.506 0.169922Z" fill="#333333"/>
<path d="M53.879 0.397949H45.8462V8.59198H48.2641V5.73078H53.5297V3.91735H48.2641V2.48004H53.879V0.397949Z" fill="#333333"/>
<path d="M63.0001 0.397949H54.9672V8.59198H57.3986V5.73078H62.6508V3.91735H57.3986V2.48004H63.0001V0.397949Z" fill="#333333"/>
</svg>
