<svg fill="none" height="12" viewBox="0 0 60 12" width="60" xmlns="http://www.w3.org/2000/svg">
    <path clip-rule="evenodd"
        d="M55.8497 3.92109C55.7659 3.35767 55.38 3.04132 54.8871 2.85478C54.0409 2.53407 53.1652 2.51661 52.2802 2.59243C51.4624 2.66224 50.6716 2.83351 49.9091 3.24803C49.7712 2.45892 49.6329 1.66986 49.4943 0.880869C50.1652 0.536157 50.8386 0.343621 51.5307 0.214899C53.011 -0.0605427 54.4945 -0.103632 55.9614 0.279805C57.5084 0.684514 58.5947 1.60847 58.8947 3.30803C58.9686 3.72801 58.9655 4.36344 58.9655 4.36344V8.18145C58.9655 8.34726 58.9852 8.70179 58.995 8.86705C59.0498 9.74956 59.1264 9.83574 60 9.96882V11.7862C59.1378 12.0109 58.2522 12.1293 57.3755 11.7027C56.8826 11.4628 56.6555 11.0199 56.5474 10.4963C56.5334 10.4224 56.5238 10.3477 56.5185 10.2726L56.5179 10.271C56.5138 10.2274 56.5097 10.1794 56.5034 10.1264C55.4452 11.6967 53.9307 12.0824 52.2662 11.9858C50.401 11.8778 48.9693 10.5852 48.7055 9.06013C48.2762 6.57843 49.4897 4.72397 51.9103 4.35035C53.4409 4.11363 53.8795 4.21399 55.8579 4.90887C55.8579 4.8036 55.8616 4.69888 55.8657 4.5947C55.874 4.36562 55.8822 4.14036 55.8497 3.92109ZM55.7974 7.07695C55.2895 6.71642 54.7122 6.52716 54.1086 6.44807C53.4812 6.36571 52.8621 6.4088 52.3298 6.83314C51.8416 7.22258 51.6569 7.8411 51.8359 8.47871C51.9729 8.96905 52.4571 9.35303 53.0276 9.40866C53.5698 9.46404 54.1165 9.37651 54.6186 9.15395C55.53 8.75306 55.8869 8.12036 55.7974 7.07695ZM17.3798 11.9995C15.7971 12.0093 14.3747 11.5342 13.1933 10.4581C11.8836 9.26467 11.3664 7.71129 11.3793 5.95064C11.3907 4.48998 11.7714 3.16131 12.7257 2.03882C13.5817 1.0325 14.671 0.433617 15.9429 0.161447C17.5391 -0.180537 19.0759 0.011454 20.49 0.833962C22.2734 1.87191 23.1543 3.49784 23.2629 5.56775C23.3586 7.38839 22.9319 9.0285 21.6078 10.337C20.4336 11.4982 18.9926 11.982 17.3798 11.9995ZM17.4181 2.94368C16.0774 2.9775 15.1371 3.7122 14.7771 4.92196C14.5562 5.66756 14.5702 6.40716 14.7905 7.15277C15.1112 8.23544 15.8198 8.90032 16.8998 9.07377C17.9938 9.24831 18.9336 8.87851 19.5316 7.9C20.2117 6.78569 20.2247 5.59556 19.6821 4.41689C19.2176 3.4073 18.39 2.95514 17.4181 2.94368ZM39.8276 7.09059H41.3793L41.6328 7.15058L41.9969 7.83237C42.7422 9.23031 43.4876 10.6266 44.2205 11.9995H47.5862C47.5505 11.9084 47.5205 11.8227 47.4921 11.7415C47.4352 11.5795 47.3845 11.436 47.3131 11.3057C46.7369 10.2606 46.1576 9.21885 45.5778 8.17708L45.5736 8.16999L45.571 8.16563C45.2545 7.59566 44.9374 7.02623 44.6214 6.45625C44.566 6.35807 44.5169 6.25662 44.4636 6.14645L44.4626 6.14427L44.3871 5.98991C46.5724 4.63724 47.0266 2.46534 46.9629 0H43.9655C43.9655 0.967047 43.814 1.53593 43.636 2.20463L43.5672 2.46698C43.3329 3.37076 42.75 3.97455 41.9183 4.28053C41.4569 4.44962 40.9645 4.41962 40.4597 4.38853C40.2493 4.3732 40.0385 4.36483 39.8276 4.36344V0H36.7241V11.9891L39.8276 12V7.09059ZM31.5848 0H34.6552V11.9995H31.5548V8.15145C31.3717 8.19617 31.1938 8.24417 31.019 8.29162C30.6481 8.39198 30.2907 8.48852 29.9276 8.54034C28.5207 8.74106 27.18 8.55834 26.0328 7.53457C25.1447 6.7426 24.6248 5.68065 24.4676 4.4758C24.361 3.65874 24.3517 2.58588 24.3429 1.50811C24.3388 0.998682 24.3341 0.48816 24.3197 0.00327258L27.4138 0V3.27258C27.4138 4.55707 28.4871 5.57047 29.6555 5.58847C30.3771 5.59938 30.7986 5.41394 31.5486 4.91214L31.5848 0ZM3.62069 11.9995H6.72414V3.27258H10.3448V0H0V3.27258H3.62069V11.9995Z"
        fill="black" fill-rule="evenodd" />
</svg>
