<svg fill="none" height="20" viewBox="0 0 99 20" width="99" xmlns="http://www.w3.org/2000/svg">
    <path clip-rule="evenodd"
        d="M92.0673 6.59856C91.9292 5.71775 91.2931 5.22321 90.4805 4.9316C89.0855 4.43023 87.642 4.40294 86.1831 4.52146C84.835 4.63061 83.5313 4.89834 82.2745 5.54637C82.0471 4.31275 81.8191 3.07922 81.5906 1.8458C82.6965 1.30692 83.8067 1.00593 84.9476 0.8047C87.3879 0.374104 89.8333 0.306744 92.2515 0.906167C94.8018 1.53884 96.5924 2.98326 97.0869 5.64016C97.2089 6.29671 97.2038 7.29007 97.2038 7.29007V13.2587C97.2038 13.5179 97.2362 14.0722 97.2524 14.3305C97.3427 15.7101 97.4689 15.8449 98.9091 16.0529V18.894C97.4877 19.2453 96.0279 19.4303 94.5827 18.7635C93.7701 18.3883 93.3958 17.696 93.2175 16.8774C93.1945 16.762 93.1786 16.6452 93.1698 16.5278L93.169 16.5253C93.1621 16.4571 93.1553 16.382 93.1451 16.2993C91.4005 18.7541 88.9039 19.357 86.16 19.2061C83.0853 19.0372 80.7252 17.0164 80.2903 14.6324C79.5826 10.7527 81.5829 7.85368 85.5734 7.2696C88.0965 6.89955 88.8195 7.05644 92.0809 8.14273C92.0809 7.97817 92.0869 7.81446 92.0937 7.6516C92.1074 7.29348 92.121 6.94133 92.0673 6.59856ZM91.9812 11.5321C91.1439 10.9685 90.1923 10.6726 89.1972 10.549C88.163 10.4202 87.1423 10.4876 86.2649 11.1509C85.46 11.7597 85.1556 12.7267 85.4506 13.7234C85.6766 14.49 86.4747 15.0902 87.4152 15.1772C88.3089 15.2638 89.2102 15.1269 90.038 14.779C91.5404 14.1523 92.1287 13.1632 91.9812 11.5321ZM28.6504 19.2274C26.0412 19.2427 23.6964 18.5 21.7489 16.8177C19.59 14.9521 18.7373 12.5237 18.7586 9.77132C18.7774 7.48788 19.4049 5.41079 20.9781 3.65601C22.3893 2.08284 24.185 1.14662 26.2817 0.721139C28.913 0.186518 31.4463 0.486656 33.7775 1.77247C36.7174 3.39509 38.1695 5.93689 38.3486 9.17275C38.5063 12.0189 37.8029 14.5829 35.6201 16.6285C33.6845 18.4438 31.309 19.2001 28.6504 19.2274ZM28.7135 5.07058C26.5034 5.12345 24.9532 6.27199 24.3598 8.1632C23.9957 9.32879 24.0187 10.485 24.3819 11.6506C24.9106 13.3431 26.0787 14.3825 27.8591 14.6537C29.6625 14.9265 31.2118 14.3484 32.1975 12.8187C33.3187 11.0767 33.34 9.21624 32.4456 7.37363C31.6799 5.79535 30.3156 5.08849 28.7135 5.07058ZM65.6552 11.5534H68.2132L68.631 11.6472L69.2312 12.713C70.4599 14.8984 71.6886 17.0812 72.8969 19.2274H78.4451C78.3863 19.085 78.3369 18.9511 78.29 18.8241C78.1962 18.5708 78.1126 18.3466 77.9949 18.1428C77.0451 16.5091 76.0901 14.8805 75.1342 13.2519L75.1274 13.2408L75.1232 13.234C74.6013 12.343 74.0786 11.4528 73.5577 10.5617C73.4664 10.4083 73.3854 10.2497 73.2976 10.0774L73.2959 10.074L73.1714 9.83271C76.7739 7.7181 77.5226 4.32279 77.4177 0.46875H72.4765C72.4765 1.98052 72.2267 2.86985 71.9333 3.91522L71.8199 4.32535C71.4337 5.73822 70.4727 6.68212 69.1016 7.16046C68.3411 7.42479 67.5293 7.37789 66.6971 7.32929C66.3503 7.30532 66.0028 7.29224 65.6552 7.29007V0.46875H60.5392V19.2112L65.6552 19.2282V11.5534ZM52.0671 0.46875H57.1285V19.2274H52.0177V13.2118C51.7158 13.2817 51.4225 13.3568 51.1343 13.431C50.5229 13.5878 49.9337 13.7388 49.3352 13.8198C47.0159 14.1336 44.8058 13.8479 42.9146 12.2475C41.4506 11.0094 40.5937 9.34925 40.3344 7.46572C40.1588 6.18843 40.1434 4.51123 40.129 2.82637C40.1221 2.02998 40.1145 1.23188 40.0906 0.473866L45.1912 0.46875V5.58474C45.1912 7.59276 46.9605 9.17701 48.8867 9.20515C50.0761 9.22221 50.7711 8.9323 52.0074 8.14785L52.0671 0.46875ZM5.96865 19.2274H11.0846V5.58474H17.0533V0.46875H0V5.58474H5.96865V19.2274Z"
        fill="#FDFDFD" fill-rule="evenodd" />
</svg>
