<svg fill="none" height="20" viewBox="0 0 145 20" width="145" xmlns="http://www.w3.org/2000/svg">
    <path
        d="M32.064 5.402V14H30.9V10.088H26.262V14H25.098V5.402H26.262V9.236H30.9V5.402H32.064ZM37.8906 10.298C37.8906 10.05 37.8546 9.824 37.7826 9.62C37.7146 9.412 37.6126 9.234 37.4766 9.086C37.3446 8.934 37.1826 8.818 36.9906 8.738C36.7986 8.654 36.5806 8.612 36.3366 8.612C35.8246 8.612 35.4186 8.762 35.1186 9.062C34.8226 9.358 34.6386 9.77 34.5666 10.298H37.8906ZM38.7546 13.148C38.6226 13.308 38.4646 13.448 38.2806 13.568C38.0966 13.684 37.8986 13.78 37.6866 13.856C37.4786 13.932 37.2626 13.988 37.0386 14.024C36.8146 14.064 36.5926 14.084 36.3726 14.084C35.9526 14.084 35.5646 14.014 35.2086 13.874C34.8566 13.73 34.5506 13.522 34.2906 13.25C34.0346 12.974 33.8346 12.634 33.6906 12.23C33.5466 11.826 33.4746 11.362 33.4746 10.838C33.4746 10.414 33.5386 10.018 33.6666 9.65C33.7986 9.282 33.9866 8.964 34.2306 8.696C34.4746 8.424 34.7726 8.212 35.1246 8.06C35.4766 7.904 35.8726 7.826 36.3126 7.826C36.6766 7.826 37.0126 7.888 37.3206 8.012C37.6326 8.132 37.9006 8.308 38.1246 8.54C38.3526 8.768 38.5306 9.052 38.6586 9.392C38.7866 9.728 38.8506 10.112 38.8506 10.544C38.8506 10.712 38.8326 10.824 38.7966 10.88C38.7606 10.936 38.6926 10.964 38.5926 10.964H34.5306C34.5426 11.348 34.5946 11.682 34.6866 11.966C34.7826 12.25 34.9146 12.488 35.0826 12.68C35.2506 12.868 35.4506 13.01 35.6826 13.106C35.9146 13.198 36.1746 13.244 36.4626 13.244C36.7306 13.244 36.9606 13.214 37.1526 13.154C37.3486 13.09 37.5166 13.022 37.6566 12.95C37.7966 12.878 37.9126 12.812 38.0046 12.752C38.1006 12.688 38.1826 12.656 38.2506 12.656C38.3386 12.656 38.4066 12.69 38.4546 12.758L38.7546 13.148ZM45.3764 7.922V14H44.3084V9.872C44.3084 9.792 44.3124 9.706 44.3204 9.614C44.3284 9.522 44.3384 9.43 44.3504 9.338C44.3144 9.418 44.2784 9.492 44.2424 9.56C44.2064 9.628 44.1684 9.69 44.1284 9.746L41.1944 13.736C41.1504 13.8 41.0944 13.862 41.0264 13.922C40.9624 13.978 40.8904 14.006 40.8104 14.006H40.1624V7.928H41.2364V12.056C41.2364 12.132 41.2324 12.216 41.2244 12.308C41.2164 12.396 41.2064 12.486 41.1944 12.578C41.2304 12.502 41.2664 12.432 41.3024 12.368C41.3384 12.3 41.3744 12.238 41.4104 12.182L44.3444 8.192C44.3884 8.128 44.4444 8.068 44.5124 8.012C44.5804 7.952 44.6544 7.922 44.7344 7.922H45.3764ZM46.6808 8.546C46.9088 8.33 47.1848 8.156 47.5088 8.024C47.8368 7.892 48.2308 7.826 48.6908 7.826C49.0588 7.826 49.3828 7.872 49.6628 7.964C49.9428 8.052 50.1768 8.17 50.3648 8.318C50.5568 8.466 50.7008 8.636 50.7968 8.828C50.8968 9.016 50.9468 9.212 50.9468 9.416C50.9468 9.536 50.9268 9.662 50.8868 9.794C50.8508 9.926 50.7888 10.052 50.7008 10.172C50.6128 10.292 50.4988 10.404 50.3588 10.508C50.2188 10.612 50.0448 10.696 49.8368 10.76C50.2248 10.876 50.5288 11.062 50.7488 11.318C50.9728 11.574 51.0848 11.888 51.0848 12.26C51.0848 12.54 51.0208 12.794 50.8928 13.022C50.7648 13.246 50.5928 13.438 50.3768 13.598C50.1608 13.754 49.9088 13.874 49.6208 13.958C49.3368 14.042 49.0388 14.084 48.7268 14.084C48.5308 14.084 48.3308 14.066 48.1268 14.03C47.9268 13.994 47.7308 13.938 47.5388 13.862C47.3468 13.782 47.1648 13.684 46.9928 13.568C46.8248 13.452 46.6748 13.312 46.5428 13.148L46.8428 12.758C46.8908 12.69 46.9588 12.656 47.0468 12.656C47.1188 12.656 47.1948 12.688 47.2748 12.752C47.3588 12.812 47.4608 12.88 47.5808 12.956C47.7008 13.032 47.8468 13.102 48.0188 13.166C48.1948 13.226 48.4088 13.256 48.6608 13.256C48.8808 13.256 49.0768 13.23 49.2487 13.178C49.4248 13.122 49.5728 13.046 49.6928 12.95C49.8128 12.854 49.9048 12.74 49.9688 12.608C50.0328 12.476 50.0648 12.332 50.0648 12.176C50.0648 11.876 49.9388 11.634 49.6868 11.45C49.4388 11.266 49.0608 11.174 48.5528 11.174H47.8628V10.466H48.5528C48.7728 10.466 48.9708 10.444 49.1468 10.4C49.3228 10.352 49.4728 10.288 49.5968 10.208C49.7208 10.128 49.8148 10.032 49.8788 9.92C49.9428 9.804 49.9748 9.68 49.9748 9.548C49.9748 9.428 49.9468 9.314 49.8908 9.206C49.8388 9.098 49.7568 9.004 49.6448 8.924C49.5368 8.844 49.4008 8.78 49.2368 8.732C49.0728 8.684 48.8808 8.66 48.6608 8.66C48.4208 8.66 48.2168 8.684 48.0488 8.732C47.8848 8.78 47.7448 8.832 47.6288 8.888C47.5168 8.944 47.4248 8.996 47.3528 9.044C47.2808 9.092 47.2188 9.116 47.1668 9.116C47.1148 9.116 47.0708 9.106 47.0348 9.086C47.0028 9.066 46.9668 9.024 46.9268 8.96L46.6808 8.546ZM54.7894 13.25C55.1894 13.25 55.5054 13.158 55.7374 12.974C55.9694 12.786 56.0854 12.53 56.0854 12.206C56.0854 12.062 56.0634 11.932 56.0194 11.816C55.9754 11.696 55.9034 11.592 55.8034 11.504C55.7034 11.416 55.5694 11.348 55.4014 11.3C55.2374 11.252 55.0354 11.228 54.7954 11.228H53.4814V13.25H54.7894ZM53.4814 8.642V10.55H54.6514C54.8274 10.55 54.9894 10.526 55.1374 10.478C55.2894 10.426 55.4194 10.356 55.5274 10.268C55.6354 10.176 55.7194 10.068 55.7794 9.944C55.8394 9.816 55.8694 9.676 55.8694 9.524C55.8694 9.412 55.8494 9.304 55.8094 9.2C55.7694 9.092 55.7014 8.998 55.6054 8.918C55.5094 8.834 55.3834 8.768 55.2274 8.72C55.0714 8.668 54.8794 8.642 54.6514 8.642H53.4814ZM54.6814 7.922C55.0574 7.922 55.3794 7.96 55.6474 8.036C55.9154 8.112 56.1354 8.216 56.3074 8.348C56.4794 8.476 56.6054 8.628 56.6854 8.804C56.7654 8.98 56.8054 9.168 56.8054 9.368C56.8054 9.5 56.7874 9.638 56.7514 9.782C56.7154 9.926 56.6514 10.064 56.5594 10.196C56.4714 10.328 56.3494 10.448 56.1934 10.556C56.0414 10.66 55.8494 10.742 55.6174 10.802C56.0814 10.882 56.4394 11.044 56.6914 11.288C56.9434 11.528 57.0694 11.846 57.0694 12.242C57.0694 12.538 57.0094 12.796 56.8894 13.016C56.7734 13.232 56.6114 13.414 56.4034 13.562C56.1994 13.71 55.9594 13.82 55.6834 13.892C55.4074 13.964 55.1114 14 54.7954 14H52.4554V7.922H54.6814ZM62.4765 10.298C62.4765 10.05 62.4405 9.824 62.3685 9.62C62.3005 9.412 62.1985 9.234 62.0625 9.086C61.9305 8.934 61.7685 8.818 61.5765 8.738C61.3845 8.654 61.1665 8.612 60.9225 8.612C60.4105 8.612 60.0045 8.762 59.7045 9.062C59.4085 9.358 59.2245 9.77 59.1525 10.298H62.4765ZM63.3405 13.148C63.2085 13.308 63.0505 13.448 62.8665 13.568C62.6825 13.684 62.4845 13.78 62.2725 13.856C62.0645 13.932 61.8485 13.988 61.6245 14.024C61.4005 14.064 61.1785 14.084 60.9585 14.084C60.5385 14.084 60.1505 14.014 59.7945 13.874C59.4425 13.73 59.1365 13.522 58.8765 13.25C58.6205 12.974 58.4205 12.634 58.2765 12.23C58.1325 11.826 58.0605 11.362 58.0605 10.838C58.0605 10.414 58.1245 10.018 58.2525 9.65C58.3845 9.282 58.5725 8.964 58.8165 8.696C59.0605 8.424 59.3585 8.212 59.7105 8.06C60.0625 7.904 60.4585 7.826 60.8985 7.826C61.2625 7.826 61.5985 7.888 61.9065 8.012C62.2185 8.132 62.4865 8.308 62.7105 8.54C62.9385 8.768 63.1165 9.052 63.2445 9.392C63.3725 9.728 63.4365 10.112 63.4365 10.544C63.4365 10.712 63.4185 10.824 63.3825 10.88C63.3465 10.936 63.2785 10.964 63.1785 10.964H59.1165C59.1285 11.348 59.1805 11.682 59.2725 11.966C59.3685 12.25 59.5005 12.488 59.6685 12.68C59.8365 12.868 60.0365 13.01 60.2685 13.106C60.5005 13.198 60.7605 13.244 61.0485 13.244C61.3165 13.244 61.5465 13.214 61.7385 13.154C61.9345 13.09 62.1025 13.022 62.2425 12.95C62.3825 12.878 62.4985 12.812 62.5905 12.752C62.6865 12.688 62.7685 12.656 62.8365 12.656C62.9245 12.656 62.9925 12.69 63.0405 12.758L63.3405 13.148ZM68.9783 9.002C68.9463 9.046 68.9143 9.08 68.8823 9.104C68.8503 9.128 68.8063 9.14 68.7503 9.14C68.6903 9.14 68.6243 9.116 68.5523 9.068C68.4803 9.016 68.3903 8.96 68.2823 8.9C68.1783 8.84 68.0483 8.786 67.8923 8.738C67.7403 8.686 67.5523 8.66 67.3283 8.66C67.0283 8.66 66.7643 8.714 66.5363 8.822C66.3083 8.926 66.1163 9.078 65.9603 9.278C65.8083 9.478 65.6923 9.72 65.6123 10.004C65.5363 10.288 65.4983 10.606 65.4983 10.958C65.4983 11.326 65.5403 11.654 65.6243 11.942C65.7083 12.226 65.8263 12.466 65.9783 12.662C66.1343 12.854 66.3203 13.002 66.5363 13.106C66.7563 13.206 67.0023 13.256 67.2743 13.256C67.5343 13.256 67.7483 13.226 67.9163 13.166C68.0843 13.102 68.2223 13.032 68.3303 12.956C68.4423 12.88 68.5343 12.812 68.6063 12.752C68.6823 12.688 68.7563 12.656 68.8283 12.656C68.9163 12.656 68.9843 12.69 69.0323 12.758L69.3323 13.148C69.2003 13.312 69.0503 13.452 68.8823 13.568C68.7143 13.684 68.5323 13.782 68.3363 13.862C68.1443 13.938 67.9423 13.994 67.7303 14.03C67.5183 14.066 67.3023 14.084 67.0823 14.084C66.7023 14.084 66.3483 14.014 66.0203 13.874C65.6963 13.734 65.4143 13.532 65.1743 13.268C64.9343 13 64.7463 12.672 64.6103 12.284C64.4743 11.896 64.4063 11.454 64.4063 10.958C64.4063 10.506 64.4683 10.088 64.5923 9.704C64.7203 9.32 64.9043 8.99 65.1443 8.714C65.3883 8.434 65.6863 8.216 66.0383 8.06C66.3943 7.904 66.8023 7.826 67.2623 7.826C67.6903 7.826 68.0663 7.896 68.3903 8.036C68.7183 8.172 69.0083 8.366 69.2603 8.618L68.9783 9.002ZM75.5308 8.738H73.1968V14H72.1288V8.738H69.7948V7.922H75.5308V8.738ZM81.6131 7.922V14H80.5391V11.156H77.6231V14H76.5491V7.922H77.6231V10.346H80.5391V7.922H81.6131ZM86.6048 11.264C86.1128 11.28 85.6928 11.32 85.3448 11.384C85.0008 11.444 84.7188 11.524 84.4988 11.624C84.2828 11.724 84.1248 11.842 84.0248 11.978C83.9288 12.114 83.8808 12.266 83.8808 12.434C83.8808 12.594 83.9068 12.732 83.9588 12.848C84.0108 12.964 84.0808 13.06 84.1688 13.136C84.2608 13.208 84.3668 13.262 84.4868 13.298C84.6108 13.33 84.7428 13.346 84.8828 13.346C85.0708 13.346 85.2428 13.328 85.3988 13.292C85.5548 13.252 85.7008 13.196 85.8368 13.124C85.9768 13.052 86.1088 12.966 86.2328 12.866C86.3608 12.766 86.4848 12.652 86.6048 12.524V11.264ZM83.1548 8.78C83.4908 8.456 83.8528 8.214 84.2408 8.054C84.6288 7.894 85.0588 7.814 85.5308 7.814C85.8708 7.814 86.1728 7.87 86.4368 7.982C86.7008 8.094 86.9228 8.25 87.1028 8.45C87.2828 8.65 87.4188 8.892 87.5108 9.176C87.6028 9.46 87.6488 9.772 87.6488 10.112V14H87.1748C87.0708 14 86.9908 13.984 86.9348 13.952C86.8788 13.916 86.8348 13.848 86.8028 13.748L86.6828 13.172C86.5228 13.32 86.3668 13.452 86.2148 13.568C86.0628 13.68 85.9028 13.776 85.7348 13.856C85.5668 13.932 85.3868 13.99 85.1948 14.03C85.0068 14.074 84.7968 14.096 84.5648 14.096C84.3288 14.096 84.1068 14.064 83.8988 14C83.6908 13.932 83.5088 13.832 83.3528 13.7C83.2008 13.568 83.0788 13.402 82.9868 13.202C82.8988 12.998 82.8548 12.758 82.8548 12.482C82.8548 12.242 82.9208 12.012 83.0528 11.792C83.1848 11.568 83.3988 11.37 83.6948 11.198C83.9908 11.026 84.3768 10.886 84.8528 10.778C85.3288 10.666 85.9128 10.602 86.6048 10.586V10.112C86.6048 9.64 86.5028 9.284 86.2988 9.044C86.0948 8.8 85.7968 8.678 85.4048 8.678C85.1408 8.678 84.9188 8.712 84.7388 8.78C84.5628 8.844 84.4088 8.918 84.2768 9.002C84.1488 9.082 84.0368 9.156 83.9408 9.224C83.8488 9.288 83.7568 9.32 83.6648 9.32C83.5928 9.32 83.5308 9.302 83.4788 9.266C83.4268 9.226 83.3828 9.178 83.3468 9.122L83.1548 8.78ZM92.4737 10.76V8.642H91.4537C91.2257 8.642 91.0337 8.676 90.8777 8.744C90.7217 8.808 90.5957 8.892 90.4997 8.996C90.4077 9.096 90.3417 9.21 90.3017 9.338C90.2617 9.462 90.2417 9.586 90.2417 9.71C90.2417 10.038 90.3617 10.296 90.6017 10.484C90.8417 10.668 91.1697 10.76 91.5857 10.76H92.4737ZM93.4937 7.922V14H92.4737V11.438H92.0057C91.8937 11.438 91.7997 11.448 91.7237 11.468C91.6517 11.484 91.5877 11.508 91.5317 11.54C91.4797 11.572 91.4337 11.614 91.3937 11.666C91.3537 11.714 91.3117 11.77 91.2677 11.834L89.9357 13.628C89.8677 13.756 89.7837 13.85 89.6837 13.91C89.5877 13.97 89.4457 14 89.2577 14H88.5137L90.2777 11.708C90.4217 11.468 90.6117 11.308 90.8477 11.228C90.5397 11.188 90.2797 11.116 90.0677 11.012C89.8557 10.908 89.6817 10.786 89.5457 10.646C89.4137 10.502 89.3177 10.344 89.2577 10.172C89.1977 10 89.1677 9.826 89.1677 9.65C89.1677 9.442 89.2077 9.234 89.2877 9.026C89.3717 8.818 89.5037 8.634 89.6837 8.474C89.8637 8.31 90.0957 8.178 90.3797 8.078C90.6677 7.974 91.0157 7.922 91.4237 7.922H93.4937ZM101.954 8.222C102.01 8.134 102.084 8.062 102.176 8.006C102.268 7.95 102.366 7.922 102.47 7.922H103.304L101.726 10.238C101.63 10.386 101.53 10.508 101.426 10.604C101.322 10.696 101.194 10.768 101.042 10.82C101.234 10.872 101.396 10.954 101.528 11.066C101.66 11.174 101.778 11.314 101.882 11.486L103.478 14H102.734C102.542 14 102.394 13.968 102.29 13.904C102.186 13.84 102.096 13.748 102.02 13.628L100.838 11.738C100.65 11.426 100.368 11.27 99.992 11.27H99.338V14.006H98.264V7.922H99.338V10.55H99.914C100.234 10.55 100.484 10.414 100.664 10.142L101.954 8.222ZM107.769 11.264C107.277 11.28 106.857 11.32 106.509 11.384C106.165 11.444 105.883 11.524 105.663 11.624C105.447 11.724 105.289 11.842 105.189 11.978C105.093 12.114 105.045 12.266 105.045 12.434C105.045 12.594 105.071 12.732 105.123 12.848C105.175 12.964 105.245 13.06 105.333 13.136C105.425 13.208 105.531 13.262 105.651 13.298C105.775 13.33 105.907 13.346 106.047 13.346C106.235 13.346 106.407 13.328 106.563 13.292C106.719 13.252 106.865 13.196 107.001 13.124C107.141 13.052 107.273 12.966 107.397 12.866C107.525 12.766 107.649 12.652 107.769 12.524V11.264ZM104.319 8.78C104.655 8.456 105.017 8.214 105.405 8.054C105.793 7.894 106.223 7.814 106.695 7.814C107.035 7.814 107.337 7.87 107.601 7.982C107.865 8.094 108.087 8.25 108.267 8.45C108.447 8.65 108.583 8.892 108.675 9.176C108.767 9.46 108.813 9.772 108.813 10.112V14H108.339C108.235 14 108.155 13.984 108.099 13.952C108.043 13.916 107.999 13.848 107.967 13.748L107.847 13.172C107.687 13.32 107.531 13.452 107.379 13.568C107.227 13.68 107.067 13.776 106.899 13.856C106.731 13.932 106.551 13.99 106.359 14.03C106.171 14.074 105.961 14.096 105.729 14.096C105.493 14.096 105.271 14.064 105.063 14C104.855 13.932 104.673 13.832 104.517 13.7C104.365 13.568 104.243 13.402 104.151 13.202C104.063 12.998 104.019 12.758 104.019 12.482C104.019 12.242 104.085 12.012 104.217 11.792C104.349 11.568 104.563 11.37 104.859 11.198C105.155 11.026 105.541 10.886 106.017 10.778C106.493 10.666 107.077 10.602 107.769 10.586V10.112C107.769 9.64 107.667 9.284 107.463 9.044C107.259 8.8 106.961 8.678 106.569 8.678C106.305 8.678 106.083 8.712 105.903 8.78C105.727 8.844 105.573 8.918 105.441 9.002C105.313 9.082 105.201 9.156 105.105 9.224C105.013 9.288 104.921 9.32 104.829 9.32C104.757 9.32 104.695 9.302 104.643 9.266C104.591 9.226 104.547 9.178 104.511 9.122L104.319 8.78ZM111.514 12.536C111.71 12.8 111.924 12.986 112.156 13.094C112.388 13.202 112.648 13.256 112.936 13.256C113.504 13.256 113.94 13.054 114.244 12.65C114.548 12.246 114.7 11.67 114.7 10.922C114.7 10.526 114.664 10.186 114.592 9.902C114.524 9.618 114.424 9.386 114.292 9.206C114.16 9.022 113.998 8.888 113.806 8.804C113.614 8.72 113.396 8.678 113.152 8.678C112.804 8.678 112.498 8.758 112.234 8.918C111.974 9.078 111.734 9.304 111.514 9.596V12.536ZM111.46 8.864C111.716 8.548 112.012 8.294 112.348 8.102C112.684 7.91 113.068 7.814 113.5 7.814C113.852 7.814 114.17 7.882 114.454 8.018C114.738 8.15 114.98 8.348 115.18 8.612C115.38 8.872 115.534 9.196 115.642 9.584C115.75 9.972 115.804 10.418 115.804 10.922C115.804 11.37 115.744 11.788 115.624 12.176C115.504 12.56 115.33 12.894 115.102 13.178C114.878 13.458 114.602 13.68 114.274 13.844C113.95 14.004 113.584 14.084 113.176 14.084C112.804 14.084 112.484 14.022 112.216 13.898C111.952 13.77 111.718 13.594 111.514 13.37V16.058H110.44V7.922H111.082C111.234 7.922 111.328 7.996 111.364 8.144L111.46 8.864ZM122.043 8.738H119.709V14H118.641V8.738H116.307V7.922H122.043V8.738ZM126.296 11.264C125.804 11.28 125.384 11.32 125.036 11.384C124.692 11.444 124.41 11.524 124.19 11.624C123.974 11.724 123.816 11.842 123.716 11.978C123.62 12.114 123.572 12.266 123.572 12.434C123.572 12.594 123.598 12.732 123.65 12.848C123.702 12.964 123.772 13.06 123.86 13.136C123.952 13.208 124.058 13.262 124.178 13.298C124.302 13.33 124.434 13.346 124.574 13.346C124.762 13.346 124.934 13.328 125.09 13.292C125.246 13.252 125.392 13.196 125.528 13.124C125.668 13.052 125.8 12.966 125.924 12.866C126.052 12.766 126.176 12.652 126.296 12.524V11.264ZM122.846 8.78C123.182 8.456 123.544 8.214 123.932 8.054C124.32 7.894 124.75 7.814 125.222 7.814C125.562 7.814 125.864 7.87 126.128 7.982C126.392 8.094 126.614 8.25 126.794 8.45C126.974 8.65 127.11 8.892 127.202 9.176C127.294 9.46 127.34 9.772 127.34 10.112V14H126.866C126.762 14 126.682 13.984 126.626 13.952C126.57 13.916 126.526 13.848 126.494 13.748L126.374 13.172C126.214 13.32 126.058 13.452 125.906 13.568C125.754 13.68 125.594 13.776 125.426 13.856C125.258 13.932 125.078 13.99 124.886 14.03C124.698 14.074 124.488 14.096 124.256 14.096C124.02 14.096 123.798 14.064 123.59 14C123.382 13.932 123.2 13.832 123.044 13.7C122.892 13.568 122.77 13.402 122.678 13.202C122.59 12.998 122.546 12.758 122.546 12.482C122.546 12.242 122.612 12.012 122.744 11.792C122.876 11.568 123.09 11.37 123.386 11.198C123.682 11.026 124.068 10.886 124.544 10.778C125.02 10.666 125.604 10.602 126.296 10.586V10.112C126.296 9.64 126.194 9.284 125.99 9.044C125.786 8.8 125.488 8.678 125.096 8.678C124.832 8.678 124.61 8.712 124.43 8.78C124.254 8.844 124.1 8.918 123.968 9.002C123.84 9.082 123.728 9.156 123.632 9.224C123.54 9.288 123.448 9.32 123.356 9.32C123.284 9.32 123.222 9.302 123.17 9.266C123.118 9.226 123.074 9.178 123.038 9.122L122.846 8.78Z"
        fill="#8C8C8C" />
    <path
        d="M16.6667 3.33325H3.33341C2.41294 3.33325 1.66675 4.07944 1.66675 4.99992V14.9999C1.66675 15.9204 2.41294 16.6666 3.33341 16.6666H16.6667C17.5872 16.6666 18.3334 15.9204 18.3334 14.9999V4.99992C18.3334 4.07944 17.5872 3.33325 16.6667 3.33325Z"
        stroke="#8C8C8C" stroke-linecap="round" stroke-linejoin="round" stroke-width="1.5" />
    <path d="M6.66667 6.66675H5V8.33341H6.66667V6.66675Z" stroke="#8C8C8C" stroke-linecap="round"
        stroke-linejoin="round" stroke-width="1.5" />
</svg>
