<svg fill="none" height="34" viewBox="0 0 104 34" width="104" xmlns="http://www.w3.org/2000/svg">
    <path
        d="M0.335627 34V0.399998H8.68763C13.9356 0.399998 16.5596 3.168 16.5596 8.704V25.696C16.5596 31.232 13.9356 34 8.68763 34H0.335627ZM8.59163 5.2H5.61563V29.2H8.59163C10.3836 29.2 11.2796 28.112 11.2796 25.936V8.464C11.2796 6.288 10.3836 5.2 8.59163 5.2ZM30.0094 5.2V14.56H37.2574V19.36H30.0094V29.2H39.1294V34H24.7294V0.399998H39.1294V5.2H30.0094ZM47.2013 34V0.399998H52.4813V29.2H61.1693V34H47.2013ZM64.3403 5.2V0.399998H80.6603V5.2H75.1403V34H69.8603V5.2H64.3403ZM97.6695 0.399998L103.045 34H97.7175L96.8055 27.904H90.3255L89.4135 34H84.5655L89.9415 0.399998H97.6695ZM93.5415 6.352L90.9975 23.344H96.0855L93.5415 6.352Z"
        fill="white" />
</svg>
