<svg fill="none" height="22" viewBox="0 0 150 22" width="150" xmlns="http://www.w3.org/2000/svg">
    <path
        d="M73.344 15.224H77.024V17H71.104V5.832H73.344V15.224ZM86.8317 17.112C85.7864 17.112 84.8264 16.8667 83.9518 16.376C83.0771 15.8853 82.3837 15.208 81.8717 14.344C81.3597 13.4693 81.1037 12.4827 81.1037 11.384C81.1037 10.296 81.3597 9.32 81.8717 8.456C82.3837 7.58133 83.0771 6.89867 83.9518 6.408C84.8264 5.91733 85.7864 5.672 86.8317 5.672C87.8877 5.672 88.8478 5.91733 89.7118 6.408C90.5864 6.89867 91.2744 7.58133 91.7758 8.456C92.2878 9.32 92.5438 10.296 92.5438 11.384C92.5438 12.4827 92.2878 13.4693 91.7758 14.344C91.2744 15.208 90.5864 15.8853 89.7118 16.376C88.8371 16.8667 87.8771 17.112 86.8317 17.112ZM86.8317 15.112C87.5038 15.112 88.0958 14.9627 88.6077 14.664C89.1198 14.3547 89.5198 13.9173 89.8078 13.352C90.0958 12.7867 90.2397 12.1307 90.2397 11.384C90.2397 10.6373 90.0958 9.98667 89.8078 9.432C89.5198 8.86667 89.1198 8.43467 88.6077 8.136C88.0958 7.83733 87.5038 7.688 86.8317 7.688C86.1597 7.688 85.5624 7.83733 85.0398 8.136C84.5278 8.43467 84.1277 8.86667 83.8398 9.432C83.5517 9.98667 83.4077 10.6373 83.4077 11.384C83.4077 12.1307 83.5517 12.7867 83.8398 13.352C84.1277 13.9173 84.5278 14.3547 85.0398 14.664C85.5624 14.9627 86.1597 15.112 86.8317 15.112ZM99.6182 5.832V12.744C99.6182 13.5013 99.8156 14.0827 100.21 14.488C100.605 14.8827 101.16 15.08 101.874 15.08C102.6 15.08 103.16 14.8827 103.554 14.488C103.949 14.0827 104.146 13.5013 104.146 12.744V5.832H106.402V12.728C106.402 13.6773 106.194 14.4827 105.778 15.144C105.373 15.7947 104.824 16.2853 104.13 16.616C103.448 16.9467 102.685 17.112 101.842 17.112C101.01 17.112 100.253 16.9467 99.5702 16.616C98.8982 16.2853 98.3649 15.7947 97.9702 15.144C97.5756 14.4827 97.3782 13.6773 97.3782 12.728V5.832H99.6182ZM121.318 17H119.078L114.006 9.336V17H111.766V5.816H114.006L119.078 13.496V5.816H121.318V17ZM134.508 9.192C134.252 8.72267 133.9 8.36533 133.452 8.12C133.004 7.87467 132.481 7.752 131.884 7.752C131.223 7.752 130.636 7.90133 130.124 8.2C129.612 8.49867 129.212 8.92533 128.924 9.48C128.636 10.0347 128.492 10.6747 128.492 11.4C128.492 12.1467 128.636 12.7973 128.924 13.352C129.223 13.9067 129.633 14.3333 130.156 14.632C130.679 14.9307 131.287 15.08 131.98 15.08C132.833 15.08 133.532 14.856 134.076 14.408C134.62 13.9493 134.977 13.3147 135.148 12.504H131.308V10.792H137.356V12.744C137.207 13.5227 136.887 14.2427 136.396 14.904C135.905 15.5653 135.271 16.0987 134.492 16.504C133.724 16.8987 132.86 17.096 131.9 17.096C130.823 17.096 129.847 16.856 128.972 16.376C128.108 15.8853 127.425 15.208 126.924 14.344C126.433 13.48 126.188 12.4987 126.188 11.4C126.188 10.3013 126.433 9.32 126.924 8.456C127.425 7.58133 128.108 6.904 128.972 6.424C129.847 5.93333 130.817 5.688 131.884 5.688C133.143 5.688 134.236 5.99733 135.164 6.616C136.092 7.224 136.732 8.08267 137.084 9.192H134.508ZM144.453 7.64V10.44H148.213V12.216H144.453V15.176H148.693V17H142.213V5.816H148.693V7.64H144.453Z"
        fill="#586EBB" />
    <path
        d="M3.344 7.64V10.44H7.104V12.216H3.344V15.176H7.584V17H1.104V5.816H7.584V7.64H3.344ZM22.8516 5.832L18.7556 17H16.0356L11.9396 5.832H14.3396L17.4116 14.712L20.4676 5.832H22.8516ZM29.6346 7.64V10.44H33.3946V12.216H29.6346V15.176H33.8746V17H27.3946V5.816H33.8746V7.64H29.6346ZM44.8702 17L42.4062 12.648H41.3502V17H39.1102V5.832H43.3022C44.1662 5.832 44.9022 5.98667 45.5102 6.296C46.1182 6.59467 46.5716 7.00533 46.8702 7.528C47.1796 8.04 47.3342 8.616 47.3342 9.256C47.3342 9.992 47.1209 10.6587 46.6942 11.256C46.2676 11.8427 45.6329 12.248 44.7902 12.472L47.4622 17H44.8702ZM41.3502 10.968H43.2222C43.8302 10.968 44.2836 10.824 44.5822 10.536C44.8809 10.2373 45.0302 9.82667 45.0302 9.304C45.0302 8.792 44.8809 8.39733 44.5822 8.12C44.2836 7.832 43.8302 7.688 43.2222 7.688H41.3502V10.968ZM61.4402 5.832L57.6642 13.112V17H55.4242V13.112L51.6322 5.832H54.1602L56.5602 10.936L58.9442 5.832H61.4402Z"
        fill="#062F81" />
</svg>
