<svg width="36" height="34" viewBox="0 0 36 34" fill="none" xmlns="http://www.w3.org/2000/svg">
<path d="M12.4141 33C14.1539 33.6454 16.0371 33.9982 18.003 33.9982C19.969 33.9982 21.8521 33.6454 23.592 33H12.4141Z" fill="#586EBB"/>
<path d="M2.78143 22.9998C2.46703 22.0369 2.24234 21.0337 2.11719 20H33.8884C33.7633 21.0337 33.5386 22.0369 33.2242 22.9998H2.78143Z" fill="#586EBB"/>
<path d="M3.58984 25C3.92836 25.6964 4.31636 26.3646 4.74929 27H31.2565C31.6895 26.3646 32.0775 25.6964 32.416 25H3.58984Z" fill="#586EBB"/>
<path d="M8.65652 31C7.82934 30.4065 7.06142 29.7364 6.36328 29H29.6457C28.9476 29.7364 28.1797 30.4065 27.3525 31H8.65652Z" fill="#586EBB"/>
</svg>
