<svg width="68" height="32" viewBox="0 0 68 32" fill="none" xmlns="http://www.w3.org/2000/svg">
<rect width="67.2458" height="32.0008" rx="16.0004" fill="#EF3124"/>
<g clip-path="url(#clip0_8739_31305)">
<path d="M24.6533 8H15.3555C13.4995 8 12.0039 9.49557 12.0039 11.3515V20.6493C12.0039 22.5052 13.4995 24.0008 15.3555 24.0008H24.6533C26.5093 24.0008 28.0049 22.5052 28.0049 20.6493V11.3515C28.0229 9.49557 26.5093 8 24.6533 8Z" fill="white"/>
<path d="M19.0517 15.2278L20.0067 12.4168H20.0427L20.9437 15.2278H19.0517ZM21.25 11.8943C21.0518 11.3177 20.8355 10.8672 20.0787 10.8672C19.3219 10.8672 19.0877 11.3177 18.8715 11.8943L16.7812 17.8405H18.1687L18.6552 16.435H21.304L21.7545 17.8405H23.2321L21.25 11.8943Z" fill="#EF3124"/>
<path d="M23.3759 19.7344H16.6367V21.1398H23.3759V19.7344Z" fill="#EF3124"/>
<path d="M34.7444 12.9368H37.3752C38.3843 12.9368 38.9069 13.3693 38.9069 14.1982C38.9069 15.009 38.3483 15.4595 37.3752 15.4595H34.7444V12.9368ZM37.4834 11.207H32.8164V21.1354H34.7264V17.2434H37.4834C39.6276 17.2434 40.8709 16.1442 40.8709 14.2162C40.8709 12.2882 39.6637 11.207 37.4834 11.207Z" fill="white"/>
<path d="M44.3829 19.8723C43.5721 19.8723 43.0856 19.4759 43.0856 18.8272C43.0856 18.2866 43.5 17.9803 44.1667 17.9803H45.8965V18.665C45.8965 19.3497 45.2478 19.8723 44.3829 19.8723ZM47.6624 19.0614V16.719C47.6624 14.8991 46.4731 13.8359 44.491 13.8359C43.518 13.8359 42.7252 14.1242 42.1666 14.7008C41.8062 15.0432 41.572 15.4937 41.4819 15.9982V16.0523H43.2838L43.3018 16.0162C43.3558 15.9081 43.6261 15.3315 44.5451 15.3315C45.374 15.3315 45.9326 15.8541 45.9326 16.6469H43.8964C42.2206 16.6469 41.2656 17.4397 41.2656 18.8452C41.2656 20.2867 42.3468 21.2597 43.9865 21.2597C45.1938 21.2597 45.7884 20.611 46.0227 20.2687C46.2389 20.8273 46.7795 21.1516 47.5543 21.1516H48.1489V19.638H48.1129C47.7885 19.602 47.6624 19.4398 47.6624 19.0614Z" fill="white"/>
<path d="M53.4129 14.0195L51.7011 18.5963L49.9713 14.0195H47.9531L50.7821 21.0109L49.6469 24.002H51.4849L55.2509 14.0195H53.4129Z" fill="white"/>
</g>
<defs>
<clipPath id="clip0_8739_31305">
<rect width="43.2459" height="16.0008" fill="white" transform="translate(12 8)"/>
</clipPath>
</defs>
</svg>
