<svg width="40" height="40" viewBox="0 0 40 40" fill="none" xmlns="http://www.w3.org/2000/svg">
<g clip-path="url(#clip0_6789_18315)">
<circle cx="20" cy="20" r="20" fill="black"/>
<path d="M19.813 20.2488C19.8975 20.3105 19.8492 20.4585 19.7406 20.4461L19.4629 20.4215C19.4629 20.4215 16.2159 20.1132 14.5139 20.9271C12.8119 21.741 11.629 20.1502 11.291 19.361C10.9772 18.5717 9.74595 18.5348 9.16655 20.7914C8.58716 23.0481 9.37176 28.4617 13.8862 30.7184C18.4007 32.975 25.3173 31.7419 27.1882 30.8663C29.0109 30.0278 30.6888 28.585 30.9785 25.4774C31.2682 22.3699 28.5643 20.5201 27.2003 19.361C25.4018 17.8319 27.0917 17.9922 27.4659 16.6727C27.6711 15.9698 29.1075 15.4765 30.0369 15.0696C30.7612 14.749 29.8679 14.4283 29.4334 14.305C29.3489 14.2804 29.3127 14.1694 29.373 14.0954C30.7733 12.4799 30.4836 12.0483 30.2421 11.9374C30.1576 11.9004 30.0731 11.9127 30.0007 11.962C29.0592 12.6033 27.8642 12.6896 26.8382 12.1963C26.7295 12.147 26.6571 12.0607 26.5968 11.9497C25.438 9.50803 24.7499 10.2356 24.243 9.47104C23.7239 8.68182 21.2132 5.99353 17.1333 10.7535C12.824 16.3644 19.306 19.8049 19.5354 20.0515L19.813 20.2488Z" stroke="#ED1F30" stroke-miterlimit="10"/>
</g>
<defs>
<clipPath id="clip0_6789_18315">
<rect width="40" height="40" fill="white"/>
</clipPath>
</defs>
</svg>
