<svg fill="none" height="40" viewBox="0 0 40 40" width="40" xmlns="http://www.w3.org/2000/svg">
    <circle cx="20" cy="20" fill="#562C33" r="20" />
    <path
        d="M30.2077 18.2043C30.0676 18.2747 29.9275 18.4154 29.7874 18.4857C28.8766 19.1891 27.4755 19.6814 25.514 20.2441C21.4507 21.2992 18.5084 21.5102 15.1457 22.2839C14.5152 22.4246 13.8146 22.6356 13.1841 22.917C13.8146 23.1983 14.5152 23.55 15.1457 23.761C16.4768 23.4093 17.1773 23.1983 19.1389 22.8466C19.9095 22.706 22.2213 22.3543 23.9027 21.9322C26.9851 21.3695 31.3987 20.0331 30.2077 18.2043ZM28.3162 14.4764C27.6857 14.1951 26.845 13.9137 26.0044 13.7027C25.6541 13.9841 25.1637 14.2654 24.5332 14.5468C25.584 14.7578 26.4247 15.0391 27.2654 15.2502C27.4755 15.2502 28.1761 14.6171 28.3162 14.4764ZM13.5344 18.4154C17.4575 17.29 21.5908 16.9383 25.7942 15.8129C24.1829 15.3908 23.2722 15.1798 21.5208 15.3908C18.9988 15.6722 16.2666 16.2349 13.8847 16.9383C12.974 17.2196 8.07006 18.556 9.47117 20.5255C9.47117 20.5255 10.3118 19.4001 13.5344 18.4154ZM10.8022 25.0271C10.8022 25.3788 11.0124 25.7305 11.5028 26.0822C11.5728 25.8712 11.6429 25.7305 11.783 25.5898C11.4327 25.4491 11.0825 25.2381 10.8022 25.0271ZM12.6237 24.8864C12.9039 24.7458 13.2542 24.5347 13.6745 24.3941C13.1141 24.183 12.5536 23.9017 11.9231 23.6203C11.6429 23.761 11.4327 23.972 11.2226 24.1127C11.713 24.3941 12.2034 24.6051 12.6237 24.8864ZM27.8258 16.5866C27.0552 16.9383 25.8642 17.3603 24.253 17.712C22.9219 18.0637 19.6293 18.4857 16.1265 19.2594C15.0056 19.4704 11.9932 20.1738 10.522 21.4399C10.9423 21.7916 11.1525 21.8619 11.6429 22.0729C12.2734 21.7212 13.1141 21.3695 14.305 21.0179C16.4768 20.4552 18.088 20.1738 19.9796 19.8924C21.8711 19.6111 25.514 18.8374 27.5456 18.134C28.1761 17.923 28.8066 17.5713 29.2269 17.2196C29.1569 17.0789 27.8258 16.5162 27.8258 16.5866ZM28.9467 15.8129C29.367 16.0239 29.7173 16.1646 30.0676 16.3756C30.3478 15.8832 30.1377 15.6018 29.6473 15.1798C29.4371 15.4612 29.2269 15.6722 28.9467 15.8129ZM10.5921 22.917C10.2418 22.706 10.0316 22.5653 9.68134 22.3543C9.54123 22.706 9.82145 23.0576 10.1717 23.2687C10.3118 23.128 10.452 23.0576 10.5921 22.917ZM27.4055 12.085C27.3354 12.3663 27.0552 12.6477 26.845 12.8587C27.4055 12.9994 28.036 13.2104 28.5964 13.4214C28.5264 12.929 27.8959 12.4367 27.4055 12.085ZM8.84067 15.4612C12.974 12.7883 17.5276 11.2409 25.3038 12.507C25.7241 12.296 25.9343 12.0146 26.0744 11.5223C24.1128 10.8189 22.0112 10.6079 19.279 10.6782C16.8971 10.7485 12.4836 11.5926 10.1717 12.9994L10.8723 12.085C12.4836 11.1002 16.757 9.83416 19.9796 9.83416C22.2213 9.76382 23.4123 9.90449 26.0744 10.6079C25.8642 10.1858 25.3038 9.90449 24.4631 9.55281C21.8711 8.4274 17.0372 8.35706 13.044 10.0452C13.5344 9.69348 14.0248 9.41213 14.6553 9.13078C15.9864 8.56808 18.088 7.93504 20.8202 8.00538C22.992 8.07571 25.514 8.77909 27.0552 10.3265C27.3354 10.6079 27.4755 10.9596 27.5456 11.2409C28.8066 11.874 29.5072 12.4367 29.9275 13.14C30.0676 13.4917 30.1377 13.8434 30.0676 14.3358C30.558 14.6171 30.8382 14.8985 31.0484 15.2502C31.2585 15.5315 31.3987 15.8129 31.3987 16.1646C31.4687 16.5162 31.4687 17.0086 31.1184 17.501C31.5388 17.712 31.8891 18.2747 31.9591 18.556C32.1693 19.4704 31.5388 20.3848 30.7682 21.0882C29.8574 21.8619 27.8959 22.7763 26.2145 23.1983C22.992 23.972 20.1197 24.3237 17.8779 24.7458C18.8587 24.9568 20.2598 25.3085 22.5716 25.3085C27.4055 25.3085 31.6789 23.0576 31.6789 23.0576C31.6789 23.0576 31.6088 23.339 31.4687 23.6203C28.3162 25.3085 23.4123 26.0822 21.3807 25.9415C19.279 25.8712 17.4575 25.5195 15.7762 25.0271C15.2158 25.1678 14.7254 25.3085 14.235 25.5898C16.8971 26.7855 18.8587 27.0669 21.1705 27.2076C23.4823 27.3482 27.3354 26.8559 30.558 25.6601C30.4179 25.8008 30.3478 26.0118 30.2077 26.1525C28.5264 26.9966 25.0236 27.9109 23.2722 27.9813C21.5208 28.0516 19.4191 27.9813 17.5276 27.6296C15.9163 27.3482 14.6553 26.8559 13.2542 26.2228C12.974 26.4339 12.9039 26.6449 12.8339 26.9262C18.1581 29.6694 23.1321 29.7397 28.8066 27.9813L28.3162 28.4736C22.0812 31.0058 17.1773 30.0211 13.3943 28.1923C13.2542 28.122 13.1141 28.0516 13.044 27.9813C13.3943 28.6143 16.2666 30.6541 19.4892 30.9355C21.7309 31.1465 24.3931 30.7245 26.0044 30.0914L25.0936 30.5838C24.323 30.9355 22.2213 31.8499 19.3491 31.6388C15.496 31.3575 13.3242 29.6694 12.3435 28.8253C11.9231 28.4033 11.713 27.9109 11.5728 27.3482C10.7322 26.9262 10.1717 26.4339 9.68134 25.7305C9.33106 25.3085 9.40112 24.8864 9.47117 24.4644C9.47117 24.3237 9.54123 24.2534 9.54123 24.1127C9.12089 23.8314 8.70056 23.4797 8.49039 23.1983C8.14011 22.4949 8.35028 21.9322 8.6305 21.5102C8.42034 21.2289 8.21017 21.0179 8.07006 20.7365C8 20.3848 8 20.1035 8 19.7518C8.07006 19.1891 8.35028 18.6264 8.77061 18.2043C9.61128 17.2196 10.9423 16.5162 13.1841 15.7425C15.4259 15.0391 16.2666 14.8985 17.9479 14.5468C19.9095 14.1248 22.2213 13.9841 24.1829 13.2807C18.7886 12.296 13.1141 13.14 8.49039 16.3052L8.84067 15.4612Z"
        fill="white" />
</svg>
