<svg width="40" height="41" viewBox="0 0 40 41" fill="none" xmlns="http://www.w3.org/2000/svg">
<circle cx="20" cy="20.5" r="20" fill="#00BEF0"/>
<path fill-rule="evenodd" clip-rule="evenodd" d="M20 6.5C12.2581 6.5 6 12.758 6 20.5C6 28.2418 12.2581 34.5 20 34.5C27.742 34.5 34 28.2418 34 20.5C34 12.758 27.742 6.5 20 6.5ZM18.0645 26.4353L17.0323 29.4677C13.1613 28.1773 10.5807 24.4998 10.5807 20.3708C10.5807 16.2419 13.1613 12.629 17.0968 11.2741L18.129 14.3064C15.5484 15.1451 13.871 17.5967 13.871 20.3063C13.7419 23.145 15.4839 25.5967 18.0645 26.4353ZM21.871 26.4353L22.8387 29.5322C26.8387 28.3063 29.5483 24.629 29.5483 20.3708C29.5483 16.2419 26.9032 12.5645 22.9677 11.2741L21.9355 14.3709C24.516 15.2096 26.258 17.5967 26.258 20.3708C26.258 23.145 24.516 25.5967 21.871 26.4353Z" fill="white"/>
</svg>
