<svg fill="none" height="40" viewBox="0 0 42 40" width="42" xmlns="http://www.w3.org/2000/svg">
    <path clip-rule="evenodd" d="M27.3 31H32.7V16.4545H39V11H21V16.4545H27.3V31Z" fill="#FBFFFE"
        fill-rule="evenodd" />
    <circle cx="20" cy="20" fill="#F9DE56" r="20" />
    <path
        d="M19.9037 9C18.5437 9 16.8541 9.83991 16.2247 10.4314L16.4722 10.9934C16.4722 10.9934 14.5549 11.0188 13.5667 11.6549C12.5784 12.2903 12.1278 12.7226 11.6411 13.7498C11.1538 13.7732 9.32648 14.5479 8.2683 15.3274C8.2683 15.3274 7.37881 18.6932 9.06346 20.1452L8 21.6047C8.2683 22.5235 9.42651 23.4567 10.5775 23.5679C11.0954 24.1958 10.0909 25.4419 10.0909 25.4419C10.5161 26.791 13.379 28.2738 15.0889 28.2738L14.8535 29.0677C14.8535 29.0677 16.7579 30.4539 19.8316 30.3249C22.4295 30.4093 24.5427 29.7889 25.0789 29.0677L24.807 28.2738C27.1804 27.9204 28.9723 27.1471 29.9699 25.5057C29.9699 25.5057 29.227 23.9453 29.4865 23.5535C30.6372 23.4423 31.7137 22.3094 32 21.8147L30.9558 20.1719C31.7885 19.2373 32.2547 16.7705 31.6423 15.3274C30.5843 14.5479 28.7746 13.9145 28.2878 13.8912C28.0942 12.7507 26.8529 11.8594 26.8529 11.8594C25.6776 10.8376 23.539 10.9934 23.539 10.9934L23.7127 10.4314C23.1682 9.82413 21.4471 9 19.9037 9Z"
        fill="white" />
    <path
        d="M16.7332 12.1909C15.3724 11.8444 14.3466 12.3185 13.4592 12.9711C12.5698 13.6244 12.2188 14.4718 12.2969 14.7751C11.5696 14.4773 9.97295 15.4002 9.21294 15.8428C9.21294 15.8428 8.62477 18.7187 10.1283 19.831C10.0502 20.6126 9.49888 21.5499 9.21294 21.7256C9.70856 22.5065 10.7588 22.7206 11.2036 22.5222C11.947 23.5508 11.5878 24.9452 11.1748 25.3898C12.3303 26.4322 15.0872 26.87 15.8948 26.9352C15.8948 26.9352 15.1839 25.2698 14.8665 23.8981C13.9894 20.1055 14.4615 15.3742 14.4615 15.3742C14.4615 15.3742 12.4126 17.758 13.5547 23.5049C13.7475 24.4758 14.0201 25.501 14.0201 25.501C13.83 25.407 13.3663 25.464 12.5136 25.033C12.8789 24.6398 12.7217 22.3082 11.6456 21.1636C11.6456 21.1636 11.1336 21.3996 10.7577 21.2432C11.0105 21.0881 11.3263 20.0972 11.3263 19.339C10.1094 18.6116 10.2385 17.2976 10.2987 16.6066C10.8959 16.2189 11.9667 15.5601 13.3142 16.1351C13.2788 15.8092 13.371 14.9412 13.7407 14.3332C13.7407 14.3332 14.1908 13.5503 15.2073 13.3046C16.2238 13.0589 16.7332 12.1909 16.7332 12.1909Z"
        fill="#333333" />
    <path
        d="M23.2666 12.1909C24.6273 11.8444 25.653 12.3185 26.5408 12.9711C27.4298 13.6244 27.7813 14.4718 27.7031 14.7751C28.4301 14.4773 30.027 15.4002 30.787 15.8428C30.787 15.8428 31.3754 18.7187 29.8719 19.831C29.9495 20.6126 30.5008 21.5499 30.787 21.7256C30.2914 22.5065 29.2409 22.7206 28.7961 22.5222C28.0532 23.5508 28.4123 24.9452 28.8249 25.3898C27.6694 26.4322 24.9129 26.87 24.1049 26.9352C24.1049 26.9352 24.8161 25.2698 25.1333 23.8981C26.0107 20.1055 25.5384 15.3742 25.5384 15.3742C25.5384 15.3742 27.5871 17.758 26.4453 23.5049C26.2524 24.4758 25.9798 25.501 25.9798 25.501C26.17 25.407 26.6334 25.464 27.4861 25.033C27.1209 24.6398 27.2781 22.3082 28.3546 21.1636C28.3546 21.1636 28.8661 21.3996 29.2423 21.2432C28.9897 21.0881 28.6739 20.0972 28.6739 19.339C29.8904 18.6116 29.7613 17.2976 29.7009 16.6066C29.1043 16.2189 28.0333 15.5601 26.6856 16.1351C26.7213 15.8092 26.6286 14.9412 26.2593 14.3332C26.2593 14.3332 25.8089 13.5503 24.7928 13.3046C23.776 13.0589 23.2666 12.1909 23.2666 12.1909Z"
        fill="#333333" />
    <path clip-rule="evenodd"
        d="M20.1117 14.4084C19.1319 14.4049 17.8385 14.665 17.8385 14.665L17.4492 10.7976L20.065 10.0078L22.5516 10.7976L22.3388 14.665C22.3388 14.665 21.0756 14.4118 20.1117 14.4084ZM20.1117 13.3057C19.5686 13.2912 18.869 13.3894 18.869 13.3894L18.7097 11.5572L20.065 11.1894L21.4106 11.5572V13.3894C21.4106 13.3894 20.6664 13.3201 20.1117 13.3057Z"
        fill="#333333" fill-rule="evenodd" />
    <path clip-rule="evenodd"
        d="M19.9867 29.1047C22.251 29.0779 23.7003 28.4041 23.7003 28.4041L22.8153 25.625C22.8153 25.625 20.9156 26.1753 20.0005 26.176C19.0853 26.1753 17.2158 25.625 17.2158 25.625L16.3008 28.4041C16.3008 28.4041 17.7232 29.0779 19.9867 29.1047ZM20.0005 28.177C21.2891 28.1721 22.0862 27.9073 22.518 27.7323L22.2812 26.7799C21.7477 26.9548 20.8223 27.1483 20.0005 27.1552C19.1787 27.1483 18.247 27.0042 17.7136 26.8286L17.5076 27.7323C17.9401 27.9073 18.7111 28.1721 20.0005 28.177Z"
        fill="#333333" fill-rule="evenodd" />
    <path clip-rule="evenodd"
        d="M24.583 15.8828H15.418C15.489 15.9816 15.7779 16.462 15.8812 16.7392C15.9848 17.0178 16.0611 17.2984 16.0646 17.4714C16.0674 17.6086 16.0841 18.0333 16.1059 18.5892L16.1061 18.5947C16.1493 19.6967 16.2129 21.3168 16.2308 22.274C16.2387 22.696 16.3325 23.256 16.6714 23.7137C17.0166 24.1796 17.5988 24.5179 18.5359 24.5179H19.195C19.2602 24.5179 19.3049 24.535 19.3399 24.5591C19.3783 24.5851 19.4133 24.6249 19.4483 24.6826C19.4834 24.7402 19.5204 24.8212 19.5548 24.898C19.5863 24.968 19.6207 25.0463 19.6625 25.1176C19.6763 25.1361 19.7333 25.2123 19.7861 25.2459C19.8424 25.2823 19.9131 25.3029 20.0003 25.3029C20.0896 25.3029 20.1617 25.2809 20.218 25.2459C20.2715 25.213 20.3258 25.1361 20.3409 25.1176C20.3834 25.0442 20.426 24.9632 20.4569 24.8919C20.4905 24.8143 20.5242 24.7388 20.5585 24.6812C20.5928 24.6236 20.6265 24.5844 20.6635 24.5584C20.6972 24.535 20.7411 24.5179 20.8063 24.5179H21.4654C22.4019 24.5179 22.9848 24.1796 23.3301 23.7137C23.6686 23.256 23.7626 22.696 23.7702 22.274C23.788 21.3168 23.8519 19.6967 23.8951 18.5947V18.5899C23.9171 18.034 23.9336 17.6086 23.9363 17.4714C23.9404 17.2984 24.0166 17.0178 24.1203 16.7392C24.2233 16.462 24.5123 15.9816 24.583 15.8828ZM17.1621 17.1797C17.1512 17.1207 17.1395 17.0638 17.1271 17.0116H22.8996C22.8838 17.0686 22.8722 17.1262 22.8639 17.1804C22.8433 17.3149 22.8392 17.5304 22.8392 17.5304C22.7946 18.6578 22.7046 21.0053 22.7046 22.1732C22.7046 22.6549 22.5488 22.9664 22.3435 23.1558C22.1355 23.3479 21.8609 23.4296 21.6 23.4213C21.565 23.4207 21.4956 23.4193 21.4208 23.4179C21.3219 23.4165 21.2141 23.4145 21.1709 23.4124C20.9079 23.4008 20.6532 23.4124 20.4308 23.4735C20.2701 23.5174 20.1225 23.5888 20.0024 23.6986C19.723 23.4227 19.2712 23.3013 18.8092 23.3218C18.7666 23.3239 18.6478 23.326 18.5373 23.3273C18.4529 23.3287 18.3725 23.3301 18.3368 23.3308C17.8459 23.3465 17.3489 22.9403 17.3489 22.1732C17.3489 20.8975 17.2658 18.7559 17.2232 17.6573C17.2232 17.6573 17.193 17.3437 17.1621 17.1797Z"
        fill="#333333" fill-rule="evenodd" />
    <path
        d="M17.1133 17.0117C17.1256 17.0639 17.1373 17.1208 17.1483 17.1798C17.1792 17.3438 17.2094 17.6574 17.2094 17.6574C17.252 18.756 17.335 20.8976 17.335 22.1733C17.335 22.9404 17.8321 23.3467 18.323 23.3309C18.3587 23.3302 18.439 23.3288 18.5235 23.3275C18.634 23.3261 18.7528 23.324 18.7953 23.322C19.2574 23.3014 19.7091 23.4228 19.9892 23.6987C20.1087 23.5889 20.2563 23.5175 20.4169 23.4736C20.6394 23.4125 20.8941 23.4009 21.157 23.4125C21.2003 23.4146 21.3081 23.4167 21.4076 23.418C21.4818 23.4194 21.5511 23.4208 21.5861 23.4215C21.847 23.4297 22.1216 23.348 22.3297 23.1559C22.535 22.9665 22.6908 22.655 22.6908 22.1733C22.6908 21.0054 22.7807 18.6579 22.826 17.5305C22.826 17.5305 22.8295 17.315 22.8501 17.1805C22.8583 17.1263 22.87 17.0694 22.8858 17.0117H17.1133Z"
        fill="#FFDD2D" />
</svg>
